%TF.GenerationSoftware,KiCad,Pcbnew,(5.1.8)-1*%
%TF.CreationDate,2021-03-17T23:27:18-07:00*%
%TF.ProjectId,coffee-vivaldi-tx,636f6666-6565-42d7-9669-76616c64692d,rev?*%
%TF.SameCoordinates,Original*%
%TF.FileFunction,Copper,L2,Bot*%
%TF.FilePolarity,Positive*%
%FSLAX46Y46*%
G04 Gerber Fmt 4.6, Leading zero omitted, Abs format (unit mm)*
G04 Created by KiCad (PCBNEW (5.1.8)-1) date 2021-03-17 23:27:18*
%MOMM*%
%LPD*%
G01*
G04 APERTURE LIST*
%TA.AperFunction,ComponentPad*%
%ADD10C,1.676400*%
%TD*%
%TA.AperFunction,ComponentPad*%
%ADD11R,1.676400X1.676400*%
%TD*%
%TA.AperFunction,ComponentPad*%
%ADD12C,1.508000*%
%TD*%
%TA.AperFunction,ComponentPad*%
%ADD13R,1.508000X1.508000*%
%TD*%
%TA.AperFunction,ComponentPad*%
%ADD14R,1.600000X2.500000*%
%TD*%
%TA.AperFunction,ComponentPad*%
%ADD15R,2.500000X1.600000*%
%TD*%
%TA.AperFunction,ComponentPad*%
%ADD16O,1.700000X1.700000*%
%TD*%
%TA.AperFunction,ComponentPad*%
%ADD17R,1.700000X1.700000*%
%TD*%
%TA.AperFunction,ComponentPad*%
%ADD18R,1.800000X1.800000*%
%TD*%
%TA.AperFunction,ComponentPad*%
%ADD19C,1.800000*%
%TD*%
%TA.AperFunction,ComponentPad*%
%ADD20R,1.600000X1.600000*%
%TD*%
%TA.AperFunction,ComponentPad*%
%ADD21C,1.600000*%
%TD*%
%TA.AperFunction,ComponentPad*%
%ADD22R,1.200000X1.200000*%
%TD*%
%TA.AperFunction,ComponentPad*%
%ADD23C,1.200000*%
%TD*%
%TA.AperFunction,ViaPad*%
%ADD24C,0.800000*%
%TD*%
%TA.AperFunction,ViaPad*%
%ADD25C,5.000000*%
%TD*%
%TA.AperFunction,Conductor*%
%ADD26C,0.250000*%
%TD*%
%TA.AperFunction,Conductor*%
%ADD27C,0.254000*%
%TD*%
%TA.AperFunction,Conductor*%
%ADD28C,0.100000*%
%TD*%
G04 APERTURE END LIST*
D10*
%TO.P,G1,16*%
%TO.N,Net-(G1-Pad16)*%
X113030000Y-108966000D03*
%TO.P,G1,15*%
%TO.N,Net-(G1-Pad15)*%
X113030000Y-106426000D03*
%TO.P,G1,14*%
%TO.N,Net-(G1-Pad14)*%
X113030000Y-103886000D03*
%TO.P,G1,13*%
%TO.N,Net-(G1-Pad13)*%
X113030000Y-101346000D03*
%TO.P,G1,12*%
%TO.N,GND*%
X113030000Y-98806000D03*
%TO.P,G1,11*%
%TO.N,Net-(G1-Pad11)*%
X113030000Y-96266000D03*
%TO.P,G1,10*%
%TO.N,Net-(C13-Pad1)*%
X113030000Y-93726000D03*
%TO.P,G1,9*%
%TO.N,Net-(G1-Pad9)*%
X113030000Y-91186000D03*
%TO.P,G1,8*%
%TO.N,Net-(G1-Pad8)*%
X120650000Y-91186000D03*
%TO.P,G1,7*%
%TO.N,Net-(G1-Pad7)*%
X120650000Y-93726000D03*
%TO.P,G1,6*%
%TO.N,Net-(C9-Pad1)*%
X120650000Y-96266000D03*
%TO.P,G1,5*%
%TO.N,Net-(C9-Pad2)*%
X120650000Y-98806000D03*
%TO.P,G1,4*%
%TO.N,12V_OUT*%
X120650000Y-101346000D03*
%TO.P,G1,3*%
%TO.N,Net-(G1-Pad3)*%
X120650000Y-103886000D03*
%TO.P,G1,2*%
%TO.N,Net-(C7-Pad2)*%
X120650000Y-106426000D03*
D11*
%TO.P,G1,1*%
%TO.N,GND*%
X120650000Y-108966000D03*
%TD*%
D12*
%TO.P,RV2,3*%
%TO.N,Net-(C5-Pad1)*%
X119340000Y-84836000D03*
%TO.P,RV2,2*%
X116840000Y-84836000D03*
D13*
%TO.P,RV2,1*%
%TO.N,Net-(G1-Pad3)*%
X114340000Y-84836000D03*
%TD*%
%TO.P,RV3,1*%
%TO.N,Net-(R14-Pad2)*%
X125770000Y-84836000D03*
D12*
%TO.P,RV3,2*%
%TO.N,GND*%
X128270000Y-84836000D03*
%TO.P,RV3,3*%
X130770000Y-84836000D03*
%TD*%
D14*
%TO.P,U3,3*%
%TO.N,GND*%
X185783864Y-124443194D03*
X185783864Y-126943194D03*
%TO.P,U3,1*%
X177383864Y-124443194D03*
X177383864Y-126943194D03*
%TD*%
D15*
%TO.P,U4,1*%
%TO.N,GND*%
X210599118Y-111681376D03*
X208099118Y-111681376D03*
%TO.P,U4,3*%
X210599118Y-103281376D03*
X208099118Y-103281376D03*
%TD*%
D16*
%TO.P,BT1,2*%
%TO.N,Net-(BT1-Pad2)*%
X116840000Y-65024000D03*
D17*
%TO.P,BT1,1*%
%TO.N,12V_OUT*%
X114300000Y-65024000D03*
%TD*%
%TO.P,BT2,1*%
%TO.N,Net-(BT1-Pad2)*%
X132080000Y-65024000D03*
D16*
%TO.P,BT2,2*%
%TO.N,GND*%
X134620000Y-65024000D03*
%TD*%
D18*
%TO.P,D1,1*%
%TO.N,Net-(D1-Pad1)*%
X124206000Y-68326000D03*
D19*
%TO.P,D1,2*%
%TO.N,GND*%
X124206000Y-70866000D03*
%TD*%
D20*
%TO.P,C5,1*%
%TO.N,Net-(C5-Pad1)*%
X119380000Y-78486000D03*
D21*
%TO.P,C5,2*%
%TO.N,GND*%
X121880000Y-78486000D03*
%TD*%
%TO.P,C7,2*%
%TO.N,Net-(C7-Pad2)*%
X124627000Y-106299000D03*
D20*
%TO.P,C7,1*%
%TO.N,RAMP_SIGNAL*%
X127127000Y-106299000D03*
%TD*%
%TO.P,C8,1*%
%TO.N,12V_OUT*%
X111506000Y-70866000D03*
D21*
%TO.P,C8,2*%
%TO.N,GND*%
X109006000Y-70866000D03*
%TD*%
D22*
%TO.P,C13,1*%
%TO.N,Net-(C13-Pad1)*%
X107950000Y-93726000D03*
D23*
%TO.P,C13,2*%
%TO.N,GND*%
X107950000Y-95726000D03*
%TD*%
D24*
%TO.N,GND*%
X145288000Y-66294000D03*
X140462000Y-102616000D03*
X142494000Y-101600000D03*
X139446000Y-109474000D03*
X145542000Y-112776000D03*
X149606000Y-112776000D03*
X161671000Y-104013000D03*
X154178000Y-109220000D03*
X160020000Y-109474000D03*
X163703000Y-110617000D03*
X164973000Y-110617000D03*
X165862000Y-109728000D03*
X166878000Y-105664000D03*
X143510000Y-79756000D03*
X139954000Y-75692000D03*
X131318000Y-71628000D03*
X148590000Y-103632000D03*
X129540000Y-75946000D03*
X130810000Y-102384864D03*
D25*
X174360000Y-70866000D03*
D24*
X154940000Y-103886000D03*
X151130000Y-103886000D03*
X142240000Y-107696000D03*
X172160000Y-104726000D03*
X178410000Y-104726000D03*
X184660000Y-104726000D03*
X190910000Y-104726000D03*
X197160000Y-104726000D03*
X203410000Y-104726000D03*
X197160000Y-98476000D03*
X203410000Y-98476000D03*
X190910000Y-98476000D03*
X184660000Y-98476000D03*
X178410000Y-98476000D03*
X172160000Y-98476000D03*
X165910000Y-98476000D03*
X165910000Y-92226000D03*
X172160000Y-92226000D03*
X178410000Y-92226000D03*
X184660000Y-92226000D03*
X190910000Y-92226000D03*
X197160000Y-92226000D03*
X203410000Y-92226000D03*
X209660000Y-92226000D03*
X209660000Y-98476000D03*
X203410000Y-117226000D03*
X209660000Y-117226000D03*
X209660000Y-123476000D03*
X203410000Y-123476000D03*
X197160000Y-117226000D03*
X190910000Y-117226000D03*
X197160000Y-123476000D03*
X190910000Y-123476000D03*
X184660000Y-117226000D03*
X178410000Y-110976000D03*
X178410000Y-117226000D03*
X172160000Y-117226000D03*
X172160000Y-110976000D03*
X165910000Y-117226000D03*
X172160000Y-123476000D03*
X165910000Y-123476000D03*
X153410000Y-92226000D03*
X159660000Y-92226000D03*
X159660000Y-98476000D03*
X140910000Y-92226000D03*
X147160000Y-92226000D03*
X147160000Y-98476000D03*
X159660000Y-117226000D03*
X159660000Y-123476000D03*
X153410000Y-123476000D03*
X153410000Y-117226000D03*
X147160000Y-117226000D03*
X147160000Y-123476000D03*
X140910000Y-123476000D03*
X140910000Y-117226000D03*
X134660000Y-117226000D03*
X134660000Y-123476000D03*
X134660000Y-110976000D03*
X128410000Y-110976000D03*
X128410000Y-117226000D03*
X128410000Y-123476000D03*
X128410000Y-98476000D03*
X128410000Y-92226000D03*
X122160000Y-117226000D03*
X122160000Y-123476000D03*
X115910000Y-123476000D03*
X115910000Y-117226000D03*
X109660000Y-117226000D03*
X109660000Y-123476000D03*
X109660000Y-110976000D03*
X115910000Y-110976000D03*
X122160000Y-110976000D03*
X134660000Y-98476000D03*
X117619921Y-75365172D03*
X156718000Y-102870000D03*
X199898000Y-127762000D03*
X146558000Y-83820000D03*
%TO.N,Net-(C4-Pad2)*%
X147574000Y-102108000D03*
X147066000Y-107696000D03*
%TO.N,12V_OUT*%
X110490000Y-81026000D03*
%TO.N,3.6V_OUT*%
X153670000Y-99060000D03*
X160020000Y-107823000D03*
X163068000Y-102616000D03*
X162052000Y-109855000D03*
%TD*%
D26*
%TO.N,Net-(C4-Pad2)*%
X147574000Y-102108000D02*
X147066000Y-102616000D01*
X147066000Y-102616000D02*
X147066000Y-107696000D01*
%TO.N,12V_OUT*%
X120650000Y-101346000D02*
X115570000Y-96266000D01*
X115570000Y-96266000D02*
X115570000Y-89916000D01*
X115570000Y-89916000D02*
X110490000Y-84836000D01*
X110490000Y-84836000D02*
X110490000Y-81026000D01*
%TO.N,3.6V_OUT*%
X155702000Y-101092000D02*
X153670000Y-99060000D01*
X157156002Y-101092000D02*
X155702000Y-101092000D01*
X160020000Y-103955998D02*
X157156002Y-101092000D01*
X160020000Y-107823000D02*
X160020000Y-103955998D01*
X163068000Y-108839000D02*
X163068000Y-102616000D01*
X162052000Y-109855000D02*
X163068000Y-108839000D01*
%TD*%
D27*
%TO.N,GND*%
X112811928Y-65874000D02*
X112824188Y-65998482D01*
X112860498Y-66118180D01*
X112919463Y-66228494D01*
X112998815Y-66325185D01*
X113095506Y-66404537D01*
X113205820Y-66463502D01*
X113325518Y-66499812D01*
X113450000Y-66512072D01*
X115150000Y-66512072D01*
X115274482Y-66499812D01*
X115394180Y-66463502D01*
X115504494Y-66404537D01*
X115601185Y-66325185D01*
X115680537Y-66228494D01*
X115739502Y-66118180D01*
X115761513Y-66045620D01*
X115893368Y-66177475D01*
X116136589Y-66339990D01*
X116406842Y-66451932D01*
X116693740Y-66509000D01*
X116986260Y-66509000D01*
X117273158Y-66451932D01*
X117543411Y-66339990D01*
X117786632Y-66177475D01*
X117993475Y-65970632D01*
X118155990Y-65727411D01*
X118267932Y-65457158D01*
X118325000Y-65170260D01*
X118325000Y-64877740D01*
X118267932Y-64590842D01*
X118155990Y-64320589D01*
X118066061Y-64186000D01*
X130591928Y-64186000D01*
X130591928Y-65874000D01*
X130604188Y-65998482D01*
X130640498Y-66118180D01*
X130699463Y-66228494D01*
X130778815Y-66325185D01*
X130875506Y-66404537D01*
X130985820Y-66463502D01*
X131105518Y-66499812D01*
X131230000Y-66512072D01*
X132930000Y-66512072D01*
X133054482Y-66499812D01*
X133174180Y-66463502D01*
X133284494Y-66404537D01*
X133381185Y-66325185D01*
X133460537Y-66228494D01*
X133519502Y-66118180D01*
X133543966Y-66037534D01*
X133619731Y-66121588D01*
X133853080Y-66295641D01*
X134115901Y-66420825D01*
X134263110Y-66465476D01*
X134493000Y-66344155D01*
X134493000Y-65151000D01*
X134747000Y-65151000D01*
X134747000Y-66344155D01*
X134976890Y-66465476D01*
X135124099Y-66420825D01*
X135386920Y-66295641D01*
X135620269Y-66121588D01*
X135815178Y-65905355D01*
X135964157Y-65655252D01*
X136061481Y-65380891D01*
X135940814Y-65151000D01*
X134747000Y-65151000D01*
X134493000Y-65151000D01*
X134473000Y-65151000D01*
X134473000Y-64897000D01*
X134493000Y-64897000D01*
X134493000Y-64877000D01*
X134747000Y-64877000D01*
X134747000Y-64897000D01*
X135940814Y-64897000D01*
X136061481Y-64667109D01*
X135964157Y-64392748D01*
X135841003Y-64186000D01*
X212650000Y-64186000D01*
X212650001Y-128576000D01*
X187091166Y-128576000D01*
X187114401Y-128547688D01*
X187173366Y-128437374D01*
X187209676Y-128317676D01*
X187221936Y-128193194D01*
X187218864Y-127228944D01*
X187060114Y-127070194D01*
X185910864Y-127070194D01*
X185910864Y-127090194D01*
X185656864Y-127090194D01*
X185656864Y-127070194D01*
X184507614Y-127070194D01*
X184348864Y-127228944D01*
X184345792Y-128193194D01*
X184358052Y-128317676D01*
X184394362Y-128437374D01*
X184453327Y-128547688D01*
X184476562Y-128576000D01*
X178691166Y-128576000D01*
X178714401Y-128547688D01*
X178773366Y-128437374D01*
X178809676Y-128317676D01*
X178821936Y-128193194D01*
X178818864Y-127228944D01*
X178660114Y-127070194D01*
X177510864Y-127070194D01*
X177510864Y-127090194D01*
X177256864Y-127090194D01*
X177256864Y-127070194D01*
X176107614Y-127070194D01*
X175948864Y-127228944D01*
X175945792Y-128193194D01*
X175958052Y-128317676D01*
X175994362Y-128437374D01*
X176053327Y-128547688D01*
X176076562Y-128576000D01*
X106120000Y-128576000D01*
X106120000Y-125693194D01*
X175945792Y-125693194D01*
X175948864Y-126657444D01*
X176107614Y-126816194D01*
X177256864Y-126816194D01*
X177256864Y-124570194D01*
X177510864Y-124570194D01*
X177510864Y-126816194D01*
X178660114Y-126816194D01*
X178818864Y-126657444D01*
X178821936Y-125693194D01*
X184345792Y-125693194D01*
X184348864Y-126657444D01*
X184507614Y-126816194D01*
X185656864Y-126816194D01*
X185656864Y-124570194D01*
X185910864Y-124570194D01*
X185910864Y-126816194D01*
X187060114Y-126816194D01*
X187218864Y-126657444D01*
X187221936Y-125693194D01*
X187218864Y-124728944D01*
X187060114Y-124570194D01*
X185910864Y-124570194D01*
X185656864Y-124570194D01*
X184507614Y-124570194D01*
X184348864Y-124728944D01*
X184345792Y-125693194D01*
X178821936Y-125693194D01*
X178818864Y-124728944D01*
X178660114Y-124570194D01*
X177510864Y-124570194D01*
X177256864Y-124570194D01*
X176107614Y-124570194D01*
X175948864Y-124728944D01*
X175945792Y-125693194D01*
X106120000Y-125693194D01*
X106120000Y-123193194D01*
X175945792Y-123193194D01*
X175948864Y-124157444D01*
X176107614Y-124316194D01*
X177256864Y-124316194D01*
X177256864Y-122716944D01*
X177510864Y-122716944D01*
X177510864Y-124316194D01*
X178660114Y-124316194D01*
X178818864Y-124157444D01*
X178821936Y-123193194D01*
X184345792Y-123193194D01*
X184348864Y-124157444D01*
X184507614Y-124316194D01*
X185656864Y-124316194D01*
X185656864Y-122716944D01*
X185910864Y-122716944D01*
X185910864Y-124316194D01*
X187060114Y-124316194D01*
X187218864Y-124157444D01*
X187221936Y-123193194D01*
X187209676Y-123068712D01*
X187173366Y-122949014D01*
X187114401Y-122838700D01*
X187035049Y-122742009D01*
X186938358Y-122662657D01*
X186828044Y-122603692D01*
X186708346Y-122567382D01*
X186583864Y-122555122D01*
X186069614Y-122558194D01*
X185910864Y-122716944D01*
X185656864Y-122716944D01*
X185498114Y-122558194D01*
X184983864Y-122555122D01*
X184859382Y-122567382D01*
X184739684Y-122603692D01*
X184629370Y-122662657D01*
X184532679Y-122742009D01*
X184453327Y-122838700D01*
X184394362Y-122949014D01*
X184358052Y-123068712D01*
X184345792Y-123193194D01*
X178821936Y-123193194D01*
X178809676Y-123068712D01*
X178773366Y-122949014D01*
X178714401Y-122838700D01*
X178635049Y-122742009D01*
X178538358Y-122662657D01*
X178428044Y-122603692D01*
X178308346Y-122567382D01*
X178183864Y-122555122D01*
X177669614Y-122558194D01*
X177510864Y-122716944D01*
X177256864Y-122716944D01*
X177098114Y-122558194D01*
X176583864Y-122555122D01*
X176459382Y-122567382D01*
X176339684Y-122603692D01*
X176229370Y-122662657D01*
X176132679Y-122742009D01*
X176053327Y-122838700D01*
X175994362Y-122949014D01*
X175958052Y-123068712D01*
X175945792Y-123193194D01*
X106120000Y-123193194D01*
X106120000Y-112481376D01*
X206211046Y-112481376D01*
X206223306Y-112605858D01*
X206259616Y-112725556D01*
X206318581Y-112835870D01*
X206397933Y-112932561D01*
X206494624Y-113011913D01*
X206604938Y-113070878D01*
X206724636Y-113107188D01*
X206849118Y-113119448D01*
X207813368Y-113116376D01*
X207972118Y-112957626D01*
X207972118Y-111808376D01*
X208226118Y-111808376D01*
X208226118Y-112957626D01*
X208384868Y-113116376D01*
X209349118Y-113119448D01*
X210313368Y-113116376D01*
X210472118Y-112957626D01*
X210472118Y-111808376D01*
X210726118Y-111808376D01*
X210726118Y-112957626D01*
X210884868Y-113116376D01*
X211849118Y-113119448D01*
X211973600Y-113107188D01*
X212093298Y-113070878D01*
X212203612Y-113011913D01*
X212300303Y-112932561D01*
X212379655Y-112835870D01*
X212438620Y-112725556D01*
X212474930Y-112605858D01*
X212487190Y-112481376D01*
X212484118Y-111967126D01*
X212325368Y-111808376D01*
X210726118Y-111808376D01*
X210472118Y-111808376D01*
X208226118Y-111808376D01*
X207972118Y-111808376D01*
X206372868Y-111808376D01*
X206214118Y-111967126D01*
X206211046Y-112481376D01*
X106120000Y-112481376D01*
X106120000Y-101200902D01*
X111556800Y-101200902D01*
X111556800Y-101491098D01*
X111613414Y-101775717D01*
X111724467Y-102043822D01*
X111885691Y-102285110D01*
X112090890Y-102490309D01*
X112278999Y-102616000D01*
X112090890Y-102741691D01*
X111885691Y-102946890D01*
X111724467Y-103188178D01*
X111613414Y-103456283D01*
X111556800Y-103740902D01*
X111556800Y-104031098D01*
X111613414Y-104315717D01*
X111724467Y-104583822D01*
X111885691Y-104825110D01*
X112090890Y-105030309D01*
X112278999Y-105156000D01*
X112090890Y-105281691D01*
X111885691Y-105486890D01*
X111724467Y-105728178D01*
X111613414Y-105996283D01*
X111556800Y-106280902D01*
X111556800Y-106571098D01*
X111613414Y-106855717D01*
X111724467Y-107123822D01*
X111885691Y-107365110D01*
X112090890Y-107570309D01*
X112278999Y-107696000D01*
X112090890Y-107821691D01*
X111885691Y-108026890D01*
X111724467Y-108268178D01*
X111613414Y-108536283D01*
X111556800Y-108820902D01*
X111556800Y-109111098D01*
X111613414Y-109395717D01*
X111724467Y-109663822D01*
X111885691Y-109905110D01*
X112090890Y-110110309D01*
X112332178Y-110271533D01*
X112600283Y-110382586D01*
X112884902Y-110439200D01*
X113175098Y-110439200D01*
X113459717Y-110382586D01*
X113727822Y-110271533D01*
X113969110Y-110110309D01*
X114174309Y-109905110D01*
X114241735Y-109804200D01*
X119173728Y-109804200D01*
X119185988Y-109928682D01*
X119222298Y-110048380D01*
X119281263Y-110158694D01*
X119360615Y-110255385D01*
X119457306Y-110334737D01*
X119567620Y-110393702D01*
X119687318Y-110430012D01*
X119811800Y-110442272D01*
X120364250Y-110439200D01*
X120523000Y-110280450D01*
X120523000Y-109093000D01*
X120777000Y-109093000D01*
X120777000Y-110280450D01*
X120935750Y-110439200D01*
X121488200Y-110442272D01*
X121612682Y-110430012D01*
X121732380Y-110393702D01*
X121842694Y-110334737D01*
X121939385Y-110255385D01*
X122018737Y-110158694D01*
X122077702Y-110048380D01*
X122114012Y-109928682D01*
X122126272Y-109804200D01*
X122125988Y-109753061D01*
X161017000Y-109753061D01*
X161017000Y-109956939D01*
X161056774Y-110156898D01*
X161134795Y-110345256D01*
X161248063Y-110514774D01*
X161392226Y-110658937D01*
X161561744Y-110772205D01*
X161750102Y-110850226D01*
X161950061Y-110890000D01*
X162153939Y-110890000D01*
X162197295Y-110881376D01*
X206211046Y-110881376D01*
X206214118Y-111395626D01*
X206372868Y-111554376D01*
X207972118Y-111554376D01*
X207972118Y-110405126D01*
X208226118Y-110405126D01*
X208226118Y-111554376D01*
X210472118Y-111554376D01*
X210472118Y-110405126D01*
X210726118Y-110405126D01*
X210726118Y-111554376D01*
X212325368Y-111554376D01*
X212484118Y-111395626D01*
X212487190Y-110881376D01*
X212474930Y-110756894D01*
X212438620Y-110637196D01*
X212379655Y-110526882D01*
X212300303Y-110430191D01*
X212203612Y-110350839D01*
X212093298Y-110291874D01*
X211973600Y-110255564D01*
X211849118Y-110243304D01*
X210884868Y-110246376D01*
X210726118Y-110405126D01*
X210472118Y-110405126D01*
X210313368Y-110246376D01*
X209349118Y-110243304D01*
X208384868Y-110246376D01*
X208226118Y-110405126D01*
X207972118Y-110405126D01*
X207813368Y-110246376D01*
X206849118Y-110243304D01*
X206724636Y-110255564D01*
X206604938Y-110291874D01*
X206494624Y-110350839D01*
X206397933Y-110430191D01*
X206318581Y-110526882D01*
X206259616Y-110637196D01*
X206223306Y-110756894D01*
X206211046Y-110881376D01*
X162197295Y-110881376D01*
X162353898Y-110850226D01*
X162542256Y-110772205D01*
X162711774Y-110658937D01*
X162855937Y-110514774D01*
X162969205Y-110345256D01*
X163047226Y-110156898D01*
X163087000Y-109956939D01*
X163087000Y-109894801D01*
X163579004Y-109402798D01*
X163608001Y-109379001D01*
X163636727Y-109343998D01*
X163702974Y-109263277D01*
X163773546Y-109131247D01*
X163797869Y-109051063D01*
X163817003Y-108987986D01*
X163828000Y-108876333D01*
X163828000Y-108876323D01*
X163831676Y-108839000D01*
X163828000Y-108801678D01*
X163828000Y-104081376D01*
X206211046Y-104081376D01*
X206223306Y-104205858D01*
X206259616Y-104325556D01*
X206318581Y-104435870D01*
X206397933Y-104532561D01*
X206494624Y-104611913D01*
X206604938Y-104670878D01*
X206724636Y-104707188D01*
X206849118Y-104719448D01*
X207813368Y-104716376D01*
X207972118Y-104557626D01*
X207972118Y-103408376D01*
X208226118Y-103408376D01*
X208226118Y-104557626D01*
X208384868Y-104716376D01*
X209349118Y-104719448D01*
X210313368Y-104716376D01*
X210472118Y-104557626D01*
X210472118Y-103408376D01*
X210726118Y-103408376D01*
X210726118Y-104557626D01*
X210884868Y-104716376D01*
X211849118Y-104719448D01*
X211973600Y-104707188D01*
X212093298Y-104670878D01*
X212203612Y-104611913D01*
X212300303Y-104532561D01*
X212379655Y-104435870D01*
X212438620Y-104325556D01*
X212474930Y-104205858D01*
X212487190Y-104081376D01*
X212484118Y-103567126D01*
X212325368Y-103408376D01*
X210726118Y-103408376D01*
X210472118Y-103408376D01*
X208226118Y-103408376D01*
X207972118Y-103408376D01*
X206372868Y-103408376D01*
X206214118Y-103567126D01*
X206211046Y-104081376D01*
X163828000Y-104081376D01*
X163828000Y-103319711D01*
X163871937Y-103275774D01*
X163985205Y-103106256D01*
X164063226Y-102917898D01*
X164103000Y-102717939D01*
X164103000Y-102514061D01*
X164096499Y-102481376D01*
X206211046Y-102481376D01*
X206214118Y-102995626D01*
X206372868Y-103154376D01*
X207972118Y-103154376D01*
X207972118Y-102005126D01*
X208226118Y-102005126D01*
X208226118Y-103154376D01*
X210472118Y-103154376D01*
X210472118Y-102005126D01*
X210726118Y-102005126D01*
X210726118Y-103154376D01*
X212325368Y-103154376D01*
X212484118Y-102995626D01*
X212487190Y-102481376D01*
X212474930Y-102356894D01*
X212438620Y-102237196D01*
X212379655Y-102126882D01*
X212300303Y-102030191D01*
X212203612Y-101950839D01*
X212093298Y-101891874D01*
X211973600Y-101855564D01*
X211849118Y-101843304D01*
X210884868Y-101846376D01*
X210726118Y-102005126D01*
X210472118Y-102005126D01*
X210313368Y-101846376D01*
X209349118Y-101843304D01*
X208384868Y-101846376D01*
X208226118Y-102005126D01*
X207972118Y-102005126D01*
X207813368Y-101846376D01*
X206849118Y-101843304D01*
X206724636Y-101855564D01*
X206604938Y-101891874D01*
X206494624Y-101950839D01*
X206397933Y-102030191D01*
X206318581Y-102126882D01*
X206259616Y-102237196D01*
X206223306Y-102356894D01*
X206211046Y-102481376D01*
X164096499Y-102481376D01*
X164063226Y-102314102D01*
X163985205Y-102125744D01*
X163871937Y-101956226D01*
X163727774Y-101812063D01*
X163558256Y-101698795D01*
X163369898Y-101620774D01*
X163169939Y-101581000D01*
X162966061Y-101581000D01*
X162766102Y-101620774D01*
X162577744Y-101698795D01*
X162408226Y-101812063D01*
X162264063Y-101956226D01*
X162150795Y-102125744D01*
X162072774Y-102314102D01*
X162033000Y-102514061D01*
X162033000Y-102717939D01*
X162072774Y-102917898D01*
X162150795Y-103106256D01*
X162264063Y-103275774D01*
X162308001Y-103319712D01*
X162308000Y-108524198D01*
X162012199Y-108820000D01*
X161950061Y-108820000D01*
X161750102Y-108859774D01*
X161561744Y-108937795D01*
X161392226Y-109051063D01*
X161248063Y-109195226D01*
X161134795Y-109364744D01*
X161056774Y-109553102D01*
X161017000Y-109753061D01*
X122125988Y-109753061D01*
X122123200Y-109251750D01*
X121964450Y-109093000D01*
X120777000Y-109093000D01*
X120523000Y-109093000D01*
X119335550Y-109093000D01*
X119176800Y-109251750D01*
X119173728Y-109804200D01*
X114241735Y-109804200D01*
X114335533Y-109663822D01*
X114446586Y-109395717D01*
X114503200Y-109111098D01*
X114503200Y-108820902D01*
X114446586Y-108536283D01*
X114335533Y-108268178D01*
X114174309Y-108026890D01*
X113969110Y-107821691D01*
X113781001Y-107696000D01*
X113969110Y-107570309D01*
X114174309Y-107365110D01*
X114335533Y-107123822D01*
X114446586Y-106855717D01*
X114503200Y-106571098D01*
X114503200Y-106280902D01*
X114446586Y-105996283D01*
X114335533Y-105728178D01*
X114174309Y-105486890D01*
X113969110Y-105281691D01*
X113781001Y-105156000D01*
X113969110Y-105030309D01*
X114174309Y-104825110D01*
X114335533Y-104583822D01*
X114446586Y-104315717D01*
X114503200Y-104031098D01*
X114503200Y-103740902D01*
X114446586Y-103456283D01*
X114335533Y-103188178D01*
X114174309Y-102946890D01*
X113969110Y-102741691D01*
X113781001Y-102616000D01*
X113969110Y-102490309D01*
X114174309Y-102285110D01*
X114335533Y-102043822D01*
X114446586Y-101775717D01*
X114503200Y-101491098D01*
X114503200Y-101200902D01*
X114446586Y-100916283D01*
X114335533Y-100648178D01*
X114174309Y-100406890D01*
X113969110Y-100201691D01*
X113785057Y-100078711D01*
X113794162Y-100073844D01*
X113870370Y-99825975D01*
X113030000Y-98985605D01*
X112189630Y-99825975D01*
X112265838Y-100073844D01*
X112275408Y-100078399D01*
X112090890Y-100201691D01*
X111885691Y-100406890D01*
X111724467Y-100648178D01*
X111613414Y-100916283D01*
X111556800Y-101200902D01*
X106120000Y-101200902D01*
X106120000Y-98874999D01*
X111551281Y-98874999D01*
X111593155Y-99162157D01*
X111690246Y-99435628D01*
X111762156Y-99570162D01*
X112010025Y-99646370D01*
X112850395Y-98806000D01*
X113209605Y-98806000D01*
X114049975Y-99646370D01*
X114297844Y-99570162D01*
X114422563Y-99308135D01*
X114493768Y-99026811D01*
X114508719Y-98737001D01*
X114466845Y-98449843D01*
X114369754Y-98176372D01*
X114297844Y-98041838D01*
X114049975Y-97965630D01*
X113209605Y-98806000D01*
X112850395Y-98806000D01*
X112010025Y-97965630D01*
X111762156Y-98041838D01*
X111637437Y-98303865D01*
X111566232Y-98585189D01*
X111551281Y-98874999D01*
X106120000Y-98874999D01*
X106120000Y-96575764D01*
X107279841Y-96575764D01*
X107327148Y-96799348D01*
X107548516Y-96900237D01*
X107785313Y-96956000D01*
X108028438Y-96964495D01*
X108268549Y-96925395D01*
X108496418Y-96840202D01*
X108572852Y-96799348D01*
X108620159Y-96575764D01*
X107950000Y-95905605D01*
X107279841Y-96575764D01*
X106120000Y-96575764D01*
X106120000Y-95804438D01*
X106711505Y-95804438D01*
X106750605Y-96044549D01*
X106835798Y-96272418D01*
X106876652Y-96348852D01*
X107100236Y-96396159D01*
X107770395Y-95726000D01*
X107756253Y-95711858D01*
X107935858Y-95532253D01*
X107950000Y-95546395D01*
X107964143Y-95532253D01*
X108143748Y-95711858D01*
X108129605Y-95726000D01*
X108799764Y-96396159D01*
X109023348Y-96348852D01*
X109124237Y-96127484D01*
X109180000Y-95890687D01*
X109188495Y-95647562D01*
X109149395Y-95407451D01*
X109064202Y-95179582D01*
X109023348Y-95103148D01*
X108799766Y-95055842D01*
X108916872Y-94938736D01*
X108858994Y-94880858D01*
X108904494Y-94856537D01*
X109001185Y-94777185D01*
X109080537Y-94680494D01*
X109139502Y-94570180D01*
X109175812Y-94450482D01*
X109188072Y-94326000D01*
X109188072Y-93126000D01*
X109175812Y-93001518D01*
X109139502Y-92881820D01*
X109080537Y-92771506D01*
X109001185Y-92674815D01*
X108904494Y-92595463D01*
X108794180Y-92536498D01*
X108674482Y-92500188D01*
X108550000Y-92487928D01*
X107350000Y-92487928D01*
X107225518Y-92500188D01*
X107105820Y-92536498D01*
X106995506Y-92595463D01*
X106898815Y-92674815D01*
X106819463Y-92771506D01*
X106760498Y-92881820D01*
X106724188Y-93001518D01*
X106711928Y-93126000D01*
X106711928Y-94326000D01*
X106724188Y-94450482D01*
X106760498Y-94570180D01*
X106819463Y-94680494D01*
X106898815Y-94777185D01*
X106995506Y-94856537D01*
X107041006Y-94880858D01*
X106983128Y-94938736D01*
X107100234Y-95055842D01*
X106876652Y-95103148D01*
X106775763Y-95324516D01*
X106720000Y-95561313D01*
X106711505Y-95804438D01*
X106120000Y-95804438D01*
X106120000Y-91040902D01*
X111556800Y-91040902D01*
X111556800Y-91331098D01*
X111613414Y-91615717D01*
X111724467Y-91883822D01*
X111885691Y-92125110D01*
X112090890Y-92330309D01*
X112278999Y-92456000D01*
X112090890Y-92581691D01*
X111885691Y-92786890D01*
X111724467Y-93028178D01*
X111613414Y-93296283D01*
X111556800Y-93580902D01*
X111556800Y-93871098D01*
X111613414Y-94155717D01*
X111724467Y-94423822D01*
X111885691Y-94665110D01*
X112090890Y-94870309D01*
X112278999Y-94996000D01*
X112090890Y-95121691D01*
X111885691Y-95326890D01*
X111724467Y-95568178D01*
X111613414Y-95836283D01*
X111556800Y-96120902D01*
X111556800Y-96411098D01*
X111613414Y-96695717D01*
X111724467Y-96963822D01*
X111885691Y-97205110D01*
X112090890Y-97410309D01*
X112274943Y-97533289D01*
X112265838Y-97538156D01*
X112189630Y-97786025D01*
X113030000Y-98626395D01*
X113870370Y-97786025D01*
X113794162Y-97538156D01*
X113784592Y-97533601D01*
X113969110Y-97410309D01*
X114174309Y-97205110D01*
X114335533Y-96963822D01*
X114446586Y-96695717D01*
X114503200Y-96411098D01*
X114503200Y-96120902D01*
X114446586Y-95836283D01*
X114335533Y-95568178D01*
X114174309Y-95326890D01*
X113969110Y-95121691D01*
X113781001Y-94996000D01*
X113969110Y-94870309D01*
X114174309Y-94665110D01*
X114335533Y-94423822D01*
X114446586Y-94155717D01*
X114503200Y-93871098D01*
X114503200Y-93580902D01*
X114446586Y-93296283D01*
X114335533Y-93028178D01*
X114174309Y-92786890D01*
X113969110Y-92581691D01*
X113781001Y-92456000D01*
X113969110Y-92330309D01*
X114174309Y-92125110D01*
X114335533Y-91883822D01*
X114446586Y-91615717D01*
X114503200Y-91331098D01*
X114503200Y-91040902D01*
X114446586Y-90756283D01*
X114335533Y-90488178D01*
X114174309Y-90246890D01*
X113969110Y-90041691D01*
X113727822Y-89880467D01*
X113459717Y-89769414D01*
X113175098Y-89712800D01*
X112884902Y-89712800D01*
X112600283Y-89769414D01*
X112332178Y-89880467D01*
X112090890Y-90041691D01*
X111885691Y-90246890D01*
X111724467Y-90488178D01*
X111613414Y-90756283D01*
X111556800Y-91040902D01*
X106120000Y-91040902D01*
X106120000Y-80924061D01*
X109455000Y-80924061D01*
X109455000Y-81127939D01*
X109494774Y-81327898D01*
X109572795Y-81516256D01*
X109686063Y-81685774D01*
X109730001Y-81729712D01*
X109730000Y-84798677D01*
X109726324Y-84836000D01*
X109730000Y-84873322D01*
X109730000Y-84873332D01*
X109740997Y-84984985D01*
X109756770Y-85036982D01*
X109784454Y-85128246D01*
X109855026Y-85260276D01*
X109894871Y-85308826D01*
X109949999Y-85376001D01*
X109979003Y-85399804D01*
X114810001Y-90230803D01*
X114810000Y-96228677D01*
X114806324Y-96266000D01*
X114810000Y-96303322D01*
X114810000Y-96303332D01*
X114820997Y-96414985D01*
X114864454Y-96558246D01*
X114935026Y-96690276D01*
X114974871Y-96738826D01*
X115029999Y-96806001D01*
X115059003Y-96829804D01*
X119218825Y-100989627D01*
X119176800Y-101200902D01*
X119176800Y-101491098D01*
X119233414Y-101775717D01*
X119344467Y-102043822D01*
X119505691Y-102285110D01*
X119710890Y-102490309D01*
X119898999Y-102616000D01*
X119710890Y-102741691D01*
X119505691Y-102946890D01*
X119344467Y-103188178D01*
X119233414Y-103456283D01*
X119176800Y-103740902D01*
X119176800Y-104031098D01*
X119233414Y-104315717D01*
X119344467Y-104583822D01*
X119505691Y-104825110D01*
X119710890Y-105030309D01*
X119898999Y-105156000D01*
X119710890Y-105281691D01*
X119505691Y-105486890D01*
X119344467Y-105728178D01*
X119233414Y-105996283D01*
X119176800Y-106280902D01*
X119176800Y-106571098D01*
X119233414Y-106855717D01*
X119344467Y-107123822D01*
X119505691Y-107365110D01*
X119652984Y-107512403D01*
X119567620Y-107538298D01*
X119457306Y-107597263D01*
X119360615Y-107676615D01*
X119281263Y-107773306D01*
X119222298Y-107883620D01*
X119185988Y-108003318D01*
X119173728Y-108127800D01*
X119176800Y-108680250D01*
X119335550Y-108839000D01*
X120523000Y-108839000D01*
X120523000Y-108819000D01*
X120777000Y-108819000D01*
X120777000Y-108839000D01*
X121964450Y-108839000D01*
X122123200Y-108680250D01*
X122126272Y-108127800D01*
X122114012Y-108003318D01*
X122077702Y-107883620D01*
X122018737Y-107773306D01*
X121939385Y-107676615D01*
X121842694Y-107597263D01*
X121732380Y-107538298D01*
X121647016Y-107512403D01*
X121794309Y-107365110D01*
X121955533Y-107123822D01*
X122066586Y-106855717D01*
X122123200Y-106571098D01*
X122123200Y-106280902D01*
X122098687Y-106157665D01*
X123192000Y-106157665D01*
X123192000Y-106440335D01*
X123247147Y-106717574D01*
X123355320Y-106978727D01*
X123512363Y-107213759D01*
X123712241Y-107413637D01*
X123947273Y-107570680D01*
X124208426Y-107678853D01*
X124485665Y-107734000D01*
X124768335Y-107734000D01*
X125045574Y-107678853D01*
X125306727Y-107570680D01*
X125541759Y-107413637D01*
X125708339Y-107247057D01*
X125737498Y-107343180D01*
X125796463Y-107453494D01*
X125875815Y-107550185D01*
X125972506Y-107629537D01*
X126082820Y-107688502D01*
X126202518Y-107724812D01*
X126327000Y-107737072D01*
X127927000Y-107737072D01*
X128051482Y-107724812D01*
X128171180Y-107688502D01*
X128281494Y-107629537D01*
X128324721Y-107594061D01*
X146031000Y-107594061D01*
X146031000Y-107797939D01*
X146070774Y-107997898D01*
X146148795Y-108186256D01*
X146262063Y-108355774D01*
X146406226Y-108499937D01*
X146575744Y-108613205D01*
X146764102Y-108691226D01*
X146964061Y-108731000D01*
X147167939Y-108731000D01*
X147367898Y-108691226D01*
X147556256Y-108613205D01*
X147725774Y-108499937D01*
X147869937Y-108355774D01*
X147983205Y-108186256D01*
X148061226Y-107997898D01*
X148101000Y-107797939D01*
X148101000Y-107594061D01*
X148061226Y-107394102D01*
X147983205Y-107205744D01*
X147869937Y-107036226D01*
X147826000Y-106992289D01*
X147826000Y-103113151D01*
X147875898Y-103103226D01*
X148064256Y-103025205D01*
X148233774Y-102911937D01*
X148377937Y-102767774D01*
X148491205Y-102598256D01*
X148569226Y-102409898D01*
X148609000Y-102209939D01*
X148609000Y-102006061D01*
X148569226Y-101806102D01*
X148491205Y-101617744D01*
X148377937Y-101448226D01*
X148233774Y-101304063D01*
X148064256Y-101190795D01*
X147875898Y-101112774D01*
X147675939Y-101073000D01*
X147472061Y-101073000D01*
X147272102Y-101112774D01*
X147083744Y-101190795D01*
X146914226Y-101304063D01*
X146770063Y-101448226D01*
X146656795Y-101617744D01*
X146578774Y-101806102D01*
X146539000Y-102006061D01*
X146539000Y-102065329D01*
X146525999Y-102075999D01*
X146485175Y-102125744D01*
X146431026Y-102191724D01*
X146421290Y-102209939D01*
X146360454Y-102323754D01*
X146316997Y-102467015D01*
X146306000Y-102578668D01*
X146306000Y-102578678D01*
X146302324Y-102616000D01*
X146306000Y-102653323D01*
X146306001Y-106992288D01*
X146262063Y-107036226D01*
X146148795Y-107205744D01*
X146070774Y-107394102D01*
X146031000Y-107594061D01*
X128324721Y-107594061D01*
X128378185Y-107550185D01*
X128457537Y-107453494D01*
X128516502Y-107343180D01*
X128552812Y-107223482D01*
X128565072Y-107099000D01*
X128565072Y-105499000D01*
X128552812Y-105374518D01*
X128516502Y-105254820D01*
X128457537Y-105144506D01*
X128378185Y-105047815D01*
X128281494Y-104968463D01*
X128171180Y-104909498D01*
X128051482Y-104873188D01*
X127927000Y-104860928D01*
X126327000Y-104860928D01*
X126202518Y-104873188D01*
X126082820Y-104909498D01*
X125972506Y-104968463D01*
X125875815Y-105047815D01*
X125796463Y-105144506D01*
X125737498Y-105254820D01*
X125708339Y-105350943D01*
X125541759Y-105184363D01*
X125306727Y-105027320D01*
X125045574Y-104919147D01*
X124768335Y-104864000D01*
X124485665Y-104864000D01*
X124208426Y-104919147D01*
X123947273Y-105027320D01*
X123712241Y-105184363D01*
X123512363Y-105384241D01*
X123355320Y-105619273D01*
X123247147Y-105880426D01*
X123192000Y-106157665D01*
X122098687Y-106157665D01*
X122066586Y-105996283D01*
X121955533Y-105728178D01*
X121794309Y-105486890D01*
X121589110Y-105281691D01*
X121401001Y-105156000D01*
X121589110Y-105030309D01*
X121794309Y-104825110D01*
X121955533Y-104583822D01*
X122066586Y-104315717D01*
X122123200Y-104031098D01*
X122123200Y-103740902D01*
X122066586Y-103456283D01*
X121955533Y-103188178D01*
X121794309Y-102946890D01*
X121589110Y-102741691D01*
X121401001Y-102616000D01*
X121589110Y-102490309D01*
X121794309Y-102285110D01*
X121955533Y-102043822D01*
X122066586Y-101775717D01*
X122123200Y-101491098D01*
X122123200Y-101200902D01*
X122066586Y-100916283D01*
X121955533Y-100648178D01*
X121794309Y-100406890D01*
X121589110Y-100201691D01*
X121401001Y-100076000D01*
X121589110Y-99950309D01*
X121794309Y-99745110D01*
X121955533Y-99503822D01*
X122066586Y-99235717D01*
X122121814Y-98958061D01*
X152635000Y-98958061D01*
X152635000Y-99161939D01*
X152674774Y-99361898D01*
X152752795Y-99550256D01*
X152866063Y-99719774D01*
X153010226Y-99863937D01*
X153179744Y-99977205D01*
X153368102Y-100055226D01*
X153568061Y-100095000D01*
X153630199Y-100095000D01*
X155138200Y-101603002D01*
X155161999Y-101632001D01*
X155190997Y-101655799D01*
X155277723Y-101726974D01*
X155358735Y-101770276D01*
X155409753Y-101797546D01*
X155553014Y-101841003D01*
X155664667Y-101852000D01*
X155664677Y-101852000D01*
X155702000Y-101855676D01*
X155739323Y-101852000D01*
X156841201Y-101852000D01*
X159260001Y-104270801D01*
X159260000Y-107119289D01*
X159216063Y-107163226D01*
X159102795Y-107332744D01*
X159024774Y-107521102D01*
X158985000Y-107721061D01*
X158985000Y-107924939D01*
X159024774Y-108124898D01*
X159102795Y-108313256D01*
X159216063Y-108482774D01*
X159360226Y-108626937D01*
X159529744Y-108740205D01*
X159718102Y-108818226D01*
X159918061Y-108858000D01*
X160121939Y-108858000D01*
X160321898Y-108818226D01*
X160510256Y-108740205D01*
X160679774Y-108626937D01*
X160823937Y-108482774D01*
X160937205Y-108313256D01*
X161015226Y-108124898D01*
X161055000Y-107924939D01*
X161055000Y-107721061D01*
X161015226Y-107521102D01*
X160937205Y-107332744D01*
X160823937Y-107163226D01*
X160780000Y-107119289D01*
X160780000Y-103993321D01*
X160783676Y-103955998D01*
X160780000Y-103918675D01*
X160780000Y-103918665D01*
X160769003Y-103807012D01*
X160725546Y-103663751D01*
X160654974Y-103531722D01*
X160560001Y-103415997D01*
X160531003Y-103392199D01*
X157719806Y-100581003D01*
X157696003Y-100551999D01*
X157580278Y-100457026D01*
X157448249Y-100386454D01*
X157304988Y-100342997D01*
X157193335Y-100332000D01*
X157193324Y-100332000D01*
X157156002Y-100328324D01*
X157118680Y-100332000D01*
X156016802Y-100332000D01*
X154705000Y-99020199D01*
X154705000Y-98958061D01*
X154665226Y-98758102D01*
X154587205Y-98569744D01*
X154473937Y-98400226D01*
X154329774Y-98256063D01*
X154160256Y-98142795D01*
X153971898Y-98064774D01*
X153771939Y-98025000D01*
X153568061Y-98025000D01*
X153368102Y-98064774D01*
X153179744Y-98142795D01*
X153010226Y-98256063D01*
X152866063Y-98400226D01*
X152752795Y-98569744D01*
X152674774Y-98758102D01*
X152635000Y-98958061D01*
X122121814Y-98958061D01*
X122123200Y-98951098D01*
X122123200Y-98660902D01*
X122066586Y-98376283D01*
X121955533Y-98108178D01*
X121794309Y-97866890D01*
X121589110Y-97661691D01*
X121401001Y-97536000D01*
X121589110Y-97410309D01*
X121794309Y-97205110D01*
X121955533Y-96963822D01*
X122066586Y-96695717D01*
X122123200Y-96411098D01*
X122123200Y-96120902D01*
X122066586Y-95836283D01*
X121955533Y-95568178D01*
X121794309Y-95326890D01*
X121589110Y-95121691D01*
X121401001Y-94996000D01*
X121589110Y-94870309D01*
X121794309Y-94665110D01*
X121955533Y-94423822D01*
X122066586Y-94155717D01*
X122123200Y-93871098D01*
X122123200Y-93580902D01*
X122066586Y-93296283D01*
X121955533Y-93028178D01*
X121794309Y-92786890D01*
X121589110Y-92581691D01*
X121401001Y-92456000D01*
X121589110Y-92330309D01*
X121794309Y-92125110D01*
X121955533Y-91883822D01*
X122066586Y-91615717D01*
X122123200Y-91331098D01*
X122123200Y-91040902D01*
X122066586Y-90756283D01*
X121955533Y-90488178D01*
X121794309Y-90246890D01*
X121589110Y-90041691D01*
X121347822Y-89880467D01*
X121079717Y-89769414D01*
X120795098Y-89712800D01*
X120504902Y-89712800D01*
X120220283Y-89769414D01*
X119952178Y-89880467D01*
X119710890Y-90041691D01*
X119505691Y-90246890D01*
X119344467Y-90488178D01*
X119233414Y-90756283D01*
X119176800Y-91040902D01*
X119176800Y-91331098D01*
X119233414Y-91615717D01*
X119344467Y-91883822D01*
X119505691Y-92125110D01*
X119710890Y-92330309D01*
X119898999Y-92456000D01*
X119710890Y-92581691D01*
X119505691Y-92786890D01*
X119344467Y-93028178D01*
X119233414Y-93296283D01*
X119176800Y-93580902D01*
X119176800Y-93871098D01*
X119233414Y-94155717D01*
X119344467Y-94423822D01*
X119505691Y-94665110D01*
X119710890Y-94870309D01*
X119898999Y-94996000D01*
X119710890Y-95121691D01*
X119505691Y-95326890D01*
X119344467Y-95568178D01*
X119233414Y-95836283D01*
X119176800Y-96120902D01*
X119176800Y-96411098D01*
X119233414Y-96695717D01*
X119344467Y-96963822D01*
X119505691Y-97205110D01*
X119710890Y-97410309D01*
X119898999Y-97536000D01*
X119710890Y-97661691D01*
X119505691Y-97866890D01*
X119344467Y-98108178D01*
X119233414Y-98376283D01*
X119176800Y-98660902D01*
X119176800Y-98797998D01*
X116330000Y-95951199D01*
X116330000Y-89953323D01*
X116333676Y-89916000D01*
X116330000Y-89878677D01*
X116330000Y-89878667D01*
X116319003Y-89767014D01*
X116275546Y-89623753D01*
X116204974Y-89491723D01*
X116133799Y-89404997D01*
X116110001Y-89375999D01*
X116081003Y-89352201D01*
X111250000Y-84521199D01*
X111250000Y-84082000D01*
X112947928Y-84082000D01*
X112947928Y-85590000D01*
X112960188Y-85714482D01*
X112996498Y-85834180D01*
X113055463Y-85944494D01*
X113134815Y-86041185D01*
X113231506Y-86120537D01*
X113341820Y-86179502D01*
X113461518Y-86215812D01*
X113586000Y-86228072D01*
X115094000Y-86228072D01*
X115218482Y-86215812D01*
X115338180Y-86179502D01*
X115448494Y-86120537D01*
X115545185Y-86041185D01*
X115624537Y-85944494D01*
X115683502Y-85834180D01*
X115719812Y-85714482D01*
X115724518Y-85666698D01*
X115761093Y-85721436D01*
X115954564Y-85914907D01*
X116182062Y-86066916D01*
X116434844Y-86171622D01*
X116703195Y-86225000D01*
X116976805Y-86225000D01*
X117245156Y-86171622D01*
X117497938Y-86066916D01*
X117725436Y-85914907D01*
X117918907Y-85721436D01*
X118070916Y-85493938D01*
X118090000Y-85447865D01*
X118109084Y-85493938D01*
X118261093Y-85721436D01*
X118454564Y-85914907D01*
X118682062Y-86066916D01*
X118934844Y-86171622D01*
X119203195Y-86225000D01*
X119476805Y-86225000D01*
X119745156Y-86171622D01*
X119997938Y-86066916D01*
X120225436Y-85914907D01*
X120418907Y-85721436D01*
X120570916Y-85493938D01*
X120675622Y-85241156D01*
X120729000Y-84972805D01*
X120729000Y-84699195D01*
X120675622Y-84430844D01*
X120570916Y-84178062D01*
X120506730Y-84082000D01*
X124377928Y-84082000D01*
X124377928Y-85590000D01*
X124390188Y-85714482D01*
X124426498Y-85834180D01*
X124485463Y-85944494D01*
X124564815Y-86041185D01*
X124661506Y-86120537D01*
X124771820Y-86179502D01*
X124891518Y-86215812D01*
X125016000Y-86228072D01*
X126524000Y-86228072D01*
X126648482Y-86215812D01*
X126768180Y-86179502D01*
X126878494Y-86120537D01*
X126975185Y-86041185D01*
X127054537Y-85944494D01*
X127113502Y-85834180D01*
X127125128Y-85795851D01*
X127489754Y-85795851D01*
X127555765Y-86035127D01*
X127803426Y-86151426D01*
X128069018Y-86217174D01*
X128342334Y-86229845D01*
X128612870Y-86188951D01*
X128870229Y-86096063D01*
X128984235Y-86035127D01*
X129050246Y-85795851D01*
X129989754Y-85795851D01*
X130055765Y-86035127D01*
X130303426Y-86151426D01*
X130569018Y-86217174D01*
X130842334Y-86229845D01*
X131112870Y-86188951D01*
X131370229Y-86096063D01*
X131484235Y-86035127D01*
X131550246Y-85795851D01*
X130770000Y-85015605D01*
X129989754Y-85795851D01*
X129050246Y-85795851D01*
X128270000Y-85015605D01*
X127489754Y-85795851D01*
X127125128Y-85795851D01*
X127149812Y-85714482D01*
X127162072Y-85590000D01*
X127162072Y-85575395D01*
X127310149Y-85616246D01*
X128090395Y-84836000D01*
X128449605Y-84836000D01*
X129229851Y-85616246D01*
X129469127Y-85550235D01*
X129516711Y-85448903D01*
X129570873Y-85550235D01*
X129810149Y-85616246D01*
X130590395Y-84836000D01*
X130949605Y-84836000D01*
X131729851Y-85616246D01*
X131969127Y-85550235D01*
X132085426Y-85302574D01*
X132151174Y-85036982D01*
X132163845Y-84763666D01*
X132122951Y-84493130D01*
X132030063Y-84235771D01*
X131969127Y-84121765D01*
X131729851Y-84055754D01*
X130949605Y-84836000D01*
X130590395Y-84836000D01*
X129810149Y-84055754D01*
X129570873Y-84121765D01*
X129523289Y-84223097D01*
X129469127Y-84121765D01*
X129229851Y-84055754D01*
X128449605Y-84836000D01*
X128090395Y-84836000D01*
X127310149Y-84055754D01*
X127162072Y-84096605D01*
X127162072Y-84082000D01*
X127149812Y-83957518D01*
X127125129Y-83876149D01*
X127489754Y-83876149D01*
X128270000Y-84656395D01*
X129050246Y-83876149D01*
X129989754Y-83876149D01*
X130770000Y-84656395D01*
X131550246Y-83876149D01*
X131484235Y-83636873D01*
X131236574Y-83520574D01*
X130970982Y-83454826D01*
X130697666Y-83442155D01*
X130427130Y-83483049D01*
X130169771Y-83575937D01*
X130055765Y-83636873D01*
X129989754Y-83876149D01*
X129050246Y-83876149D01*
X128984235Y-83636873D01*
X128736574Y-83520574D01*
X128470982Y-83454826D01*
X128197666Y-83442155D01*
X127927130Y-83483049D01*
X127669771Y-83575937D01*
X127555765Y-83636873D01*
X127489754Y-83876149D01*
X127125129Y-83876149D01*
X127113502Y-83837820D01*
X127054537Y-83727506D01*
X126975185Y-83630815D01*
X126878494Y-83551463D01*
X126768180Y-83492498D01*
X126648482Y-83456188D01*
X126524000Y-83443928D01*
X125016000Y-83443928D01*
X124891518Y-83456188D01*
X124771820Y-83492498D01*
X124661506Y-83551463D01*
X124564815Y-83630815D01*
X124485463Y-83727506D01*
X124426498Y-83837820D01*
X124390188Y-83957518D01*
X124377928Y-84082000D01*
X120506730Y-84082000D01*
X120418907Y-83950564D01*
X120225436Y-83757093D01*
X119997938Y-83605084D01*
X119745156Y-83500378D01*
X119476805Y-83447000D01*
X119203195Y-83447000D01*
X118934844Y-83500378D01*
X118682062Y-83605084D01*
X118454564Y-83757093D01*
X118261093Y-83950564D01*
X118109084Y-84178062D01*
X118090000Y-84224135D01*
X118070916Y-84178062D01*
X117918907Y-83950564D01*
X117725436Y-83757093D01*
X117497938Y-83605084D01*
X117245156Y-83500378D01*
X116976805Y-83447000D01*
X116703195Y-83447000D01*
X116434844Y-83500378D01*
X116182062Y-83605084D01*
X115954564Y-83757093D01*
X115761093Y-83950564D01*
X115724518Y-84005302D01*
X115719812Y-83957518D01*
X115683502Y-83837820D01*
X115624537Y-83727506D01*
X115545185Y-83630815D01*
X115448494Y-83551463D01*
X115338180Y-83492498D01*
X115218482Y-83456188D01*
X115094000Y-83443928D01*
X113586000Y-83443928D01*
X113461518Y-83456188D01*
X113341820Y-83492498D01*
X113231506Y-83551463D01*
X113134815Y-83630815D01*
X113055463Y-83727506D01*
X112996498Y-83837820D01*
X112960188Y-83957518D01*
X112947928Y-84082000D01*
X111250000Y-84082000D01*
X111250000Y-81729711D01*
X111293937Y-81685774D01*
X111407205Y-81516256D01*
X111485226Y-81327898D01*
X111525000Y-81127939D01*
X111525000Y-80924061D01*
X111485226Y-80724102D01*
X111407205Y-80535744D01*
X111293937Y-80366226D01*
X111149774Y-80222063D01*
X110980256Y-80108795D01*
X110791898Y-80030774D01*
X110591939Y-79991000D01*
X110388061Y-79991000D01*
X110188102Y-80030774D01*
X109999744Y-80108795D01*
X109830226Y-80222063D01*
X109686063Y-80366226D01*
X109572795Y-80535744D01*
X109494774Y-80724102D01*
X109455000Y-80924061D01*
X106120000Y-80924061D01*
X106120000Y-77686000D01*
X117941928Y-77686000D01*
X117941928Y-79286000D01*
X117954188Y-79410482D01*
X117990498Y-79530180D01*
X118049463Y-79640494D01*
X118128815Y-79737185D01*
X118225506Y-79816537D01*
X118335820Y-79875502D01*
X118455518Y-79911812D01*
X118580000Y-79924072D01*
X120180000Y-79924072D01*
X120304482Y-79911812D01*
X120424180Y-79875502D01*
X120534494Y-79816537D01*
X120631185Y-79737185D01*
X120710537Y-79640494D01*
X120769502Y-79530180D01*
X120785117Y-79478702D01*
X121066903Y-79478702D01*
X121138486Y-79722671D01*
X121393996Y-79843571D01*
X121668184Y-79912300D01*
X121950512Y-79926217D01*
X122230130Y-79884787D01*
X122496292Y-79789603D01*
X122621514Y-79722671D01*
X122693097Y-79478702D01*
X121880000Y-78665605D01*
X121066903Y-79478702D01*
X120785117Y-79478702D01*
X120805812Y-79410482D01*
X120818072Y-79286000D01*
X120818072Y-79278785D01*
X120887298Y-79299097D01*
X121700395Y-78486000D01*
X122059605Y-78486000D01*
X122872702Y-79299097D01*
X123116671Y-79227514D01*
X123237571Y-78972004D01*
X123306300Y-78697816D01*
X123320217Y-78415488D01*
X123278787Y-78135870D01*
X123183603Y-77869708D01*
X123116671Y-77744486D01*
X122872702Y-77672903D01*
X122059605Y-78486000D01*
X121700395Y-78486000D01*
X120887298Y-77672903D01*
X120818072Y-77693215D01*
X120818072Y-77686000D01*
X120805812Y-77561518D01*
X120785118Y-77493298D01*
X121066903Y-77493298D01*
X121880000Y-78306395D01*
X122693097Y-77493298D01*
X122621514Y-77249329D01*
X122366004Y-77128429D01*
X122091816Y-77059700D01*
X121809488Y-77045783D01*
X121529870Y-77087213D01*
X121263708Y-77182397D01*
X121138486Y-77249329D01*
X121066903Y-77493298D01*
X120785118Y-77493298D01*
X120769502Y-77441820D01*
X120710537Y-77331506D01*
X120631185Y-77234815D01*
X120534494Y-77155463D01*
X120424180Y-77096498D01*
X120304482Y-77060188D01*
X120180000Y-77047928D01*
X118580000Y-77047928D01*
X118455518Y-77060188D01*
X118335820Y-77096498D01*
X118225506Y-77155463D01*
X118128815Y-77234815D01*
X118049463Y-77331506D01*
X117990498Y-77441820D01*
X117954188Y-77561518D01*
X117941928Y-77686000D01*
X106120000Y-77686000D01*
X106120000Y-71858702D01*
X108192903Y-71858702D01*
X108264486Y-72102671D01*
X108519996Y-72223571D01*
X108794184Y-72292300D01*
X109076512Y-72306217D01*
X109356130Y-72264787D01*
X109622292Y-72169603D01*
X109747514Y-72102671D01*
X109819097Y-71858702D01*
X109006000Y-71045605D01*
X108192903Y-71858702D01*
X106120000Y-71858702D01*
X106120000Y-70936512D01*
X107565783Y-70936512D01*
X107607213Y-71216130D01*
X107702397Y-71482292D01*
X107769329Y-71607514D01*
X108013298Y-71679097D01*
X108826395Y-70866000D01*
X109185605Y-70866000D01*
X109998702Y-71679097D01*
X110067928Y-71658785D01*
X110067928Y-71666000D01*
X110080188Y-71790482D01*
X110116498Y-71910180D01*
X110175463Y-72020494D01*
X110254815Y-72117185D01*
X110351506Y-72196537D01*
X110461820Y-72255502D01*
X110581518Y-72291812D01*
X110706000Y-72304072D01*
X112306000Y-72304072D01*
X112430482Y-72291812D01*
X112550180Y-72255502D01*
X112660494Y-72196537D01*
X112757185Y-72117185D01*
X112836537Y-72020494D01*
X112884865Y-71930080D01*
X123321525Y-71930080D01*
X123405208Y-72184261D01*
X123677775Y-72315158D01*
X123970642Y-72390365D01*
X124272553Y-72406991D01*
X124571907Y-72364397D01*
X124857199Y-72264222D01*
X125006792Y-72184261D01*
X125090475Y-71930080D01*
X124206000Y-71045605D01*
X123321525Y-71930080D01*
X112884865Y-71930080D01*
X112895502Y-71910180D01*
X112931812Y-71790482D01*
X112944072Y-71666000D01*
X112944072Y-70932553D01*
X122665009Y-70932553D01*
X122707603Y-71231907D01*
X122807778Y-71517199D01*
X122887739Y-71666792D01*
X123141920Y-71750475D01*
X124026395Y-70866000D01*
X124012253Y-70851858D01*
X124191858Y-70672253D01*
X124206000Y-70686395D01*
X124220143Y-70672253D01*
X124399748Y-70851858D01*
X124385605Y-70866000D01*
X125270080Y-71750475D01*
X125524261Y-71666792D01*
X125655158Y-71394225D01*
X125730365Y-71101358D01*
X125746991Y-70799447D01*
X125704397Y-70500093D01*
X125604222Y-70214801D01*
X125524261Y-70065208D01*
X125270082Y-69981526D01*
X125386030Y-69865578D01*
X125339265Y-69818813D01*
X125350180Y-69815502D01*
X125460494Y-69756537D01*
X125557185Y-69677185D01*
X125636537Y-69580494D01*
X125695502Y-69470180D01*
X125731812Y-69350482D01*
X125744072Y-69226000D01*
X125744072Y-67426000D01*
X125731812Y-67301518D01*
X125695502Y-67181820D01*
X125636537Y-67071506D01*
X125557185Y-66974815D01*
X125460494Y-66895463D01*
X125350180Y-66836498D01*
X125230482Y-66800188D01*
X125106000Y-66787928D01*
X123306000Y-66787928D01*
X123181518Y-66800188D01*
X123061820Y-66836498D01*
X122951506Y-66895463D01*
X122854815Y-66974815D01*
X122775463Y-67071506D01*
X122716498Y-67181820D01*
X122680188Y-67301518D01*
X122667928Y-67426000D01*
X122667928Y-69226000D01*
X122680188Y-69350482D01*
X122716498Y-69470180D01*
X122775463Y-69580494D01*
X122854815Y-69677185D01*
X122951506Y-69756537D01*
X123061820Y-69815502D01*
X123072735Y-69818813D01*
X123025970Y-69865578D01*
X123141918Y-69981526D01*
X122887739Y-70065208D01*
X122756842Y-70337775D01*
X122681635Y-70630642D01*
X122665009Y-70932553D01*
X112944072Y-70932553D01*
X112944072Y-70066000D01*
X112931812Y-69941518D01*
X112895502Y-69821820D01*
X112836537Y-69711506D01*
X112757185Y-69614815D01*
X112660494Y-69535463D01*
X112550180Y-69476498D01*
X112430482Y-69440188D01*
X112306000Y-69427928D01*
X110706000Y-69427928D01*
X110581518Y-69440188D01*
X110461820Y-69476498D01*
X110351506Y-69535463D01*
X110254815Y-69614815D01*
X110175463Y-69711506D01*
X110116498Y-69821820D01*
X110080188Y-69941518D01*
X110067928Y-70066000D01*
X110067928Y-70073215D01*
X109998702Y-70052903D01*
X109185605Y-70866000D01*
X108826395Y-70866000D01*
X108013298Y-70052903D01*
X107769329Y-70124486D01*
X107648429Y-70379996D01*
X107579700Y-70654184D01*
X107565783Y-70936512D01*
X106120000Y-70936512D01*
X106120000Y-69873298D01*
X108192903Y-69873298D01*
X109006000Y-70686395D01*
X109819097Y-69873298D01*
X109747514Y-69629329D01*
X109492004Y-69508429D01*
X109217816Y-69439700D01*
X108935488Y-69425783D01*
X108655870Y-69467213D01*
X108389708Y-69562397D01*
X108264486Y-69629329D01*
X108192903Y-69873298D01*
X106120000Y-69873298D01*
X106120000Y-64186000D01*
X112811928Y-64186000D01*
X112811928Y-65874000D01*
%TA.AperFunction,Conductor*%
D28*
G36*
X112811928Y-65874000D02*
G01*
X112824188Y-65998482D01*
X112860498Y-66118180D01*
X112919463Y-66228494D01*
X112998815Y-66325185D01*
X113095506Y-66404537D01*
X113205820Y-66463502D01*
X113325518Y-66499812D01*
X113450000Y-66512072D01*
X115150000Y-66512072D01*
X115274482Y-66499812D01*
X115394180Y-66463502D01*
X115504494Y-66404537D01*
X115601185Y-66325185D01*
X115680537Y-66228494D01*
X115739502Y-66118180D01*
X115761513Y-66045620D01*
X115893368Y-66177475D01*
X116136589Y-66339990D01*
X116406842Y-66451932D01*
X116693740Y-66509000D01*
X116986260Y-66509000D01*
X117273158Y-66451932D01*
X117543411Y-66339990D01*
X117786632Y-66177475D01*
X117993475Y-65970632D01*
X118155990Y-65727411D01*
X118267932Y-65457158D01*
X118325000Y-65170260D01*
X118325000Y-64877740D01*
X118267932Y-64590842D01*
X118155990Y-64320589D01*
X118066061Y-64186000D01*
X130591928Y-64186000D01*
X130591928Y-65874000D01*
X130604188Y-65998482D01*
X130640498Y-66118180D01*
X130699463Y-66228494D01*
X130778815Y-66325185D01*
X130875506Y-66404537D01*
X130985820Y-66463502D01*
X131105518Y-66499812D01*
X131230000Y-66512072D01*
X132930000Y-66512072D01*
X133054482Y-66499812D01*
X133174180Y-66463502D01*
X133284494Y-66404537D01*
X133381185Y-66325185D01*
X133460537Y-66228494D01*
X133519502Y-66118180D01*
X133543966Y-66037534D01*
X133619731Y-66121588D01*
X133853080Y-66295641D01*
X134115901Y-66420825D01*
X134263110Y-66465476D01*
X134493000Y-66344155D01*
X134493000Y-65151000D01*
X134747000Y-65151000D01*
X134747000Y-66344155D01*
X134976890Y-66465476D01*
X135124099Y-66420825D01*
X135386920Y-66295641D01*
X135620269Y-66121588D01*
X135815178Y-65905355D01*
X135964157Y-65655252D01*
X136061481Y-65380891D01*
X135940814Y-65151000D01*
X134747000Y-65151000D01*
X134493000Y-65151000D01*
X134473000Y-65151000D01*
X134473000Y-64897000D01*
X134493000Y-64897000D01*
X134493000Y-64877000D01*
X134747000Y-64877000D01*
X134747000Y-64897000D01*
X135940814Y-64897000D01*
X136061481Y-64667109D01*
X135964157Y-64392748D01*
X135841003Y-64186000D01*
X212650000Y-64186000D01*
X212650001Y-128576000D01*
X187091166Y-128576000D01*
X187114401Y-128547688D01*
X187173366Y-128437374D01*
X187209676Y-128317676D01*
X187221936Y-128193194D01*
X187218864Y-127228944D01*
X187060114Y-127070194D01*
X185910864Y-127070194D01*
X185910864Y-127090194D01*
X185656864Y-127090194D01*
X185656864Y-127070194D01*
X184507614Y-127070194D01*
X184348864Y-127228944D01*
X184345792Y-128193194D01*
X184358052Y-128317676D01*
X184394362Y-128437374D01*
X184453327Y-128547688D01*
X184476562Y-128576000D01*
X178691166Y-128576000D01*
X178714401Y-128547688D01*
X178773366Y-128437374D01*
X178809676Y-128317676D01*
X178821936Y-128193194D01*
X178818864Y-127228944D01*
X178660114Y-127070194D01*
X177510864Y-127070194D01*
X177510864Y-127090194D01*
X177256864Y-127090194D01*
X177256864Y-127070194D01*
X176107614Y-127070194D01*
X175948864Y-127228944D01*
X175945792Y-128193194D01*
X175958052Y-128317676D01*
X175994362Y-128437374D01*
X176053327Y-128547688D01*
X176076562Y-128576000D01*
X106120000Y-128576000D01*
X106120000Y-125693194D01*
X175945792Y-125693194D01*
X175948864Y-126657444D01*
X176107614Y-126816194D01*
X177256864Y-126816194D01*
X177256864Y-124570194D01*
X177510864Y-124570194D01*
X177510864Y-126816194D01*
X178660114Y-126816194D01*
X178818864Y-126657444D01*
X178821936Y-125693194D01*
X184345792Y-125693194D01*
X184348864Y-126657444D01*
X184507614Y-126816194D01*
X185656864Y-126816194D01*
X185656864Y-124570194D01*
X185910864Y-124570194D01*
X185910864Y-126816194D01*
X187060114Y-126816194D01*
X187218864Y-126657444D01*
X187221936Y-125693194D01*
X187218864Y-124728944D01*
X187060114Y-124570194D01*
X185910864Y-124570194D01*
X185656864Y-124570194D01*
X184507614Y-124570194D01*
X184348864Y-124728944D01*
X184345792Y-125693194D01*
X178821936Y-125693194D01*
X178818864Y-124728944D01*
X178660114Y-124570194D01*
X177510864Y-124570194D01*
X177256864Y-124570194D01*
X176107614Y-124570194D01*
X175948864Y-124728944D01*
X175945792Y-125693194D01*
X106120000Y-125693194D01*
X106120000Y-123193194D01*
X175945792Y-123193194D01*
X175948864Y-124157444D01*
X176107614Y-124316194D01*
X177256864Y-124316194D01*
X177256864Y-122716944D01*
X177510864Y-122716944D01*
X177510864Y-124316194D01*
X178660114Y-124316194D01*
X178818864Y-124157444D01*
X178821936Y-123193194D01*
X184345792Y-123193194D01*
X184348864Y-124157444D01*
X184507614Y-124316194D01*
X185656864Y-124316194D01*
X185656864Y-122716944D01*
X185910864Y-122716944D01*
X185910864Y-124316194D01*
X187060114Y-124316194D01*
X187218864Y-124157444D01*
X187221936Y-123193194D01*
X187209676Y-123068712D01*
X187173366Y-122949014D01*
X187114401Y-122838700D01*
X187035049Y-122742009D01*
X186938358Y-122662657D01*
X186828044Y-122603692D01*
X186708346Y-122567382D01*
X186583864Y-122555122D01*
X186069614Y-122558194D01*
X185910864Y-122716944D01*
X185656864Y-122716944D01*
X185498114Y-122558194D01*
X184983864Y-122555122D01*
X184859382Y-122567382D01*
X184739684Y-122603692D01*
X184629370Y-122662657D01*
X184532679Y-122742009D01*
X184453327Y-122838700D01*
X184394362Y-122949014D01*
X184358052Y-123068712D01*
X184345792Y-123193194D01*
X178821936Y-123193194D01*
X178809676Y-123068712D01*
X178773366Y-122949014D01*
X178714401Y-122838700D01*
X178635049Y-122742009D01*
X178538358Y-122662657D01*
X178428044Y-122603692D01*
X178308346Y-122567382D01*
X178183864Y-122555122D01*
X177669614Y-122558194D01*
X177510864Y-122716944D01*
X177256864Y-122716944D01*
X177098114Y-122558194D01*
X176583864Y-122555122D01*
X176459382Y-122567382D01*
X176339684Y-122603692D01*
X176229370Y-122662657D01*
X176132679Y-122742009D01*
X176053327Y-122838700D01*
X175994362Y-122949014D01*
X175958052Y-123068712D01*
X175945792Y-123193194D01*
X106120000Y-123193194D01*
X106120000Y-112481376D01*
X206211046Y-112481376D01*
X206223306Y-112605858D01*
X206259616Y-112725556D01*
X206318581Y-112835870D01*
X206397933Y-112932561D01*
X206494624Y-113011913D01*
X206604938Y-113070878D01*
X206724636Y-113107188D01*
X206849118Y-113119448D01*
X207813368Y-113116376D01*
X207972118Y-112957626D01*
X207972118Y-111808376D01*
X208226118Y-111808376D01*
X208226118Y-112957626D01*
X208384868Y-113116376D01*
X209349118Y-113119448D01*
X210313368Y-113116376D01*
X210472118Y-112957626D01*
X210472118Y-111808376D01*
X210726118Y-111808376D01*
X210726118Y-112957626D01*
X210884868Y-113116376D01*
X211849118Y-113119448D01*
X211973600Y-113107188D01*
X212093298Y-113070878D01*
X212203612Y-113011913D01*
X212300303Y-112932561D01*
X212379655Y-112835870D01*
X212438620Y-112725556D01*
X212474930Y-112605858D01*
X212487190Y-112481376D01*
X212484118Y-111967126D01*
X212325368Y-111808376D01*
X210726118Y-111808376D01*
X210472118Y-111808376D01*
X208226118Y-111808376D01*
X207972118Y-111808376D01*
X206372868Y-111808376D01*
X206214118Y-111967126D01*
X206211046Y-112481376D01*
X106120000Y-112481376D01*
X106120000Y-101200902D01*
X111556800Y-101200902D01*
X111556800Y-101491098D01*
X111613414Y-101775717D01*
X111724467Y-102043822D01*
X111885691Y-102285110D01*
X112090890Y-102490309D01*
X112278999Y-102616000D01*
X112090890Y-102741691D01*
X111885691Y-102946890D01*
X111724467Y-103188178D01*
X111613414Y-103456283D01*
X111556800Y-103740902D01*
X111556800Y-104031098D01*
X111613414Y-104315717D01*
X111724467Y-104583822D01*
X111885691Y-104825110D01*
X112090890Y-105030309D01*
X112278999Y-105156000D01*
X112090890Y-105281691D01*
X111885691Y-105486890D01*
X111724467Y-105728178D01*
X111613414Y-105996283D01*
X111556800Y-106280902D01*
X111556800Y-106571098D01*
X111613414Y-106855717D01*
X111724467Y-107123822D01*
X111885691Y-107365110D01*
X112090890Y-107570309D01*
X112278999Y-107696000D01*
X112090890Y-107821691D01*
X111885691Y-108026890D01*
X111724467Y-108268178D01*
X111613414Y-108536283D01*
X111556800Y-108820902D01*
X111556800Y-109111098D01*
X111613414Y-109395717D01*
X111724467Y-109663822D01*
X111885691Y-109905110D01*
X112090890Y-110110309D01*
X112332178Y-110271533D01*
X112600283Y-110382586D01*
X112884902Y-110439200D01*
X113175098Y-110439200D01*
X113459717Y-110382586D01*
X113727822Y-110271533D01*
X113969110Y-110110309D01*
X114174309Y-109905110D01*
X114241735Y-109804200D01*
X119173728Y-109804200D01*
X119185988Y-109928682D01*
X119222298Y-110048380D01*
X119281263Y-110158694D01*
X119360615Y-110255385D01*
X119457306Y-110334737D01*
X119567620Y-110393702D01*
X119687318Y-110430012D01*
X119811800Y-110442272D01*
X120364250Y-110439200D01*
X120523000Y-110280450D01*
X120523000Y-109093000D01*
X120777000Y-109093000D01*
X120777000Y-110280450D01*
X120935750Y-110439200D01*
X121488200Y-110442272D01*
X121612682Y-110430012D01*
X121732380Y-110393702D01*
X121842694Y-110334737D01*
X121939385Y-110255385D01*
X122018737Y-110158694D01*
X122077702Y-110048380D01*
X122114012Y-109928682D01*
X122126272Y-109804200D01*
X122125988Y-109753061D01*
X161017000Y-109753061D01*
X161017000Y-109956939D01*
X161056774Y-110156898D01*
X161134795Y-110345256D01*
X161248063Y-110514774D01*
X161392226Y-110658937D01*
X161561744Y-110772205D01*
X161750102Y-110850226D01*
X161950061Y-110890000D01*
X162153939Y-110890000D01*
X162197295Y-110881376D01*
X206211046Y-110881376D01*
X206214118Y-111395626D01*
X206372868Y-111554376D01*
X207972118Y-111554376D01*
X207972118Y-110405126D01*
X208226118Y-110405126D01*
X208226118Y-111554376D01*
X210472118Y-111554376D01*
X210472118Y-110405126D01*
X210726118Y-110405126D01*
X210726118Y-111554376D01*
X212325368Y-111554376D01*
X212484118Y-111395626D01*
X212487190Y-110881376D01*
X212474930Y-110756894D01*
X212438620Y-110637196D01*
X212379655Y-110526882D01*
X212300303Y-110430191D01*
X212203612Y-110350839D01*
X212093298Y-110291874D01*
X211973600Y-110255564D01*
X211849118Y-110243304D01*
X210884868Y-110246376D01*
X210726118Y-110405126D01*
X210472118Y-110405126D01*
X210313368Y-110246376D01*
X209349118Y-110243304D01*
X208384868Y-110246376D01*
X208226118Y-110405126D01*
X207972118Y-110405126D01*
X207813368Y-110246376D01*
X206849118Y-110243304D01*
X206724636Y-110255564D01*
X206604938Y-110291874D01*
X206494624Y-110350839D01*
X206397933Y-110430191D01*
X206318581Y-110526882D01*
X206259616Y-110637196D01*
X206223306Y-110756894D01*
X206211046Y-110881376D01*
X162197295Y-110881376D01*
X162353898Y-110850226D01*
X162542256Y-110772205D01*
X162711774Y-110658937D01*
X162855937Y-110514774D01*
X162969205Y-110345256D01*
X163047226Y-110156898D01*
X163087000Y-109956939D01*
X163087000Y-109894801D01*
X163579004Y-109402798D01*
X163608001Y-109379001D01*
X163636727Y-109343998D01*
X163702974Y-109263277D01*
X163773546Y-109131247D01*
X163797869Y-109051063D01*
X163817003Y-108987986D01*
X163828000Y-108876333D01*
X163828000Y-108876323D01*
X163831676Y-108839000D01*
X163828000Y-108801678D01*
X163828000Y-104081376D01*
X206211046Y-104081376D01*
X206223306Y-104205858D01*
X206259616Y-104325556D01*
X206318581Y-104435870D01*
X206397933Y-104532561D01*
X206494624Y-104611913D01*
X206604938Y-104670878D01*
X206724636Y-104707188D01*
X206849118Y-104719448D01*
X207813368Y-104716376D01*
X207972118Y-104557626D01*
X207972118Y-103408376D01*
X208226118Y-103408376D01*
X208226118Y-104557626D01*
X208384868Y-104716376D01*
X209349118Y-104719448D01*
X210313368Y-104716376D01*
X210472118Y-104557626D01*
X210472118Y-103408376D01*
X210726118Y-103408376D01*
X210726118Y-104557626D01*
X210884868Y-104716376D01*
X211849118Y-104719448D01*
X211973600Y-104707188D01*
X212093298Y-104670878D01*
X212203612Y-104611913D01*
X212300303Y-104532561D01*
X212379655Y-104435870D01*
X212438620Y-104325556D01*
X212474930Y-104205858D01*
X212487190Y-104081376D01*
X212484118Y-103567126D01*
X212325368Y-103408376D01*
X210726118Y-103408376D01*
X210472118Y-103408376D01*
X208226118Y-103408376D01*
X207972118Y-103408376D01*
X206372868Y-103408376D01*
X206214118Y-103567126D01*
X206211046Y-104081376D01*
X163828000Y-104081376D01*
X163828000Y-103319711D01*
X163871937Y-103275774D01*
X163985205Y-103106256D01*
X164063226Y-102917898D01*
X164103000Y-102717939D01*
X164103000Y-102514061D01*
X164096499Y-102481376D01*
X206211046Y-102481376D01*
X206214118Y-102995626D01*
X206372868Y-103154376D01*
X207972118Y-103154376D01*
X207972118Y-102005126D01*
X208226118Y-102005126D01*
X208226118Y-103154376D01*
X210472118Y-103154376D01*
X210472118Y-102005126D01*
X210726118Y-102005126D01*
X210726118Y-103154376D01*
X212325368Y-103154376D01*
X212484118Y-102995626D01*
X212487190Y-102481376D01*
X212474930Y-102356894D01*
X212438620Y-102237196D01*
X212379655Y-102126882D01*
X212300303Y-102030191D01*
X212203612Y-101950839D01*
X212093298Y-101891874D01*
X211973600Y-101855564D01*
X211849118Y-101843304D01*
X210884868Y-101846376D01*
X210726118Y-102005126D01*
X210472118Y-102005126D01*
X210313368Y-101846376D01*
X209349118Y-101843304D01*
X208384868Y-101846376D01*
X208226118Y-102005126D01*
X207972118Y-102005126D01*
X207813368Y-101846376D01*
X206849118Y-101843304D01*
X206724636Y-101855564D01*
X206604938Y-101891874D01*
X206494624Y-101950839D01*
X206397933Y-102030191D01*
X206318581Y-102126882D01*
X206259616Y-102237196D01*
X206223306Y-102356894D01*
X206211046Y-102481376D01*
X164096499Y-102481376D01*
X164063226Y-102314102D01*
X163985205Y-102125744D01*
X163871937Y-101956226D01*
X163727774Y-101812063D01*
X163558256Y-101698795D01*
X163369898Y-101620774D01*
X163169939Y-101581000D01*
X162966061Y-101581000D01*
X162766102Y-101620774D01*
X162577744Y-101698795D01*
X162408226Y-101812063D01*
X162264063Y-101956226D01*
X162150795Y-102125744D01*
X162072774Y-102314102D01*
X162033000Y-102514061D01*
X162033000Y-102717939D01*
X162072774Y-102917898D01*
X162150795Y-103106256D01*
X162264063Y-103275774D01*
X162308001Y-103319712D01*
X162308000Y-108524198D01*
X162012199Y-108820000D01*
X161950061Y-108820000D01*
X161750102Y-108859774D01*
X161561744Y-108937795D01*
X161392226Y-109051063D01*
X161248063Y-109195226D01*
X161134795Y-109364744D01*
X161056774Y-109553102D01*
X161017000Y-109753061D01*
X122125988Y-109753061D01*
X122123200Y-109251750D01*
X121964450Y-109093000D01*
X120777000Y-109093000D01*
X120523000Y-109093000D01*
X119335550Y-109093000D01*
X119176800Y-109251750D01*
X119173728Y-109804200D01*
X114241735Y-109804200D01*
X114335533Y-109663822D01*
X114446586Y-109395717D01*
X114503200Y-109111098D01*
X114503200Y-108820902D01*
X114446586Y-108536283D01*
X114335533Y-108268178D01*
X114174309Y-108026890D01*
X113969110Y-107821691D01*
X113781001Y-107696000D01*
X113969110Y-107570309D01*
X114174309Y-107365110D01*
X114335533Y-107123822D01*
X114446586Y-106855717D01*
X114503200Y-106571098D01*
X114503200Y-106280902D01*
X114446586Y-105996283D01*
X114335533Y-105728178D01*
X114174309Y-105486890D01*
X113969110Y-105281691D01*
X113781001Y-105156000D01*
X113969110Y-105030309D01*
X114174309Y-104825110D01*
X114335533Y-104583822D01*
X114446586Y-104315717D01*
X114503200Y-104031098D01*
X114503200Y-103740902D01*
X114446586Y-103456283D01*
X114335533Y-103188178D01*
X114174309Y-102946890D01*
X113969110Y-102741691D01*
X113781001Y-102616000D01*
X113969110Y-102490309D01*
X114174309Y-102285110D01*
X114335533Y-102043822D01*
X114446586Y-101775717D01*
X114503200Y-101491098D01*
X114503200Y-101200902D01*
X114446586Y-100916283D01*
X114335533Y-100648178D01*
X114174309Y-100406890D01*
X113969110Y-100201691D01*
X113785057Y-100078711D01*
X113794162Y-100073844D01*
X113870370Y-99825975D01*
X113030000Y-98985605D01*
X112189630Y-99825975D01*
X112265838Y-100073844D01*
X112275408Y-100078399D01*
X112090890Y-100201691D01*
X111885691Y-100406890D01*
X111724467Y-100648178D01*
X111613414Y-100916283D01*
X111556800Y-101200902D01*
X106120000Y-101200902D01*
X106120000Y-98874999D01*
X111551281Y-98874999D01*
X111593155Y-99162157D01*
X111690246Y-99435628D01*
X111762156Y-99570162D01*
X112010025Y-99646370D01*
X112850395Y-98806000D01*
X113209605Y-98806000D01*
X114049975Y-99646370D01*
X114297844Y-99570162D01*
X114422563Y-99308135D01*
X114493768Y-99026811D01*
X114508719Y-98737001D01*
X114466845Y-98449843D01*
X114369754Y-98176372D01*
X114297844Y-98041838D01*
X114049975Y-97965630D01*
X113209605Y-98806000D01*
X112850395Y-98806000D01*
X112010025Y-97965630D01*
X111762156Y-98041838D01*
X111637437Y-98303865D01*
X111566232Y-98585189D01*
X111551281Y-98874999D01*
X106120000Y-98874999D01*
X106120000Y-96575764D01*
X107279841Y-96575764D01*
X107327148Y-96799348D01*
X107548516Y-96900237D01*
X107785313Y-96956000D01*
X108028438Y-96964495D01*
X108268549Y-96925395D01*
X108496418Y-96840202D01*
X108572852Y-96799348D01*
X108620159Y-96575764D01*
X107950000Y-95905605D01*
X107279841Y-96575764D01*
X106120000Y-96575764D01*
X106120000Y-95804438D01*
X106711505Y-95804438D01*
X106750605Y-96044549D01*
X106835798Y-96272418D01*
X106876652Y-96348852D01*
X107100236Y-96396159D01*
X107770395Y-95726000D01*
X107756253Y-95711858D01*
X107935858Y-95532253D01*
X107950000Y-95546395D01*
X107964143Y-95532253D01*
X108143748Y-95711858D01*
X108129605Y-95726000D01*
X108799764Y-96396159D01*
X109023348Y-96348852D01*
X109124237Y-96127484D01*
X109180000Y-95890687D01*
X109188495Y-95647562D01*
X109149395Y-95407451D01*
X109064202Y-95179582D01*
X109023348Y-95103148D01*
X108799766Y-95055842D01*
X108916872Y-94938736D01*
X108858994Y-94880858D01*
X108904494Y-94856537D01*
X109001185Y-94777185D01*
X109080537Y-94680494D01*
X109139502Y-94570180D01*
X109175812Y-94450482D01*
X109188072Y-94326000D01*
X109188072Y-93126000D01*
X109175812Y-93001518D01*
X109139502Y-92881820D01*
X109080537Y-92771506D01*
X109001185Y-92674815D01*
X108904494Y-92595463D01*
X108794180Y-92536498D01*
X108674482Y-92500188D01*
X108550000Y-92487928D01*
X107350000Y-92487928D01*
X107225518Y-92500188D01*
X107105820Y-92536498D01*
X106995506Y-92595463D01*
X106898815Y-92674815D01*
X106819463Y-92771506D01*
X106760498Y-92881820D01*
X106724188Y-93001518D01*
X106711928Y-93126000D01*
X106711928Y-94326000D01*
X106724188Y-94450482D01*
X106760498Y-94570180D01*
X106819463Y-94680494D01*
X106898815Y-94777185D01*
X106995506Y-94856537D01*
X107041006Y-94880858D01*
X106983128Y-94938736D01*
X107100234Y-95055842D01*
X106876652Y-95103148D01*
X106775763Y-95324516D01*
X106720000Y-95561313D01*
X106711505Y-95804438D01*
X106120000Y-95804438D01*
X106120000Y-91040902D01*
X111556800Y-91040902D01*
X111556800Y-91331098D01*
X111613414Y-91615717D01*
X111724467Y-91883822D01*
X111885691Y-92125110D01*
X112090890Y-92330309D01*
X112278999Y-92456000D01*
X112090890Y-92581691D01*
X111885691Y-92786890D01*
X111724467Y-93028178D01*
X111613414Y-93296283D01*
X111556800Y-93580902D01*
X111556800Y-93871098D01*
X111613414Y-94155717D01*
X111724467Y-94423822D01*
X111885691Y-94665110D01*
X112090890Y-94870309D01*
X112278999Y-94996000D01*
X112090890Y-95121691D01*
X111885691Y-95326890D01*
X111724467Y-95568178D01*
X111613414Y-95836283D01*
X111556800Y-96120902D01*
X111556800Y-96411098D01*
X111613414Y-96695717D01*
X111724467Y-96963822D01*
X111885691Y-97205110D01*
X112090890Y-97410309D01*
X112274943Y-97533289D01*
X112265838Y-97538156D01*
X112189630Y-97786025D01*
X113030000Y-98626395D01*
X113870370Y-97786025D01*
X113794162Y-97538156D01*
X113784592Y-97533601D01*
X113969110Y-97410309D01*
X114174309Y-97205110D01*
X114335533Y-96963822D01*
X114446586Y-96695717D01*
X114503200Y-96411098D01*
X114503200Y-96120902D01*
X114446586Y-95836283D01*
X114335533Y-95568178D01*
X114174309Y-95326890D01*
X113969110Y-95121691D01*
X113781001Y-94996000D01*
X113969110Y-94870309D01*
X114174309Y-94665110D01*
X114335533Y-94423822D01*
X114446586Y-94155717D01*
X114503200Y-93871098D01*
X114503200Y-93580902D01*
X114446586Y-93296283D01*
X114335533Y-93028178D01*
X114174309Y-92786890D01*
X113969110Y-92581691D01*
X113781001Y-92456000D01*
X113969110Y-92330309D01*
X114174309Y-92125110D01*
X114335533Y-91883822D01*
X114446586Y-91615717D01*
X114503200Y-91331098D01*
X114503200Y-91040902D01*
X114446586Y-90756283D01*
X114335533Y-90488178D01*
X114174309Y-90246890D01*
X113969110Y-90041691D01*
X113727822Y-89880467D01*
X113459717Y-89769414D01*
X113175098Y-89712800D01*
X112884902Y-89712800D01*
X112600283Y-89769414D01*
X112332178Y-89880467D01*
X112090890Y-90041691D01*
X111885691Y-90246890D01*
X111724467Y-90488178D01*
X111613414Y-90756283D01*
X111556800Y-91040902D01*
X106120000Y-91040902D01*
X106120000Y-80924061D01*
X109455000Y-80924061D01*
X109455000Y-81127939D01*
X109494774Y-81327898D01*
X109572795Y-81516256D01*
X109686063Y-81685774D01*
X109730001Y-81729712D01*
X109730000Y-84798677D01*
X109726324Y-84836000D01*
X109730000Y-84873322D01*
X109730000Y-84873332D01*
X109740997Y-84984985D01*
X109756770Y-85036982D01*
X109784454Y-85128246D01*
X109855026Y-85260276D01*
X109894871Y-85308826D01*
X109949999Y-85376001D01*
X109979003Y-85399804D01*
X114810001Y-90230803D01*
X114810000Y-96228677D01*
X114806324Y-96266000D01*
X114810000Y-96303322D01*
X114810000Y-96303332D01*
X114820997Y-96414985D01*
X114864454Y-96558246D01*
X114935026Y-96690276D01*
X114974871Y-96738826D01*
X115029999Y-96806001D01*
X115059003Y-96829804D01*
X119218825Y-100989627D01*
X119176800Y-101200902D01*
X119176800Y-101491098D01*
X119233414Y-101775717D01*
X119344467Y-102043822D01*
X119505691Y-102285110D01*
X119710890Y-102490309D01*
X119898999Y-102616000D01*
X119710890Y-102741691D01*
X119505691Y-102946890D01*
X119344467Y-103188178D01*
X119233414Y-103456283D01*
X119176800Y-103740902D01*
X119176800Y-104031098D01*
X119233414Y-104315717D01*
X119344467Y-104583822D01*
X119505691Y-104825110D01*
X119710890Y-105030309D01*
X119898999Y-105156000D01*
X119710890Y-105281691D01*
X119505691Y-105486890D01*
X119344467Y-105728178D01*
X119233414Y-105996283D01*
X119176800Y-106280902D01*
X119176800Y-106571098D01*
X119233414Y-106855717D01*
X119344467Y-107123822D01*
X119505691Y-107365110D01*
X119652984Y-107512403D01*
X119567620Y-107538298D01*
X119457306Y-107597263D01*
X119360615Y-107676615D01*
X119281263Y-107773306D01*
X119222298Y-107883620D01*
X119185988Y-108003318D01*
X119173728Y-108127800D01*
X119176800Y-108680250D01*
X119335550Y-108839000D01*
X120523000Y-108839000D01*
X120523000Y-108819000D01*
X120777000Y-108819000D01*
X120777000Y-108839000D01*
X121964450Y-108839000D01*
X122123200Y-108680250D01*
X122126272Y-108127800D01*
X122114012Y-108003318D01*
X122077702Y-107883620D01*
X122018737Y-107773306D01*
X121939385Y-107676615D01*
X121842694Y-107597263D01*
X121732380Y-107538298D01*
X121647016Y-107512403D01*
X121794309Y-107365110D01*
X121955533Y-107123822D01*
X122066586Y-106855717D01*
X122123200Y-106571098D01*
X122123200Y-106280902D01*
X122098687Y-106157665D01*
X123192000Y-106157665D01*
X123192000Y-106440335D01*
X123247147Y-106717574D01*
X123355320Y-106978727D01*
X123512363Y-107213759D01*
X123712241Y-107413637D01*
X123947273Y-107570680D01*
X124208426Y-107678853D01*
X124485665Y-107734000D01*
X124768335Y-107734000D01*
X125045574Y-107678853D01*
X125306727Y-107570680D01*
X125541759Y-107413637D01*
X125708339Y-107247057D01*
X125737498Y-107343180D01*
X125796463Y-107453494D01*
X125875815Y-107550185D01*
X125972506Y-107629537D01*
X126082820Y-107688502D01*
X126202518Y-107724812D01*
X126327000Y-107737072D01*
X127927000Y-107737072D01*
X128051482Y-107724812D01*
X128171180Y-107688502D01*
X128281494Y-107629537D01*
X128324721Y-107594061D01*
X146031000Y-107594061D01*
X146031000Y-107797939D01*
X146070774Y-107997898D01*
X146148795Y-108186256D01*
X146262063Y-108355774D01*
X146406226Y-108499937D01*
X146575744Y-108613205D01*
X146764102Y-108691226D01*
X146964061Y-108731000D01*
X147167939Y-108731000D01*
X147367898Y-108691226D01*
X147556256Y-108613205D01*
X147725774Y-108499937D01*
X147869937Y-108355774D01*
X147983205Y-108186256D01*
X148061226Y-107997898D01*
X148101000Y-107797939D01*
X148101000Y-107594061D01*
X148061226Y-107394102D01*
X147983205Y-107205744D01*
X147869937Y-107036226D01*
X147826000Y-106992289D01*
X147826000Y-103113151D01*
X147875898Y-103103226D01*
X148064256Y-103025205D01*
X148233774Y-102911937D01*
X148377937Y-102767774D01*
X148491205Y-102598256D01*
X148569226Y-102409898D01*
X148609000Y-102209939D01*
X148609000Y-102006061D01*
X148569226Y-101806102D01*
X148491205Y-101617744D01*
X148377937Y-101448226D01*
X148233774Y-101304063D01*
X148064256Y-101190795D01*
X147875898Y-101112774D01*
X147675939Y-101073000D01*
X147472061Y-101073000D01*
X147272102Y-101112774D01*
X147083744Y-101190795D01*
X146914226Y-101304063D01*
X146770063Y-101448226D01*
X146656795Y-101617744D01*
X146578774Y-101806102D01*
X146539000Y-102006061D01*
X146539000Y-102065329D01*
X146525999Y-102075999D01*
X146485175Y-102125744D01*
X146431026Y-102191724D01*
X146421290Y-102209939D01*
X146360454Y-102323754D01*
X146316997Y-102467015D01*
X146306000Y-102578668D01*
X146306000Y-102578678D01*
X146302324Y-102616000D01*
X146306000Y-102653323D01*
X146306001Y-106992288D01*
X146262063Y-107036226D01*
X146148795Y-107205744D01*
X146070774Y-107394102D01*
X146031000Y-107594061D01*
X128324721Y-107594061D01*
X128378185Y-107550185D01*
X128457537Y-107453494D01*
X128516502Y-107343180D01*
X128552812Y-107223482D01*
X128565072Y-107099000D01*
X128565072Y-105499000D01*
X128552812Y-105374518D01*
X128516502Y-105254820D01*
X128457537Y-105144506D01*
X128378185Y-105047815D01*
X128281494Y-104968463D01*
X128171180Y-104909498D01*
X128051482Y-104873188D01*
X127927000Y-104860928D01*
X126327000Y-104860928D01*
X126202518Y-104873188D01*
X126082820Y-104909498D01*
X125972506Y-104968463D01*
X125875815Y-105047815D01*
X125796463Y-105144506D01*
X125737498Y-105254820D01*
X125708339Y-105350943D01*
X125541759Y-105184363D01*
X125306727Y-105027320D01*
X125045574Y-104919147D01*
X124768335Y-104864000D01*
X124485665Y-104864000D01*
X124208426Y-104919147D01*
X123947273Y-105027320D01*
X123712241Y-105184363D01*
X123512363Y-105384241D01*
X123355320Y-105619273D01*
X123247147Y-105880426D01*
X123192000Y-106157665D01*
X122098687Y-106157665D01*
X122066586Y-105996283D01*
X121955533Y-105728178D01*
X121794309Y-105486890D01*
X121589110Y-105281691D01*
X121401001Y-105156000D01*
X121589110Y-105030309D01*
X121794309Y-104825110D01*
X121955533Y-104583822D01*
X122066586Y-104315717D01*
X122123200Y-104031098D01*
X122123200Y-103740902D01*
X122066586Y-103456283D01*
X121955533Y-103188178D01*
X121794309Y-102946890D01*
X121589110Y-102741691D01*
X121401001Y-102616000D01*
X121589110Y-102490309D01*
X121794309Y-102285110D01*
X121955533Y-102043822D01*
X122066586Y-101775717D01*
X122123200Y-101491098D01*
X122123200Y-101200902D01*
X122066586Y-100916283D01*
X121955533Y-100648178D01*
X121794309Y-100406890D01*
X121589110Y-100201691D01*
X121401001Y-100076000D01*
X121589110Y-99950309D01*
X121794309Y-99745110D01*
X121955533Y-99503822D01*
X122066586Y-99235717D01*
X122121814Y-98958061D01*
X152635000Y-98958061D01*
X152635000Y-99161939D01*
X152674774Y-99361898D01*
X152752795Y-99550256D01*
X152866063Y-99719774D01*
X153010226Y-99863937D01*
X153179744Y-99977205D01*
X153368102Y-100055226D01*
X153568061Y-100095000D01*
X153630199Y-100095000D01*
X155138200Y-101603002D01*
X155161999Y-101632001D01*
X155190997Y-101655799D01*
X155277723Y-101726974D01*
X155358735Y-101770276D01*
X155409753Y-101797546D01*
X155553014Y-101841003D01*
X155664667Y-101852000D01*
X155664677Y-101852000D01*
X155702000Y-101855676D01*
X155739323Y-101852000D01*
X156841201Y-101852000D01*
X159260001Y-104270801D01*
X159260000Y-107119289D01*
X159216063Y-107163226D01*
X159102795Y-107332744D01*
X159024774Y-107521102D01*
X158985000Y-107721061D01*
X158985000Y-107924939D01*
X159024774Y-108124898D01*
X159102795Y-108313256D01*
X159216063Y-108482774D01*
X159360226Y-108626937D01*
X159529744Y-108740205D01*
X159718102Y-108818226D01*
X159918061Y-108858000D01*
X160121939Y-108858000D01*
X160321898Y-108818226D01*
X160510256Y-108740205D01*
X160679774Y-108626937D01*
X160823937Y-108482774D01*
X160937205Y-108313256D01*
X161015226Y-108124898D01*
X161055000Y-107924939D01*
X161055000Y-107721061D01*
X161015226Y-107521102D01*
X160937205Y-107332744D01*
X160823937Y-107163226D01*
X160780000Y-107119289D01*
X160780000Y-103993321D01*
X160783676Y-103955998D01*
X160780000Y-103918675D01*
X160780000Y-103918665D01*
X160769003Y-103807012D01*
X160725546Y-103663751D01*
X160654974Y-103531722D01*
X160560001Y-103415997D01*
X160531003Y-103392199D01*
X157719806Y-100581003D01*
X157696003Y-100551999D01*
X157580278Y-100457026D01*
X157448249Y-100386454D01*
X157304988Y-100342997D01*
X157193335Y-100332000D01*
X157193324Y-100332000D01*
X157156002Y-100328324D01*
X157118680Y-100332000D01*
X156016802Y-100332000D01*
X154705000Y-99020199D01*
X154705000Y-98958061D01*
X154665226Y-98758102D01*
X154587205Y-98569744D01*
X154473937Y-98400226D01*
X154329774Y-98256063D01*
X154160256Y-98142795D01*
X153971898Y-98064774D01*
X153771939Y-98025000D01*
X153568061Y-98025000D01*
X153368102Y-98064774D01*
X153179744Y-98142795D01*
X153010226Y-98256063D01*
X152866063Y-98400226D01*
X152752795Y-98569744D01*
X152674774Y-98758102D01*
X152635000Y-98958061D01*
X122121814Y-98958061D01*
X122123200Y-98951098D01*
X122123200Y-98660902D01*
X122066586Y-98376283D01*
X121955533Y-98108178D01*
X121794309Y-97866890D01*
X121589110Y-97661691D01*
X121401001Y-97536000D01*
X121589110Y-97410309D01*
X121794309Y-97205110D01*
X121955533Y-96963822D01*
X122066586Y-96695717D01*
X122123200Y-96411098D01*
X122123200Y-96120902D01*
X122066586Y-95836283D01*
X121955533Y-95568178D01*
X121794309Y-95326890D01*
X121589110Y-95121691D01*
X121401001Y-94996000D01*
X121589110Y-94870309D01*
X121794309Y-94665110D01*
X121955533Y-94423822D01*
X122066586Y-94155717D01*
X122123200Y-93871098D01*
X122123200Y-93580902D01*
X122066586Y-93296283D01*
X121955533Y-93028178D01*
X121794309Y-92786890D01*
X121589110Y-92581691D01*
X121401001Y-92456000D01*
X121589110Y-92330309D01*
X121794309Y-92125110D01*
X121955533Y-91883822D01*
X122066586Y-91615717D01*
X122123200Y-91331098D01*
X122123200Y-91040902D01*
X122066586Y-90756283D01*
X121955533Y-90488178D01*
X121794309Y-90246890D01*
X121589110Y-90041691D01*
X121347822Y-89880467D01*
X121079717Y-89769414D01*
X120795098Y-89712800D01*
X120504902Y-89712800D01*
X120220283Y-89769414D01*
X119952178Y-89880467D01*
X119710890Y-90041691D01*
X119505691Y-90246890D01*
X119344467Y-90488178D01*
X119233414Y-90756283D01*
X119176800Y-91040902D01*
X119176800Y-91331098D01*
X119233414Y-91615717D01*
X119344467Y-91883822D01*
X119505691Y-92125110D01*
X119710890Y-92330309D01*
X119898999Y-92456000D01*
X119710890Y-92581691D01*
X119505691Y-92786890D01*
X119344467Y-93028178D01*
X119233414Y-93296283D01*
X119176800Y-93580902D01*
X119176800Y-93871098D01*
X119233414Y-94155717D01*
X119344467Y-94423822D01*
X119505691Y-94665110D01*
X119710890Y-94870309D01*
X119898999Y-94996000D01*
X119710890Y-95121691D01*
X119505691Y-95326890D01*
X119344467Y-95568178D01*
X119233414Y-95836283D01*
X119176800Y-96120902D01*
X119176800Y-96411098D01*
X119233414Y-96695717D01*
X119344467Y-96963822D01*
X119505691Y-97205110D01*
X119710890Y-97410309D01*
X119898999Y-97536000D01*
X119710890Y-97661691D01*
X119505691Y-97866890D01*
X119344467Y-98108178D01*
X119233414Y-98376283D01*
X119176800Y-98660902D01*
X119176800Y-98797998D01*
X116330000Y-95951199D01*
X116330000Y-89953323D01*
X116333676Y-89916000D01*
X116330000Y-89878677D01*
X116330000Y-89878667D01*
X116319003Y-89767014D01*
X116275546Y-89623753D01*
X116204974Y-89491723D01*
X116133799Y-89404997D01*
X116110001Y-89375999D01*
X116081003Y-89352201D01*
X111250000Y-84521199D01*
X111250000Y-84082000D01*
X112947928Y-84082000D01*
X112947928Y-85590000D01*
X112960188Y-85714482D01*
X112996498Y-85834180D01*
X113055463Y-85944494D01*
X113134815Y-86041185D01*
X113231506Y-86120537D01*
X113341820Y-86179502D01*
X113461518Y-86215812D01*
X113586000Y-86228072D01*
X115094000Y-86228072D01*
X115218482Y-86215812D01*
X115338180Y-86179502D01*
X115448494Y-86120537D01*
X115545185Y-86041185D01*
X115624537Y-85944494D01*
X115683502Y-85834180D01*
X115719812Y-85714482D01*
X115724518Y-85666698D01*
X115761093Y-85721436D01*
X115954564Y-85914907D01*
X116182062Y-86066916D01*
X116434844Y-86171622D01*
X116703195Y-86225000D01*
X116976805Y-86225000D01*
X117245156Y-86171622D01*
X117497938Y-86066916D01*
X117725436Y-85914907D01*
X117918907Y-85721436D01*
X118070916Y-85493938D01*
X118090000Y-85447865D01*
X118109084Y-85493938D01*
X118261093Y-85721436D01*
X118454564Y-85914907D01*
X118682062Y-86066916D01*
X118934844Y-86171622D01*
X119203195Y-86225000D01*
X119476805Y-86225000D01*
X119745156Y-86171622D01*
X119997938Y-86066916D01*
X120225436Y-85914907D01*
X120418907Y-85721436D01*
X120570916Y-85493938D01*
X120675622Y-85241156D01*
X120729000Y-84972805D01*
X120729000Y-84699195D01*
X120675622Y-84430844D01*
X120570916Y-84178062D01*
X120506730Y-84082000D01*
X124377928Y-84082000D01*
X124377928Y-85590000D01*
X124390188Y-85714482D01*
X124426498Y-85834180D01*
X124485463Y-85944494D01*
X124564815Y-86041185D01*
X124661506Y-86120537D01*
X124771820Y-86179502D01*
X124891518Y-86215812D01*
X125016000Y-86228072D01*
X126524000Y-86228072D01*
X126648482Y-86215812D01*
X126768180Y-86179502D01*
X126878494Y-86120537D01*
X126975185Y-86041185D01*
X127054537Y-85944494D01*
X127113502Y-85834180D01*
X127125128Y-85795851D01*
X127489754Y-85795851D01*
X127555765Y-86035127D01*
X127803426Y-86151426D01*
X128069018Y-86217174D01*
X128342334Y-86229845D01*
X128612870Y-86188951D01*
X128870229Y-86096063D01*
X128984235Y-86035127D01*
X129050246Y-85795851D01*
X129989754Y-85795851D01*
X130055765Y-86035127D01*
X130303426Y-86151426D01*
X130569018Y-86217174D01*
X130842334Y-86229845D01*
X131112870Y-86188951D01*
X131370229Y-86096063D01*
X131484235Y-86035127D01*
X131550246Y-85795851D01*
X130770000Y-85015605D01*
X129989754Y-85795851D01*
X129050246Y-85795851D01*
X128270000Y-85015605D01*
X127489754Y-85795851D01*
X127125128Y-85795851D01*
X127149812Y-85714482D01*
X127162072Y-85590000D01*
X127162072Y-85575395D01*
X127310149Y-85616246D01*
X128090395Y-84836000D01*
X128449605Y-84836000D01*
X129229851Y-85616246D01*
X129469127Y-85550235D01*
X129516711Y-85448903D01*
X129570873Y-85550235D01*
X129810149Y-85616246D01*
X130590395Y-84836000D01*
X130949605Y-84836000D01*
X131729851Y-85616246D01*
X131969127Y-85550235D01*
X132085426Y-85302574D01*
X132151174Y-85036982D01*
X132163845Y-84763666D01*
X132122951Y-84493130D01*
X132030063Y-84235771D01*
X131969127Y-84121765D01*
X131729851Y-84055754D01*
X130949605Y-84836000D01*
X130590395Y-84836000D01*
X129810149Y-84055754D01*
X129570873Y-84121765D01*
X129523289Y-84223097D01*
X129469127Y-84121765D01*
X129229851Y-84055754D01*
X128449605Y-84836000D01*
X128090395Y-84836000D01*
X127310149Y-84055754D01*
X127162072Y-84096605D01*
X127162072Y-84082000D01*
X127149812Y-83957518D01*
X127125129Y-83876149D01*
X127489754Y-83876149D01*
X128270000Y-84656395D01*
X129050246Y-83876149D01*
X129989754Y-83876149D01*
X130770000Y-84656395D01*
X131550246Y-83876149D01*
X131484235Y-83636873D01*
X131236574Y-83520574D01*
X130970982Y-83454826D01*
X130697666Y-83442155D01*
X130427130Y-83483049D01*
X130169771Y-83575937D01*
X130055765Y-83636873D01*
X129989754Y-83876149D01*
X129050246Y-83876149D01*
X128984235Y-83636873D01*
X128736574Y-83520574D01*
X128470982Y-83454826D01*
X128197666Y-83442155D01*
X127927130Y-83483049D01*
X127669771Y-83575937D01*
X127555765Y-83636873D01*
X127489754Y-83876149D01*
X127125129Y-83876149D01*
X127113502Y-83837820D01*
X127054537Y-83727506D01*
X126975185Y-83630815D01*
X126878494Y-83551463D01*
X126768180Y-83492498D01*
X126648482Y-83456188D01*
X126524000Y-83443928D01*
X125016000Y-83443928D01*
X124891518Y-83456188D01*
X124771820Y-83492498D01*
X124661506Y-83551463D01*
X124564815Y-83630815D01*
X124485463Y-83727506D01*
X124426498Y-83837820D01*
X124390188Y-83957518D01*
X124377928Y-84082000D01*
X120506730Y-84082000D01*
X120418907Y-83950564D01*
X120225436Y-83757093D01*
X119997938Y-83605084D01*
X119745156Y-83500378D01*
X119476805Y-83447000D01*
X119203195Y-83447000D01*
X118934844Y-83500378D01*
X118682062Y-83605084D01*
X118454564Y-83757093D01*
X118261093Y-83950564D01*
X118109084Y-84178062D01*
X118090000Y-84224135D01*
X118070916Y-84178062D01*
X117918907Y-83950564D01*
X117725436Y-83757093D01*
X117497938Y-83605084D01*
X117245156Y-83500378D01*
X116976805Y-83447000D01*
X116703195Y-83447000D01*
X116434844Y-83500378D01*
X116182062Y-83605084D01*
X115954564Y-83757093D01*
X115761093Y-83950564D01*
X115724518Y-84005302D01*
X115719812Y-83957518D01*
X115683502Y-83837820D01*
X115624537Y-83727506D01*
X115545185Y-83630815D01*
X115448494Y-83551463D01*
X115338180Y-83492498D01*
X115218482Y-83456188D01*
X115094000Y-83443928D01*
X113586000Y-83443928D01*
X113461518Y-83456188D01*
X113341820Y-83492498D01*
X113231506Y-83551463D01*
X113134815Y-83630815D01*
X113055463Y-83727506D01*
X112996498Y-83837820D01*
X112960188Y-83957518D01*
X112947928Y-84082000D01*
X111250000Y-84082000D01*
X111250000Y-81729711D01*
X111293937Y-81685774D01*
X111407205Y-81516256D01*
X111485226Y-81327898D01*
X111525000Y-81127939D01*
X111525000Y-80924061D01*
X111485226Y-80724102D01*
X111407205Y-80535744D01*
X111293937Y-80366226D01*
X111149774Y-80222063D01*
X110980256Y-80108795D01*
X110791898Y-80030774D01*
X110591939Y-79991000D01*
X110388061Y-79991000D01*
X110188102Y-80030774D01*
X109999744Y-80108795D01*
X109830226Y-80222063D01*
X109686063Y-80366226D01*
X109572795Y-80535744D01*
X109494774Y-80724102D01*
X109455000Y-80924061D01*
X106120000Y-80924061D01*
X106120000Y-77686000D01*
X117941928Y-77686000D01*
X117941928Y-79286000D01*
X117954188Y-79410482D01*
X117990498Y-79530180D01*
X118049463Y-79640494D01*
X118128815Y-79737185D01*
X118225506Y-79816537D01*
X118335820Y-79875502D01*
X118455518Y-79911812D01*
X118580000Y-79924072D01*
X120180000Y-79924072D01*
X120304482Y-79911812D01*
X120424180Y-79875502D01*
X120534494Y-79816537D01*
X120631185Y-79737185D01*
X120710537Y-79640494D01*
X120769502Y-79530180D01*
X120785117Y-79478702D01*
X121066903Y-79478702D01*
X121138486Y-79722671D01*
X121393996Y-79843571D01*
X121668184Y-79912300D01*
X121950512Y-79926217D01*
X122230130Y-79884787D01*
X122496292Y-79789603D01*
X122621514Y-79722671D01*
X122693097Y-79478702D01*
X121880000Y-78665605D01*
X121066903Y-79478702D01*
X120785117Y-79478702D01*
X120805812Y-79410482D01*
X120818072Y-79286000D01*
X120818072Y-79278785D01*
X120887298Y-79299097D01*
X121700395Y-78486000D01*
X122059605Y-78486000D01*
X122872702Y-79299097D01*
X123116671Y-79227514D01*
X123237571Y-78972004D01*
X123306300Y-78697816D01*
X123320217Y-78415488D01*
X123278787Y-78135870D01*
X123183603Y-77869708D01*
X123116671Y-77744486D01*
X122872702Y-77672903D01*
X122059605Y-78486000D01*
X121700395Y-78486000D01*
X120887298Y-77672903D01*
X120818072Y-77693215D01*
X120818072Y-77686000D01*
X120805812Y-77561518D01*
X120785118Y-77493298D01*
X121066903Y-77493298D01*
X121880000Y-78306395D01*
X122693097Y-77493298D01*
X122621514Y-77249329D01*
X122366004Y-77128429D01*
X122091816Y-77059700D01*
X121809488Y-77045783D01*
X121529870Y-77087213D01*
X121263708Y-77182397D01*
X121138486Y-77249329D01*
X121066903Y-77493298D01*
X120785118Y-77493298D01*
X120769502Y-77441820D01*
X120710537Y-77331506D01*
X120631185Y-77234815D01*
X120534494Y-77155463D01*
X120424180Y-77096498D01*
X120304482Y-77060188D01*
X120180000Y-77047928D01*
X118580000Y-77047928D01*
X118455518Y-77060188D01*
X118335820Y-77096498D01*
X118225506Y-77155463D01*
X118128815Y-77234815D01*
X118049463Y-77331506D01*
X117990498Y-77441820D01*
X117954188Y-77561518D01*
X117941928Y-77686000D01*
X106120000Y-77686000D01*
X106120000Y-71858702D01*
X108192903Y-71858702D01*
X108264486Y-72102671D01*
X108519996Y-72223571D01*
X108794184Y-72292300D01*
X109076512Y-72306217D01*
X109356130Y-72264787D01*
X109622292Y-72169603D01*
X109747514Y-72102671D01*
X109819097Y-71858702D01*
X109006000Y-71045605D01*
X108192903Y-71858702D01*
X106120000Y-71858702D01*
X106120000Y-70936512D01*
X107565783Y-70936512D01*
X107607213Y-71216130D01*
X107702397Y-71482292D01*
X107769329Y-71607514D01*
X108013298Y-71679097D01*
X108826395Y-70866000D01*
X109185605Y-70866000D01*
X109998702Y-71679097D01*
X110067928Y-71658785D01*
X110067928Y-71666000D01*
X110080188Y-71790482D01*
X110116498Y-71910180D01*
X110175463Y-72020494D01*
X110254815Y-72117185D01*
X110351506Y-72196537D01*
X110461820Y-72255502D01*
X110581518Y-72291812D01*
X110706000Y-72304072D01*
X112306000Y-72304072D01*
X112430482Y-72291812D01*
X112550180Y-72255502D01*
X112660494Y-72196537D01*
X112757185Y-72117185D01*
X112836537Y-72020494D01*
X112884865Y-71930080D01*
X123321525Y-71930080D01*
X123405208Y-72184261D01*
X123677775Y-72315158D01*
X123970642Y-72390365D01*
X124272553Y-72406991D01*
X124571907Y-72364397D01*
X124857199Y-72264222D01*
X125006792Y-72184261D01*
X125090475Y-71930080D01*
X124206000Y-71045605D01*
X123321525Y-71930080D01*
X112884865Y-71930080D01*
X112895502Y-71910180D01*
X112931812Y-71790482D01*
X112944072Y-71666000D01*
X112944072Y-70932553D01*
X122665009Y-70932553D01*
X122707603Y-71231907D01*
X122807778Y-71517199D01*
X122887739Y-71666792D01*
X123141920Y-71750475D01*
X124026395Y-70866000D01*
X124012253Y-70851858D01*
X124191858Y-70672253D01*
X124206000Y-70686395D01*
X124220143Y-70672253D01*
X124399748Y-70851858D01*
X124385605Y-70866000D01*
X125270080Y-71750475D01*
X125524261Y-71666792D01*
X125655158Y-71394225D01*
X125730365Y-71101358D01*
X125746991Y-70799447D01*
X125704397Y-70500093D01*
X125604222Y-70214801D01*
X125524261Y-70065208D01*
X125270082Y-69981526D01*
X125386030Y-69865578D01*
X125339265Y-69818813D01*
X125350180Y-69815502D01*
X125460494Y-69756537D01*
X125557185Y-69677185D01*
X125636537Y-69580494D01*
X125695502Y-69470180D01*
X125731812Y-69350482D01*
X125744072Y-69226000D01*
X125744072Y-67426000D01*
X125731812Y-67301518D01*
X125695502Y-67181820D01*
X125636537Y-67071506D01*
X125557185Y-66974815D01*
X125460494Y-66895463D01*
X125350180Y-66836498D01*
X125230482Y-66800188D01*
X125106000Y-66787928D01*
X123306000Y-66787928D01*
X123181518Y-66800188D01*
X123061820Y-66836498D01*
X122951506Y-66895463D01*
X122854815Y-66974815D01*
X122775463Y-67071506D01*
X122716498Y-67181820D01*
X122680188Y-67301518D01*
X122667928Y-67426000D01*
X122667928Y-69226000D01*
X122680188Y-69350482D01*
X122716498Y-69470180D01*
X122775463Y-69580494D01*
X122854815Y-69677185D01*
X122951506Y-69756537D01*
X123061820Y-69815502D01*
X123072735Y-69818813D01*
X123025970Y-69865578D01*
X123141918Y-69981526D01*
X122887739Y-70065208D01*
X122756842Y-70337775D01*
X122681635Y-70630642D01*
X122665009Y-70932553D01*
X112944072Y-70932553D01*
X112944072Y-70066000D01*
X112931812Y-69941518D01*
X112895502Y-69821820D01*
X112836537Y-69711506D01*
X112757185Y-69614815D01*
X112660494Y-69535463D01*
X112550180Y-69476498D01*
X112430482Y-69440188D01*
X112306000Y-69427928D01*
X110706000Y-69427928D01*
X110581518Y-69440188D01*
X110461820Y-69476498D01*
X110351506Y-69535463D01*
X110254815Y-69614815D01*
X110175463Y-69711506D01*
X110116498Y-69821820D01*
X110080188Y-69941518D01*
X110067928Y-70066000D01*
X110067928Y-70073215D01*
X109998702Y-70052903D01*
X109185605Y-70866000D01*
X108826395Y-70866000D01*
X108013298Y-70052903D01*
X107769329Y-70124486D01*
X107648429Y-70379996D01*
X107579700Y-70654184D01*
X107565783Y-70936512D01*
X106120000Y-70936512D01*
X106120000Y-69873298D01*
X108192903Y-69873298D01*
X109006000Y-70686395D01*
X109819097Y-69873298D01*
X109747514Y-69629329D01*
X109492004Y-69508429D01*
X109217816Y-69439700D01*
X108935488Y-69425783D01*
X108655870Y-69467213D01*
X108389708Y-69562397D01*
X108264486Y-69629329D01*
X108192903Y-69873298D01*
X106120000Y-69873298D01*
X106120000Y-64186000D01*
X112811928Y-64186000D01*
X112811928Y-65874000D01*
G37*
%TD.AperFunction*%
%TD*%
M02*
