M48
; DRILL file {KiCad (5.1.8)-1} date 03/17/21 23:27:16
; FORMAT={-:-/ absolute / inch / decimal}
; #@! TF.CreationDate,2021-03-17T23:27:16-07:00
; #@! TF.GenerationSoftware,Kicad,Pcbnew,(5.1.8)-1
FMAT,2
INCH
T1C0.0157
T2C0.0236
T3C0.0276
T4C0.0315
T5C0.0354
T6C0.0394
T7C0.0440
T8C0.0984
%
G90
G05
T1
X4.3173Y-4.3691
X4.3173Y-4.6152
X4.3173Y-4.8613
X4.35Y-3.19
X4.5634Y-4.3691
X4.5634Y-4.6152
X4.5634Y-4.8613
X4.6307Y-2.9671
X4.8094Y-4.3691
X4.8094Y-4.6152
X4.8094Y-4.8613
X5.0555Y-3.6309
X5.0555Y-3.877
X5.0555Y-4.3691
X5.0555Y-4.6152
X5.0555Y-4.8613
X5.1Y-2.99
X5.15Y-4.0309
X5.17Y-2.82
X5.3016Y-3.877
X5.3016Y-4.3691
X5.3016Y-4.6152
X5.3016Y-4.8613
X5.49Y-4.31
X5.51Y-2.98
X5.53Y-4.04
X5.5476Y-3.6309
X5.5476Y-4.6152
X5.5476Y-4.8613
X5.6Y-4.24
X5.61Y-4.0
X5.65Y-3.14
X5.72Y-2.61
X5.73Y-4.44
X5.77Y-3.3
X5.79Y-4.24
X5.7937Y-3.6309
X5.7937Y-3.877
X5.7937Y-4.6152
X5.7937Y-4.8613
X5.81Y-4.02
X5.85Y-4.08
X5.89Y-4.44
X5.95Y-4.09
X6.0398Y-3.6309
X6.0398Y-4.6152
X6.0398Y-4.8613
X6.05Y-3.9
X6.07Y-4.3
X6.1Y-4.09
X6.17Y-4.05
X6.2858Y-3.6309
X6.2858Y-3.877
X6.2858Y-4.6152
X6.2858Y-4.8613
X6.3Y-4.245
X6.3Y-4.31
X6.365Y-4.095
X6.38Y-4.325
X6.42Y-4.04
X6.445Y-4.355
X6.495Y-4.355
X6.53Y-4.32
X6.5319Y-3.6309
X6.5319Y-3.877
X6.5319Y-4.6152
X6.5319Y-4.8613
X6.57Y-4.16
X6.778Y-3.6309
X6.778Y-3.877
X6.778Y-4.1231
X6.778Y-4.3691
X6.778Y-4.6152
X6.778Y-4.8613
X7.024Y-3.6309
X7.024Y-3.877
X7.024Y-4.1231
X7.024Y-4.3691
X7.024Y-4.6152
X7.2701Y-3.6309
X7.2701Y-3.877
X7.2701Y-4.1231
X7.2701Y-4.6152
X7.5161Y-3.6309
X7.5161Y-3.877
X7.5161Y-4.1231
X7.5161Y-4.6152
X7.5161Y-4.8613
X7.7622Y-3.6309
X7.7622Y-3.877
X7.7622Y-4.1231
X7.7622Y-4.6152
X7.7622Y-4.8613
X7.87Y-5.03
X8.0083Y-3.6309
X8.0083Y-3.877
X8.0083Y-4.1231
X8.0083Y-4.6152
X8.0083Y-4.8613
X8.2543Y-3.6309
X8.2543Y-3.877
X8.2543Y-4.6152
X8.2543Y-4.8613
T2
X4.25Y-3.69
X4.25Y-3.7687
T3
X6.9836Y-4.8993
X6.9836Y-4.9978
X7.3143Y-4.8993
X7.3143Y-4.9978
X8.1929Y-4.0662
X8.1929Y-4.3969
X8.2913Y-4.0662
X8.2913Y-4.3969
T4
X4.9066Y-4.185
X5.005Y-4.185
X4.7Y-3.09
X4.7984Y-3.09
X4.2916Y-2.79
X4.39Y-2.79
T5
X4.89Y-2.69
X4.89Y-2.79
T6
X4.9516Y-3.34
X5.05Y-3.34
X5.1484Y-3.34
X4.5Y-2.56
X4.6Y-2.56
X5.2Y-2.56
X5.3Y-2.56
X4.5016Y-3.34
X4.6Y-3.34
X4.6984Y-3.34
T7
X4.45Y-3.59
X4.45Y-3.69
X4.45Y-3.79
X4.45Y-3.89
X4.45Y-3.99
X4.45Y-4.09
X4.45Y-4.19
X4.45Y-4.29
X4.75Y-3.59
X4.75Y-3.69
X4.75Y-3.79
X4.75Y-3.89
X4.75Y-3.99
X4.75Y-4.09
X4.75Y-4.19
X4.75Y-4.29
T8
X6.8646Y-2.79
T0
M30
