%TF.GenerationSoftware,KiCad,Pcbnew,(5.1.8)-1*%
%TF.CreationDate,2021-03-17T23:27:18-07:00*%
%TF.ProjectId,coffee-vivaldi-tx,636f6666-6565-42d7-9669-76616c64692d,rev?*%
%TF.SameCoordinates,Original*%
%TF.FileFunction,Copper,L1,Top*%
%TF.FilePolarity,Positive*%
%FSLAX46Y46*%
G04 Gerber Fmt 4.6, Leading zero omitted, Abs format (unit mm)*
G04 Created by KiCad (PCBNEW (5.1.8)-1) date 2021-03-17 23:27:18*
%MOMM*%
%LPD*%
G01*
G04 APERTURE LIST*
%TA.AperFunction,ComponentPad*%
%ADD10C,1.676400*%
%TD*%
%TA.AperFunction,ComponentPad*%
%ADD11R,1.676400X1.676400*%
%TD*%
%TA.AperFunction,ComponentPad*%
%ADD12C,1.508000*%
%TD*%
%TA.AperFunction,ComponentPad*%
%ADD13R,1.508000X1.508000*%
%TD*%
%TA.AperFunction,SMDPad,CuDef*%
%ADD14R,1.420000X0.470000*%
%TD*%
%TA.AperFunction,SMDPad,CuDef*%
%ADD15R,1.100000X1.100000*%
%TD*%
%TA.AperFunction,SMDPad,CuDef*%
%ADD16R,0.840000X0.270000*%
%TD*%
%TA.AperFunction,SMDPad,CuDef*%
%ADD17R,0.270000X0.840000*%
%TD*%
%TA.AperFunction,ComponentPad*%
%ADD18R,1.600000X2.500000*%
%TD*%
%TA.AperFunction,SMDPad,CuDef*%
%ADD19R,1.500000X5.600000*%
%TD*%
%TA.AperFunction,ComponentPad*%
%ADD20R,2.500000X1.600000*%
%TD*%
%TA.AperFunction,SMDPad,CuDef*%
%ADD21R,5.600000X1.500000*%
%TD*%
%TA.AperFunction,ComponentPad*%
%ADD22O,1.700000X1.700000*%
%TD*%
%TA.AperFunction,ComponentPad*%
%ADD23R,1.700000X1.700000*%
%TD*%
%TA.AperFunction,ComponentPad*%
%ADD24R,1.800000X1.800000*%
%TD*%
%TA.AperFunction,ComponentPad*%
%ADD25C,1.800000*%
%TD*%
%TA.AperFunction,SMDPad,CuDef*%
%ADD26R,0.950000X2.150000*%
%TD*%
%TA.AperFunction,SMDPad,CuDef*%
%ADD27R,3.250000X2.150000*%
%TD*%
%TA.AperFunction,ComponentPad*%
%ADD28R,1.600000X1.600000*%
%TD*%
%TA.AperFunction,ComponentPad*%
%ADD29C,1.600000*%
%TD*%
%TA.AperFunction,ComponentPad*%
%ADD30R,1.200000X1.200000*%
%TD*%
%TA.AperFunction,ComponentPad*%
%ADD31C,1.200000*%
%TD*%
%TA.AperFunction,ViaPad*%
%ADD32C,0.800000*%
%TD*%
%TA.AperFunction,ViaPad*%
%ADD33C,5.000000*%
%TD*%
%TA.AperFunction,Conductor*%
%ADD34C,0.250000*%
%TD*%
%TA.AperFunction,Conductor*%
%ADD35C,0.800000*%
%TD*%
%TA.AperFunction,Conductor*%
%ADD36C,0.750000*%
%TD*%
%TA.AperFunction,Conductor*%
%ADD37C,0.400000*%
%TD*%
%TA.AperFunction,Conductor*%
%ADD38C,1.000000*%
%TD*%
%TA.AperFunction,Conductor*%
%ADD39C,1.500000*%
%TD*%
%TA.AperFunction,Conductor*%
%ADD40C,2.521590*%
%TD*%
G04 APERTURE END LIST*
%TO.P,C1,1*%
%TO.N,GND*%
%TA.AperFunction,SMDPad,CuDef*%
G36*
G01*
X140495000Y-103706000D02*
X141445000Y-103706000D01*
G75*
G02*
X141695000Y-103956000I0J-250000D01*
G01*
X141695000Y-104456000D01*
G75*
G02*
X141445000Y-104706000I-250000J0D01*
G01*
X140495000Y-104706000D01*
G75*
G02*
X140245000Y-104456000I0J250000D01*
G01*
X140245000Y-103956000D01*
G75*
G02*
X140495000Y-103706000I250000J0D01*
G01*
G37*
%TD.AperFunction*%
%TO.P,C1,2*%
%TO.N,Net-(C1-Pad2)*%
%TA.AperFunction,SMDPad,CuDef*%
G36*
G01*
X140495000Y-105606000D02*
X141445000Y-105606000D01*
G75*
G02*
X141695000Y-105856000I0J-250000D01*
G01*
X141695000Y-106356000D01*
G75*
G02*
X141445000Y-106606000I-250000J0D01*
G01*
X140495000Y-106606000D01*
G75*
G02*
X140245000Y-106356000I0J250000D01*
G01*
X140245000Y-105856000D01*
G75*
G02*
X140495000Y-105606000I250000J0D01*
G01*
G37*
%TD.AperFunction*%
%TD*%
%TO.P,C2,1*%
%TO.N,Net-(BT1-Pad2)*%
%TA.AperFunction,SMDPad,CuDef*%
G36*
G01*
X136070000Y-70391000D02*
X136070000Y-71341000D01*
G75*
G02*
X135820000Y-71591000I-250000J0D01*
G01*
X135320000Y-71591000D01*
G75*
G02*
X135070000Y-71341000I0J250000D01*
G01*
X135070000Y-70391000D01*
G75*
G02*
X135320000Y-70141000I250000J0D01*
G01*
X135820000Y-70141000D01*
G75*
G02*
X136070000Y-70391000I0J-250000D01*
G01*
G37*
%TD.AperFunction*%
%TO.P,C2,2*%
%TO.N,GND*%
%TA.AperFunction,SMDPad,CuDef*%
G36*
G01*
X134170000Y-70391000D02*
X134170000Y-71341000D01*
G75*
G02*
X133920000Y-71591000I-250000J0D01*
G01*
X133420000Y-71591000D01*
G75*
G02*
X133170000Y-71341000I0J250000D01*
G01*
X133170000Y-70391000D01*
G75*
G02*
X133420000Y-70141000I250000J0D01*
G01*
X133920000Y-70141000D01*
G75*
G02*
X134170000Y-70391000I0J-250000D01*
G01*
G37*
%TD.AperFunction*%
%TD*%
%TO.P,C3,1*%
%TO.N,5V_OUT*%
%TA.AperFunction,SMDPad,CuDef*%
G36*
G01*
X143670000Y-75131000D02*
X144620000Y-75131000D01*
G75*
G02*
X144870000Y-75381000I0J-250000D01*
G01*
X144870000Y-75881000D01*
G75*
G02*
X144620000Y-76131000I-250000J0D01*
G01*
X143670000Y-76131000D01*
G75*
G02*
X143420000Y-75881000I0J250000D01*
G01*
X143420000Y-75381000D01*
G75*
G02*
X143670000Y-75131000I250000J0D01*
G01*
G37*
%TD.AperFunction*%
%TO.P,C3,2*%
%TO.N,GND*%
%TA.AperFunction,SMDPad,CuDef*%
G36*
G01*
X143670000Y-77031000D02*
X144620000Y-77031000D01*
G75*
G02*
X144870000Y-77281000I0J-250000D01*
G01*
X144870000Y-77781000D01*
G75*
G02*
X144620000Y-78031000I-250000J0D01*
G01*
X143670000Y-78031000D01*
G75*
G02*
X143420000Y-77781000I0J250000D01*
G01*
X143420000Y-77281000D01*
G75*
G02*
X143670000Y-77031000I250000J0D01*
G01*
G37*
%TD.AperFunction*%
%TD*%
%TO.P,C4,2*%
%TO.N,Net-(C4-Pad2)*%
%TA.AperFunction,SMDPad,CuDef*%
G36*
G01*
X142436000Y-109949000D02*
X142436000Y-108999000D01*
G75*
G02*
X142686000Y-108749000I250000J0D01*
G01*
X143186000Y-108749000D01*
G75*
G02*
X143436000Y-108999000I0J-250000D01*
G01*
X143436000Y-109949000D01*
G75*
G02*
X143186000Y-110199000I-250000J0D01*
G01*
X142686000Y-110199000D01*
G75*
G02*
X142436000Y-109949000I0J250000D01*
G01*
G37*
%TD.AperFunction*%
%TO.P,C4,1*%
%TO.N,GND*%
%TA.AperFunction,SMDPad,CuDef*%
G36*
G01*
X140536000Y-109949000D02*
X140536000Y-108999000D01*
G75*
G02*
X140786000Y-108749000I250000J0D01*
G01*
X141286000Y-108749000D01*
G75*
G02*
X141536000Y-108999000I0J-250000D01*
G01*
X141536000Y-109949000D01*
G75*
G02*
X141286000Y-110199000I-250000J0D01*
G01*
X140786000Y-110199000D01*
G75*
G02*
X140536000Y-109949000I0J250000D01*
G01*
G37*
%TD.AperFunction*%
%TD*%
%TO.P,C6,2*%
%TO.N,GND*%
%TA.AperFunction,SMDPad,CuDef*%
G36*
G01*
X145128000Y-102166000D02*
X144178000Y-102166000D01*
G75*
G02*
X143928000Y-101916000I0J250000D01*
G01*
X143928000Y-101416000D01*
G75*
G02*
X144178000Y-101166000I250000J0D01*
G01*
X145128000Y-101166000D01*
G75*
G02*
X145378000Y-101416000I0J-250000D01*
G01*
X145378000Y-101916000D01*
G75*
G02*
X145128000Y-102166000I-250000J0D01*
G01*
G37*
%TD.AperFunction*%
%TO.P,C6,1*%
%TO.N,Net-(C6-Pad1)*%
%TA.AperFunction,SMDPad,CuDef*%
G36*
G01*
X145128000Y-104066000D02*
X144178000Y-104066000D01*
G75*
G02*
X143928000Y-103816000I0J250000D01*
G01*
X143928000Y-103316000D01*
G75*
G02*
X144178000Y-103066000I250000J0D01*
G01*
X145128000Y-103066000D01*
G75*
G02*
X145378000Y-103316000I0J-250000D01*
G01*
X145378000Y-103816000D01*
G75*
G02*
X145128000Y-104066000I-250000J0D01*
G01*
G37*
%TD.AperFunction*%
%TD*%
%TO.P,C9,1*%
%TO.N,Net-(C9-Pad1)*%
%TA.AperFunction,SMDPad,CuDef*%
G36*
G01*
X124874000Y-96086000D02*
X125824000Y-96086000D01*
G75*
G02*
X126074000Y-96336000I0J-250000D01*
G01*
X126074000Y-96836000D01*
G75*
G02*
X125824000Y-97086000I-250000J0D01*
G01*
X124874000Y-97086000D01*
G75*
G02*
X124624000Y-96836000I0J250000D01*
G01*
X124624000Y-96336000D01*
G75*
G02*
X124874000Y-96086000I250000J0D01*
G01*
G37*
%TD.AperFunction*%
%TO.P,C9,2*%
%TO.N,Net-(C9-Pad2)*%
%TA.AperFunction,SMDPad,CuDef*%
G36*
G01*
X124874000Y-97986000D02*
X125824000Y-97986000D01*
G75*
G02*
X126074000Y-98236000I0J-250000D01*
G01*
X126074000Y-98736000D01*
G75*
G02*
X125824000Y-98986000I-250000J0D01*
G01*
X124874000Y-98986000D01*
G75*
G02*
X124624000Y-98736000I0J250000D01*
G01*
X124624000Y-98236000D01*
G75*
G02*
X124874000Y-97986000I250000J0D01*
G01*
G37*
%TD.AperFunction*%
%TD*%
%TO.P,C10,2*%
%TO.N,12V_OUT*%
%TA.AperFunction,SMDPad,CuDef*%
G36*
G01*
X115120000Y-72931000D02*
X115120000Y-73881000D01*
G75*
G02*
X114870000Y-74131000I-250000J0D01*
G01*
X114370000Y-74131000D01*
G75*
G02*
X114120000Y-73881000I0J250000D01*
G01*
X114120000Y-72931000D01*
G75*
G02*
X114370000Y-72681000I250000J0D01*
G01*
X114870000Y-72681000D01*
G75*
G02*
X115120000Y-72931000I0J-250000D01*
G01*
G37*
%TD.AperFunction*%
%TO.P,C10,1*%
%TO.N,GND*%
%TA.AperFunction,SMDPad,CuDef*%
G36*
G01*
X117020000Y-72931000D02*
X117020000Y-73881000D01*
G75*
G02*
X116770000Y-74131000I-250000J0D01*
G01*
X116270000Y-74131000D01*
G75*
G02*
X116020000Y-73881000I0J250000D01*
G01*
X116020000Y-72931000D01*
G75*
G02*
X116270000Y-72681000I250000J0D01*
G01*
X116770000Y-72681000D01*
G75*
G02*
X117020000Y-72931000I0J-250000D01*
G01*
G37*
%TD.AperFunction*%
%TD*%
%TO.P,C11,1*%
%TO.N,GND*%
%TA.AperFunction,SMDPad,CuDef*%
G36*
G01*
X150716000Y-111686000D02*
X149766000Y-111686000D01*
G75*
G02*
X149516000Y-111436000I0J250000D01*
G01*
X149516000Y-110936000D01*
G75*
G02*
X149766000Y-110686000I250000J0D01*
G01*
X150716000Y-110686000D01*
G75*
G02*
X150966000Y-110936000I0J-250000D01*
G01*
X150966000Y-111436000D01*
G75*
G02*
X150716000Y-111686000I-250000J0D01*
G01*
G37*
%TD.AperFunction*%
%TO.P,C11,2*%
%TO.N,5V_OUT*%
%TA.AperFunction,SMDPad,CuDef*%
G36*
G01*
X150716000Y-109786000D02*
X149766000Y-109786000D01*
G75*
G02*
X149516000Y-109536000I0J250000D01*
G01*
X149516000Y-109036000D01*
G75*
G02*
X149766000Y-108786000I250000J0D01*
G01*
X150716000Y-108786000D01*
G75*
G02*
X150966000Y-109036000I0J-250000D01*
G01*
X150966000Y-109536000D01*
G75*
G02*
X150716000Y-109786000I-250000J0D01*
G01*
G37*
%TD.AperFunction*%
%TD*%
%TO.P,C12,2*%
%TO.N,5V_OUT*%
%TA.AperFunction,SMDPad,CuDef*%
G36*
G01*
X146906000Y-109786000D02*
X145956000Y-109786000D01*
G75*
G02*
X145706000Y-109536000I0J250000D01*
G01*
X145706000Y-109036000D01*
G75*
G02*
X145956000Y-108786000I250000J0D01*
G01*
X146906000Y-108786000D01*
G75*
G02*
X147156000Y-109036000I0J-250000D01*
G01*
X147156000Y-109536000D01*
G75*
G02*
X146906000Y-109786000I-250000J0D01*
G01*
G37*
%TD.AperFunction*%
%TO.P,C12,1*%
%TO.N,GND*%
%TA.AperFunction,SMDPad,CuDef*%
G36*
G01*
X146906000Y-111686000D02*
X145956000Y-111686000D01*
G75*
G02*
X145706000Y-111436000I0J250000D01*
G01*
X145706000Y-110936000D01*
G75*
G02*
X145956000Y-110686000I250000J0D01*
G01*
X146906000Y-110686000D01*
G75*
G02*
X147156000Y-110936000I0J-250000D01*
G01*
X147156000Y-111436000D01*
G75*
G02*
X146906000Y-111686000I-250000J0D01*
G01*
G37*
%TD.AperFunction*%
%TD*%
D10*
%TO.P,G1,16*%
%TO.N,Net-(G1-Pad16)*%
X113030000Y-108966000D03*
%TO.P,G1,15*%
%TO.N,Net-(G1-Pad15)*%
X113030000Y-106426000D03*
%TO.P,G1,14*%
%TO.N,Net-(G1-Pad14)*%
X113030000Y-103886000D03*
%TO.P,G1,13*%
%TO.N,Net-(G1-Pad13)*%
X113030000Y-101346000D03*
%TO.P,G1,12*%
%TO.N,GND*%
X113030000Y-98806000D03*
%TO.P,G1,11*%
%TO.N,Net-(G1-Pad11)*%
X113030000Y-96266000D03*
%TO.P,G1,10*%
%TO.N,Net-(C13-Pad1)*%
X113030000Y-93726000D03*
%TO.P,G1,9*%
%TO.N,Net-(G1-Pad9)*%
X113030000Y-91186000D03*
%TO.P,G1,8*%
%TO.N,Net-(G1-Pad8)*%
X120650000Y-91186000D03*
%TO.P,G1,7*%
%TO.N,Net-(G1-Pad7)*%
X120650000Y-93726000D03*
%TO.P,G1,6*%
%TO.N,Net-(C9-Pad1)*%
X120650000Y-96266000D03*
%TO.P,G1,5*%
%TO.N,Net-(C9-Pad2)*%
X120650000Y-98806000D03*
%TO.P,G1,4*%
%TO.N,12V_OUT*%
X120650000Y-101346000D03*
%TO.P,G1,3*%
%TO.N,Net-(G1-Pad3)*%
X120650000Y-103886000D03*
%TO.P,G1,2*%
%TO.N,Net-(C7-Pad2)*%
X120650000Y-106426000D03*
D11*
%TO.P,G1,1*%
%TO.N,GND*%
X120650000Y-108966000D03*
%TD*%
%TO.P,R1,1*%
%TO.N,12V_OUT*%
%TA.AperFunction,SMDPad,CuDef*%
G36*
G01*
X114145000Y-68776002D02*
X114145000Y-67875998D01*
G75*
G02*
X114394998Y-67626000I249998J0D01*
G01*
X114920002Y-67626000D01*
G75*
G02*
X115170000Y-67875998I0J-249998D01*
G01*
X115170000Y-68776002D01*
G75*
G02*
X114920002Y-69026000I-249998J0D01*
G01*
X114394998Y-69026000D01*
G75*
G02*
X114145000Y-68776002I0J249998D01*
G01*
G37*
%TD.AperFunction*%
%TO.P,R1,2*%
%TO.N,Net-(D1-Pad1)*%
%TA.AperFunction,SMDPad,CuDef*%
G36*
G01*
X115970000Y-68776002D02*
X115970000Y-67875998D01*
G75*
G02*
X116219998Y-67626000I249998J0D01*
G01*
X116745002Y-67626000D01*
G75*
G02*
X116995000Y-67875998I0J-249998D01*
G01*
X116995000Y-68776002D01*
G75*
G02*
X116745002Y-69026000I-249998J0D01*
G01*
X116219998Y-69026000D01*
G75*
G02*
X115970000Y-68776002I0J249998D01*
G01*
G37*
%TD.AperFunction*%
%TD*%
%TO.P,R3,1*%
%TO.N,RAMP_SIGNAL*%
%TA.AperFunction,SMDPad,CuDef*%
G36*
G01*
X135735000Y-106876002D02*
X135735000Y-105975998D01*
G75*
G02*
X135984998Y-105726000I249998J0D01*
G01*
X136510002Y-105726000D01*
G75*
G02*
X136760000Y-105975998I0J-249998D01*
G01*
X136760000Y-106876002D01*
G75*
G02*
X136510002Y-107126000I-249998J0D01*
G01*
X135984998Y-107126000D01*
G75*
G02*
X135735000Y-106876002I0J249998D01*
G01*
G37*
%TD.AperFunction*%
%TO.P,R3,2*%
%TO.N,Net-(C1-Pad2)*%
%TA.AperFunction,SMDPad,CuDef*%
G36*
G01*
X137560000Y-106876002D02*
X137560000Y-105975998D01*
G75*
G02*
X137809998Y-105726000I249998J0D01*
G01*
X138335002Y-105726000D01*
G75*
G02*
X138585000Y-105975998I0J-249998D01*
G01*
X138585000Y-106876002D01*
G75*
G02*
X138335002Y-107126000I-249998J0D01*
G01*
X137809998Y-107126000D01*
G75*
G02*
X137560000Y-106876002I0J249998D01*
G01*
G37*
%TD.AperFunction*%
%TD*%
%TO.P,R4,2*%
%TO.N,Net-(C4-Pad2)*%
%TA.AperFunction,SMDPad,CuDef*%
G36*
G01*
X150436915Y-100354458D02*
X151336919Y-100354458D01*
G75*
G02*
X151586917Y-100604456I0J-249998D01*
G01*
X151586917Y-101129460D01*
G75*
G02*
X151336919Y-101379458I-249998J0D01*
G01*
X150436915Y-101379458D01*
G75*
G02*
X150186917Y-101129460I0J249998D01*
G01*
X150186917Y-100604456D01*
G75*
G02*
X150436915Y-100354458I249998J0D01*
G01*
G37*
%TD.AperFunction*%
%TO.P,R4,1*%
%TO.N,3.6V_OUT*%
%TA.AperFunction,SMDPad,CuDef*%
G36*
G01*
X150436915Y-98529458D02*
X151336919Y-98529458D01*
G75*
G02*
X151586917Y-98779456I0J-249998D01*
G01*
X151586917Y-99304460D01*
G75*
G02*
X151336919Y-99554458I-249998J0D01*
G01*
X150436915Y-99554458D01*
G75*
G02*
X150186917Y-99304460I0J249998D01*
G01*
X150186917Y-98779456D01*
G75*
G02*
X150436915Y-98529458I249998J0D01*
G01*
G37*
%TD.AperFunction*%
%TD*%
%TO.P,R5,1*%
%TO.N,3.6V_OUT*%
%TA.AperFunction,SMDPad,CuDef*%
G36*
G01*
X148847526Y-78006000D02*
X147947522Y-78006000D01*
G75*
G02*
X147697524Y-77756002I0J249998D01*
G01*
X147697524Y-77230998D01*
G75*
G02*
X147947522Y-76981000I249998J0D01*
G01*
X148847526Y-76981000D01*
G75*
G02*
X149097524Y-77230998I0J-249998D01*
G01*
X149097524Y-77756002D01*
G75*
G02*
X148847526Y-78006000I-249998J0D01*
G01*
G37*
%TD.AperFunction*%
%TO.P,R5,2*%
%TO.N,5V_OUT*%
%TA.AperFunction,SMDPad,CuDef*%
G36*
G01*
X148847526Y-76181000D02*
X147947522Y-76181000D01*
G75*
G02*
X147697524Y-75931002I0J249998D01*
G01*
X147697524Y-75405998D01*
G75*
G02*
X147947522Y-75156000I249998J0D01*
G01*
X148847526Y-75156000D01*
G75*
G02*
X149097524Y-75405998I0J-249998D01*
G01*
X149097524Y-75931002D01*
G75*
G02*
X148847526Y-76181000I-249998J0D01*
G01*
G37*
%TD.AperFunction*%
%TD*%
%TO.P,R6,1*%
%TO.N,GND*%
%TA.AperFunction,SMDPad,CuDef*%
G36*
G01*
X148847526Y-82451000D02*
X147947522Y-82451000D01*
G75*
G02*
X147697524Y-82201002I0J249998D01*
G01*
X147697524Y-81675998D01*
G75*
G02*
X147947522Y-81426000I249998J0D01*
G01*
X148847526Y-81426000D01*
G75*
G02*
X149097524Y-81675998I0J-249998D01*
G01*
X149097524Y-82201002D01*
G75*
G02*
X148847526Y-82451000I-249998J0D01*
G01*
G37*
%TD.AperFunction*%
%TO.P,R6,2*%
%TO.N,3.6V_OUT*%
%TA.AperFunction,SMDPad,CuDef*%
G36*
G01*
X148847526Y-80626000D02*
X147947522Y-80626000D01*
G75*
G02*
X147697524Y-80376002I0J249998D01*
G01*
X147697524Y-79850998D01*
G75*
G02*
X147947522Y-79601000I249998J0D01*
G01*
X148847526Y-79601000D01*
G75*
G02*
X149097524Y-79850998I0J-249998D01*
G01*
X149097524Y-80376002D01*
G75*
G02*
X148847526Y-80626000I-249998J0D01*
G01*
G37*
%TD.AperFunction*%
%TD*%
%TO.P,R7,2*%
%TO.N,12V_OUT*%
%TA.AperFunction,SMDPad,CuDef*%
G36*
G01*
X116020002Y-76816000D02*
X115119998Y-76816000D01*
G75*
G02*
X114870000Y-76566002I0J249998D01*
G01*
X114870000Y-76040998D01*
G75*
G02*
X115119998Y-75791000I249998J0D01*
G01*
X116020002Y-75791000D01*
G75*
G02*
X116270000Y-76040998I0J-249998D01*
G01*
X116270000Y-76566002D01*
G75*
G02*
X116020002Y-76816000I-249998J0D01*
G01*
G37*
%TD.AperFunction*%
%TO.P,R7,1*%
%TO.N,Net-(C5-Pad1)*%
%TA.AperFunction,SMDPad,CuDef*%
G36*
G01*
X116020002Y-78641000D02*
X115119998Y-78641000D01*
G75*
G02*
X114870000Y-78391002I0J249998D01*
G01*
X114870000Y-77865998D01*
G75*
G02*
X115119998Y-77616000I249998J0D01*
G01*
X116020002Y-77616000D01*
G75*
G02*
X116270000Y-77865998I0J-249998D01*
G01*
X116270000Y-78391002D01*
G75*
G02*
X116020002Y-78641000I-249998J0D01*
G01*
G37*
%TD.AperFunction*%
%TD*%
%TO.P,R9,1*%
%TO.N,GND*%
%TA.AperFunction,SMDPad,CuDef*%
G36*
G01*
X127155000Y-75495998D02*
X127155000Y-76396002D01*
G75*
G02*
X126905002Y-76646000I-249998J0D01*
G01*
X126379998Y-76646000D01*
G75*
G02*
X126130000Y-76396002I0J249998D01*
G01*
X126130000Y-75495998D01*
G75*
G02*
X126379998Y-75246000I249998J0D01*
G01*
X126905002Y-75246000D01*
G75*
G02*
X127155000Y-75495998I0J-249998D01*
G01*
G37*
%TD.AperFunction*%
%TO.P,R9,2*%
%TO.N,Net-(C5-Pad1)*%
%TA.AperFunction,SMDPad,CuDef*%
G36*
G01*
X125330000Y-75495998D02*
X125330000Y-76396002D01*
G75*
G02*
X125080002Y-76646000I-249998J0D01*
G01*
X124554998Y-76646000D01*
G75*
G02*
X124305000Y-76396002I0J249998D01*
G01*
X124305000Y-75495998D01*
G75*
G02*
X124554998Y-75246000I249998J0D01*
G01*
X125080002Y-75246000D01*
G75*
G02*
X125330000Y-75495998I0J-249998D01*
G01*
G37*
%TD.AperFunction*%
%TD*%
%TO.P,R10,2*%
%TO.N,GND*%
%TA.AperFunction,SMDPad,CuDef*%
G36*
G01*
X131260002Y-104756000D02*
X130359998Y-104756000D01*
G75*
G02*
X130110000Y-104506002I0J249998D01*
G01*
X130110000Y-103980998D01*
G75*
G02*
X130359998Y-103731000I249998J0D01*
G01*
X131260002Y-103731000D01*
G75*
G02*
X131510000Y-103980998I0J-249998D01*
G01*
X131510000Y-104506002D01*
G75*
G02*
X131260002Y-104756000I-249998J0D01*
G01*
G37*
%TD.AperFunction*%
%TO.P,R10,1*%
%TO.N,RAMP_SIGNAL*%
%TA.AperFunction,SMDPad,CuDef*%
G36*
G01*
X131260002Y-106581000D02*
X130359998Y-106581000D01*
G75*
G02*
X130110000Y-106331002I0J249998D01*
G01*
X130110000Y-105805998D01*
G75*
G02*
X130359998Y-105556000I249998J0D01*
G01*
X131260002Y-105556000D01*
G75*
G02*
X131510000Y-105805998I0J-249998D01*
G01*
X131510000Y-106331002D01*
G75*
G02*
X131260002Y-106581000I-249998J0D01*
G01*
G37*
%TD.AperFunction*%
%TD*%
%TO.P,R11,1*%
%TO.N,5V_OUT*%
%TA.AperFunction,SMDPad,CuDef*%
G36*
G01*
X132899998Y-103731000D02*
X133800002Y-103731000D01*
G75*
G02*
X134050000Y-103980998I0J-249998D01*
G01*
X134050000Y-104506002D01*
G75*
G02*
X133800002Y-104756000I-249998J0D01*
G01*
X132899998Y-104756000D01*
G75*
G02*
X132650000Y-104506002I0J249998D01*
G01*
X132650000Y-103980998D01*
G75*
G02*
X132899998Y-103731000I249998J0D01*
G01*
G37*
%TD.AperFunction*%
%TO.P,R11,2*%
%TO.N,RAMP_SIGNAL*%
%TA.AperFunction,SMDPad,CuDef*%
G36*
G01*
X132899998Y-105556000D02*
X133800002Y-105556000D01*
G75*
G02*
X134050000Y-105805998I0J-249998D01*
G01*
X134050000Y-106331002D01*
G75*
G02*
X133800002Y-106581000I-249998J0D01*
G01*
X132899998Y-106581000D01*
G75*
G02*
X132650000Y-106331002I0J249998D01*
G01*
X132650000Y-105805998D01*
G75*
G02*
X132899998Y-105556000I249998J0D01*
G01*
G37*
%TD.AperFunction*%
%TD*%
%TO.P,R12,1*%
%TO.N,Net-(R12-Pad1)*%
%TA.AperFunction,SMDPad,CuDef*%
G36*
G01*
X152203998Y-105763000D02*
X153104002Y-105763000D01*
G75*
G02*
X153354000Y-106012998I0J-249998D01*
G01*
X153354000Y-106538002D01*
G75*
G02*
X153104002Y-106788000I-249998J0D01*
G01*
X152203998Y-106788000D01*
G75*
G02*
X151954000Y-106538002I0J249998D01*
G01*
X151954000Y-106012998D01*
G75*
G02*
X152203998Y-105763000I249998J0D01*
G01*
G37*
%TD.AperFunction*%
%TO.P,R12,2*%
%TO.N,GND*%
%TA.AperFunction,SMDPad,CuDef*%
G36*
G01*
X152203998Y-107588000D02*
X153104002Y-107588000D01*
G75*
G02*
X153354000Y-107837998I0J-249998D01*
G01*
X153354000Y-108363002D01*
G75*
G02*
X153104002Y-108613000I-249998J0D01*
G01*
X152203998Y-108613000D01*
G75*
G02*
X151954000Y-108363002I0J249998D01*
G01*
X151954000Y-107837998D01*
G75*
G02*
X152203998Y-107588000I249998J0D01*
G01*
G37*
%TD.AperFunction*%
%TD*%
%TO.P,R13,2*%
%TO.N,Net-(R12-Pad1)*%
%TA.AperFunction,SMDPad,CuDef*%
G36*
G01*
X155302000Y-105721998D02*
X155302000Y-106622002D01*
G75*
G02*
X155052002Y-106872000I-249998J0D01*
G01*
X154526998Y-106872000D01*
G75*
G02*
X154277000Y-106622002I0J249998D01*
G01*
X154277000Y-105721998D01*
G75*
G02*
X154526998Y-105472000I249998J0D01*
G01*
X155052002Y-105472000D01*
G75*
G02*
X155302000Y-105721998I0J-249998D01*
G01*
G37*
%TD.AperFunction*%
%TO.P,R13,1*%
%TO.N,Net-(R13-Pad1)*%
%TA.AperFunction,SMDPad,CuDef*%
G36*
G01*
X157127000Y-105721998D02*
X157127000Y-106622002D01*
G75*
G02*
X156877002Y-106872000I-249998J0D01*
G01*
X156351998Y-106872000D01*
G75*
G02*
X156102000Y-106622002I0J249998D01*
G01*
X156102000Y-105721998D01*
G75*
G02*
X156351998Y-105472000I249998J0D01*
G01*
X156877002Y-105472000D01*
G75*
G02*
X157127000Y-105721998I0J-249998D01*
G01*
G37*
%TD.AperFunction*%
%TD*%
%TO.P,R14,2*%
%TO.N,Net-(R14-Pad2)*%
%TA.AperFunction,SMDPad,CuDef*%
G36*
G01*
X125799002Y-92437000D02*
X124898998Y-92437000D01*
G75*
G02*
X124649000Y-92187002I0J249998D01*
G01*
X124649000Y-91661998D01*
G75*
G02*
X124898998Y-91412000I249998J0D01*
G01*
X125799002Y-91412000D01*
G75*
G02*
X126049000Y-91661998I0J-249998D01*
G01*
X126049000Y-92187002D01*
G75*
G02*
X125799002Y-92437000I-249998J0D01*
G01*
G37*
%TD.AperFunction*%
%TO.P,R14,1*%
%TO.N,Net-(G1-Pad7)*%
%TA.AperFunction,SMDPad,CuDef*%
G36*
G01*
X125799002Y-94262000D02*
X124898998Y-94262000D01*
G75*
G02*
X124649000Y-94012002I0J249998D01*
G01*
X124649000Y-93486998D01*
G75*
G02*
X124898998Y-93237000I249998J0D01*
G01*
X125799002Y-93237000D01*
G75*
G02*
X126049000Y-93486998I0J-249998D01*
G01*
X126049000Y-94012002D01*
G75*
G02*
X125799002Y-94262000I-249998J0D01*
G01*
G37*
%TD.AperFunction*%
%TD*%
%TO.P,R15,2*%
%TO.N,GND*%
%TA.AperFunction,SMDPad,CuDef*%
G36*
G01*
X159708002Y-104883000D02*
X158807998Y-104883000D01*
G75*
G02*
X158558000Y-104633002I0J249998D01*
G01*
X158558000Y-104107998D01*
G75*
G02*
X158807998Y-103858000I249998J0D01*
G01*
X159708002Y-103858000D01*
G75*
G02*
X159958000Y-104107998I0J-249998D01*
G01*
X159958000Y-104633002D01*
G75*
G02*
X159708002Y-104883000I-249998J0D01*
G01*
G37*
%TD.AperFunction*%
%TO.P,R15,1*%
%TO.N,Net-(R13-Pad1)*%
%TA.AperFunction,SMDPad,CuDef*%
G36*
G01*
X159708002Y-106708000D02*
X158807998Y-106708000D01*
G75*
G02*
X158558000Y-106458002I0J249998D01*
G01*
X158558000Y-105932998D01*
G75*
G02*
X158807998Y-105683000I249998J0D01*
G01*
X159708002Y-105683000D01*
G75*
G02*
X159958000Y-105932998I0J-249998D01*
G01*
X159958000Y-106458002D01*
G75*
G02*
X159708002Y-106708000I-249998J0D01*
G01*
G37*
%TD.AperFunction*%
%TD*%
D12*
%TO.P,RV2,3*%
%TO.N,Net-(C5-Pad1)*%
X119340000Y-84836000D03*
%TO.P,RV2,2*%
X116840000Y-84836000D03*
D13*
%TO.P,RV2,1*%
%TO.N,Net-(G1-Pad3)*%
X114340000Y-84836000D03*
%TD*%
%TO.P,RV3,1*%
%TO.N,Net-(R14-Pad2)*%
X125770000Y-84836000D03*
D12*
%TO.P,RV3,2*%
%TO.N,GND*%
X128270000Y-84836000D03*
%TO.P,RV3,3*%
X130770000Y-84836000D03*
%TD*%
D14*
%TO.P,U1,8*%
%TO.N,GND*%
X149358000Y-105451000D03*
%TO.P,U1,7*%
%TO.N,Net-(R12-Pad1)*%
X149358000Y-106101000D03*
%TO.P,U1,6*%
%TO.N,5V_OUT*%
X149358000Y-106751000D03*
%TO.P,U1,5*%
X149358000Y-107401000D03*
%TO.P,U1,4*%
%TO.N,Net-(C4-Pad2)*%
X145028000Y-107401000D03*
%TO.P,U1,3*%
%TO.N,GND*%
X145028000Y-106751000D03*
%TO.P,U1,2*%
%TO.N,Net-(C1-Pad2)*%
X145028000Y-106101000D03*
%TO.P,U1,1*%
%TO.N,Net-(C6-Pad1)*%
X145028000Y-105451000D03*
%TD*%
D15*
%TO.P,U2,17*%
%TO.N,GND*%
X164211000Y-107061000D03*
D16*
%TO.P,U2,12*%
X165646000Y-106311000D03*
%TO.P,U2,11*%
%TO.N,Net-(U2-Pad11)*%
X165646000Y-106811000D03*
%TO.P,U2,10*%
%TO.N,RF_OUT1*%
X165646000Y-107311000D03*
%TO.P,U2,9*%
%TO.N,GND*%
X165646000Y-107811000D03*
%TO.P,U2,4*%
%TO.N,3.6V_OUT*%
X162776000Y-107811000D03*
%TO.P,U2,3*%
%TO.N,GND*%
X162776000Y-107311000D03*
%TO.P,U2,2*%
%TO.N,3.6V_OUT*%
X162776000Y-106811000D03*
%TO.P,U2,1*%
%TO.N,Net-(R13-Pad1)*%
X162776000Y-106311000D03*
D17*
%TO.P,U2,16*%
%TO.N,GND*%
X163461000Y-105626000D03*
%TO.P,U2,15*%
%TO.N,3.6V_OUT*%
X163961000Y-105626000D03*
%TO.P,U2,14*%
%TO.N,Net-(U2-Pad14)*%
X164461000Y-105626000D03*
%TO.P,U2,13*%
%TO.N,3.6V_OUT*%
X164961000Y-105626000D03*
%TO.P,U2,8*%
%TO.N,Net-(U2-Pad8)*%
X164961000Y-108496000D03*
%TO.P,U2,7*%
%TO.N,Net-(U2-Pad7)*%
X164461000Y-108496000D03*
%TO.P,U2,6*%
%TO.N,GND*%
X163961000Y-108496000D03*
%TO.P,U2,5*%
X163461000Y-108496000D03*
%TD*%
D18*
%TO.P,U3,3*%
%TO.N,GND*%
X185783864Y-124443194D03*
X185783864Y-126943194D03*
%TO.P,U3,1*%
X177383864Y-124443194D03*
D19*
%TO.P,U3,2*%
%TO.N,COUPLER_SIGNAL*%
X181583864Y-125443194D03*
D18*
%TO.P,U3,1*%
%TO.N,GND*%
X177383864Y-126943194D03*
%TD*%
D20*
%TO.P,U4,1*%
%TO.N,GND*%
X210599118Y-111681376D03*
D21*
%TO.P,U4,2*%
%TO.N,RF_OUT1*%
X209099118Y-107481376D03*
D20*
%TO.P,U4,1*%
%TO.N,GND*%
X208099118Y-111681376D03*
%TO.P,U4,3*%
X210599118Y-103281376D03*
X208099118Y-103281376D03*
%TD*%
D22*
%TO.P,BT1,2*%
%TO.N,Net-(BT1-Pad2)*%
X116840000Y-65024000D03*
D23*
%TO.P,BT1,1*%
%TO.N,12V_OUT*%
X114300000Y-65024000D03*
%TD*%
%TO.P,BT2,1*%
%TO.N,Net-(BT1-Pad2)*%
X132080000Y-65024000D03*
D22*
%TO.P,BT2,2*%
%TO.N,GND*%
X134620000Y-65024000D03*
%TD*%
D24*
%TO.P,D1,1*%
%TO.N,Net-(D1-Pad1)*%
X124206000Y-68326000D03*
D25*
%TO.P,D1,2*%
%TO.N,GND*%
X124206000Y-70866000D03*
%TD*%
D26*
%TO.P,VR1,1*%
%TO.N,Net-(BT1-Pad2)*%
X139305000Y-72496000D03*
%TO.P,VR1,2*%
%TO.N,GND*%
X141605000Y-72496000D03*
%TO.P,VR1,3*%
%TO.N,5V_OUT*%
X143905000Y-72496000D03*
D27*
%TO.P,VR1,4*%
%TO.N,GND*%
X141605000Y-66696000D03*
%TD*%
D28*
%TO.P,C5,1*%
%TO.N,Net-(C5-Pad1)*%
X119380000Y-78486000D03*
D29*
%TO.P,C5,2*%
%TO.N,GND*%
X121880000Y-78486000D03*
%TD*%
%TO.P,C7,2*%
%TO.N,Net-(C7-Pad2)*%
X124627000Y-106299000D03*
D28*
%TO.P,C7,1*%
%TO.N,RAMP_SIGNAL*%
X127127000Y-106299000D03*
%TD*%
%TO.P,C8,1*%
%TO.N,12V_OUT*%
X111506000Y-70866000D03*
D29*
%TO.P,C8,2*%
%TO.N,GND*%
X109006000Y-70866000D03*
%TD*%
D30*
%TO.P,C13,1*%
%TO.N,Net-(C13-Pad1)*%
X107950000Y-93726000D03*
D31*
%TO.P,C13,2*%
%TO.N,GND*%
X107950000Y-95726000D03*
%TD*%
%TO.P,R16,1*%
%TO.N,COUPLER_SIGNAL*%
%TA.AperFunction,SMDPad,CuDef*%
G36*
G01*
X199438014Y-123705151D02*
X200338018Y-123705151D01*
G75*
G02*
X200588016Y-123955149I0J-249998D01*
G01*
X200588016Y-124480153D01*
G75*
G02*
X200338018Y-124730151I-249998J0D01*
G01*
X199438014Y-124730151D01*
G75*
G02*
X199188016Y-124480153I0J249998D01*
G01*
X199188016Y-123955149D01*
G75*
G02*
X199438014Y-123705151I249998J0D01*
G01*
G37*
%TD.AperFunction*%
%TO.P,R16,2*%
%TO.N,GND*%
%TA.AperFunction,SMDPad,CuDef*%
G36*
G01*
X199438014Y-125530151D02*
X200338018Y-125530151D01*
G75*
G02*
X200588016Y-125780149I0J-249998D01*
G01*
X200588016Y-126305153D01*
G75*
G02*
X200338018Y-126555151I-249998J0D01*
G01*
X199438014Y-126555151D01*
G75*
G02*
X199188016Y-126305153I0J249998D01*
G01*
X199188016Y-125780149D01*
G75*
G02*
X199438014Y-125530151I249998J0D01*
G01*
G37*
%TD.AperFunction*%
%TD*%
D32*
%TO.N,GND*%
X145288000Y-66294000D03*
X140462000Y-102616000D03*
X142494000Y-101600000D03*
X139446000Y-109474000D03*
X145542000Y-112776000D03*
X149606000Y-112776000D03*
X161671000Y-104013000D03*
X154178000Y-109220000D03*
X160020000Y-109474000D03*
X163703000Y-110617000D03*
X164973000Y-110617000D03*
X165862000Y-109728000D03*
X166878000Y-105664000D03*
X143510000Y-79756000D03*
X139954000Y-75692000D03*
X131318000Y-71628000D03*
X148590000Y-103632000D03*
X129540000Y-75946000D03*
X130810000Y-102384864D03*
D33*
X174360000Y-70866000D03*
D32*
X154940000Y-103886000D03*
X151130000Y-103886000D03*
X142240000Y-107696000D03*
X172160000Y-104726000D03*
X178410000Y-104726000D03*
X184660000Y-104726000D03*
X190910000Y-104726000D03*
X197160000Y-104726000D03*
X203410000Y-104726000D03*
X197160000Y-98476000D03*
X203410000Y-98476000D03*
X190910000Y-98476000D03*
X184660000Y-98476000D03*
X178410000Y-98476000D03*
X172160000Y-98476000D03*
X165910000Y-98476000D03*
X165910000Y-92226000D03*
X172160000Y-92226000D03*
X178410000Y-92226000D03*
X184660000Y-92226000D03*
X190910000Y-92226000D03*
X197160000Y-92226000D03*
X203410000Y-92226000D03*
X209660000Y-92226000D03*
X209660000Y-98476000D03*
X203410000Y-117226000D03*
X209660000Y-117226000D03*
X209660000Y-123476000D03*
X203410000Y-123476000D03*
X197160000Y-117226000D03*
X190910000Y-117226000D03*
X197160000Y-123476000D03*
X190910000Y-123476000D03*
X184660000Y-117226000D03*
X178410000Y-110976000D03*
X178410000Y-117226000D03*
X172160000Y-117226000D03*
X172160000Y-110976000D03*
X165910000Y-117226000D03*
X172160000Y-123476000D03*
X165910000Y-123476000D03*
X153410000Y-92226000D03*
X159660000Y-92226000D03*
X159660000Y-98476000D03*
X140910000Y-92226000D03*
X147160000Y-92226000D03*
X147160000Y-98476000D03*
X159660000Y-117226000D03*
X159660000Y-123476000D03*
X153410000Y-123476000D03*
X153410000Y-117226000D03*
X147160000Y-117226000D03*
X147160000Y-123476000D03*
X140910000Y-123476000D03*
X140910000Y-117226000D03*
X134660000Y-117226000D03*
X134660000Y-123476000D03*
X134660000Y-110976000D03*
X128410000Y-110976000D03*
X128410000Y-117226000D03*
X128410000Y-123476000D03*
X128410000Y-98476000D03*
X128410000Y-92226000D03*
X122160000Y-117226000D03*
X122160000Y-123476000D03*
X115910000Y-123476000D03*
X115910000Y-117226000D03*
X109660000Y-117226000D03*
X109660000Y-123476000D03*
X109660000Y-110976000D03*
X115910000Y-110976000D03*
X122160000Y-110976000D03*
X134660000Y-98476000D03*
X117619921Y-75365172D03*
X156718000Y-102870000D03*
X199898000Y-127762000D03*
X146558000Y-83820000D03*
%TO.N,Net-(C4-Pad2)*%
X147574000Y-102108000D03*
X147066000Y-107696000D03*
%TO.N,12V_OUT*%
X110490000Y-81026000D03*
%TO.N,3.6V_OUT*%
X153670000Y-99060000D03*
X160020000Y-107823000D03*
X163068000Y-102616000D03*
X162052000Y-109855000D03*
%TD*%
D34*
%TO.N,GND*%
X140970000Y-103124000D02*
X140462000Y-102616000D01*
X140970000Y-104206000D02*
X140970000Y-103124000D01*
X142560000Y-101666000D02*
X142494000Y-101600000D01*
X144653000Y-101666000D02*
X142560000Y-101666000D01*
X141036000Y-109474000D02*
X139446000Y-109474000D01*
X146431000Y-111887000D02*
X145542000Y-112776000D01*
X146431000Y-111186000D02*
X146431000Y-111887000D01*
X150241000Y-112141000D02*
X149606000Y-112776000D01*
X150241000Y-111186000D02*
X150241000Y-112141000D01*
X153058500Y-108100500D02*
X154178000Y-109220000D01*
X152654000Y-108100500D02*
X153058500Y-108100500D01*
X162183000Y-107311000D02*
X161290000Y-108204000D01*
X162776000Y-107311000D02*
X162183000Y-107311000D01*
X165646000Y-109512000D02*
X165862000Y-109728000D01*
X165646000Y-107811000D02*
X165646000Y-109512000D01*
X166231000Y-106311000D02*
X166878000Y-105664000D01*
X165646000Y-106311000D02*
X166231000Y-106311000D01*
X144145000Y-79121000D02*
X143510000Y-79756000D01*
X144145000Y-77531000D02*
X144145000Y-79121000D01*
X141605000Y-74041000D02*
X139954000Y-75692000D01*
X141605000Y-72496000D02*
X141605000Y-74041000D01*
X132080000Y-70866000D02*
X131318000Y-71628000D01*
X133670000Y-70866000D02*
X132080000Y-70866000D01*
X149358000Y-104400000D02*
X148590000Y-103632000D01*
X149358000Y-105451000D02*
X149358000Y-104400000D01*
X126642500Y-75946000D02*
X129540000Y-75946000D01*
X144068000Y-106751000D02*
X143123000Y-107696000D01*
X145028000Y-106751000D02*
X144068000Y-106751000D01*
X143123000Y-107696000D02*
X142240000Y-107696000D01*
X116520000Y-74265251D02*
X117619921Y-75365172D01*
X116520000Y-73406000D02*
X116520000Y-74265251D01*
X161290000Y-108204000D02*
X160020000Y-109474000D01*
X130810000Y-102384864D02*
X130810000Y-104243500D01*
X159258000Y-104370500D02*
X159258000Y-104267000D01*
X163284000Y-105626000D02*
X161671000Y-104013000D01*
X163461000Y-105626000D02*
X163284000Y-105626000D01*
X158218500Y-104370500D02*
X156718000Y-102870000D01*
X159258000Y-104370500D02*
X158218500Y-104370500D01*
X164973000Y-110178000D02*
X164973000Y-110617000D01*
X163961000Y-109166000D02*
X164973000Y-110178000D01*
X163961000Y-108496000D02*
X163961000Y-109166000D01*
X163461000Y-110375000D02*
X163703000Y-110617000D01*
X163461000Y-108496000D02*
X163461000Y-110375000D01*
X199888016Y-127752016D02*
X199898000Y-127762000D01*
D35*
X199888016Y-126042651D02*
X199888016Y-127752016D01*
D34*
X163961000Y-107311000D02*
X162776000Y-107311000D01*
X163961000Y-107311000D02*
X163961000Y-108496000D01*
X164211000Y-107061000D02*
X163961000Y-107311000D01*
X142007000Y-66294000D02*
X141605000Y-66696000D01*
X145288000Y-66294000D02*
X142007000Y-66294000D01*
X148397524Y-81980476D02*
X146558000Y-83820000D01*
X148397524Y-81938500D02*
X148397524Y-81980476D01*
%TO.N,Net-(C1-Pad2)*%
X140650000Y-106426000D02*
X140970000Y-106106000D01*
D36*
X138072500Y-106426000D02*
X140650000Y-106426000D01*
D34*
X140975000Y-106101000D02*
X140970000Y-106106000D01*
D37*
X145028000Y-106101000D02*
X140975000Y-106101000D01*
D34*
%TO.N,Net-(BT1-Pad2)*%
X137675000Y-70866000D02*
X139305000Y-72496000D01*
X135570000Y-70866000D02*
X137675000Y-70866000D01*
X132080000Y-65024000D02*
X132080000Y-65786000D01*
X132080000Y-67376000D02*
X135570000Y-70866000D01*
X132080000Y-65024000D02*
X132080000Y-67376000D01*
X132080000Y-65024000D02*
X116840000Y-65024000D01*
%TO.N,Net-(C4-Pad2)*%
X148693500Y-100988500D02*
X147574000Y-102108000D01*
X145323000Y-107696000D02*
X145028000Y-107401000D01*
X147066000Y-107696000D02*
X145323000Y-107696000D01*
X145009000Y-107401000D02*
X142936000Y-109474000D01*
X145028000Y-107401000D02*
X145009000Y-107401000D01*
X148815042Y-100866958D02*
X147574000Y-102108000D01*
X150886917Y-100866958D02*
X148815042Y-100866958D01*
%TO.N,Net-(C6-Pad1)*%
X145028000Y-103941000D02*
X144653000Y-103566000D01*
X145028000Y-105451000D02*
X145028000Y-103941000D01*
%TO.N,Net-(C7-Pad2)*%
X120777000Y-106299000D02*
X120650000Y-106426000D01*
D38*
X124627000Y-106299000D02*
X120777000Y-106299000D01*
D34*
%TO.N,RAMP_SIGNAL*%
X135890000Y-106068500D02*
X136247500Y-106426000D01*
D36*
X133350000Y-106068500D02*
X135890000Y-106068500D01*
D38*
X133350000Y-106068500D02*
X130810000Y-106068500D01*
D34*
X127357500Y-106068500D02*
X127127000Y-106299000D01*
D38*
X130810000Y-106068500D02*
X127357500Y-106068500D01*
D34*
%TO.N,Net-(C9-Pad1)*%
X125029000Y-96266000D02*
X125349000Y-96586000D01*
X120650000Y-96266000D02*
X125029000Y-96266000D01*
%TO.N,Net-(C9-Pad2)*%
X125029000Y-98806000D02*
X125349000Y-98486000D01*
X120650000Y-98806000D02*
X125029000Y-98806000D01*
%TO.N,Net-(D1-Pad1)*%
X116482500Y-68326000D02*
X116840000Y-68326000D01*
X116482500Y-68326000D02*
X124206000Y-68326000D01*
%TO.N,Net-(G1-Pad7)*%
X125325500Y-93726000D02*
X125349000Y-93749500D01*
X120650000Y-93726000D02*
X125325500Y-93726000D01*
%TO.N,Net-(G1-Pad3)*%
X118110000Y-101346000D02*
X120650000Y-103886000D01*
X115479999Y-85975999D02*
X114340000Y-84836000D01*
X115479999Y-98715999D02*
X115479999Y-85975999D01*
X120650000Y-103886000D02*
X115479999Y-98715999D01*
%TO.N,12V_OUT*%
X114620000Y-75353500D02*
X115570000Y-76303500D01*
X114657500Y-73368500D02*
X114620000Y-73406000D01*
X115212500Y-76303500D02*
X115570000Y-76303500D01*
X110490000Y-81026000D02*
X115212500Y-76303500D01*
X114300000Y-67968500D02*
X114657500Y-68326000D01*
X114657500Y-68326000D02*
X114657500Y-65381500D01*
X114620000Y-73406000D02*
X114620000Y-75353500D01*
X114620000Y-68363500D02*
X114657500Y-68326000D01*
X114620000Y-69916000D02*
X114620000Y-68363500D01*
X114620000Y-70546000D02*
X111826000Y-70546000D01*
X111826000Y-70546000D02*
X111506000Y-70866000D01*
X114620000Y-73406000D02*
X114620000Y-70546000D01*
X114620000Y-70546000D02*
X114620000Y-69916000D01*
%TO.N,3.6V_OUT*%
X153651958Y-99041958D02*
X153670000Y-99060000D01*
X150886917Y-99041958D02*
X153651958Y-99041958D01*
X160167318Y-107823000D02*
X160020000Y-107823000D01*
X162776000Y-106845000D02*
X162770001Y-106850999D01*
X162776000Y-106811000D02*
X162776000Y-106845000D01*
X162776000Y-106811000D02*
X161675000Y-106811000D01*
X160663000Y-107823000D02*
X160020000Y-107823000D01*
X161675000Y-106811000D02*
X160663000Y-107823000D01*
X163961000Y-105626000D02*
X163961000Y-101223000D01*
X164961000Y-102223000D02*
X163961000Y-101223000D01*
X164961000Y-105626000D02*
X164961000Y-102223000D01*
X148397524Y-78932476D02*
X148397524Y-80113500D01*
X162776000Y-109131000D02*
X162052000Y-109855000D01*
X162776000Y-107811000D02*
X162776000Y-109131000D01*
X163961000Y-100080000D02*
X163953000Y-100080000D01*
X163961000Y-101223000D02*
X163961000Y-100080000D01*
X163068000Y-100965000D02*
X163068000Y-102616000D01*
X163953000Y-100080000D02*
X163068000Y-100965000D01*
X148397524Y-77493500D02*
X148397524Y-78678476D01*
X148397524Y-78678476D02*
X148397524Y-78932476D01*
X150886917Y-99041958D02*
X150886917Y-78729083D01*
X163961000Y-99437000D02*
X163961000Y-100080000D01*
X163961000Y-88515000D02*
X163961000Y-99437000D01*
X154124476Y-78678476D02*
X163961000Y-88515000D01*
X148397524Y-78678476D02*
X154124476Y-78678476D01*
D39*
%TO.N,Net-(R12-Pad1)*%
X154789500Y-106172000D02*
X152757500Y-106172000D01*
D34*
X149358000Y-106101000D02*
X150551000Y-106101000D01*
D35*
X151956216Y-106101000D02*
X150551000Y-106101000D01*
D34*
%TO.N,Net-(R13-Pad1)*%
X160689500Y-106275500D02*
X160725000Y-106311000D01*
D35*
X159258000Y-106275500D02*
X160689500Y-106275500D01*
D34*
X162776000Y-106311000D02*
X160725000Y-106311000D01*
D39*
X156614500Y-106172000D02*
X159154500Y-106172000D01*
D34*
%TO.N,Net-(R14-Pad2)*%
X125770000Y-91503500D02*
X125349000Y-91924500D01*
X125770000Y-84836000D02*
X125770000Y-91503500D01*
D40*
%TO.N,COUPLER_SIGNAL*%
X199921000Y-113091000D02*
X199861000Y-113091000D01*
X181781000Y-113091000D02*
X184321000Y-110551000D01*
X199861000Y-113091000D02*
X197321000Y-110551000D01*
X181611000Y-113091000D02*
X181781000Y-113091000D01*
X197321000Y-110551000D02*
X184321000Y-110551000D01*
D34*
X199921000Y-116921233D02*
X199926048Y-116926281D01*
X199861000Y-123585952D02*
X199926048Y-123651000D01*
D40*
X199861000Y-113091000D02*
X199861000Y-123585952D01*
D34*
X181587333Y-113284667D02*
X181781000Y-113091000D01*
D40*
X181587333Y-123585952D02*
X181587333Y-113284667D01*
%TO.N,RF_OUT1*%
X168646000Y-107471000D02*
X208621000Y-107471000D01*
D34*
X166316000Y-107311000D02*
X166610000Y-107309414D01*
X165646000Y-107311000D02*
X166316000Y-107311000D01*
D35*
X166610000Y-107309414D02*
X167010000Y-107309414D01*
D34*
X168484414Y-107309414D02*
X168486000Y-107311000D01*
D39*
X167010000Y-107309414D02*
X168484414Y-107309414D01*
D34*
%TO.N,5V_OUT*%
X143905000Y-75866000D02*
X143825000Y-75946000D01*
X143905000Y-72496000D02*
X143905000Y-75866000D01*
X148360024Y-75631000D02*
X148397524Y-75668500D01*
X144145000Y-75631000D02*
X148360024Y-75631000D01*
X149358000Y-107401000D02*
X148295000Y-107401000D01*
X148295000Y-107401000D02*
X146558000Y-105664000D01*
X140970000Y-99060000D02*
X134874000Y-92964000D01*
X145034000Y-99060000D02*
X140970000Y-99060000D01*
X146558000Y-100584000D02*
X145034000Y-99060000D01*
X146558000Y-104911000D02*
X146558000Y-104648000D01*
X148398000Y-106751000D02*
X146558000Y-104911000D01*
X149358000Y-106751000D02*
X148398000Y-106751000D01*
X146558000Y-104648000D02*
X146558000Y-100584000D01*
X146558000Y-105664000D02*
X146558000Y-104648000D01*
X149358000Y-108403000D02*
X150241000Y-109286000D01*
X149358000Y-107401000D02*
X149358000Y-108403000D01*
X147473000Y-109286000D02*
X146431000Y-109286000D01*
X149358000Y-107401000D02*
X147473000Y-109286000D01*
X133350000Y-94488000D02*
X134874000Y-92964000D01*
X133350000Y-104243500D02*
X133350000Y-94488000D01*
X143063000Y-75631000D02*
X134874000Y-83820000D01*
X144145000Y-75631000D02*
X143063000Y-75631000D01*
X134874000Y-83820000D02*
X134874000Y-92964000D01*
%TO.N,Net-(C13-Pad1)*%
X113030000Y-93726000D02*
X107950000Y-93726000D01*
%TO.N,Net-(C5-Pad1)*%
X115927500Y-78486000D02*
X115570000Y-78128500D01*
X119022500Y-78128500D02*
X119380000Y-78486000D01*
X115570000Y-78128500D02*
X119022500Y-78128500D01*
X119380000Y-84796000D02*
X119340000Y-84836000D01*
X119380000Y-82296000D02*
X116840000Y-84836000D01*
X119380000Y-78486000D02*
X119380000Y-82296000D01*
X119380000Y-82296000D02*
X119380000Y-84796000D01*
X121920000Y-75946000D02*
X124817500Y-75946000D01*
X119380000Y-78486000D02*
X121920000Y-75946000D01*
%TD*%
M02*
