G04 #@! TF.GenerationSoftware,KiCad,Pcbnew,5.1.8-db9833491~88~ubuntu20.04.1*
G04 #@! TF.CreationDate,2021-03-01T02:47:50-08:00*
G04 #@! TF.ProjectId,directional_coupler20dB,64697265-6374-4696-9f6e-616c5f636f75,rev?*
G04 #@! TF.SameCoordinates,Original*
G04 #@! TF.FileFunction,Copper,L2,Bot*
G04 #@! TF.FilePolarity,Positive*
%FSLAX46Y46*%
G04 Gerber Fmt 4.6, Leading zero omitted, Abs format (unit mm)*
G04 Created by KiCad (PCBNEW 5.1.8-db9833491~88~ubuntu20.04.1) date 2021-03-01 02:47:50*
%MOMM*%
%LPD*%
G01*
G04 APERTURE LIST*
G04 #@! TA.AperFunction,ComponentPad*
%ADD10R,2.500000X1.600000*%
G04 #@! TD*
G04 #@! TA.AperFunction,ComponentPad*
%ADD11R,1.600000X2.500000*%
G04 #@! TD*
G04 #@! TA.AperFunction,Conductor*
%ADD12C,0.254000*%
G04 #@! TD*
G04 #@! TA.AperFunction,Conductor*
%ADD13C,0.100000*%
G04 #@! TD*
G04 APERTURE END LIST*
D10*
G04 #@! TO.P,U3,1*
G04 #@! TO.N,GND*
X108950000Y-140430000D03*
X106450000Y-140430000D03*
G04 #@! TO.P,U3,3*
X108950000Y-132030000D03*
X106450000Y-132030000D03*
G04 #@! TD*
G04 #@! TO.P,U1,3*
G04 #@! TO.N,GND*
X70460000Y-140570000D03*
X67960000Y-140570000D03*
G04 #@! TO.P,U1,1*
X70460000Y-132170000D03*
X67960000Y-132170000D03*
G04 #@! TD*
D11*
G04 #@! TO.P,U4,1*
G04 #@! TO.N,GND*
X97110000Y-157330000D03*
X97110000Y-154830000D03*
G04 #@! TO.P,U4,3*
X105510000Y-157330000D03*
X105510000Y-154830000D03*
G04 #@! TD*
G04 #@! TO.P,U2,3*
G04 #@! TO.N,GND*
X83010000Y-154930000D03*
X83010000Y-157430000D03*
G04 #@! TO.P,U2,1*
X74610000Y-154930000D03*
X74610000Y-157430000D03*
G04 #@! TD*
D10*
G04 #@! TO.P,U1,1*
G04 #@! TO.N,GND*
X119060000Y-131870000D03*
X121560000Y-131870000D03*
G04 #@! TO.P,U1,3*
X119060000Y-140270000D03*
X121560000Y-140270000D03*
G04 #@! TD*
D11*
G04 #@! TO.P,U4,3*
G04 #@! TO.N,GND*
X154070000Y-154930000D03*
X154070000Y-157430000D03*
G04 #@! TO.P,U4,1*
X145670000Y-154930000D03*
X145670000Y-157430000D03*
G04 #@! TD*
G04 #@! TO.P,U2,1*
G04 #@! TO.N,GND*
X122380000Y-157380000D03*
X122380000Y-154880000D03*
G04 #@! TO.P,U2,3*
X130780000Y-157380000D03*
X130780000Y-154880000D03*
G04 #@! TD*
D10*
G04 #@! TO.P,U3,3*
G04 #@! TO.N,GND*
X155160000Y-131870000D03*
X157660000Y-131870000D03*
G04 #@! TO.P,U3,1*
X155160000Y-140270000D03*
X157660000Y-140270000D03*
G04 #@! TD*
G04 #@! TO.P,U1,3*
G04 #@! TO.N,GND*
X121210000Y-107470000D03*
X118710000Y-107470000D03*
G04 #@! TO.P,U1,1*
X121210000Y-99070000D03*
X118710000Y-99070000D03*
G04 #@! TD*
D11*
G04 #@! TO.P,U2,3*
G04 #@! TO.N,GND*
X130720000Y-119870000D03*
X130720000Y-122370000D03*
G04 #@! TO.P,U2,1*
X122320000Y-119870000D03*
X122320000Y-122370000D03*
G04 #@! TD*
G04 #@! TO.P,U4,1*
G04 #@! TO.N,GND*
X145210000Y-122320000D03*
X145210000Y-119820000D03*
G04 #@! TO.P,U4,3*
X153610000Y-122320000D03*
X153610000Y-119820000D03*
G04 #@! TD*
D10*
G04 #@! TO.P,U3,1*
G04 #@! TO.N,GND*
X159400000Y-107340000D03*
X156900000Y-107340000D03*
G04 #@! TO.P,U3,3*
X159400000Y-98940000D03*
X156900000Y-98940000D03*
G04 #@! TD*
G04 #@! TO.P,U1,1*
G04 #@! TO.N,GND*
X67820000Y-99020000D03*
X70320000Y-99020000D03*
G04 #@! TO.P,U1,3*
X67820000Y-107420000D03*
X70320000Y-107420000D03*
G04 #@! TD*
D11*
G04 #@! TO.P,U2,1*
G04 #@! TO.N,GND*
X75430000Y-122430000D03*
X75430000Y-119930000D03*
G04 #@! TO.P,U2,3*
X83830000Y-122430000D03*
X83830000Y-119930000D03*
G04 #@! TD*
D10*
G04 #@! TO.P,U3,3*
G04 #@! TO.N,GND*
X105640000Y-99080000D03*
X108140000Y-99080000D03*
G04 #@! TO.P,U3,1*
X105640000Y-107480000D03*
X108140000Y-107480000D03*
G04 #@! TD*
D11*
G04 #@! TO.P,U4,3*
G04 #@! TO.N,GND*
X102140000Y-119940000D03*
X102140000Y-122440000D03*
G04 #@! TO.P,U4,1*
X93740000Y-119940000D03*
X93740000Y-122440000D03*
G04 #@! TD*
D12*
G04 #@! TO.N,GND*
X160943144Y-97386960D02*
X160943359Y-97576785D01*
X160894180Y-97550498D01*
X160774482Y-97514188D01*
X160650000Y-97501928D01*
X159685750Y-97505000D01*
X159527000Y-97663750D01*
X159527000Y-98813000D01*
X159547000Y-98813000D01*
X159547000Y-99067000D01*
X159527000Y-99067000D01*
X159527000Y-100216250D01*
X159685750Y-100375000D01*
X160650000Y-100378072D01*
X160774482Y-100365812D01*
X160894180Y-100329502D01*
X160946447Y-100301564D01*
X160952886Y-105981877D01*
X160894180Y-105950498D01*
X160774482Y-105914188D01*
X160650000Y-105901928D01*
X159685750Y-105905000D01*
X159527000Y-106063750D01*
X159527000Y-107213000D01*
X159547000Y-107213000D01*
X159547000Y-107467000D01*
X159527000Y-107467000D01*
X159527000Y-108616250D01*
X159685750Y-108775000D01*
X160650000Y-108778072D01*
X160774482Y-108765812D01*
X160894180Y-108729502D01*
X160955962Y-108696478D01*
X161012856Y-158893080D01*
X155467877Y-158896572D01*
X155495812Y-158804482D01*
X155508072Y-158680000D01*
X155505000Y-157715750D01*
X155346250Y-157557000D01*
X154197000Y-157557000D01*
X154197000Y-157577000D01*
X153943000Y-157577000D01*
X153943000Y-157557000D01*
X152793750Y-157557000D01*
X152635000Y-157715750D01*
X152631928Y-158680000D01*
X152644188Y-158804482D01*
X152672657Y-158898332D01*
X147066272Y-158901862D01*
X147095812Y-158804482D01*
X147108072Y-158680000D01*
X147105000Y-157715750D01*
X146946250Y-157557000D01*
X145797000Y-157557000D01*
X145797000Y-157577000D01*
X145543000Y-157577000D01*
X145543000Y-157557000D01*
X144393750Y-157557000D01*
X144235000Y-157715750D01*
X144231928Y-158680000D01*
X144244188Y-158804482D01*
X144274261Y-158903621D01*
X132149684Y-158911256D01*
X132169502Y-158874180D01*
X132205812Y-158754482D01*
X132218072Y-158630000D01*
X132215000Y-157665750D01*
X132056250Y-157507000D01*
X130907000Y-157507000D01*
X130907000Y-157527000D01*
X130653000Y-157527000D01*
X130653000Y-157507000D01*
X129503750Y-157507000D01*
X129345000Y-157665750D01*
X129341928Y-158630000D01*
X129354188Y-158754482D01*
X129390498Y-158874180D01*
X129411238Y-158912980D01*
X123746856Y-158916547D01*
X123769502Y-158874180D01*
X123805812Y-158754482D01*
X123818072Y-158630000D01*
X123815000Y-157665750D01*
X123656250Y-157507000D01*
X122507000Y-157507000D01*
X122507000Y-157527000D01*
X122253000Y-157527000D01*
X122253000Y-157507000D01*
X121103750Y-157507000D01*
X120945000Y-157665750D01*
X120941928Y-158630000D01*
X120954188Y-158754482D01*
X120990498Y-158874180D01*
X121014064Y-158918268D01*
X106844441Y-158927191D01*
X106899502Y-158824180D01*
X106935812Y-158704482D01*
X106948072Y-158580000D01*
X106945000Y-157615750D01*
X106786250Y-157457000D01*
X105637000Y-157457000D01*
X105637000Y-157477000D01*
X105383000Y-157477000D01*
X105383000Y-157457000D01*
X104233750Y-157457000D01*
X104075000Y-157615750D01*
X104071928Y-158580000D01*
X104084188Y-158704482D01*
X104120498Y-158824180D01*
X104176458Y-158928871D01*
X98441612Y-158932483D01*
X98499502Y-158824180D01*
X98535812Y-158704482D01*
X98548072Y-158580000D01*
X98545000Y-157615750D01*
X98386250Y-157457000D01*
X97237000Y-157457000D01*
X97237000Y-157477000D01*
X96983000Y-157477000D01*
X96983000Y-157457000D01*
X95833750Y-157457000D01*
X95675000Y-157615750D01*
X95671928Y-158580000D01*
X95684188Y-158704482D01*
X95720498Y-158824180D01*
X95779284Y-158934159D01*
X84390334Y-158941331D01*
X84399502Y-158924180D01*
X84435812Y-158804482D01*
X84448072Y-158680000D01*
X84445000Y-157715750D01*
X84286250Y-157557000D01*
X83137000Y-157557000D01*
X83137000Y-157577000D01*
X82883000Y-157577000D01*
X82883000Y-157557000D01*
X81733750Y-157557000D01*
X81575000Y-157715750D01*
X81571928Y-158680000D01*
X81584188Y-158804482D01*
X81620498Y-158924180D01*
X81630594Y-158943069D01*
X75987506Y-158946622D01*
X75999502Y-158924180D01*
X76035812Y-158804482D01*
X76048072Y-158680000D01*
X76045000Y-157715750D01*
X75886250Y-157557000D01*
X74737000Y-157557000D01*
X74737000Y-157577000D01*
X74483000Y-157577000D01*
X74483000Y-157557000D01*
X73333750Y-157557000D01*
X73175000Y-157715750D01*
X73171928Y-158680000D01*
X73184188Y-158804482D01*
X73220498Y-158924180D01*
X73233421Y-158948357D01*
X65987062Y-158952920D01*
X65988407Y-156180000D01*
X73171928Y-156180000D01*
X73175000Y-157144250D01*
X73333750Y-157303000D01*
X74483000Y-157303000D01*
X74483000Y-155057000D01*
X74737000Y-155057000D01*
X74737000Y-157303000D01*
X75886250Y-157303000D01*
X76045000Y-157144250D01*
X76048072Y-156180000D01*
X81571928Y-156180000D01*
X81575000Y-157144250D01*
X81733750Y-157303000D01*
X82883000Y-157303000D01*
X82883000Y-155057000D01*
X83137000Y-155057000D01*
X83137000Y-157303000D01*
X84286250Y-157303000D01*
X84445000Y-157144250D01*
X84448072Y-156180000D01*
X84447754Y-156080000D01*
X95671928Y-156080000D01*
X95675000Y-157044250D01*
X95833750Y-157203000D01*
X96983000Y-157203000D01*
X96983000Y-154957000D01*
X97237000Y-154957000D01*
X97237000Y-157203000D01*
X98386250Y-157203000D01*
X98545000Y-157044250D01*
X98548072Y-156080000D01*
X104071928Y-156080000D01*
X104075000Y-157044250D01*
X104233750Y-157203000D01*
X105383000Y-157203000D01*
X105383000Y-154957000D01*
X105637000Y-154957000D01*
X105637000Y-157203000D01*
X106786250Y-157203000D01*
X106945000Y-157044250D01*
X106947912Y-156130000D01*
X120941928Y-156130000D01*
X120945000Y-157094250D01*
X121103750Y-157253000D01*
X122253000Y-157253000D01*
X122253000Y-155007000D01*
X122507000Y-155007000D01*
X122507000Y-157253000D01*
X123656250Y-157253000D01*
X123815000Y-157094250D01*
X123818072Y-156130000D01*
X129341928Y-156130000D01*
X129345000Y-157094250D01*
X129503750Y-157253000D01*
X130653000Y-157253000D01*
X130653000Y-155007000D01*
X130907000Y-155007000D01*
X130907000Y-157253000D01*
X132056250Y-157253000D01*
X132215000Y-157094250D01*
X132217912Y-156180000D01*
X144231928Y-156180000D01*
X144235000Y-157144250D01*
X144393750Y-157303000D01*
X145543000Y-157303000D01*
X145543000Y-155057000D01*
X145797000Y-155057000D01*
X145797000Y-157303000D01*
X146946250Y-157303000D01*
X147105000Y-157144250D01*
X147108072Y-156180000D01*
X152631928Y-156180000D01*
X152635000Y-157144250D01*
X152793750Y-157303000D01*
X153943000Y-157303000D01*
X153943000Y-155057000D01*
X154197000Y-155057000D01*
X154197000Y-157303000D01*
X155346250Y-157303000D01*
X155505000Y-157144250D01*
X155508072Y-156180000D01*
X155505000Y-155215750D01*
X155346250Y-155057000D01*
X154197000Y-155057000D01*
X153943000Y-155057000D01*
X152793750Y-155057000D01*
X152635000Y-155215750D01*
X152631928Y-156180000D01*
X147108072Y-156180000D01*
X147105000Y-155215750D01*
X146946250Y-155057000D01*
X145797000Y-155057000D01*
X145543000Y-155057000D01*
X144393750Y-155057000D01*
X144235000Y-155215750D01*
X144231928Y-156180000D01*
X132217912Y-156180000D01*
X132218072Y-156130000D01*
X132215000Y-155165750D01*
X132056250Y-155007000D01*
X130907000Y-155007000D01*
X130653000Y-155007000D01*
X129503750Y-155007000D01*
X129345000Y-155165750D01*
X129341928Y-156130000D01*
X123818072Y-156130000D01*
X123815000Y-155165750D01*
X123656250Y-155007000D01*
X122507000Y-155007000D01*
X122253000Y-155007000D01*
X121103750Y-155007000D01*
X120945000Y-155165750D01*
X120941928Y-156130000D01*
X106947912Y-156130000D01*
X106948072Y-156080000D01*
X106945000Y-155115750D01*
X106786250Y-154957000D01*
X105637000Y-154957000D01*
X105383000Y-154957000D01*
X104233750Y-154957000D01*
X104075000Y-155115750D01*
X104071928Y-156080000D01*
X98548072Y-156080000D01*
X98545000Y-155115750D01*
X98386250Y-154957000D01*
X97237000Y-154957000D01*
X96983000Y-154957000D01*
X95833750Y-154957000D01*
X95675000Y-155115750D01*
X95671928Y-156080000D01*
X84447754Y-156080000D01*
X84445000Y-155215750D01*
X84286250Y-155057000D01*
X83137000Y-155057000D01*
X82883000Y-155057000D01*
X81733750Y-155057000D01*
X81575000Y-155215750D01*
X81571928Y-156180000D01*
X76048072Y-156180000D01*
X76045000Y-155215750D01*
X75886250Y-155057000D01*
X74737000Y-155057000D01*
X74483000Y-155057000D01*
X73333750Y-155057000D01*
X73175000Y-155215750D01*
X73171928Y-156180000D01*
X65988407Y-156180000D01*
X65989620Y-153680000D01*
X73171928Y-153680000D01*
X73175000Y-154644250D01*
X73333750Y-154803000D01*
X74483000Y-154803000D01*
X74483000Y-153203750D01*
X74737000Y-153203750D01*
X74737000Y-154803000D01*
X75886250Y-154803000D01*
X76045000Y-154644250D01*
X76048072Y-153680000D01*
X81571928Y-153680000D01*
X81575000Y-154644250D01*
X81733750Y-154803000D01*
X82883000Y-154803000D01*
X82883000Y-153203750D01*
X83137000Y-153203750D01*
X83137000Y-154803000D01*
X84286250Y-154803000D01*
X84445000Y-154644250D01*
X84448072Y-153680000D01*
X84438224Y-153580000D01*
X95671928Y-153580000D01*
X95675000Y-154544250D01*
X95833750Y-154703000D01*
X96983000Y-154703000D01*
X96983000Y-153103750D01*
X97237000Y-153103750D01*
X97237000Y-154703000D01*
X98386250Y-154703000D01*
X98545000Y-154544250D01*
X98548072Y-153580000D01*
X104071928Y-153580000D01*
X104075000Y-154544250D01*
X104233750Y-154703000D01*
X105383000Y-154703000D01*
X105383000Y-153103750D01*
X105637000Y-153103750D01*
X105637000Y-154703000D01*
X106786250Y-154703000D01*
X106945000Y-154544250D01*
X106947912Y-153630000D01*
X120941928Y-153630000D01*
X120945000Y-154594250D01*
X121103750Y-154753000D01*
X122253000Y-154753000D01*
X122253000Y-153153750D01*
X122507000Y-153153750D01*
X122507000Y-154753000D01*
X123656250Y-154753000D01*
X123815000Y-154594250D01*
X123818072Y-153630000D01*
X129341928Y-153630000D01*
X129345000Y-154594250D01*
X129503750Y-154753000D01*
X130653000Y-154753000D01*
X130653000Y-153153750D01*
X130907000Y-153153750D01*
X130907000Y-154753000D01*
X132056250Y-154753000D01*
X132215000Y-154594250D01*
X132217912Y-153680000D01*
X144231928Y-153680000D01*
X144235000Y-154644250D01*
X144393750Y-154803000D01*
X145543000Y-154803000D01*
X145543000Y-153203750D01*
X145797000Y-153203750D01*
X145797000Y-154803000D01*
X146946250Y-154803000D01*
X147105000Y-154644250D01*
X147108072Y-153680000D01*
X152631928Y-153680000D01*
X152635000Y-154644250D01*
X152793750Y-154803000D01*
X153943000Y-154803000D01*
X153943000Y-153203750D01*
X154197000Y-153203750D01*
X154197000Y-154803000D01*
X155346250Y-154803000D01*
X155505000Y-154644250D01*
X155508072Y-153680000D01*
X155495812Y-153555518D01*
X155459502Y-153435820D01*
X155400537Y-153325506D01*
X155321185Y-153228815D01*
X155224494Y-153149463D01*
X155114180Y-153090498D01*
X154994482Y-153054188D01*
X154870000Y-153041928D01*
X154355750Y-153045000D01*
X154197000Y-153203750D01*
X153943000Y-153203750D01*
X153784250Y-153045000D01*
X153270000Y-153041928D01*
X153145518Y-153054188D01*
X153025820Y-153090498D01*
X152915506Y-153149463D01*
X152818815Y-153228815D01*
X152739463Y-153325506D01*
X152680498Y-153435820D01*
X152644188Y-153555518D01*
X152631928Y-153680000D01*
X147108072Y-153680000D01*
X147095812Y-153555518D01*
X147059502Y-153435820D01*
X147000537Y-153325506D01*
X146921185Y-153228815D01*
X146824494Y-153149463D01*
X146714180Y-153090498D01*
X146594482Y-153054188D01*
X146470000Y-153041928D01*
X145955750Y-153045000D01*
X145797000Y-153203750D01*
X145543000Y-153203750D01*
X145384250Y-153045000D01*
X144870000Y-153041928D01*
X144745518Y-153054188D01*
X144625820Y-153090498D01*
X144515506Y-153149463D01*
X144418815Y-153228815D01*
X144339463Y-153325506D01*
X144280498Y-153435820D01*
X144244188Y-153555518D01*
X144231928Y-153680000D01*
X132217912Y-153680000D01*
X132218072Y-153630000D01*
X132205812Y-153505518D01*
X132169502Y-153385820D01*
X132110537Y-153275506D01*
X132031185Y-153178815D01*
X131934494Y-153099463D01*
X131824180Y-153040498D01*
X131704482Y-153004188D01*
X131580000Y-152991928D01*
X131065750Y-152995000D01*
X130907000Y-153153750D01*
X130653000Y-153153750D01*
X130494250Y-152995000D01*
X129980000Y-152991928D01*
X129855518Y-153004188D01*
X129735820Y-153040498D01*
X129625506Y-153099463D01*
X129528815Y-153178815D01*
X129449463Y-153275506D01*
X129390498Y-153385820D01*
X129354188Y-153505518D01*
X129341928Y-153630000D01*
X123818072Y-153630000D01*
X123805812Y-153505518D01*
X123769502Y-153385820D01*
X123710537Y-153275506D01*
X123631185Y-153178815D01*
X123534494Y-153099463D01*
X123424180Y-153040498D01*
X123304482Y-153004188D01*
X123180000Y-152991928D01*
X122665750Y-152995000D01*
X122507000Y-153153750D01*
X122253000Y-153153750D01*
X122094250Y-152995000D01*
X121580000Y-152991928D01*
X121455518Y-153004188D01*
X121335820Y-153040498D01*
X121225506Y-153099463D01*
X121128815Y-153178815D01*
X121049463Y-153275506D01*
X120990498Y-153385820D01*
X120954188Y-153505518D01*
X120941928Y-153630000D01*
X106947912Y-153630000D01*
X106948072Y-153580000D01*
X106935812Y-153455518D01*
X106899502Y-153335820D01*
X106840537Y-153225506D01*
X106761185Y-153128815D01*
X106664494Y-153049463D01*
X106554180Y-152990498D01*
X106434482Y-152954188D01*
X106310000Y-152941928D01*
X105795750Y-152945000D01*
X105637000Y-153103750D01*
X105383000Y-153103750D01*
X105224250Y-152945000D01*
X104710000Y-152941928D01*
X104585518Y-152954188D01*
X104465820Y-152990498D01*
X104355506Y-153049463D01*
X104258815Y-153128815D01*
X104179463Y-153225506D01*
X104120498Y-153335820D01*
X104084188Y-153455518D01*
X104071928Y-153580000D01*
X98548072Y-153580000D01*
X98535812Y-153455518D01*
X98499502Y-153335820D01*
X98440537Y-153225506D01*
X98361185Y-153128815D01*
X98264494Y-153049463D01*
X98154180Y-152990498D01*
X98034482Y-152954188D01*
X97910000Y-152941928D01*
X97395750Y-152945000D01*
X97237000Y-153103750D01*
X96983000Y-153103750D01*
X96824250Y-152945000D01*
X96310000Y-152941928D01*
X96185518Y-152954188D01*
X96065820Y-152990498D01*
X95955506Y-153049463D01*
X95858815Y-153128815D01*
X95779463Y-153225506D01*
X95720498Y-153335820D01*
X95684188Y-153455518D01*
X95671928Y-153580000D01*
X84438224Y-153580000D01*
X84435812Y-153555518D01*
X84399502Y-153435820D01*
X84340537Y-153325506D01*
X84261185Y-153228815D01*
X84164494Y-153149463D01*
X84054180Y-153090498D01*
X83934482Y-153054188D01*
X83810000Y-153041928D01*
X83295750Y-153045000D01*
X83137000Y-153203750D01*
X82883000Y-153203750D01*
X82724250Y-153045000D01*
X82210000Y-153041928D01*
X82085518Y-153054188D01*
X81965820Y-153090498D01*
X81855506Y-153149463D01*
X81758815Y-153228815D01*
X81679463Y-153325506D01*
X81620498Y-153435820D01*
X81584188Y-153555518D01*
X81571928Y-153680000D01*
X76048072Y-153680000D01*
X76035812Y-153555518D01*
X75999502Y-153435820D01*
X75940537Y-153325506D01*
X75861185Y-153228815D01*
X75764494Y-153149463D01*
X75654180Y-153090498D01*
X75534482Y-153054188D01*
X75410000Y-153041928D01*
X74895750Y-153045000D01*
X74737000Y-153203750D01*
X74483000Y-153203750D01*
X74324250Y-153045000D01*
X73810000Y-153041928D01*
X73685518Y-153054188D01*
X73565820Y-153090498D01*
X73455506Y-153149463D01*
X73358815Y-153228815D01*
X73279463Y-153325506D01*
X73220498Y-153435820D01*
X73184188Y-153555518D01*
X73171928Y-153680000D01*
X65989620Y-153680000D01*
X65995596Y-141370000D01*
X66071928Y-141370000D01*
X66084188Y-141494482D01*
X66120498Y-141614180D01*
X66179463Y-141724494D01*
X66258815Y-141821185D01*
X66355506Y-141900537D01*
X66465820Y-141959502D01*
X66585518Y-141995812D01*
X66710000Y-142008072D01*
X67674250Y-142005000D01*
X67833000Y-141846250D01*
X67833000Y-140697000D01*
X68087000Y-140697000D01*
X68087000Y-141846250D01*
X68245750Y-142005000D01*
X69210000Y-142008072D01*
X70174250Y-142005000D01*
X70333000Y-141846250D01*
X70333000Y-140697000D01*
X70587000Y-140697000D01*
X70587000Y-141846250D01*
X70745750Y-142005000D01*
X71710000Y-142008072D01*
X71834482Y-141995812D01*
X71954180Y-141959502D01*
X72064494Y-141900537D01*
X72161185Y-141821185D01*
X72240537Y-141724494D01*
X72299502Y-141614180D01*
X72335812Y-141494482D01*
X72348072Y-141370000D01*
X72347236Y-141230000D01*
X104561928Y-141230000D01*
X104574188Y-141354482D01*
X104610498Y-141474180D01*
X104669463Y-141584494D01*
X104748815Y-141681185D01*
X104845506Y-141760537D01*
X104955820Y-141819502D01*
X105075518Y-141855812D01*
X105200000Y-141868072D01*
X106164250Y-141865000D01*
X106323000Y-141706250D01*
X106323000Y-140557000D01*
X106577000Y-140557000D01*
X106577000Y-141706250D01*
X106735750Y-141865000D01*
X107700000Y-141868072D01*
X108664250Y-141865000D01*
X108823000Y-141706250D01*
X108823000Y-140557000D01*
X109077000Y-140557000D01*
X109077000Y-141706250D01*
X109235750Y-141865000D01*
X110200000Y-141868072D01*
X110324482Y-141855812D01*
X110444180Y-141819502D01*
X110554494Y-141760537D01*
X110651185Y-141681185D01*
X110730537Y-141584494D01*
X110789502Y-141474180D01*
X110825812Y-141354482D01*
X110838072Y-141230000D01*
X110837117Y-141070000D01*
X117171928Y-141070000D01*
X117184188Y-141194482D01*
X117220498Y-141314180D01*
X117279463Y-141424494D01*
X117358815Y-141521185D01*
X117455506Y-141600537D01*
X117565820Y-141659502D01*
X117685518Y-141695812D01*
X117810000Y-141708072D01*
X118774250Y-141705000D01*
X118933000Y-141546250D01*
X118933000Y-140397000D01*
X119187000Y-140397000D01*
X119187000Y-141546250D01*
X119345750Y-141705000D01*
X120310000Y-141708072D01*
X121274250Y-141705000D01*
X121433000Y-141546250D01*
X121433000Y-140397000D01*
X121687000Y-140397000D01*
X121687000Y-141546250D01*
X121845750Y-141705000D01*
X122810000Y-141708072D01*
X122934482Y-141695812D01*
X123054180Y-141659502D01*
X123164494Y-141600537D01*
X123261185Y-141521185D01*
X123340537Y-141424494D01*
X123399502Y-141314180D01*
X123435812Y-141194482D01*
X123448072Y-141070000D01*
X153271928Y-141070000D01*
X153284188Y-141194482D01*
X153320498Y-141314180D01*
X153379463Y-141424494D01*
X153458815Y-141521185D01*
X153555506Y-141600537D01*
X153665820Y-141659502D01*
X153785518Y-141695812D01*
X153910000Y-141708072D01*
X154874250Y-141705000D01*
X155033000Y-141546250D01*
X155033000Y-140397000D01*
X155287000Y-140397000D01*
X155287000Y-141546250D01*
X155445750Y-141705000D01*
X156410000Y-141708072D01*
X157374250Y-141705000D01*
X157533000Y-141546250D01*
X157533000Y-140397000D01*
X157787000Y-140397000D01*
X157787000Y-141546250D01*
X157945750Y-141705000D01*
X158910000Y-141708072D01*
X159034482Y-141695812D01*
X159154180Y-141659502D01*
X159264494Y-141600537D01*
X159361185Y-141521185D01*
X159440537Y-141424494D01*
X159499502Y-141314180D01*
X159535812Y-141194482D01*
X159548072Y-141070000D01*
X159545000Y-140555750D01*
X159386250Y-140397000D01*
X157787000Y-140397000D01*
X157533000Y-140397000D01*
X155287000Y-140397000D01*
X155033000Y-140397000D01*
X153433750Y-140397000D01*
X153275000Y-140555750D01*
X153271928Y-141070000D01*
X123448072Y-141070000D01*
X123445000Y-140555750D01*
X123286250Y-140397000D01*
X121687000Y-140397000D01*
X121433000Y-140397000D01*
X119187000Y-140397000D01*
X118933000Y-140397000D01*
X117333750Y-140397000D01*
X117175000Y-140555750D01*
X117171928Y-141070000D01*
X110837117Y-141070000D01*
X110835000Y-140715750D01*
X110676250Y-140557000D01*
X109077000Y-140557000D01*
X108823000Y-140557000D01*
X106577000Y-140557000D01*
X106323000Y-140557000D01*
X104723750Y-140557000D01*
X104565000Y-140715750D01*
X104561928Y-141230000D01*
X72347236Y-141230000D01*
X72345000Y-140855750D01*
X72186250Y-140697000D01*
X70587000Y-140697000D01*
X70333000Y-140697000D01*
X68087000Y-140697000D01*
X67833000Y-140697000D01*
X66233750Y-140697000D01*
X66075000Y-140855750D01*
X66071928Y-141370000D01*
X65995596Y-141370000D01*
X65996372Y-139770000D01*
X66071928Y-139770000D01*
X66075000Y-140284250D01*
X66233750Y-140443000D01*
X67833000Y-140443000D01*
X67833000Y-139293750D01*
X68087000Y-139293750D01*
X68087000Y-140443000D01*
X70333000Y-140443000D01*
X70333000Y-139293750D01*
X70587000Y-139293750D01*
X70587000Y-140443000D01*
X72186250Y-140443000D01*
X72345000Y-140284250D01*
X72348072Y-139770000D01*
X72335812Y-139645518D01*
X72331105Y-139630000D01*
X104561928Y-139630000D01*
X104565000Y-140144250D01*
X104723750Y-140303000D01*
X106323000Y-140303000D01*
X106323000Y-139153750D01*
X106577000Y-139153750D01*
X106577000Y-140303000D01*
X108823000Y-140303000D01*
X108823000Y-139153750D01*
X109077000Y-139153750D01*
X109077000Y-140303000D01*
X110676250Y-140303000D01*
X110835000Y-140144250D01*
X110838072Y-139630000D01*
X110825812Y-139505518D01*
X110815038Y-139470000D01*
X117171928Y-139470000D01*
X117175000Y-139984250D01*
X117333750Y-140143000D01*
X118933000Y-140143000D01*
X118933000Y-138993750D01*
X119187000Y-138993750D01*
X119187000Y-140143000D01*
X121433000Y-140143000D01*
X121433000Y-138993750D01*
X121687000Y-138993750D01*
X121687000Y-140143000D01*
X123286250Y-140143000D01*
X123445000Y-139984250D01*
X123448072Y-139470000D01*
X153271928Y-139470000D01*
X153275000Y-139984250D01*
X153433750Y-140143000D01*
X155033000Y-140143000D01*
X155033000Y-138993750D01*
X155287000Y-138993750D01*
X155287000Y-140143000D01*
X157533000Y-140143000D01*
X157533000Y-138993750D01*
X157787000Y-138993750D01*
X157787000Y-140143000D01*
X159386250Y-140143000D01*
X159545000Y-139984250D01*
X159548072Y-139470000D01*
X159535812Y-139345518D01*
X159499502Y-139225820D01*
X159440537Y-139115506D01*
X159361185Y-139018815D01*
X159264494Y-138939463D01*
X159154180Y-138880498D01*
X159034482Y-138844188D01*
X158910000Y-138831928D01*
X157945750Y-138835000D01*
X157787000Y-138993750D01*
X157533000Y-138993750D01*
X157374250Y-138835000D01*
X156410000Y-138831928D01*
X155445750Y-138835000D01*
X155287000Y-138993750D01*
X155033000Y-138993750D01*
X154874250Y-138835000D01*
X153910000Y-138831928D01*
X153785518Y-138844188D01*
X153665820Y-138880498D01*
X153555506Y-138939463D01*
X153458815Y-139018815D01*
X153379463Y-139115506D01*
X153320498Y-139225820D01*
X153284188Y-139345518D01*
X153271928Y-139470000D01*
X123448072Y-139470000D01*
X123435812Y-139345518D01*
X123399502Y-139225820D01*
X123340537Y-139115506D01*
X123261185Y-139018815D01*
X123164494Y-138939463D01*
X123054180Y-138880498D01*
X122934482Y-138844188D01*
X122810000Y-138831928D01*
X121845750Y-138835000D01*
X121687000Y-138993750D01*
X121433000Y-138993750D01*
X121274250Y-138835000D01*
X120310000Y-138831928D01*
X119345750Y-138835000D01*
X119187000Y-138993750D01*
X118933000Y-138993750D01*
X118774250Y-138835000D01*
X117810000Y-138831928D01*
X117685518Y-138844188D01*
X117565820Y-138880498D01*
X117455506Y-138939463D01*
X117358815Y-139018815D01*
X117279463Y-139115506D01*
X117220498Y-139225820D01*
X117184188Y-139345518D01*
X117171928Y-139470000D01*
X110815038Y-139470000D01*
X110789502Y-139385820D01*
X110730537Y-139275506D01*
X110651185Y-139178815D01*
X110554494Y-139099463D01*
X110444180Y-139040498D01*
X110324482Y-139004188D01*
X110200000Y-138991928D01*
X109235750Y-138995000D01*
X109077000Y-139153750D01*
X108823000Y-139153750D01*
X108664250Y-138995000D01*
X107700000Y-138991928D01*
X106735750Y-138995000D01*
X106577000Y-139153750D01*
X106323000Y-139153750D01*
X106164250Y-138995000D01*
X105200000Y-138991928D01*
X105075518Y-139004188D01*
X104955820Y-139040498D01*
X104845506Y-139099463D01*
X104748815Y-139178815D01*
X104669463Y-139275506D01*
X104610498Y-139385820D01*
X104574188Y-139505518D01*
X104561928Y-139630000D01*
X72331105Y-139630000D01*
X72299502Y-139525820D01*
X72240537Y-139415506D01*
X72161185Y-139318815D01*
X72064494Y-139239463D01*
X71954180Y-139180498D01*
X71834482Y-139144188D01*
X71710000Y-139131928D01*
X70745750Y-139135000D01*
X70587000Y-139293750D01*
X70333000Y-139293750D01*
X70174250Y-139135000D01*
X69210000Y-139131928D01*
X68245750Y-139135000D01*
X68087000Y-139293750D01*
X67833000Y-139293750D01*
X67674250Y-139135000D01*
X66710000Y-139131928D01*
X66585518Y-139144188D01*
X66465820Y-139180498D01*
X66355506Y-139239463D01*
X66258815Y-139318815D01*
X66179463Y-139415506D01*
X66120498Y-139525820D01*
X66084188Y-139645518D01*
X66071928Y-139770000D01*
X65996372Y-139770000D01*
X65999672Y-132970000D01*
X66071928Y-132970000D01*
X66084188Y-133094482D01*
X66120498Y-133214180D01*
X66179463Y-133324494D01*
X66258815Y-133421185D01*
X66355506Y-133500537D01*
X66465820Y-133559502D01*
X66585518Y-133595812D01*
X66710000Y-133608072D01*
X67674250Y-133605000D01*
X67833000Y-133446250D01*
X67833000Y-132297000D01*
X68087000Y-132297000D01*
X68087000Y-133446250D01*
X68245750Y-133605000D01*
X69210000Y-133608072D01*
X70174250Y-133605000D01*
X70333000Y-133446250D01*
X70333000Y-132297000D01*
X70587000Y-132297000D01*
X70587000Y-133446250D01*
X70745750Y-133605000D01*
X71710000Y-133608072D01*
X71834482Y-133595812D01*
X71954180Y-133559502D01*
X72064494Y-133500537D01*
X72161185Y-133421185D01*
X72240537Y-133324494D01*
X72299502Y-133214180D01*
X72335812Y-133094482D01*
X72348072Y-132970000D01*
X72347236Y-132830000D01*
X104561928Y-132830000D01*
X104574188Y-132954482D01*
X104610498Y-133074180D01*
X104669463Y-133184494D01*
X104748815Y-133281185D01*
X104845506Y-133360537D01*
X104955820Y-133419502D01*
X105075518Y-133455812D01*
X105200000Y-133468072D01*
X106164250Y-133465000D01*
X106323000Y-133306250D01*
X106323000Y-132157000D01*
X106577000Y-132157000D01*
X106577000Y-133306250D01*
X106735750Y-133465000D01*
X107700000Y-133468072D01*
X108664250Y-133465000D01*
X108823000Y-133306250D01*
X108823000Y-132157000D01*
X109077000Y-132157000D01*
X109077000Y-133306250D01*
X109235750Y-133465000D01*
X110200000Y-133468072D01*
X110324482Y-133455812D01*
X110444180Y-133419502D01*
X110554494Y-133360537D01*
X110651185Y-133281185D01*
X110730537Y-133184494D01*
X110789502Y-133074180D01*
X110825812Y-132954482D01*
X110838072Y-132830000D01*
X110837117Y-132670000D01*
X117171928Y-132670000D01*
X117184188Y-132794482D01*
X117220498Y-132914180D01*
X117279463Y-133024494D01*
X117358815Y-133121185D01*
X117455506Y-133200537D01*
X117565820Y-133259502D01*
X117685518Y-133295812D01*
X117810000Y-133308072D01*
X118774250Y-133305000D01*
X118933000Y-133146250D01*
X118933000Y-131997000D01*
X119187000Y-131997000D01*
X119187000Y-133146250D01*
X119345750Y-133305000D01*
X120310000Y-133308072D01*
X121274250Y-133305000D01*
X121433000Y-133146250D01*
X121433000Y-131997000D01*
X121687000Y-131997000D01*
X121687000Y-133146250D01*
X121845750Y-133305000D01*
X122810000Y-133308072D01*
X122934482Y-133295812D01*
X123054180Y-133259502D01*
X123164494Y-133200537D01*
X123261185Y-133121185D01*
X123340537Y-133024494D01*
X123399502Y-132914180D01*
X123435812Y-132794482D01*
X123448072Y-132670000D01*
X153271928Y-132670000D01*
X153284188Y-132794482D01*
X153320498Y-132914180D01*
X153379463Y-133024494D01*
X153458815Y-133121185D01*
X153555506Y-133200537D01*
X153665820Y-133259502D01*
X153785518Y-133295812D01*
X153910000Y-133308072D01*
X154874250Y-133305000D01*
X155033000Y-133146250D01*
X155033000Y-131997000D01*
X155287000Y-131997000D01*
X155287000Y-133146250D01*
X155445750Y-133305000D01*
X156410000Y-133308072D01*
X157374250Y-133305000D01*
X157533000Y-133146250D01*
X157533000Y-131997000D01*
X157787000Y-131997000D01*
X157787000Y-133146250D01*
X157945750Y-133305000D01*
X158910000Y-133308072D01*
X159034482Y-133295812D01*
X159154180Y-133259502D01*
X159264494Y-133200537D01*
X159361185Y-133121185D01*
X159440537Y-133024494D01*
X159499502Y-132914180D01*
X159535812Y-132794482D01*
X159548072Y-132670000D01*
X159545000Y-132155750D01*
X159386250Y-131997000D01*
X157787000Y-131997000D01*
X157533000Y-131997000D01*
X155287000Y-131997000D01*
X155033000Y-131997000D01*
X153433750Y-131997000D01*
X153275000Y-132155750D01*
X153271928Y-132670000D01*
X123448072Y-132670000D01*
X123445000Y-132155750D01*
X123286250Y-131997000D01*
X121687000Y-131997000D01*
X121433000Y-131997000D01*
X119187000Y-131997000D01*
X118933000Y-131997000D01*
X117333750Y-131997000D01*
X117175000Y-132155750D01*
X117171928Y-132670000D01*
X110837117Y-132670000D01*
X110835000Y-132315750D01*
X110676250Y-132157000D01*
X109077000Y-132157000D01*
X108823000Y-132157000D01*
X106577000Y-132157000D01*
X106323000Y-132157000D01*
X104723750Y-132157000D01*
X104565000Y-132315750D01*
X104561928Y-132830000D01*
X72347236Y-132830000D01*
X72345000Y-132455750D01*
X72186250Y-132297000D01*
X70587000Y-132297000D01*
X70333000Y-132297000D01*
X68087000Y-132297000D01*
X67833000Y-132297000D01*
X66233750Y-132297000D01*
X66075000Y-132455750D01*
X66071928Y-132970000D01*
X65999672Y-132970000D01*
X66000448Y-131370000D01*
X66071928Y-131370000D01*
X66075000Y-131884250D01*
X66233750Y-132043000D01*
X67833000Y-132043000D01*
X67833000Y-130893750D01*
X68087000Y-130893750D01*
X68087000Y-132043000D01*
X70333000Y-132043000D01*
X70333000Y-130893750D01*
X70587000Y-130893750D01*
X70587000Y-132043000D01*
X72186250Y-132043000D01*
X72345000Y-131884250D01*
X72348072Y-131370000D01*
X72335812Y-131245518D01*
X72331105Y-131230000D01*
X104561928Y-131230000D01*
X104565000Y-131744250D01*
X104723750Y-131903000D01*
X106323000Y-131903000D01*
X106323000Y-130753750D01*
X106577000Y-130753750D01*
X106577000Y-131903000D01*
X108823000Y-131903000D01*
X108823000Y-130753750D01*
X109077000Y-130753750D01*
X109077000Y-131903000D01*
X110676250Y-131903000D01*
X110835000Y-131744250D01*
X110838072Y-131230000D01*
X110825812Y-131105518D01*
X110815038Y-131070000D01*
X117171928Y-131070000D01*
X117175000Y-131584250D01*
X117333750Y-131743000D01*
X118933000Y-131743000D01*
X118933000Y-130593750D01*
X119187000Y-130593750D01*
X119187000Y-131743000D01*
X121433000Y-131743000D01*
X121433000Y-130593750D01*
X121687000Y-130593750D01*
X121687000Y-131743000D01*
X123286250Y-131743000D01*
X123445000Y-131584250D01*
X123448072Y-131070000D01*
X153271928Y-131070000D01*
X153275000Y-131584250D01*
X153433750Y-131743000D01*
X155033000Y-131743000D01*
X155033000Y-130593750D01*
X155287000Y-130593750D01*
X155287000Y-131743000D01*
X157533000Y-131743000D01*
X157533000Y-130593750D01*
X157787000Y-130593750D01*
X157787000Y-131743000D01*
X159386250Y-131743000D01*
X159545000Y-131584250D01*
X159548072Y-131070000D01*
X159535812Y-130945518D01*
X159499502Y-130825820D01*
X159440537Y-130715506D01*
X159361185Y-130618815D01*
X159264494Y-130539463D01*
X159154180Y-130480498D01*
X159034482Y-130444188D01*
X158910000Y-130431928D01*
X157945750Y-130435000D01*
X157787000Y-130593750D01*
X157533000Y-130593750D01*
X157374250Y-130435000D01*
X156410000Y-130431928D01*
X155445750Y-130435000D01*
X155287000Y-130593750D01*
X155033000Y-130593750D01*
X154874250Y-130435000D01*
X153910000Y-130431928D01*
X153785518Y-130444188D01*
X153665820Y-130480498D01*
X153555506Y-130539463D01*
X153458815Y-130618815D01*
X153379463Y-130715506D01*
X153320498Y-130825820D01*
X153284188Y-130945518D01*
X153271928Y-131070000D01*
X123448072Y-131070000D01*
X123435812Y-130945518D01*
X123399502Y-130825820D01*
X123340537Y-130715506D01*
X123261185Y-130618815D01*
X123164494Y-130539463D01*
X123054180Y-130480498D01*
X122934482Y-130444188D01*
X122810000Y-130431928D01*
X121845750Y-130435000D01*
X121687000Y-130593750D01*
X121433000Y-130593750D01*
X121274250Y-130435000D01*
X120310000Y-130431928D01*
X119345750Y-130435000D01*
X119187000Y-130593750D01*
X118933000Y-130593750D01*
X118774250Y-130435000D01*
X117810000Y-130431928D01*
X117685518Y-130444188D01*
X117565820Y-130480498D01*
X117455506Y-130539463D01*
X117358815Y-130618815D01*
X117279463Y-130715506D01*
X117220498Y-130825820D01*
X117184188Y-130945518D01*
X117171928Y-131070000D01*
X110815038Y-131070000D01*
X110789502Y-130985820D01*
X110730537Y-130875506D01*
X110651185Y-130778815D01*
X110554494Y-130699463D01*
X110444180Y-130640498D01*
X110324482Y-130604188D01*
X110200000Y-130591928D01*
X109235750Y-130595000D01*
X109077000Y-130753750D01*
X108823000Y-130753750D01*
X108664250Y-130595000D01*
X107700000Y-130591928D01*
X106735750Y-130595000D01*
X106577000Y-130753750D01*
X106323000Y-130753750D01*
X106164250Y-130595000D01*
X105200000Y-130591928D01*
X105075518Y-130604188D01*
X104955820Y-130640498D01*
X104845506Y-130699463D01*
X104748815Y-130778815D01*
X104669463Y-130875506D01*
X104610498Y-130985820D01*
X104574188Y-131105518D01*
X104561928Y-131230000D01*
X72331105Y-131230000D01*
X72299502Y-131125820D01*
X72240537Y-131015506D01*
X72161185Y-130918815D01*
X72064494Y-130839463D01*
X71954180Y-130780498D01*
X71834482Y-130744188D01*
X71710000Y-130731928D01*
X70745750Y-130735000D01*
X70587000Y-130893750D01*
X70333000Y-130893750D01*
X70174250Y-130735000D01*
X69210000Y-130731928D01*
X68245750Y-130735000D01*
X68087000Y-130893750D01*
X67833000Y-130893750D01*
X67674250Y-130735000D01*
X66710000Y-130731928D01*
X66585518Y-130744188D01*
X66465820Y-130780498D01*
X66355506Y-130839463D01*
X66258815Y-130918815D01*
X66179463Y-131015506D01*
X66120498Y-131125820D01*
X66084188Y-131245518D01*
X66071928Y-131370000D01*
X66000448Y-131370000D01*
X66004180Y-123680000D01*
X73991928Y-123680000D01*
X74004188Y-123804482D01*
X74040498Y-123924180D01*
X74099463Y-124034494D01*
X74178815Y-124131185D01*
X74275506Y-124210537D01*
X74385820Y-124269502D01*
X74505518Y-124305812D01*
X74630000Y-124318072D01*
X75144250Y-124315000D01*
X75303000Y-124156250D01*
X75303000Y-122557000D01*
X75557000Y-122557000D01*
X75557000Y-124156250D01*
X75715750Y-124315000D01*
X76230000Y-124318072D01*
X76354482Y-124305812D01*
X76474180Y-124269502D01*
X76584494Y-124210537D01*
X76681185Y-124131185D01*
X76760537Y-124034494D01*
X76819502Y-123924180D01*
X76855812Y-123804482D01*
X76868072Y-123680000D01*
X82391928Y-123680000D01*
X82404188Y-123804482D01*
X82440498Y-123924180D01*
X82499463Y-124034494D01*
X82578815Y-124131185D01*
X82675506Y-124210537D01*
X82785820Y-124269502D01*
X82905518Y-124305812D01*
X83030000Y-124318072D01*
X83544250Y-124315000D01*
X83703000Y-124156250D01*
X83703000Y-122557000D01*
X83957000Y-122557000D01*
X83957000Y-124156250D01*
X84115750Y-124315000D01*
X84630000Y-124318072D01*
X84754482Y-124305812D01*
X84874180Y-124269502D01*
X84984494Y-124210537D01*
X85081185Y-124131185D01*
X85160537Y-124034494D01*
X85219502Y-123924180D01*
X85255812Y-123804482D01*
X85267087Y-123690000D01*
X92301928Y-123690000D01*
X92314188Y-123814482D01*
X92350498Y-123934180D01*
X92409463Y-124044494D01*
X92488815Y-124141185D01*
X92585506Y-124220537D01*
X92695820Y-124279502D01*
X92815518Y-124315812D01*
X92940000Y-124328072D01*
X93454250Y-124325000D01*
X93613000Y-124166250D01*
X93613000Y-122567000D01*
X93867000Y-122567000D01*
X93867000Y-124166250D01*
X94025750Y-124325000D01*
X94540000Y-124328072D01*
X94664482Y-124315812D01*
X94784180Y-124279502D01*
X94894494Y-124220537D01*
X94991185Y-124141185D01*
X95070537Y-124044494D01*
X95129502Y-123934180D01*
X95165812Y-123814482D01*
X95178072Y-123690000D01*
X100701928Y-123690000D01*
X100714188Y-123814482D01*
X100750498Y-123934180D01*
X100809463Y-124044494D01*
X100888815Y-124141185D01*
X100985506Y-124220537D01*
X101095820Y-124279502D01*
X101215518Y-124315812D01*
X101340000Y-124328072D01*
X101854250Y-124325000D01*
X102013000Y-124166250D01*
X102013000Y-122567000D01*
X102267000Y-122567000D01*
X102267000Y-124166250D01*
X102425750Y-124325000D01*
X102940000Y-124328072D01*
X103064482Y-124315812D01*
X103184180Y-124279502D01*
X103294494Y-124220537D01*
X103391185Y-124141185D01*
X103470537Y-124044494D01*
X103529502Y-123934180D01*
X103565812Y-123814482D01*
X103578072Y-123690000D01*
X103577849Y-123620000D01*
X120881928Y-123620000D01*
X120894188Y-123744482D01*
X120930498Y-123864180D01*
X120989463Y-123974494D01*
X121068815Y-124071185D01*
X121165506Y-124150537D01*
X121275820Y-124209502D01*
X121395518Y-124245812D01*
X121520000Y-124258072D01*
X122034250Y-124255000D01*
X122193000Y-124096250D01*
X122193000Y-122497000D01*
X122447000Y-122497000D01*
X122447000Y-124096250D01*
X122605750Y-124255000D01*
X123120000Y-124258072D01*
X123244482Y-124245812D01*
X123364180Y-124209502D01*
X123474494Y-124150537D01*
X123571185Y-124071185D01*
X123650537Y-123974494D01*
X123709502Y-123864180D01*
X123745812Y-123744482D01*
X123758072Y-123620000D01*
X129281928Y-123620000D01*
X129294188Y-123744482D01*
X129330498Y-123864180D01*
X129389463Y-123974494D01*
X129468815Y-124071185D01*
X129565506Y-124150537D01*
X129675820Y-124209502D01*
X129795518Y-124245812D01*
X129920000Y-124258072D01*
X130434250Y-124255000D01*
X130593000Y-124096250D01*
X130593000Y-122497000D01*
X130847000Y-122497000D01*
X130847000Y-124096250D01*
X131005750Y-124255000D01*
X131520000Y-124258072D01*
X131644482Y-124245812D01*
X131764180Y-124209502D01*
X131874494Y-124150537D01*
X131971185Y-124071185D01*
X132050537Y-123974494D01*
X132109502Y-123864180D01*
X132145812Y-123744482D01*
X132158072Y-123620000D01*
X132157913Y-123570000D01*
X143771928Y-123570000D01*
X143784188Y-123694482D01*
X143820498Y-123814180D01*
X143879463Y-123924494D01*
X143958815Y-124021185D01*
X144055506Y-124100537D01*
X144165820Y-124159502D01*
X144285518Y-124195812D01*
X144410000Y-124208072D01*
X144924250Y-124205000D01*
X145083000Y-124046250D01*
X145083000Y-122447000D01*
X145337000Y-122447000D01*
X145337000Y-124046250D01*
X145495750Y-124205000D01*
X146010000Y-124208072D01*
X146134482Y-124195812D01*
X146254180Y-124159502D01*
X146364494Y-124100537D01*
X146461185Y-124021185D01*
X146540537Y-123924494D01*
X146599502Y-123814180D01*
X146635812Y-123694482D01*
X146648072Y-123570000D01*
X152171928Y-123570000D01*
X152184188Y-123694482D01*
X152220498Y-123814180D01*
X152279463Y-123924494D01*
X152358815Y-124021185D01*
X152455506Y-124100537D01*
X152565820Y-124159502D01*
X152685518Y-124195812D01*
X152810000Y-124208072D01*
X153324250Y-124205000D01*
X153483000Y-124046250D01*
X153483000Y-122447000D01*
X153737000Y-122447000D01*
X153737000Y-124046250D01*
X153895750Y-124205000D01*
X154410000Y-124208072D01*
X154534482Y-124195812D01*
X154654180Y-124159502D01*
X154764494Y-124100537D01*
X154861185Y-124021185D01*
X154940537Y-123924494D01*
X154999502Y-123814180D01*
X155035812Y-123694482D01*
X155048072Y-123570000D01*
X155045000Y-122605750D01*
X154886250Y-122447000D01*
X153737000Y-122447000D01*
X153483000Y-122447000D01*
X152333750Y-122447000D01*
X152175000Y-122605750D01*
X152171928Y-123570000D01*
X146648072Y-123570000D01*
X146645000Y-122605750D01*
X146486250Y-122447000D01*
X145337000Y-122447000D01*
X145083000Y-122447000D01*
X143933750Y-122447000D01*
X143775000Y-122605750D01*
X143771928Y-123570000D01*
X132157913Y-123570000D01*
X132155000Y-122655750D01*
X131996250Y-122497000D01*
X130847000Y-122497000D01*
X130593000Y-122497000D01*
X129443750Y-122497000D01*
X129285000Y-122655750D01*
X129281928Y-123620000D01*
X123758072Y-123620000D01*
X123755000Y-122655750D01*
X123596250Y-122497000D01*
X122447000Y-122497000D01*
X122193000Y-122497000D01*
X121043750Y-122497000D01*
X120885000Y-122655750D01*
X120881928Y-123620000D01*
X103577849Y-123620000D01*
X103575000Y-122725750D01*
X103416250Y-122567000D01*
X102267000Y-122567000D01*
X102013000Y-122567000D01*
X100863750Y-122567000D01*
X100705000Y-122725750D01*
X100701928Y-123690000D01*
X95178072Y-123690000D01*
X95175000Y-122725750D01*
X95016250Y-122567000D01*
X93867000Y-122567000D01*
X93613000Y-122567000D01*
X92463750Y-122567000D01*
X92305000Y-122725750D01*
X92301928Y-123690000D01*
X85267087Y-123690000D01*
X85268072Y-123680000D01*
X85265000Y-122715750D01*
X85106250Y-122557000D01*
X83957000Y-122557000D01*
X83703000Y-122557000D01*
X82553750Y-122557000D01*
X82395000Y-122715750D01*
X82391928Y-123680000D01*
X76868072Y-123680000D01*
X76865000Y-122715750D01*
X76706250Y-122557000D01*
X75557000Y-122557000D01*
X75303000Y-122557000D01*
X74153750Y-122557000D01*
X73995000Y-122715750D01*
X73991928Y-123680000D01*
X66004180Y-123680000D01*
X66005393Y-121180000D01*
X73991928Y-121180000D01*
X73995000Y-122144250D01*
X74153750Y-122303000D01*
X75303000Y-122303000D01*
X75303000Y-120057000D01*
X75557000Y-120057000D01*
X75557000Y-122303000D01*
X76706250Y-122303000D01*
X76865000Y-122144250D01*
X76868072Y-121180000D01*
X82391928Y-121180000D01*
X82395000Y-122144250D01*
X82553750Y-122303000D01*
X83703000Y-122303000D01*
X83703000Y-120057000D01*
X83957000Y-120057000D01*
X83957000Y-122303000D01*
X85106250Y-122303000D01*
X85265000Y-122144250D01*
X85268040Y-121190000D01*
X92301928Y-121190000D01*
X92305000Y-122154250D01*
X92463750Y-122313000D01*
X93613000Y-122313000D01*
X93613000Y-120067000D01*
X93867000Y-120067000D01*
X93867000Y-122313000D01*
X95016250Y-122313000D01*
X95175000Y-122154250D01*
X95178072Y-121190000D01*
X100701928Y-121190000D01*
X100705000Y-122154250D01*
X100863750Y-122313000D01*
X102013000Y-122313000D01*
X102013000Y-120067000D01*
X102267000Y-120067000D01*
X102267000Y-122313000D01*
X103416250Y-122313000D01*
X103575000Y-122154250D01*
X103578072Y-121190000D01*
X103577849Y-121120000D01*
X120881928Y-121120000D01*
X120885000Y-122084250D01*
X121043750Y-122243000D01*
X122193000Y-122243000D01*
X122193000Y-119997000D01*
X122447000Y-119997000D01*
X122447000Y-122243000D01*
X123596250Y-122243000D01*
X123755000Y-122084250D01*
X123758072Y-121120000D01*
X129281928Y-121120000D01*
X129285000Y-122084250D01*
X129443750Y-122243000D01*
X130593000Y-122243000D01*
X130593000Y-119997000D01*
X130847000Y-119997000D01*
X130847000Y-122243000D01*
X131996250Y-122243000D01*
X132155000Y-122084250D01*
X132158072Y-121120000D01*
X132157913Y-121070000D01*
X143771928Y-121070000D01*
X143775000Y-122034250D01*
X143933750Y-122193000D01*
X145083000Y-122193000D01*
X145083000Y-119947000D01*
X145337000Y-119947000D01*
X145337000Y-122193000D01*
X146486250Y-122193000D01*
X146645000Y-122034250D01*
X146648072Y-121070000D01*
X152171928Y-121070000D01*
X152175000Y-122034250D01*
X152333750Y-122193000D01*
X153483000Y-122193000D01*
X153483000Y-119947000D01*
X153737000Y-119947000D01*
X153737000Y-122193000D01*
X154886250Y-122193000D01*
X155045000Y-122034250D01*
X155048072Y-121070000D01*
X155045000Y-120105750D01*
X154886250Y-119947000D01*
X153737000Y-119947000D01*
X153483000Y-119947000D01*
X152333750Y-119947000D01*
X152175000Y-120105750D01*
X152171928Y-121070000D01*
X146648072Y-121070000D01*
X146645000Y-120105750D01*
X146486250Y-119947000D01*
X145337000Y-119947000D01*
X145083000Y-119947000D01*
X143933750Y-119947000D01*
X143775000Y-120105750D01*
X143771928Y-121070000D01*
X132157913Y-121070000D01*
X132155000Y-120155750D01*
X131996250Y-119997000D01*
X130847000Y-119997000D01*
X130593000Y-119997000D01*
X129443750Y-119997000D01*
X129285000Y-120155750D01*
X129281928Y-121120000D01*
X123758072Y-121120000D01*
X123755000Y-120155750D01*
X123596250Y-119997000D01*
X122447000Y-119997000D01*
X122193000Y-119997000D01*
X121043750Y-119997000D01*
X120885000Y-120155750D01*
X120881928Y-121120000D01*
X103577849Y-121120000D01*
X103575000Y-120225750D01*
X103416250Y-120067000D01*
X102267000Y-120067000D01*
X102013000Y-120067000D01*
X100863750Y-120067000D01*
X100705000Y-120225750D01*
X100701928Y-121190000D01*
X95178072Y-121190000D01*
X95175000Y-120225750D01*
X95016250Y-120067000D01*
X93867000Y-120067000D01*
X93613000Y-120067000D01*
X92463750Y-120067000D01*
X92305000Y-120225750D01*
X92301928Y-121190000D01*
X85268040Y-121190000D01*
X85268072Y-121180000D01*
X85265000Y-120215750D01*
X85106250Y-120057000D01*
X83957000Y-120057000D01*
X83703000Y-120057000D01*
X82553750Y-120057000D01*
X82395000Y-120215750D01*
X82391928Y-121180000D01*
X76868072Y-121180000D01*
X76865000Y-120215750D01*
X76706250Y-120057000D01*
X75557000Y-120057000D01*
X75303000Y-120057000D01*
X74153750Y-120057000D01*
X73995000Y-120215750D01*
X73991928Y-121180000D01*
X66005393Y-121180000D01*
X66006606Y-118680000D01*
X73991928Y-118680000D01*
X73995000Y-119644250D01*
X74153750Y-119803000D01*
X75303000Y-119803000D01*
X75303000Y-118203750D01*
X75557000Y-118203750D01*
X75557000Y-119803000D01*
X76706250Y-119803000D01*
X76865000Y-119644250D01*
X76868072Y-118680000D01*
X82391928Y-118680000D01*
X82395000Y-119644250D01*
X82553750Y-119803000D01*
X83703000Y-119803000D01*
X83703000Y-118203750D01*
X83957000Y-118203750D01*
X83957000Y-119803000D01*
X85106250Y-119803000D01*
X85265000Y-119644250D01*
X85268040Y-118690000D01*
X92301928Y-118690000D01*
X92305000Y-119654250D01*
X92463750Y-119813000D01*
X93613000Y-119813000D01*
X93613000Y-118213750D01*
X93867000Y-118213750D01*
X93867000Y-119813000D01*
X95016250Y-119813000D01*
X95175000Y-119654250D01*
X95178072Y-118690000D01*
X100701928Y-118690000D01*
X100705000Y-119654250D01*
X100863750Y-119813000D01*
X102013000Y-119813000D01*
X102013000Y-118213750D01*
X102267000Y-118213750D01*
X102267000Y-119813000D01*
X103416250Y-119813000D01*
X103575000Y-119654250D01*
X103578072Y-118690000D01*
X103571178Y-118620000D01*
X120881928Y-118620000D01*
X120885000Y-119584250D01*
X121043750Y-119743000D01*
X122193000Y-119743000D01*
X122193000Y-118143750D01*
X122447000Y-118143750D01*
X122447000Y-119743000D01*
X123596250Y-119743000D01*
X123755000Y-119584250D01*
X123758072Y-118620000D01*
X129281928Y-118620000D01*
X129285000Y-119584250D01*
X129443750Y-119743000D01*
X130593000Y-119743000D01*
X130593000Y-118143750D01*
X130847000Y-118143750D01*
X130847000Y-119743000D01*
X131996250Y-119743000D01*
X132155000Y-119584250D01*
X132158072Y-118620000D01*
X132153148Y-118570000D01*
X143771928Y-118570000D01*
X143775000Y-119534250D01*
X143933750Y-119693000D01*
X145083000Y-119693000D01*
X145083000Y-118093750D01*
X145337000Y-118093750D01*
X145337000Y-119693000D01*
X146486250Y-119693000D01*
X146645000Y-119534250D01*
X146648072Y-118570000D01*
X152171928Y-118570000D01*
X152175000Y-119534250D01*
X152333750Y-119693000D01*
X153483000Y-119693000D01*
X153483000Y-118093750D01*
X153737000Y-118093750D01*
X153737000Y-119693000D01*
X154886250Y-119693000D01*
X155045000Y-119534250D01*
X155048072Y-118570000D01*
X155035812Y-118445518D01*
X154999502Y-118325820D01*
X154940537Y-118215506D01*
X154861185Y-118118815D01*
X154764494Y-118039463D01*
X154654180Y-117980498D01*
X154534482Y-117944188D01*
X154410000Y-117931928D01*
X153895750Y-117935000D01*
X153737000Y-118093750D01*
X153483000Y-118093750D01*
X153324250Y-117935000D01*
X152810000Y-117931928D01*
X152685518Y-117944188D01*
X152565820Y-117980498D01*
X152455506Y-118039463D01*
X152358815Y-118118815D01*
X152279463Y-118215506D01*
X152220498Y-118325820D01*
X152184188Y-118445518D01*
X152171928Y-118570000D01*
X146648072Y-118570000D01*
X146635812Y-118445518D01*
X146599502Y-118325820D01*
X146540537Y-118215506D01*
X146461185Y-118118815D01*
X146364494Y-118039463D01*
X146254180Y-117980498D01*
X146134482Y-117944188D01*
X146010000Y-117931928D01*
X145495750Y-117935000D01*
X145337000Y-118093750D01*
X145083000Y-118093750D01*
X144924250Y-117935000D01*
X144410000Y-117931928D01*
X144285518Y-117944188D01*
X144165820Y-117980498D01*
X144055506Y-118039463D01*
X143958815Y-118118815D01*
X143879463Y-118215506D01*
X143820498Y-118325820D01*
X143784188Y-118445518D01*
X143771928Y-118570000D01*
X132153148Y-118570000D01*
X132145812Y-118495518D01*
X132109502Y-118375820D01*
X132050537Y-118265506D01*
X131971185Y-118168815D01*
X131874494Y-118089463D01*
X131764180Y-118030498D01*
X131644482Y-117994188D01*
X131520000Y-117981928D01*
X131005750Y-117985000D01*
X130847000Y-118143750D01*
X130593000Y-118143750D01*
X130434250Y-117985000D01*
X129920000Y-117981928D01*
X129795518Y-117994188D01*
X129675820Y-118030498D01*
X129565506Y-118089463D01*
X129468815Y-118168815D01*
X129389463Y-118265506D01*
X129330498Y-118375820D01*
X129294188Y-118495518D01*
X129281928Y-118620000D01*
X123758072Y-118620000D01*
X123745812Y-118495518D01*
X123709502Y-118375820D01*
X123650537Y-118265506D01*
X123571185Y-118168815D01*
X123474494Y-118089463D01*
X123364180Y-118030498D01*
X123244482Y-117994188D01*
X123120000Y-117981928D01*
X122605750Y-117985000D01*
X122447000Y-118143750D01*
X122193000Y-118143750D01*
X122034250Y-117985000D01*
X121520000Y-117981928D01*
X121395518Y-117994188D01*
X121275820Y-118030498D01*
X121165506Y-118089463D01*
X121068815Y-118168815D01*
X120989463Y-118265506D01*
X120930498Y-118375820D01*
X120894188Y-118495518D01*
X120881928Y-118620000D01*
X103571178Y-118620000D01*
X103565812Y-118565518D01*
X103529502Y-118445820D01*
X103470537Y-118335506D01*
X103391185Y-118238815D01*
X103294494Y-118159463D01*
X103184180Y-118100498D01*
X103064482Y-118064188D01*
X102940000Y-118051928D01*
X102425750Y-118055000D01*
X102267000Y-118213750D01*
X102013000Y-118213750D01*
X101854250Y-118055000D01*
X101340000Y-118051928D01*
X101215518Y-118064188D01*
X101095820Y-118100498D01*
X100985506Y-118159463D01*
X100888815Y-118238815D01*
X100809463Y-118335506D01*
X100750498Y-118445820D01*
X100714188Y-118565518D01*
X100701928Y-118690000D01*
X95178072Y-118690000D01*
X95165812Y-118565518D01*
X95129502Y-118445820D01*
X95070537Y-118335506D01*
X94991185Y-118238815D01*
X94894494Y-118159463D01*
X94784180Y-118100498D01*
X94664482Y-118064188D01*
X94540000Y-118051928D01*
X94025750Y-118055000D01*
X93867000Y-118213750D01*
X93613000Y-118213750D01*
X93454250Y-118055000D01*
X92940000Y-118051928D01*
X92815518Y-118064188D01*
X92695820Y-118100498D01*
X92585506Y-118159463D01*
X92488815Y-118238815D01*
X92409463Y-118335506D01*
X92350498Y-118445820D01*
X92314188Y-118565518D01*
X92301928Y-118690000D01*
X85268040Y-118690000D01*
X85268072Y-118680000D01*
X85255812Y-118555518D01*
X85219502Y-118435820D01*
X85160537Y-118325506D01*
X85081185Y-118228815D01*
X84984494Y-118149463D01*
X84874180Y-118090498D01*
X84754482Y-118054188D01*
X84630000Y-118041928D01*
X84115750Y-118045000D01*
X83957000Y-118203750D01*
X83703000Y-118203750D01*
X83544250Y-118045000D01*
X83030000Y-118041928D01*
X82905518Y-118054188D01*
X82785820Y-118090498D01*
X82675506Y-118149463D01*
X82578815Y-118228815D01*
X82499463Y-118325506D01*
X82440498Y-118435820D01*
X82404188Y-118555518D01*
X82391928Y-118680000D01*
X76868072Y-118680000D01*
X76855812Y-118555518D01*
X76819502Y-118435820D01*
X76760537Y-118325506D01*
X76681185Y-118228815D01*
X76584494Y-118149463D01*
X76474180Y-118090498D01*
X76354482Y-118054188D01*
X76230000Y-118041928D01*
X75715750Y-118045000D01*
X75557000Y-118203750D01*
X75303000Y-118203750D01*
X75144250Y-118045000D01*
X74630000Y-118041928D01*
X74505518Y-118054188D01*
X74385820Y-118090498D01*
X74275506Y-118149463D01*
X74178815Y-118228815D01*
X74099463Y-118325506D01*
X74040498Y-118435820D01*
X74004188Y-118555518D01*
X73991928Y-118680000D01*
X66006606Y-118680000D01*
X66011539Y-108522252D01*
X66039463Y-108574494D01*
X66118815Y-108671185D01*
X66215506Y-108750537D01*
X66325820Y-108809502D01*
X66445518Y-108845812D01*
X66570000Y-108858072D01*
X67534250Y-108855000D01*
X67693000Y-108696250D01*
X67693000Y-107547000D01*
X67947000Y-107547000D01*
X67947000Y-108696250D01*
X68105750Y-108855000D01*
X69070000Y-108858072D01*
X70034250Y-108855000D01*
X70193000Y-108696250D01*
X70193000Y-107547000D01*
X70447000Y-107547000D01*
X70447000Y-108696250D01*
X70605750Y-108855000D01*
X71570000Y-108858072D01*
X71694482Y-108845812D01*
X71814180Y-108809502D01*
X71924494Y-108750537D01*
X72021185Y-108671185D01*
X72100537Y-108574494D01*
X72159502Y-108464180D01*
X72195812Y-108344482D01*
X72202162Y-108280000D01*
X103751928Y-108280000D01*
X103764188Y-108404482D01*
X103800498Y-108524180D01*
X103859463Y-108634494D01*
X103938815Y-108731185D01*
X104035506Y-108810537D01*
X104145820Y-108869502D01*
X104265518Y-108905812D01*
X104390000Y-108918072D01*
X105354250Y-108915000D01*
X105513000Y-108756250D01*
X105513000Y-107607000D01*
X105767000Y-107607000D01*
X105767000Y-108756250D01*
X105925750Y-108915000D01*
X106890000Y-108918072D01*
X107854250Y-108915000D01*
X108013000Y-108756250D01*
X108013000Y-107607000D01*
X108267000Y-107607000D01*
X108267000Y-108756250D01*
X108425750Y-108915000D01*
X109390000Y-108918072D01*
X109514482Y-108905812D01*
X109634180Y-108869502D01*
X109744494Y-108810537D01*
X109841185Y-108731185D01*
X109920537Y-108634494D01*
X109979502Y-108524180D01*
X110015812Y-108404482D01*
X110028072Y-108280000D01*
X110028013Y-108270000D01*
X116821928Y-108270000D01*
X116834188Y-108394482D01*
X116870498Y-108514180D01*
X116929463Y-108624494D01*
X117008815Y-108721185D01*
X117105506Y-108800537D01*
X117215820Y-108859502D01*
X117335518Y-108895812D01*
X117460000Y-108908072D01*
X118424250Y-108905000D01*
X118583000Y-108746250D01*
X118583000Y-107597000D01*
X118837000Y-107597000D01*
X118837000Y-108746250D01*
X118995750Y-108905000D01*
X119960000Y-108908072D01*
X120924250Y-108905000D01*
X121083000Y-108746250D01*
X121083000Y-107597000D01*
X121337000Y-107597000D01*
X121337000Y-108746250D01*
X121495750Y-108905000D01*
X122460000Y-108908072D01*
X122584482Y-108895812D01*
X122704180Y-108859502D01*
X122814494Y-108800537D01*
X122911185Y-108721185D01*
X122990537Y-108624494D01*
X123049502Y-108514180D01*
X123085812Y-108394482D01*
X123098072Y-108270000D01*
X123097296Y-108140000D01*
X155011928Y-108140000D01*
X155024188Y-108264482D01*
X155060498Y-108384180D01*
X155119463Y-108494494D01*
X155198815Y-108591185D01*
X155295506Y-108670537D01*
X155405820Y-108729502D01*
X155525518Y-108765812D01*
X155650000Y-108778072D01*
X156614250Y-108775000D01*
X156773000Y-108616250D01*
X156773000Y-107467000D01*
X157027000Y-107467000D01*
X157027000Y-108616250D01*
X157185750Y-108775000D01*
X158150000Y-108778072D01*
X159114250Y-108775000D01*
X159273000Y-108616250D01*
X159273000Y-107467000D01*
X157027000Y-107467000D01*
X156773000Y-107467000D01*
X155173750Y-107467000D01*
X155015000Y-107625750D01*
X155011928Y-108140000D01*
X123097296Y-108140000D01*
X123095000Y-107755750D01*
X122936250Y-107597000D01*
X121337000Y-107597000D01*
X121083000Y-107597000D01*
X118837000Y-107597000D01*
X118583000Y-107597000D01*
X116983750Y-107597000D01*
X116825000Y-107755750D01*
X116821928Y-108270000D01*
X110028013Y-108270000D01*
X110025000Y-107765750D01*
X109866250Y-107607000D01*
X108267000Y-107607000D01*
X108013000Y-107607000D01*
X105767000Y-107607000D01*
X105513000Y-107607000D01*
X103913750Y-107607000D01*
X103755000Y-107765750D01*
X103751928Y-108280000D01*
X72202162Y-108280000D01*
X72208072Y-108220000D01*
X72205000Y-107705750D01*
X72046250Y-107547000D01*
X70447000Y-107547000D01*
X70193000Y-107547000D01*
X67947000Y-107547000D01*
X67693000Y-107547000D01*
X67673000Y-107547000D01*
X67673000Y-107293000D01*
X67693000Y-107293000D01*
X67693000Y-106143750D01*
X67947000Y-106143750D01*
X67947000Y-107293000D01*
X70193000Y-107293000D01*
X70193000Y-106143750D01*
X70447000Y-106143750D01*
X70447000Y-107293000D01*
X72046250Y-107293000D01*
X72205000Y-107134250D01*
X72207713Y-106680000D01*
X103751928Y-106680000D01*
X103755000Y-107194250D01*
X103913750Y-107353000D01*
X105513000Y-107353000D01*
X105513000Y-106203750D01*
X105767000Y-106203750D01*
X105767000Y-107353000D01*
X108013000Y-107353000D01*
X108013000Y-106203750D01*
X108267000Y-106203750D01*
X108267000Y-107353000D01*
X109866250Y-107353000D01*
X110025000Y-107194250D01*
X110028072Y-106680000D01*
X110027088Y-106670000D01*
X116821928Y-106670000D01*
X116825000Y-107184250D01*
X116983750Y-107343000D01*
X118583000Y-107343000D01*
X118583000Y-106193750D01*
X118837000Y-106193750D01*
X118837000Y-107343000D01*
X121083000Y-107343000D01*
X121083000Y-106193750D01*
X121337000Y-106193750D01*
X121337000Y-107343000D01*
X122936250Y-107343000D01*
X123095000Y-107184250D01*
X123098072Y-106670000D01*
X123085812Y-106545518D01*
X123084139Y-106540000D01*
X155011928Y-106540000D01*
X155015000Y-107054250D01*
X155173750Y-107213000D01*
X156773000Y-107213000D01*
X156773000Y-106063750D01*
X157027000Y-106063750D01*
X157027000Y-107213000D01*
X159273000Y-107213000D01*
X159273000Y-106063750D01*
X159114250Y-105905000D01*
X158150000Y-105901928D01*
X157185750Y-105905000D01*
X157027000Y-106063750D01*
X156773000Y-106063750D01*
X156614250Y-105905000D01*
X155650000Y-105901928D01*
X155525518Y-105914188D01*
X155405820Y-105950498D01*
X155295506Y-106009463D01*
X155198815Y-106088815D01*
X155119463Y-106185506D01*
X155060498Y-106295820D01*
X155024188Y-106415518D01*
X155011928Y-106540000D01*
X123084139Y-106540000D01*
X123049502Y-106425820D01*
X122990537Y-106315506D01*
X122911185Y-106218815D01*
X122814494Y-106139463D01*
X122704180Y-106080498D01*
X122584482Y-106044188D01*
X122460000Y-106031928D01*
X121495750Y-106035000D01*
X121337000Y-106193750D01*
X121083000Y-106193750D01*
X120924250Y-106035000D01*
X119960000Y-106031928D01*
X118995750Y-106035000D01*
X118837000Y-106193750D01*
X118583000Y-106193750D01*
X118424250Y-106035000D01*
X117460000Y-106031928D01*
X117335518Y-106044188D01*
X117215820Y-106080498D01*
X117105506Y-106139463D01*
X117008815Y-106218815D01*
X116929463Y-106315506D01*
X116870498Y-106425820D01*
X116834188Y-106545518D01*
X116821928Y-106670000D01*
X110027088Y-106670000D01*
X110015812Y-106555518D01*
X109979502Y-106435820D01*
X109920537Y-106325506D01*
X109841185Y-106228815D01*
X109744494Y-106149463D01*
X109634180Y-106090498D01*
X109514482Y-106054188D01*
X109390000Y-106041928D01*
X108425750Y-106045000D01*
X108267000Y-106203750D01*
X108013000Y-106203750D01*
X107854250Y-106045000D01*
X106890000Y-106041928D01*
X105925750Y-106045000D01*
X105767000Y-106203750D01*
X105513000Y-106203750D01*
X105354250Y-106045000D01*
X104390000Y-106041928D01*
X104265518Y-106054188D01*
X104145820Y-106090498D01*
X104035506Y-106149463D01*
X103938815Y-106228815D01*
X103859463Y-106325506D01*
X103800498Y-106435820D01*
X103764188Y-106555518D01*
X103751928Y-106680000D01*
X72207713Y-106680000D01*
X72208072Y-106620000D01*
X72195812Y-106495518D01*
X72159502Y-106375820D01*
X72100537Y-106265506D01*
X72021185Y-106168815D01*
X71924494Y-106089463D01*
X71814180Y-106030498D01*
X71694482Y-105994188D01*
X71570000Y-105981928D01*
X70605750Y-105985000D01*
X70447000Y-106143750D01*
X70193000Y-106143750D01*
X70034250Y-105985000D01*
X69070000Y-105981928D01*
X68105750Y-105985000D01*
X67947000Y-106143750D01*
X67693000Y-106143750D01*
X67534250Y-105985000D01*
X66570000Y-105981928D01*
X66445518Y-105994188D01*
X66325820Y-106030498D01*
X66215506Y-106089463D01*
X66118815Y-106168815D01*
X66039463Y-106265506D01*
X66012610Y-106315744D01*
X66015612Y-100129873D01*
X66039463Y-100174494D01*
X66118815Y-100271185D01*
X66215506Y-100350537D01*
X66325820Y-100409502D01*
X66445518Y-100445812D01*
X66570000Y-100458072D01*
X67534250Y-100455000D01*
X67693000Y-100296250D01*
X67693000Y-99147000D01*
X67947000Y-99147000D01*
X67947000Y-100296250D01*
X68105750Y-100455000D01*
X69070000Y-100458072D01*
X70034250Y-100455000D01*
X70193000Y-100296250D01*
X70193000Y-99147000D01*
X70447000Y-99147000D01*
X70447000Y-100296250D01*
X70605750Y-100455000D01*
X71570000Y-100458072D01*
X71694482Y-100445812D01*
X71814180Y-100409502D01*
X71924494Y-100350537D01*
X72021185Y-100271185D01*
X72100537Y-100174494D01*
X72159502Y-100064180D01*
X72195812Y-99944482D01*
X72202162Y-99880000D01*
X103751928Y-99880000D01*
X103764188Y-100004482D01*
X103800498Y-100124180D01*
X103859463Y-100234494D01*
X103938815Y-100331185D01*
X104035506Y-100410537D01*
X104145820Y-100469502D01*
X104265518Y-100505812D01*
X104390000Y-100518072D01*
X105354250Y-100515000D01*
X105513000Y-100356250D01*
X105513000Y-99207000D01*
X105767000Y-99207000D01*
X105767000Y-100356250D01*
X105925750Y-100515000D01*
X106890000Y-100518072D01*
X107854250Y-100515000D01*
X108013000Y-100356250D01*
X108013000Y-99207000D01*
X108267000Y-99207000D01*
X108267000Y-100356250D01*
X108425750Y-100515000D01*
X109390000Y-100518072D01*
X109514482Y-100505812D01*
X109634180Y-100469502D01*
X109744494Y-100410537D01*
X109841185Y-100331185D01*
X109920537Y-100234494D01*
X109979502Y-100124180D01*
X110015812Y-100004482D01*
X110028072Y-99880000D01*
X110028013Y-99870000D01*
X116821928Y-99870000D01*
X116834188Y-99994482D01*
X116870498Y-100114180D01*
X116929463Y-100224494D01*
X117008815Y-100321185D01*
X117105506Y-100400537D01*
X117215820Y-100459502D01*
X117335518Y-100495812D01*
X117460000Y-100508072D01*
X118424250Y-100505000D01*
X118583000Y-100346250D01*
X118583000Y-99197000D01*
X118837000Y-99197000D01*
X118837000Y-100346250D01*
X118995750Y-100505000D01*
X119960000Y-100508072D01*
X120924250Y-100505000D01*
X121083000Y-100346250D01*
X121083000Y-99197000D01*
X121337000Y-99197000D01*
X121337000Y-100346250D01*
X121495750Y-100505000D01*
X122460000Y-100508072D01*
X122584482Y-100495812D01*
X122704180Y-100459502D01*
X122814494Y-100400537D01*
X122911185Y-100321185D01*
X122990537Y-100224494D01*
X123049502Y-100114180D01*
X123085812Y-99994482D01*
X123098072Y-99870000D01*
X123097296Y-99740000D01*
X155011928Y-99740000D01*
X155024188Y-99864482D01*
X155060498Y-99984180D01*
X155119463Y-100094494D01*
X155198815Y-100191185D01*
X155295506Y-100270537D01*
X155405820Y-100329502D01*
X155525518Y-100365812D01*
X155650000Y-100378072D01*
X156614250Y-100375000D01*
X156773000Y-100216250D01*
X156773000Y-99067000D01*
X157027000Y-99067000D01*
X157027000Y-100216250D01*
X157185750Y-100375000D01*
X158150000Y-100378072D01*
X159114250Y-100375000D01*
X159273000Y-100216250D01*
X159273000Y-99067000D01*
X157027000Y-99067000D01*
X156773000Y-99067000D01*
X155173750Y-99067000D01*
X155015000Y-99225750D01*
X155011928Y-99740000D01*
X123097296Y-99740000D01*
X123095000Y-99355750D01*
X122936250Y-99197000D01*
X121337000Y-99197000D01*
X121083000Y-99197000D01*
X118837000Y-99197000D01*
X118583000Y-99197000D01*
X116983750Y-99197000D01*
X116825000Y-99355750D01*
X116821928Y-99870000D01*
X110028013Y-99870000D01*
X110025000Y-99365750D01*
X109866250Y-99207000D01*
X108267000Y-99207000D01*
X108013000Y-99207000D01*
X105767000Y-99207000D01*
X105513000Y-99207000D01*
X103913750Y-99207000D01*
X103755000Y-99365750D01*
X103751928Y-99880000D01*
X72202162Y-99880000D01*
X72208072Y-99820000D01*
X72205000Y-99305750D01*
X72046250Y-99147000D01*
X70447000Y-99147000D01*
X70193000Y-99147000D01*
X67947000Y-99147000D01*
X67693000Y-99147000D01*
X67673000Y-99147000D01*
X67673000Y-98893000D01*
X67693000Y-98893000D01*
X67693000Y-97743750D01*
X67947000Y-97743750D01*
X67947000Y-98893000D01*
X70193000Y-98893000D01*
X70193000Y-97743750D01*
X70447000Y-97743750D01*
X70447000Y-98893000D01*
X72046250Y-98893000D01*
X72205000Y-98734250D01*
X72207713Y-98280000D01*
X103751928Y-98280000D01*
X103755000Y-98794250D01*
X103913750Y-98953000D01*
X105513000Y-98953000D01*
X105513000Y-97803750D01*
X105767000Y-97803750D01*
X105767000Y-98953000D01*
X108013000Y-98953000D01*
X108013000Y-97803750D01*
X108267000Y-97803750D01*
X108267000Y-98953000D01*
X109866250Y-98953000D01*
X110025000Y-98794250D01*
X110028072Y-98280000D01*
X110027088Y-98270000D01*
X116821928Y-98270000D01*
X116825000Y-98784250D01*
X116983750Y-98943000D01*
X118583000Y-98943000D01*
X118583000Y-97793750D01*
X118837000Y-97793750D01*
X118837000Y-98943000D01*
X121083000Y-98943000D01*
X121083000Y-97793750D01*
X121337000Y-97793750D01*
X121337000Y-98943000D01*
X122936250Y-98943000D01*
X123095000Y-98784250D01*
X123098072Y-98270000D01*
X123085812Y-98145518D01*
X123084139Y-98140000D01*
X155011928Y-98140000D01*
X155015000Y-98654250D01*
X155173750Y-98813000D01*
X156773000Y-98813000D01*
X156773000Y-97663750D01*
X157027000Y-97663750D01*
X157027000Y-98813000D01*
X159273000Y-98813000D01*
X159273000Y-97663750D01*
X159114250Y-97505000D01*
X158150000Y-97501928D01*
X157185750Y-97505000D01*
X157027000Y-97663750D01*
X156773000Y-97663750D01*
X156614250Y-97505000D01*
X155650000Y-97501928D01*
X155525518Y-97514188D01*
X155405820Y-97550498D01*
X155295506Y-97609463D01*
X155198815Y-97688815D01*
X155119463Y-97785506D01*
X155060498Y-97895820D01*
X155024188Y-98015518D01*
X155011928Y-98140000D01*
X123084139Y-98140000D01*
X123049502Y-98025820D01*
X122990537Y-97915506D01*
X122911185Y-97818815D01*
X122814494Y-97739463D01*
X122704180Y-97680498D01*
X122584482Y-97644188D01*
X122460000Y-97631928D01*
X121495750Y-97635000D01*
X121337000Y-97793750D01*
X121083000Y-97793750D01*
X120924250Y-97635000D01*
X119960000Y-97631928D01*
X118995750Y-97635000D01*
X118837000Y-97793750D01*
X118583000Y-97793750D01*
X118424250Y-97635000D01*
X117460000Y-97631928D01*
X117335518Y-97644188D01*
X117215820Y-97680498D01*
X117105506Y-97739463D01*
X117008815Y-97818815D01*
X116929463Y-97915506D01*
X116870498Y-98025820D01*
X116834188Y-98145518D01*
X116821928Y-98270000D01*
X110027088Y-98270000D01*
X110015812Y-98155518D01*
X109979502Y-98035820D01*
X109920537Y-97925506D01*
X109841185Y-97828815D01*
X109744494Y-97749463D01*
X109634180Y-97690498D01*
X109514482Y-97654188D01*
X109390000Y-97641928D01*
X108425750Y-97645000D01*
X108267000Y-97803750D01*
X108013000Y-97803750D01*
X107854250Y-97645000D01*
X106890000Y-97641928D01*
X105925750Y-97645000D01*
X105767000Y-97803750D01*
X105513000Y-97803750D01*
X105354250Y-97645000D01*
X104390000Y-97641928D01*
X104265518Y-97654188D01*
X104145820Y-97690498D01*
X104035506Y-97749463D01*
X103938815Y-97828815D01*
X103859463Y-97925506D01*
X103800498Y-98035820D01*
X103764188Y-98155518D01*
X103751928Y-98280000D01*
X72207713Y-98280000D01*
X72208072Y-98220000D01*
X72195812Y-98095518D01*
X72159502Y-97975820D01*
X72100537Y-97865506D01*
X72021185Y-97768815D01*
X71924494Y-97689463D01*
X71814180Y-97630498D01*
X71694482Y-97594188D01*
X71570000Y-97581928D01*
X70605750Y-97585000D01*
X70447000Y-97743750D01*
X70193000Y-97743750D01*
X70034250Y-97585000D01*
X69070000Y-97581928D01*
X68105750Y-97585000D01*
X67947000Y-97743750D01*
X67693000Y-97743750D01*
X67534250Y-97585000D01*
X66570000Y-97581928D01*
X66445518Y-97594188D01*
X66325820Y-97630498D01*
X66215506Y-97689463D01*
X66118815Y-97768815D01*
X66039463Y-97865506D01*
X66016691Y-97908110D01*
X66016958Y-97357031D01*
X160943144Y-97386960D01*
G04 #@! TA.AperFunction,Conductor*
D13*
G36*
X160943144Y-97386960D02*
G01*
X160943359Y-97576785D01*
X160894180Y-97550498D01*
X160774482Y-97514188D01*
X160650000Y-97501928D01*
X159685750Y-97505000D01*
X159527000Y-97663750D01*
X159527000Y-98813000D01*
X159547000Y-98813000D01*
X159547000Y-99067000D01*
X159527000Y-99067000D01*
X159527000Y-100216250D01*
X159685750Y-100375000D01*
X160650000Y-100378072D01*
X160774482Y-100365812D01*
X160894180Y-100329502D01*
X160946447Y-100301564D01*
X160952886Y-105981877D01*
X160894180Y-105950498D01*
X160774482Y-105914188D01*
X160650000Y-105901928D01*
X159685750Y-105905000D01*
X159527000Y-106063750D01*
X159527000Y-107213000D01*
X159547000Y-107213000D01*
X159547000Y-107467000D01*
X159527000Y-107467000D01*
X159527000Y-108616250D01*
X159685750Y-108775000D01*
X160650000Y-108778072D01*
X160774482Y-108765812D01*
X160894180Y-108729502D01*
X160955962Y-108696478D01*
X161012856Y-158893080D01*
X155467877Y-158896572D01*
X155495812Y-158804482D01*
X155508072Y-158680000D01*
X155505000Y-157715750D01*
X155346250Y-157557000D01*
X154197000Y-157557000D01*
X154197000Y-157577000D01*
X153943000Y-157577000D01*
X153943000Y-157557000D01*
X152793750Y-157557000D01*
X152635000Y-157715750D01*
X152631928Y-158680000D01*
X152644188Y-158804482D01*
X152672657Y-158898332D01*
X147066272Y-158901862D01*
X147095812Y-158804482D01*
X147108072Y-158680000D01*
X147105000Y-157715750D01*
X146946250Y-157557000D01*
X145797000Y-157557000D01*
X145797000Y-157577000D01*
X145543000Y-157577000D01*
X145543000Y-157557000D01*
X144393750Y-157557000D01*
X144235000Y-157715750D01*
X144231928Y-158680000D01*
X144244188Y-158804482D01*
X144274261Y-158903621D01*
X132149684Y-158911256D01*
X132169502Y-158874180D01*
X132205812Y-158754482D01*
X132218072Y-158630000D01*
X132215000Y-157665750D01*
X132056250Y-157507000D01*
X130907000Y-157507000D01*
X130907000Y-157527000D01*
X130653000Y-157527000D01*
X130653000Y-157507000D01*
X129503750Y-157507000D01*
X129345000Y-157665750D01*
X129341928Y-158630000D01*
X129354188Y-158754482D01*
X129390498Y-158874180D01*
X129411238Y-158912980D01*
X123746856Y-158916547D01*
X123769502Y-158874180D01*
X123805812Y-158754482D01*
X123818072Y-158630000D01*
X123815000Y-157665750D01*
X123656250Y-157507000D01*
X122507000Y-157507000D01*
X122507000Y-157527000D01*
X122253000Y-157527000D01*
X122253000Y-157507000D01*
X121103750Y-157507000D01*
X120945000Y-157665750D01*
X120941928Y-158630000D01*
X120954188Y-158754482D01*
X120990498Y-158874180D01*
X121014064Y-158918268D01*
X106844441Y-158927191D01*
X106899502Y-158824180D01*
X106935812Y-158704482D01*
X106948072Y-158580000D01*
X106945000Y-157615750D01*
X106786250Y-157457000D01*
X105637000Y-157457000D01*
X105637000Y-157477000D01*
X105383000Y-157477000D01*
X105383000Y-157457000D01*
X104233750Y-157457000D01*
X104075000Y-157615750D01*
X104071928Y-158580000D01*
X104084188Y-158704482D01*
X104120498Y-158824180D01*
X104176458Y-158928871D01*
X98441612Y-158932483D01*
X98499502Y-158824180D01*
X98535812Y-158704482D01*
X98548072Y-158580000D01*
X98545000Y-157615750D01*
X98386250Y-157457000D01*
X97237000Y-157457000D01*
X97237000Y-157477000D01*
X96983000Y-157477000D01*
X96983000Y-157457000D01*
X95833750Y-157457000D01*
X95675000Y-157615750D01*
X95671928Y-158580000D01*
X95684188Y-158704482D01*
X95720498Y-158824180D01*
X95779284Y-158934159D01*
X84390334Y-158941331D01*
X84399502Y-158924180D01*
X84435812Y-158804482D01*
X84448072Y-158680000D01*
X84445000Y-157715750D01*
X84286250Y-157557000D01*
X83137000Y-157557000D01*
X83137000Y-157577000D01*
X82883000Y-157577000D01*
X82883000Y-157557000D01*
X81733750Y-157557000D01*
X81575000Y-157715750D01*
X81571928Y-158680000D01*
X81584188Y-158804482D01*
X81620498Y-158924180D01*
X81630594Y-158943069D01*
X75987506Y-158946622D01*
X75999502Y-158924180D01*
X76035812Y-158804482D01*
X76048072Y-158680000D01*
X76045000Y-157715750D01*
X75886250Y-157557000D01*
X74737000Y-157557000D01*
X74737000Y-157577000D01*
X74483000Y-157577000D01*
X74483000Y-157557000D01*
X73333750Y-157557000D01*
X73175000Y-157715750D01*
X73171928Y-158680000D01*
X73184188Y-158804482D01*
X73220498Y-158924180D01*
X73233421Y-158948357D01*
X65987062Y-158952920D01*
X65988407Y-156180000D01*
X73171928Y-156180000D01*
X73175000Y-157144250D01*
X73333750Y-157303000D01*
X74483000Y-157303000D01*
X74483000Y-155057000D01*
X74737000Y-155057000D01*
X74737000Y-157303000D01*
X75886250Y-157303000D01*
X76045000Y-157144250D01*
X76048072Y-156180000D01*
X81571928Y-156180000D01*
X81575000Y-157144250D01*
X81733750Y-157303000D01*
X82883000Y-157303000D01*
X82883000Y-155057000D01*
X83137000Y-155057000D01*
X83137000Y-157303000D01*
X84286250Y-157303000D01*
X84445000Y-157144250D01*
X84448072Y-156180000D01*
X84447754Y-156080000D01*
X95671928Y-156080000D01*
X95675000Y-157044250D01*
X95833750Y-157203000D01*
X96983000Y-157203000D01*
X96983000Y-154957000D01*
X97237000Y-154957000D01*
X97237000Y-157203000D01*
X98386250Y-157203000D01*
X98545000Y-157044250D01*
X98548072Y-156080000D01*
X104071928Y-156080000D01*
X104075000Y-157044250D01*
X104233750Y-157203000D01*
X105383000Y-157203000D01*
X105383000Y-154957000D01*
X105637000Y-154957000D01*
X105637000Y-157203000D01*
X106786250Y-157203000D01*
X106945000Y-157044250D01*
X106947912Y-156130000D01*
X120941928Y-156130000D01*
X120945000Y-157094250D01*
X121103750Y-157253000D01*
X122253000Y-157253000D01*
X122253000Y-155007000D01*
X122507000Y-155007000D01*
X122507000Y-157253000D01*
X123656250Y-157253000D01*
X123815000Y-157094250D01*
X123818072Y-156130000D01*
X129341928Y-156130000D01*
X129345000Y-157094250D01*
X129503750Y-157253000D01*
X130653000Y-157253000D01*
X130653000Y-155007000D01*
X130907000Y-155007000D01*
X130907000Y-157253000D01*
X132056250Y-157253000D01*
X132215000Y-157094250D01*
X132217912Y-156180000D01*
X144231928Y-156180000D01*
X144235000Y-157144250D01*
X144393750Y-157303000D01*
X145543000Y-157303000D01*
X145543000Y-155057000D01*
X145797000Y-155057000D01*
X145797000Y-157303000D01*
X146946250Y-157303000D01*
X147105000Y-157144250D01*
X147108072Y-156180000D01*
X152631928Y-156180000D01*
X152635000Y-157144250D01*
X152793750Y-157303000D01*
X153943000Y-157303000D01*
X153943000Y-155057000D01*
X154197000Y-155057000D01*
X154197000Y-157303000D01*
X155346250Y-157303000D01*
X155505000Y-157144250D01*
X155508072Y-156180000D01*
X155505000Y-155215750D01*
X155346250Y-155057000D01*
X154197000Y-155057000D01*
X153943000Y-155057000D01*
X152793750Y-155057000D01*
X152635000Y-155215750D01*
X152631928Y-156180000D01*
X147108072Y-156180000D01*
X147105000Y-155215750D01*
X146946250Y-155057000D01*
X145797000Y-155057000D01*
X145543000Y-155057000D01*
X144393750Y-155057000D01*
X144235000Y-155215750D01*
X144231928Y-156180000D01*
X132217912Y-156180000D01*
X132218072Y-156130000D01*
X132215000Y-155165750D01*
X132056250Y-155007000D01*
X130907000Y-155007000D01*
X130653000Y-155007000D01*
X129503750Y-155007000D01*
X129345000Y-155165750D01*
X129341928Y-156130000D01*
X123818072Y-156130000D01*
X123815000Y-155165750D01*
X123656250Y-155007000D01*
X122507000Y-155007000D01*
X122253000Y-155007000D01*
X121103750Y-155007000D01*
X120945000Y-155165750D01*
X120941928Y-156130000D01*
X106947912Y-156130000D01*
X106948072Y-156080000D01*
X106945000Y-155115750D01*
X106786250Y-154957000D01*
X105637000Y-154957000D01*
X105383000Y-154957000D01*
X104233750Y-154957000D01*
X104075000Y-155115750D01*
X104071928Y-156080000D01*
X98548072Y-156080000D01*
X98545000Y-155115750D01*
X98386250Y-154957000D01*
X97237000Y-154957000D01*
X96983000Y-154957000D01*
X95833750Y-154957000D01*
X95675000Y-155115750D01*
X95671928Y-156080000D01*
X84447754Y-156080000D01*
X84445000Y-155215750D01*
X84286250Y-155057000D01*
X83137000Y-155057000D01*
X82883000Y-155057000D01*
X81733750Y-155057000D01*
X81575000Y-155215750D01*
X81571928Y-156180000D01*
X76048072Y-156180000D01*
X76045000Y-155215750D01*
X75886250Y-155057000D01*
X74737000Y-155057000D01*
X74483000Y-155057000D01*
X73333750Y-155057000D01*
X73175000Y-155215750D01*
X73171928Y-156180000D01*
X65988407Y-156180000D01*
X65989620Y-153680000D01*
X73171928Y-153680000D01*
X73175000Y-154644250D01*
X73333750Y-154803000D01*
X74483000Y-154803000D01*
X74483000Y-153203750D01*
X74737000Y-153203750D01*
X74737000Y-154803000D01*
X75886250Y-154803000D01*
X76045000Y-154644250D01*
X76048072Y-153680000D01*
X81571928Y-153680000D01*
X81575000Y-154644250D01*
X81733750Y-154803000D01*
X82883000Y-154803000D01*
X82883000Y-153203750D01*
X83137000Y-153203750D01*
X83137000Y-154803000D01*
X84286250Y-154803000D01*
X84445000Y-154644250D01*
X84448072Y-153680000D01*
X84438224Y-153580000D01*
X95671928Y-153580000D01*
X95675000Y-154544250D01*
X95833750Y-154703000D01*
X96983000Y-154703000D01*
X96983000Y-153103750D01*
X97237000Y-153103750D01*
X97237000Y-154703000D01*
X98386250Y-154703000D01*
X98545000Y-154544250D01*
X98548072Y-153580000D01*
X104071928Y-153580000D01*
X104075000Y-154544250D01*
X104233750Y-154703000D01*
X105383000Y-154703000D01*
X105383000Y-153103750D01*
X105637000Y-153103750D01*
X105637000Y-154703000D01*
X106786250Y-154703000D01*
X106945000Y-154544250D01*
X106947912Y-153630000D01*
X120941928Y-153630000D01*
X120945000Y-154594250D01*
X121103750Y-154753000D01*
X122253000Y-154753000D01*
X122253000Y-153153750D01*
X122507000Y-153153750D01*
X122507000Y-154753000D01*
X123656250Y-154753000D01*
X123815000Y-154594250D01*
X123818072Y-153630000D01*
X129341928Y-153630000D01*
X129345000Y-154594250D01*
X129503750Y-154753000D01*
X130653000Y-154753000D01*
X130653000Y-153153750D01*
X130907000Y-153153750D01*
X130907000Y-154753000D01*
X132056250Y-154753000D01*
X132215000Y-154594250D01*
X132217912Y-153680000D01*
X144231928Y-153680000D01*
X144235000Y-154644250D01*
X144393750Y-154803000D01*
X145543000Y-154803000D01*
X145543000Y-153203750D01*
X145797000Y-153203750D01*
X145797000Y-154803000D01*
X146946250Y-154803000D01*
X147105000Y-154644250D01*
X147108072Y-153680000D01*
X152631928Y-153680000D01*
X152635000Y-154644250D01*
X152793750Y-154803000D01*
X153943000Y-154803000D01*
X153943000Y-153203750D01*
X154197000Y-153203750D01*
X154197000Y-154803000D01*
X155346250Y-154803000D01*
X155505000Y-154644250D01*
X155508072Y-153680000D01*
X155495812Y-153555518D01*
X155459502Y-153435820D01*
X155400537Y-153325506D01*
X155321185Y-153228815D01*
X155224494Y-153149463D01*
X155114180Y-153090498D01*
X154994482Y-153054188D01*
X154870000Y-153041928D01*
X154355750Y-153045000D01*
X154197000Y-153203750D01*
X153943000Y-153203750D01*
X153784250Y-153045000D01*
X153270000Y-153041928D01*
X153145518Y-153054188D01*
X153025820Y-153090498D01*
X152915506Y-153149463D01*
X152818815Y-153228815D01*
X152739463Y-153325506D01*
X152680498Y-153435820D01*
X152644188Y-153555518D01*
X152631928Y-153680000D01*
X147108072Y-153680000D01*
X147095812Y-153555518D01*
X147059502Y-153435820D01*
X147000537Y-153325506D01*
X146921185Y-153228815D01*
X146824494Y-153149463D01*
X146714180Y-153090498D01*
X146594482Y-153054188D01*
X146470000Y-153041928D01*
X145955750Y-153045000D01*
X145797000Y-153203750D01*
X145543000Y-153203750D01*
X145384250Y-153045000D01*
X144870000Y-153041928D01*
X144745518Y-153054188D01*
X144625820Y-153090498D01*
X144515506Y-153149463D01*
X144418815Y-153228815D01*
X144339463Y-153325506D01*
X144280498Y-153435820D01*
X144244188Y-153555518D01*
X144231928Y-153680000D01*
X132217912Y-153680000D01*
X132218072Y-153630000D01*
X132205812Y-153505518D01*
X132169502Y-153385820D01*
X132110537Y-153275506D01*
X132031185Y-153178815D01*
X131934494Y-153099463D01*
X131824180Y-153040498D01*
X131704482Y-153004188D01*
X131580000Y-152991928D01*
X131065750Y-152995000D01*
X130907000Y-153153750D01*
X130653000Y-153153750D01*
X130494250Y-152995000D01*
X129980000Y-152991928D01*
X129855518Y-153004188D01*
X129735820Y-153040498D01*
X129625506Y-153099463D01*
X129528815Y-153178815D01*
X129449463Y-153275506D01*
X129390498Y-153385820D01*
X129354188Y-153505518D01*
X129341928Y-153630000D01*
X123818072Y-153630000D01*
X123805812Y-153505518D01*
X123769502Y-153385820D01*
X123710537Y-153275506D01*
X123631185Y-153178815D01*
X123534494Y-153099463D01*
X123424180Y-153040498D01*
X123304482Y-153004188D01*
X123180000Y-152991928D01*
X122665750Y-152995000D01*
X122507000Y-153153750D01*
X122253000Y-153153750D01*
X122094250Y-152995000D01*
X121580000Y-152991928D01*
X121455518Y-153004188D01*
X121335820Y-153040498D01*
X121225506Y-153099463D01*
X121128815Y-153178815D01*
X121049463Y-153275506D01*
X120990498Y-153385820D01*
X120954188Y-153505518D01*
X120941928Y-153630000D01*
X106947912Y-153630000D01*
X106948072Y-153580000D01*
X106935812Y-153455518D01*
X106899502Y-153335820D01*
X106840537Y-153225506D01*
X106761185Y-153128815D01*
X106664494Y-153049463D01*
X106554180Y-152990498D01*
X106434482Y-152954188D01*
X106310000Y-152941928D01*
X105795750Y-152945000D01*
X105637000Y-153103750D01*
X105383000Y-153103750D01*
X105224250Y-152945000D01*
X104710000Y-152941928D01*
X104585518Y-152954188D01*
X104465820Y-152990498D01*
X104355506Y-153049463D01*
X104258815Y-153128815D01*
X104179463Y-153225506D01*
X104120498Y-153335820D01*
X104084188Y-153455518D01*
X104071928Y-153580000D01*
X98548072Y-153580000D01*
X98535812Y-153455518D01*
X98499502Y-153335820D01*
X98440537Y-153225506D01*
X98361185Y-153128815D01*
X98264494Y-153049463D01*
X98154180Y-152990498D01*
X98034482Y-152954188D01*
X97910000Y-152941928D01*
X97395750Y-152945000D01*
X97237000Y-153103750D01*
X96983000Y-153103750D01*
X96824250Y-152945000D01*
X96310000Y-152941928D01*
X96185518Y-152954188D01*
X96065820Y-152990498D01*
X95955506Y-153049463D01*
X95858815Y-153128815D01*
X95779463Y-153225506D01*
X95720498Y-153335820D01*
X95684188Y-153455518D01*
X95671928Y-153580000D01*
X84438224Y-153580000D01*
X84435812Y-153555518D01*
X84399502Y-153435820D01*
X84340537Y-153325506D01*
X84261185Y-153228815D01*
X84164494Y-153149463D01*
X84054180Y-153090498D01*
X83934482Y-153054188D01*
X83810000Y-153041928D01*
X83295750Y-153045000D01*
X83137000Y-153203750D01*
X82883000Y-153203750D01*
X82724250Y-153045000D01*
X82210000Y-153041928D01*
X82085518Y-153054188D01*
X81965820Y-153090498D01*
X81855506Y-153149463D01*
X81758815Y-153228815D01*
X81679463Y-153325506D01*
X81620498Y-153435820D01*
X81584188Y-153555518D01*
X81571928Y-153680000D01*
X76048072Y-153680000D01*
X76035812Y-153555518D01*
X75999502Y-153435820D01*
X75940537Y-153325506D01*
X75861185Y-153228815D01*
X75764494Y-153149463D01*
X75654180Y-153090498D01*
X75534482Y-153054188D01*
X75410000Y-153041928D01*
X74895750Y-153045000D01*
X74737000Y-153203750D01*
X74483000Y-153203750D01*
X74324250Y-153045000D01*
X73810000Y-153041928D01*
X73685518Y-153054188D01*
X73565820Y-153090498D01*
X73455506Y-153149463D01*
X73358815Y-153228815D01*
X73279463Y-153325506D01*
X73220498Y-153435820D01*
X73184188Y-153555518D01*
X73171928Y-153680000D01*
X65989620Y-153680000D01*
X65995596Y-141370000D01*
X66071928Y-141370000D01*
X66084188Y-141494482D01*
X66120498Y-141614180D01*
X66179463Y-141724494D01*
X66258815Y-141821185D01*
X66355506Y-141900537D01*
X66465820Y-141959502D01*
X66585518Y-141995812D01*
X66710000Y-142008072D01*
X67674250Y-142005000D01*
X67833000Y-141846250D01*
X67833000Y-140697000D01*
X68087000Y-140697000D01*
X68087000Y-141846250D01*
X68245750Y-142005000D01*
X69210000Y-142008072D01*
X70174250Y-142005000D01*
X70333000Y-141846250D01*
X70333000Y-140697000D01*
X70587000Y-140697000D01*
X70587000Y-141846250D01*
X70745750Y-142005000D01*
X71710000Y-142008072D01*
X71834482Y-141995812D01*
X71954180Y-141959502D01*
X72064494Y-141900537D01*
X72161185Y-141821185D01*
X72240537Y-141724494D01*
X72299502Y-141614180D01*
X72335812Y-141494482D01*
X72348072Y-141370000D01*
X72347236Y-141230000D01*
X104561928Y-141230000D01*
X104574188Y-141354482D01*
X104610498Y-141474180D01*
X104669463Y-141584494D01*
X104748815Y-141681185D01*
X104845506Y-141760537D01*
X104955820Y-141819502D01*
X105075518Y-141855812D01*
X105200000Y-141868072D01*
X106164250Y-141865000D01*
X106323000Y-141706250D01*
X106323000Y-140557000D01*
X106577000Y-140557000D01*
X106577000Y-141706250D01*
X106735750Y-141865000D01*
X107700000Y-141868072D01*
X108664250Y-141865000D01*
X108823000Y-141706250D01*
X108823000Y-140557000D01*
X109077000Y-140557000D01*
X109077000Y-141706250D01*
X109235750Y-141865000D01*
X110200000Y-141868072D01*
X110324482Y-141855812D01*
X110444180Y-141819502D01*
X110554494Y-141760537D01*
X110651185Y-141681185D01*
X110730537Y-141584494D01*
X110789502Y-141474180D01*
X110825812Y-141354482D01*
X110838072Y-141230000D01*
X110837117Y-141070000D01*
X117171928Y-141070000D01*
X117184188Y-141194482D01*
X117220498Y-141314180D01*
X117279463Y-141424494D01*
X117358815Y-141521185D01*
X117455506Y-141600537D01*
X117565820Y-141659502D01*
X117685518Y-141695812D01*
X117810000Y-141708072D01*
X118774250Y-141705000D01*
X118933000Y-141546250D01*
X118933000Y-140397000D01*
X119187000Y-140397000D01*
X119187000Y-141546250D01*
X119345750Y-141705000D01*
X120310000Y-141708072D01*
X121274250Y-141705000D01*
X121433000Y-141546250D01*
X121433000Y-140397000D01*
X121687000Y-140397000D01*
X121687000Y-141546250D01*
X121845750Y-141705000D01*
X122810000Y-141708072D01*
X122934482Y-141695812D01*
X123054180Y-141659502D01*
X123164494Y-141600537D01*
X123261185Y-141521185D01*
X123340537Y-141424494D01*
X123399502Y-141314180D01*
X123435812Y-141194482D01*
X123448072Y-141070000D01*
X153271928Y-141070000D01*
X153284188Y-141194482D01*
X153320498Y-141314180D01*
X153379463Y-141424494D01*
X153458815Y-141521185D01*
X153555506Y-141600537D01*
X153665820Y-141659502D01*
X153785518Y-141695812D01*
X153910000Y-141708072D01*
X154874250Y-141705000D01*
X155033000Y-141546250D01*
X155033000Y-140397000D01*
X155287000Y-140397000D01*
X155287000Y-141546250D01*
X155445750Y-141705000D01*
X156410000Y-141708072D01*
X157374250Y-141705000D01*
X157533000Y-141546250D01*
X157533000Y-140397000D01*
X157787000Y-140397000D01*
X157787000Y-141546250D01*
X157945750Y-141705000D01*
X158910000Y-141708072D01*
X159034482Y-141695812D01*
X159154180Y-141659502D01*
X159264494Y-141600537D01*
X159361185Y-141521185D01*
X159440537Y-141424494D01*
X159499502Y-141314180D01*
X159535812Y-141194482D01*
X159548072Y-141070000D01*
X159545000Y-140555750D01*
X159386250Y-140397000D01*
X157787000Y-140397000D01*
X157533000Y-140397000D01*
X155287000Y-140397000D01*
X155033000Y-140397000D01*
X153433750Y-140397000D01*
X153275000Y-140555750D01*
X153271928Y-141070000D01*
X123448072Y-141070000D01*
X123445000Y-140555750D01*
X123286250Y-140397000D01*
X121687000Y-140397000D01*
X121433000Y-140397000D01*
X119187000Y-140397000D01*
X118933000Y-140397000D01*
X117333750Y-140397000D01*
X117175000Y-140555750D01*
X117171928Y-141070000D01*
X110837117Y-141070000D01*
X110835000Y-140715750D01*
X110676250Y-140557000D01*
X109077000Y-140557000D01*
X108823000Y-140557000D01*
X106577000Y-140557000D01*
X106323000Y-140557000D01*
X104723750Y-140557000D01*
X104565000Y-140715750D01*
X104561928Y-141230000D01*
X72347236Y-141230000D01*
X72345000Y-140855750D01*
X72186250Y-140697000D01*
X70587000Y-140697000D01*
X70333000Y-140697000D01*
X68087000Y-140697000D01*
X67833000Y-140697000D01*
X66233750Y-140697000D01*
X66075000Y-140855750D01*
X66071928Y-141370000D01*
X65995596Y-141370000D01*
X65996372Y-139770000D01*
X66071928Y-139770000D01*
X66075000Y-140284250D01*
X66233750Y-140443000D01*
X67833000Y-140443000D01*
X67833000Y-139293750D01*
X68087000Y-139293750D01*
X68087000Y-140443000D01*
X70333000Y-140443000D01*
X70333000Y-139293750D01*
X70587000Y-139293750D01*
X70587000Y-140443000D01*
X72186250Y-140443000D01*
X72345000Y-140284250D01*
X72348072Y-139770000D01*
X72335812Y-139645518D01*
X72331105Y-139630000D01*
X104561928Y-139630000D01*
X104565000Y-140144250D01*
X104723750Y-140303000D01*
X106323000Y-140303000D01*
X106323000Y-139153750D01*
X106577000Y-139153750D01*
X106577000Y-140303000D01*
X108823000Y-140303000D01*
X108823000Y-139153750D01*
X109077000Y-139153750D01*
X109077000Y-140303000D01*
X110676250Y-140303000D01*
X110835000Y-140144250D01*
X110838072Y-139630000D01*
X110825812Y-139505518D01*
X110815038Y-139470000D01*
X117171928Y-139470000D01*
X117175000Y-139984250D01*
X117333750Y-140143000D01*
X118933000Y-140143000D01*
X118933000Y-138993750D01*
X119187000Y-138993750D01*
X119187000Y-140143000D01*
X121433000Y-140143000D01*
X121433000Y-138993750D01*
X121687000Y-138993750D01*
X121687000Y-140143000D01*
X123286250Y-140143000D01*
X123445000Y-139984250D01*
X123448072Y-139470000D01*
X153271928Y-139470000D01*
X153275000Y-139984250D01*
X153433750Y-140143000D01*
X155033000Y-140143000D01*
X155033000Y-138993750D01*
X155287000Y-138993750D01*
X155287000Y-140143000D01*
X157533000Y-140143000D01*
X157533000Y-138993750D01*
X157787000Y-138993750D01*
X157787000Y-140143000D01*
X159386250Y-140143000D01*
X159545000Y-139984250D01*
X159548072Y-139470000D01*
X159535812Y-139345518D01*
X159499502Y-139225820D01*
X159440537Y-139115506D01*
X159361185Y-139018815D01*
X159264494Y-138939463D01*
X159154180Y-138880498D01*
X159034482Y-138844188D01*
X158910000Y-138831928D01*
X157945750Y-138835000D01*
X157787000Y-138993750D01*
X157533000Y-138993750D01*
X157374250Y-138835000D01*
X156410000Y-138831928D01*
X155445750Y-138835000D01*
X155287000Y-138993750D01*
X155033000Y-138993750D01*
X154874250Y-138835000D01*
X153910000Y-138831928D01*
X153785518Y-138844188D01*
X153665820Y-138880498D01*
X153555506Y-138939463D01*
X153458815Y-139018815D01*
X153379463Y-139115506D01*
X153320498Y-139225820D01*
X153284188Y-139345518D01*
X153271928Y-139470000D01*
X123448072Y-139470000D01*
X123435812Y-139345518D01*
X123399502Y-139225820D01*
X123340537Y-139115506D01*
X123261185Y-139018815D01*
X123164494Y-138939463D01*
X123054180Y-138880498D01*
X122934482Y-138844188D01*
X122810000Y-138831928D01*
X121845750Y-138835000D01*
X121687000Y-138993750D01*
X121433000Y-138993750D01*
X121274250Y-138835000D01*
X120310000Y-138831928D01*
X119345750Y-138835000D01*
X119187000Y-138993750D01*
X118933000Y-138993750D01*
X118774250Y-138835000D01*
X117810000Y-138831928D01*
X117685518Y-138844188D01*
X117565820Y-138880498D01*
X117455506Y-138939463D01*
X117358815Y-139018815D01*
X117279463Y-139115506D01*
X117220498Y-139225820D01*
X117184188Y-139345518D01*
X117171928Y-139470000D01*
X110815038Y-139470000D01*
X110789502Y-139385820D01*
X110730537Y-139275506D01*
X110651185Y-139178815D01*
X110554494Y-139099463D01*
X110444180Y-139040498D01*
X110324482Y-139004188D01*
X110200000Y-138991928D01*
X109235750Y-138995000D01*
X109077000Y-139153750D01*
X108823000Y-139153750D01*
X108664250Y-138995000D01*
X107700000Y-138991928D01*
X106735750Y-138995000D01*
X106577000Y-139153750D01*
X106323000Y-139153750D01*
X106164250Y-138995000D01*
X105200000Y-138991928D01*
X105075518Y-139004188D01*
X104955820Y-139040498D01*
X104845506Y-139099463D01*
X104748815Y-139178815D01*
X104669463Y-139275506D01*
X104610498Y-139385820D01*
X104574188Y-139505518D01*
X104561928Y-139630000D01*
X72331105Y-139630000D01*
X72299502Y-139525820D01*
X72240537Y-139415506D01*
X72161185Y-139318815D01*
X72064494Y-139239463D01*
X71954180Y-139180498D01*
X71834482Y-139144188D01*
X71710000Y-139131928D01*
X70745750Y-139135000D01*
X70587000Y-139293750D01*
X70333000Y-139293750D01*
X70174250Y-139135000D01*
X69210000Y-139131928D01*
X68245750Y-139135000D01*
X68087000Y-139293750D01*
X67833000Y-139293750D01*
X67674250Y-139135000D01*
X66710000Y-139131928D01*
X66585518Y-139144188D01*
X66465820Y-139180498D01*
X66355506Y-139239463D01*
X66258815Y-139318815D01*
X66179463Y-139415506D01*
X66120498Y-139525820D01*
X66084188Y-139645518D01*
X66071928Y-139770000D01*
X65996372Y-139770000D01*
X65999672Y-132970000D01*
X66071928Y-132970000D01*
X66084188Y-133094482D01*
X66120498Y-133214180D01*
X66179463Y-133324494D01*
X66258815Y-133421185D01*
X66355506Y-133500537D01*
X66465820Y-133559502D01*
X66585518Y-133595812D01*
X66710000Y-133608072D01*
X67674250Y-133605000D01*
X67833000Y-133446250D01*
X67833000Y-132297000D01*
X68087000Y-132297000D01*
X68087000Y-133446250D01*
X68245750Y-133605000D01*
X69210000Y-133608072D01*
X70174250Y-133605000D01*
X70333000Y-133446250D01*
X70333000Y-132297000D01*
X70587000Y-132297000D01*
X70587000Y-133446250D01*
X70745750Y-133605000D01*
X71710000Y-133608072D01*
X71834482Y-133595812D01*
X71954180Y-133559502D01*
X72064494Y-133500537D01*
X72161185Y-133421185D01*
X72240537Y-133324494D01*
X72299502Y-133214180D01*
X72335812Y-133094482D01*
X72348072Y-132970000D01*
X72347236Y-132830000D01*
X104561928Y-132830000D01*
X104574188Y-132954482D01*
X104610498Y-133074180D01*
X104669463Y-133184494D01*
X104748815Y-133281185D01*
X104845506Y-133360537D01*
X104955820Y-133419502D01*
X105075518Y-133455812D01*
X105200000Y-133468072D01*
X106164250Y-133465000D01*
X106323000Y-133306250D01*
X106323000Y-132157000D01*
X106577000Y-132157000D01*
X106577000Y-133306250D01*
X106735750Y-133465000D01*
X107700000Y-133468072D01*
X108664250Y-133465000D01*
X108823000Y-133306250D01*
X108823000Y-132157000D01*
X109077000Y-132157000D01*
X109077000Y-133306250D01*
X109235750Y-133465000D01*
X110200000Y-133468072D01*
X110324482Y-133455812D01*
X110444180Y-133419502D01*
X110554494Y-133360537D01*
X110651185Y-133281185D01*
X110730537Y-133184494D01*
X110789502Y-133074180D01*
X110825812Y-132954482D01*
X110838072Y-132830000D01*
X110837117Y-132670000D01*
X117171928Y-132670000D01*
X117184188Y-132794482D01*
X117220498Y-132914180D01*
X117279463Y-133024494D01*
X117358815Y-133121185D01*
X117455506Y-133200537D01*
X117565820Y-133259502D01*
X117685518Y-133295812D01*
X117810000Y-133308072D01*
X118774250Y-133305000D01*
X118933000Y-133146250D01*
X118933000Y-131997000D01*
X119187000Y-131997000D01*
X119187000Y-133146250D01*
X119345750Y-133305000D01*
X120310000Y-133308072D01*
X121274250Y-133305000D01*
X121433000Y-133146250D01*
X121433000Y-131997000D01*
X121687000Y-131997000D01*
X121687000Y-133146250D01*
X121845750Y-133305000D01*
X122810000Y-133308072D01*
X122934482Y-133295812D01*
X123054180Y-133259502D01*
X123164494Y-133200537D01*
X123261185Y-133121185D01*
X123340537Y-133024494D01*
X123399502Y-132914180D01*
X123435812Y-132794482D01*
X123448072Y-132670000D01*
X153271928Y-132670000D01*
X153284188Y-132794482D01*
X153320498Y-132914180D01*
X153379463Y-133024494D01*
X153458815Y-133121185D01*
X153555506Y-133200537D01*
X153665820Y-133259502D01*
X153785518Y-133295812D01*
X153910000Y-133308072D01*
X154874250Y-133305000D01*
X155033000Y-133146250D01*
X155033000Y-131997000D01*
X155287000Y-131997000D01*
X155287000Y-133146250D01*
X155445750Y-133305000D01*
X156410000Y-133308072D01*
X157374250Y-133305000D01*
X157533000Y-133146250D01*
X157533000Y-131997000D01*
X157787000Y-131997000D01*
X157787000Y-133146250D01*
X157945750Y-133305000D01*
X158910000Y-133308072D01*
X159034482Y-133295812D01*
X159154180Y-133259502D01*
X159264494Y-133200537D01*
X159361185Y-133121185D01*
X159440537Y-133024494D01*
X159499502Y-132914180D01*
X159535812Y-132794482D01*
X159548072Y-132670000D01*
X159545000Y-132155750D01*
X159386250Y-131997000D01*
X157787000Y-131997000D01*
X157533000Y-131997000D01*
X155287000Y-131997000D01*
X155033000Y-131997000D01*
X153433750Y-131997000D01*
X153275000Y-132155750D01*
X153271928Y-132670000D01*
X123448072Y-132670000D01*
X123445000Y-132155750D01*
X123286250Y-131997000D01*
X121687000Y-131997000D01*
X121433000Y-131997000D01*
X119187000Y-131997000D01*
X118933000Y-131997000D01*
X117333750Y-131997000D01*
X117175000Y-132155750D01*
X117171928Y-132670000D01*
X110837117Y-132670000D01*
X110835000Y-132315750D01*
X110676250Y-132157000D01*
X109077000Y-132157000D01*
X108823000Y-132157000D01*
X106577000Y-132157000D01*
X106323000Y-132157000D01*
X104723750Y-132157000D01*
X104565000Y-132315750D01*
X104561928Y-132830000D01*
X72347236Y-132830000D01*
X72345000Y-132455750D01*
X72186250Y-132297000D01*
X70587000Y-132297000D01*
X70333000Y-132297000D01*
X68087000Y-132297000D01*
X67833000Y-132297000D01*
X66233750Y-132297000D01*
X66075000Y-132455750D01*
X66071928Y-132970000D01*
X65999672Y-132970000D01*
X66000448Y-131370000D01*
X66071928Y-131370000D01*
X66075000Y-131884250D01*
X66233750Y-132043000D01*
X67833000Y-132043000D01*
X67833000Y-130893750D01*
X68087000Y-130893750D01*
X68087000Y-132043000D01*
X70333000Y-132043000D01*
X70333000Y-130893750D01*
X70587000Y-130893750D01*
X70587000Y-132043000D01*
X72186250Y-132043000D01*
X72345000Y-131884250D01*
X72348072Y-131370000D01*
X72335812Y-131245518D01*
X72331105Y-131230000D01*
X104561928Y-131230000D01*
X104565000Y-131744250D01*
X104723750Y-131903000D01*
X106323000Y-131903000D01*
X106323000Y-130753750D01*
X106577000Y-130753750D01*
X106577000Y-131903000D01*
X108823000Y-131903000D01*
X108823000Y-130753750D01*
X109077000Y-130753750D01*
X109077000Y-131903000D01*
X110676250Y-131903000D01*
X110835000Y-131744250D01*
X110838072Y-131230000D01*
X110825812Y-131105518D01*
X110815038Y-131070000D01*
X117171928Y-131070000D01*
X117175000Y-131584250D01*
X117333750Y-131743000D01*
X118933000Y-131743000D01*
X118933000Y-130593750D01*
X119187000Y-130593750D01*
X119187000Y-131743000D01*
X121433000Y-131743000D01*
X121433000Y-130593750D01*
X121687000Y-130593750D01*
X121687000Y-131743000D01*
X123286250Y-131743000D01*
X123445000Y-131584250D01*
X123448072Y-131070000D01*
X153271928Y-131070000D01*
X153275000Y-131584250D01*
X153433750Y-131743000D01*
X155033000Y-131743000D01*
X155033000Y-130593750D01*
X155287000Y-130593750D01*
X155287000Y-131743000D01*
X157533000Y-131743000D01*
X157533000Y-130593750D01*
X157787000Y-130593750D01*
X157787000Y-131743000D01*
X159386250Y-131743000D01*
X159545000Y-131584250D01*
X159548072Y-131070000D01*
X159535812Y-130945518D01*
X159499502Y-130825820D01*
X159440537Y-130715506D01*
X159361185Y-130618815D01*
X159264494Y-130539463D01*
X159154180Y-130480498D01*
X159034482Y-130444188D01*
X158910000Y-130431928D01*
X157945750Y-130435000D01*
X157787000Y-130593750D01*
X157533000Y-130593750D01*
X157374250Y-130435000D01*
X156410000Y-130431928D01*
X155445750Y-130435000D01*
X155287000Y-130593750D01*
X155033000Y-130593750D01*
X154874250Y-130435000D01*
X153910000Y-130431928D01*
X153785518Y-130444188D01*
X153665820Y-130480498D01*
X153555506Y-130539463D01*
X153458815Y-130618815D01*
X153379463Y-130715506D01*
X153320498Y-130825820D01*
X153284188Y-130945518D01*
X153271928Y-131070000D01*
X123448072Y-131070000D01*
X123435812Y-130945518D01*
X123399502Y-130825820D01*
X123340537Y-130715506D01*
X123261185Y-130618815D01*
X123164494Y-130539463D01*
X123054180Y-130480498D01*
X122934482Y-130444188D01*
X122810000Y-130431928D01*
X121845750Y-130435000D01*
X121687000Y-130593750D01*
X121433000Y-130593750D01*
X121274250Y-130435000D01*
X120310000Y-130431928D01*
X119345750Y-130435000D01*
X119187000Y-130593750D01*
X118933000Y-130593750D01*
X118774250Y-130435000D01*
X117810000Y-130431928D01*
X117685518Y-130444188D01*
X117565820Y-130480498D01*
X117455506Y-130539463D01*
X117358815Y-130618815D01*
X117279463Y-130715506D01*
X117220498Y-130825820D01*
X117184188Y-130945518D01*
X117171928Y-131070000D01*
X110815038Y-131070000D01*
X110789502Y-130985820D01*
X110730537Y-130875506D01*
X110651185Y-130778815D01*
X110554494Y-130699463D01*
X110444180Y-130640498D01*
X110324482Y-130604188D01*
X110200000Y-130591928D01*
X109235750Y-130595000D01*
X109077000Y-130753750D01*
X108823000Y-130753750D01*
X108664250Y-130595000D01*
X107700000Y-130591928D01*
X106735750Y-130595000D01*
X106577000Y-130753750D01*
X106323000Y-130753750D01*
X106164250Y-130595000D01*
X105200000Y-130591928D01*
X105075518Y-130604188D01*
X104955820Y-130640498D01*
X104845506Y-130699463D01*
X104748815Y-130778815D01*
X104669463Y-130875506D01*
X104610498Y-130985820D01*
X104574188Y-131105518D01*
X104561928Y-131230000D01*
X72331105Y-131230000D01*
X72299502Y-131125820D01*
X72240537Y-131015506D01*
X72161185Y-130918815D01*
X72064494Y-130839463D01*
X71954180Y-130780498D01*
X71834482Y-130744188D01*
X71710000Y-130731928D01*
X70745750Y-130735000D01*
X70587000Y-130893750D01*
X70333000Y-130893750D01*
X70174250Y-130735000D01*
X69210000Y-130731928D01*
X68245750Y-130735000D01*
X68087000Y-130893750D01*
X67833000Y-130893750D01*
X67674250Y-130735000D01*
X66710000Y-130731928D01*
X66585518Y-130744188D01*
X66465820Y-130780498D01*
X66355506Y-130839463D01*
X66258815Y-130918815D01*
X66179463Y-131015506D01*
X66120498Y-131125820D01*
X66084188Y-131245518D01*
X66071928Y-131370000D01*
X66000448Y-131370000D01*
X66004180Y-123680000D01*
X73991928Y-123680000D01*
X74004188Y-123804482D01*
X74040498Y-123924180D01*
X74099463Y-124034494D01*
X74178815Y-124131185D01*
X74275506Y-124210537D01*
X74385820Y-124269502D01*
X74505518Y-124305812D01*
X74630000Y-124318072D01*
X75144250Y-124315000D01*
X75303000Y-124156250D01*
X75303000Y-122557000D01*
X75557000Y-122557000D01*
X75557000Y-124156250D01*
X75715750Y-124315000D01*
X76230000Y-124318072D01*
X76354482Y-124305812D01*
X76474180Y-124269502D01*
X76584494Y-124210537D01*
X76681185Y-124131185D01*
X76760537Y-124034494D01*
X76819502Y-123924180D01*
X76855812Y-123804482D01*
X76868072Y-123680000D01*
X82391928Y-123680000D01*
X82404188Y-123804482D01*
X82440498Y-123924180D01*
X82499463Y-124034494D01*
X82578815Y-124131185D01*
X82675506Y-124210537D01*
X82785820Y-124269502D01*
X82905518Y-124305812D01*
X83030000Y-124318072D01*
X83544250Y-124315000D01*
X83703000Y-124156250D01*
X83703000Y-122557000D01*
X83957000Y-122557000D01*
X83957000Y-124156250D01*
X84115750Y-124315000D01*
X84630000Y-124318072D01*
X84754482Y-124305812D01*
X84874180Y-124269502D01*
X84984494Y-124210537D01*
X85081185Y-124131185D01*
X85160537Y-124034494D01*
X85219502Y-123924180D01*
X85255812Y-123804482D01*
X85267087Y-123690000D01*
X92301928Y-123690000D01*
X92314188Y-123814482D01*
X92350498Y-123934180D01*
X92409463Y-124044494D01*
X92488815Y-124141185D01*
X92585506Y-124220537D01*
X92695820Y-124279502D01*
X92815518Y-124315812D01*
X92940000Y-124328072D01*
X93454250Y-124325000D01*
X93613000Y-124166250D01*
X93613000Y-122567000D01*
X93867000Y-122567000D01*
X93867000Y-124166250D01*
X94025750Y-124325000D01*
X94540000Y-124328072D01*
X94664482Y-124315812D01*
X94784180Y-124279502D01*
X94894494Y-124220537D01*
X94991185Y-124141185D01*
X95070537Y-124044494D01*
X95129502Y-123934180D01*
X95165812Y-123814482D01*
X95178072Y-123690000D01*
X100701928Y-123690000D01*
X100714188Y-123814482D01*
X100750498Y-123934180D01*
X100809463Y-124044494D01*
X100888815Y-124141185D01*
X100985506Y-124220537D01*
X101095820Y-124279502D01*
X101215518Y-124315812D01*
X101340000Y-124328072D01*
X101854250Y-124325000D01*
X102013000Y-124166250D01*
X102013000Y-122567000D01*
X102267000Y-122567000D01*
X102267000Y-124166250D01*
X102425750Y-124325000D01*
X102940000Y-124328072D01*
X103064482Y-124315812D01*
X103184180Y-124279502D01*
X103294494Y-124220537D01*
X103391185Y-124141185D01*
X103470537Y-124044494D01*
X103529502Y-123934180D01*
X103565812Y-123814482D01*
X103578072Y-123690000D01*
X103577849Y-123620000D01*
X120881928Y-123620000D01*
X120894188Y-123744482D01*
X120930498Y-123864180D01*
X120989463Y-123974494D01*
X121068815Y-124071185D01*
X121165506Y-124150537D01*
X121275820Y-124209502D01*
X121395518Y-124245812D01*
X121520000Y-124258072D01*
X122034250Y-124255000D01*
X122193000Y-124096250D01*
X122193000Y-122497000D01*
X122447000Y-122497000D01*
X122447000Y-124096250D01*
X122605750Y-124255000D01*
X123120000Y-124258072D01*
X123244482Y-124245812D01*
X123364180Y-124209502D01*
X123474494Y-124150537D01*
X123571185Y-124071185D01*
X123650537Y-123974494D01*
X123709502Y-123864180D01*
X123745812Y-123744482D01*
X123758072Y-123620000D01*
X129281928Y-123620000D01*
X129294188Y-123744482D01*
X129330498Y-123864180D01*
X129389463Y-123974494D01*
X129468815Y-124071185D01*
X129565506Y-124150537D01*
X129675820Y-124209502D01*
X129795518Y-124245812D01*
X129920000Y-124258072D01*
X130434250Y-124255000D01*
X130593000Y-124096250D01*
X130593000Y-122497000D01*
X130847000Y-122497000D01*
X130847000Y-124096250D01*
X131005750Y-124255000D01*
X131520000Y-124258072D01*
X131644482Y-124245812D01*
X131764180Y-124209502D01*
X131874494Y-124150537D01*
X131971185Y-124071185D01*
X132050537Y-123974494D01*
X132109502Y-123864180D01*
X132145812Y-123744482D01*
X132158072Y-123620000D01*
X132157913Y-123570000D01*
X143771928Y-123570000D01*
X143784188Y-123694482D01*
X143820498Y-123814180D01*
X143879463Y-123924494D01*
X143958815Y-124021185D01*
X144055506Y-124100537D01*
X144165820Y-124159502D01*
X144285518Y-124195812D01*
X144410000Y-124208072D01*
X144924250Y-124205000D01*
X145083000Y-124046250D01*
X145083000Y-122447000D01*
X145337000Y-122447000D01*
X145337000Y-124046250D01*
X145495750Y-124205000D01*
X146010000Y-124208072D01*
X146134482Y-124195812D01*
X146254180Y-124159502D01*
X146364494Y-124100537D01*
X146461185Y-124021185D01*
X146540537Y-123924494D01*
X146599502Y-123814180D01*
X146635812Y-123694482D01*
X146648072Y-123570000D01*
X152171928Y-123570000D01*
X152184188Y-123694482D01*
X152220498Y-123814180D01*
X152279463Y-123924494D01*
X152358815Y-124021185D01*
X152455506Y-124100537D01*
X152565820Y-124159502D01*
X152685518Y-124195812D01*
X152810000Y-124208072D01*
X153324250Y-124205000D01*
X153483000Y-124046250D01*
X153483000Y-122447000D01*
X153737000Y-122447000D01*
X153737000Y-124046250D01*
X153895750Y-124205000D01*
X154410000Y-124208072D01*
X154534482Y-124195812D01*
X154654180Y-124159502D01*
X154764494Y-124100537D01*
X154861185Y-124021185D01*
X154940537Y-123924494D01*
X154999502Y-123814180D01*
X155035812Y-123694482D01*
X155048072Y-123570000D01*
X155045000Y-122605750D01*
X154886250Y-122447000D01*
X153737000Y-122447000D01*
X153483000Y-122447000D01*
X152333750Y-122447000D01*
X152175000Y-122605750D01*
X152171928Y-123570000D01*
X146648072Y-123570000D01*
X146645000Y-122605750D01*
X146486250Y-122447000D01*
X145337000Y-122447000D01*
X145083000Y-122447000D01*
X143933750Y-122447000D01*
X143775000Y-122605750D01*
X143771928Y-123570000D01*
X132157913Y-123570000D01*
X132155000Y-122655750D01*
X131996250Y-122497000D01*
X130847000Y-122497000D01*
X130593000Y-122497000D01*
X129443750Y-122497000D01*
X129285000Y-122655750D01*
X129281928Y-123620000D01*
X123758072Y-123620000D01*
X123755000Y-122655750D01*
X123596250Y-122497000D01*
X122447000Y-122497000D01*
X122193000Y-122497000D01*
X121043750Y-122497000D01*
X120885000Y-122655750D01*
X120881928Y-123620000D01*
X103577849Y-123620000D01*
X103575000Y-122725750D01*
X103416250Y-122567000D01*
X102267000Y-122567000D01*
X102013000Y-122567000D01*
X100863750Y-122567000D01*
X100705000Y-122725750D01*
X100701928Y-123690000D01*
X95178072Y-123690000D01*
X95175000Y-122725750D01*
X95016250Y-122567000D01*
X93867000Y-122567000D01*
X93613000Y-122567000D01*
X92463750Y-122567000D01*
X92305000Y-122725750D01*
X92301928Y-123690000D01*
X85267087Y-123690000D01*
X85268072Y-123680000D01*
X85265000Y-122715750D01*
X85106250Y-122557000D01*
X83957000Y-122557000D01*
X83703000Y-122557000D01*
X82553750Y-122557000D01*
X82395000Y-122715750D01*
X82391928Y-123680000D01*
X76868072Y-123680000D01*
X76865000Y-122715750D01*
X76706250Y-122557000D01*
X75557000Y-122557000D01*
X75303000Y-122557000D01*
X74153750Y-122557000D01*
X73995000Y-122715750D01*
X73991928Y-123680000D01*
X66004180Y-123680000D01*
X66005393Y-121180000D01*
X73991928Y-121180000D01*
X73995000Y-122144250D01*
X74153750Y-122303000D01*
X75303000Y-122303000D01*
X75303000Y-120057000D01*
X75557000Y-120057000D01*
X75557000Y-122303000D01*
X76706250Y-122303000D01*
X76865000Y-122144250D01*
X76868072Y-121180000D01*
X82391928Y-121180000D01*
X82395000Y-122144250D01*
X82553750Y-122303000D01*
X83703000Y-122303000D01*
X83703000Y-120057000D01*
X83957000Y-120057000D01*
X83957000Y-122303000D01*
X85106250Y-122303000D01*
X85265000Y-122144250D01*
X85268040Y-121190000D01*
X92301928Y-121190000D01*
X92305000Y-122154250D01*
X92463750Y-122313000D01*
X93613000Y-122313000D01*
X93613000Y-120067000D01*
X93867000Y-120067000D01*
X93867000Y-122313000D01*
X95016250Y-122313000D01*
X95175000Y-122154250D01*
X95178072Y-121190000D01*
X100701928Y-121190000D01*
X100705000Y-122154250D01*
X100863750Y-122313000D01*
X102013000Y-122313000D01*
X102013000Y-120067000D01*
X102267000Y-120067000D01*
X102267000Y-122313000D01*
X103416250Y-122313000D01*
X103575000Y-122154250D01*
X103578072Y-121190000D01*
X103577849Y-121120000D01*
X120881928Y-121120000D01*
X120885000Y-122084250D01*
X121043750Y-122243000D01*
X122193000Y-122243000D01*
X122193000Y-119997000D01*
X122447000Y-119997000D01*
X122447000Y-122243000D01*
X123596250Y-122243000D01*
X123755000Y-122084250D01*
X123758072Y-121120000D01*
X129281928Y-121120000D01*
X129285000Y-122084250D01*
X129443750Y-122243000D01*
X130593000Y-122243000D01*
X130593000Y-119997000D01*
X130847000Y-119997000D01*
X130847000Y-122243000D01*
X131996250Y-122243000D01*
X132155000Y-122084250D01*
X132158072Y-121120000D01*
X132157913Y-121070000D01*
X143771928Y-121070000D01*
X143775000Y-122034250D01*
X143933750Y-122193000D01*
X145083000Y-122193000D01*
X145083000Y-119947000D01*
X145337000Y-119947000D01*
X145337000Y-122193000D01*
X146486250Y-122193000D01*
X146645000Y-122034250D01*
X146648072Y-121070000D01*
X152171928Y-121070000D01*
X152175000Y-122034250D01*
X152333750Y-122193000D01*
X153483000Y-122193000D01*
X153483000Y-119947000D01*
X153737000Y-119947000D01*
X153737000Y-122193000D01*
X154886250Y-122193000D01*
X155045000Y-122034250D01*
X155048072Y-121070000D01*
X155045000Y-120105750D01*
X154886250Y-119947000D01*
X153737000Y-119947000D01*
X153483000Y-119947000D01*
X152333750Y-119947000D01*
X152175000Y-120105750D01*
X152171928Y-121070000D01*
X146648072Y-121070000D01*
X146645000Y-120105750D01*
X146486250Y-119947000D01*
X145337000Y-119947000D01*
X145083000Y-119947000D01*
X143933750Y-119947000D01*
X143775000Y-120105750D01*
X143771928Y-121070000D01*
X132157913Y-121070000D01*
X132155000Y-120155750D01*
X131996250Y-119997000D01*
X130847000Y-119997000D01*
X130593000Y-119997000D01*
X129443750Y-119997000D01*
X129285000Y-120155750D01*
X129281928Y-121120000D01*
X123758072Y-121120000D01*
X123755000Y-120155750D01*
X123596250Y-119997000D01*
X122447000Y-119997000D01*
X122193000Y-119997000D01*
X121043750Y-119997000D01*
X120885000Y-120155750D01*
X120881928Y-121120000D01*
X103577849Y-121120000D01*
X103575000Y-120225750D01*
X103416250Y-120067000D01*
X102267000Y-120067000D01*
X102013000Y-120067000D01*
X100863750Y-120067000D01*
X100705000Y-120225750D01*
X100701928Y-121190000D01*
X95178072Y-121190000D01*
X95175000Y-120225750D01*
X95016250Y-120067000D01*
X93867000Y-120067000D01*
X93613000Y-120067000D01*
X92463750Y-120067000D01*
X92305000Y-120225750D01*
X92301928Y-121190000D01*
X85268040Y-121190000D01*
X85268072Y-121180000D01*
X85265000Y-120215750D01*
X85106250Y-120057000D01*
X83957000Y-120057000D01*
X83703000Y-120057000D01*
X82553750Y-120057000D01*
X82395000Y-120215750D01*
X82391928Y-121180000D01*
X76868072Y-121180000D01*
X76865000Y-120215750D01*
X76706250Y-120057000D01*
X75557000Y-120057000D01*
X75303000Y-120057000D01*
X74153750Y-120057000D01*
X73995000Y-120215750D01*
X73991928Y-121180000D01*
X66005393Y-121180000D01*
X66006606Y-118680000D01*
X73991928Y-118680000D01*
X73995000Y-119644250D01*
X74153750Y-119803000D01*
X75303000Y-119803000D01*
X75303000Y-118203750D01*
X75557000Y-118203750D01*
X75557000Y-119803000D01*
X76706250Y-119803000D01*
X76865000Y-119644250D01*
X76868072Y-118680000D01*
X82391928Y-118680000D01*
X82395000Y-119644250D01*
X82553750Y-119803000D01*
X83703000Y-119803000D01*
X83703000Y-118203750D01*
X83957000Y-118203750D01*
X83957000Y-119803000D01*
X85106250Y-119803000D01*
X85265000Y-119644250D01*
X85268040Y-118690000D01*
X92301928Y-118690000D01*
X92305000Y-119654250D01*
X92463750Y-119813000D01*
X93613000Y-119813000D01*
X93613000Y-118213750D01*
X93867000Y-118213750D01*
X93867000Y-119813000D01*
X95016250Y-119813000D01*
X95175000Y-119654250D01*
X95178072Y-118690000D01*
X100701928Y-118690000D01*
X100705000Y-119654250D01*
X100863750Y-119813000D01*
X102013000Y-119813000D01*
X102013000Y-118213750D01*
X102267000Y-118213750D01*
X102267000Y-119813000D01*
X103416250Y-119813000D01*
X103575000Y-119654250D01*
X103578072Y-118690000D01*
X103571178Y-118620000D01*
X120881928Y-118620000D01*
X120885000Y-119584250D01*
X121043750Y-119743000D01*
X122193000Y-119743000D01*
X122193000Y-118143750D01*
X122447000Y-118143750D01*
X122447000Y-119743000D01*
X123596250Y-119743000D01*
X123755000Y-119584250D01*
X123758072Y-118620000D01*
X129281928Y-118620000D01*
X129285000Y-119584250D01*
X129443750Y-119743000D01*
X130593000Y-119743000D01*
X130593000Y-118143750D01*
X130847000Y-118143750D01*
X130847000Y-119743000D01*
X131996250Y-119743000D01*
X132155000Y-119584250D01*
X132158072Y-118620000D01*
X132153148Y-118570000D01*
X143771928Y-118570000D01*
X143775000Y-119534250D01*
X143933750Y-119693000D01*
X145083000Y-119693000D01*
X145083000Y-118093750D01*
X145337000Y-118093750D01*
X145337000Y-119693000D01*
X146486250Y-119693000D01*
X146645000Y-119534250D01*
X146648072Y-118570000D01*
X152171928Y-118570000D01*
X152175000Y-119534250D01*
X152333750Y-119693000D01*
X153483000Y-119693000D01*
X153483000Y-118093750D01*
X153737000Y-118093750D01*
X153737000Y-119693000D01*
X154886250Y-119693000D01*
X155045000Y-119534250D01*
X155048072Y-118570000D01*
X155035812Y-118445518D01*
X154999502Y-118325820D01*
X154940537Y-118215506D01*
X154861185Y-118118815D01*
X154764494Y-118039463D01*
X154654180Y-117980498D01*
X154534482Y-117944188D01*
X154410000Y-117931928D01*
X153895750Y-117935000D01*
X153737000Y-118093750D01*
X153483000Y-118093750D01*
X153324250Y-117935000D01*
X152810000Y-117931928D01*
X152685518Y-117944188D01*
X152565820Y-117980498D01*
X152455506Y-118039463D01*
X152358815Y-118118815D01*
X152279463Y-118215506D01*
X152220498Y-118325820D01*
X152184188Y-118445518D01*
X152171928Y-118570000D01*
X146648072Y-118570000D01*
X146635812Y-118445518D01*
X146599502Y-118325820D01*
X146540537Y-118215506D01*
X146461185Y-118118815D01*
X146364494Y-118039463D01*
X146254180Y-117980498D01*
X146134482Y-117944188D01*
X146010000Y-117931928D01*
X145495750Y-117935000D01*
X145337000Y-118093750D01*
X145083000Y-118093750D01*
X144924250Y-117935000D01*
X144410000Y-117931928D01*
X144285518Y-117944188D01*
X144165820Y-117980498D01*
X144055506Y-118039463D01*
X143958815Y-118118815D01*
X143879463Y-118215506D01*
X143820498Y-118325820D01*
X143784188Y-118445518D01*
X143771928Y-118570000D01*
X132153148Y-118570000D01*
X132145812Y-118495518D01*
X132109502Y-118375820D01*
X132050537Y-118265506D01*
X131971185Y-118168815D01*
X131874494Y-118089463D01*
X131764180Y-118030498D01*
X131644482Y-117994188D01*
X131520000Y-117981928D01*
X131005750Y-117985000D01*
X130847000Y-118143750D01*
X130593000Y-118143750D01*
X130434250Y-117985000D01*
X129920000Y-117981928D01*
X129795518Y-117994188D01*
X129675820Y-118030498D01*
X129565506Y-118089463D01*
X129468815Y-118168815D01*
X129389463Y-118265506D01*
X129330498Y-118375820D01*
X129294188Y-118495518D01*
X129281928Y-118620000D01*
X123758072Y-118620000D01*
X123745812Y-118495518D01*
X123709502Y-118375820D01*
X123650537Y-118265506D01*
X123571185Y-118168815D01*
X123474494Y-118089463D01*
X123364180Y-118030498D01*
X123244482Y-117994188D01*
X123120000Y-117981928D01*
X122605750Y-117985000D01*
X122447000Y-118143750D01*
X122193000Y-118143750D01*
X122034250Y-117985000D01*
X121520000Y-117981928D01*
X121395518Y-117994188D01*
X121275820Y-118030498D01*
X121165506Y-118089463D01*
X121068815Y-118168815D01*
X120989463Y-118265506D01*
X120930498Y-118375820D01*
X120894188Y-118495518D01*
X120881928Y-118620000D01*
X103571178Y-118620000D01*
X103565812Y-118565518D01*
X103529502Y-118445820D01*
X103470537Y-118335506D01*
X103391185Y-118238815D01*
X103294494Y-118159463D01*
X103184180Y-118100498D01*
X103064482Y-118064188D01*
X102940000Y-118051928D01*
X102425750Y-118055000D01*
X102267000Y-118213750D01*
X102013000Y-118213750D01*
X101854250Y-118055000D01*
X101340000Y-118051928D01*
X101215518Y-118064188D01*
X101095820Y-118100498D01*
X100985506Y-118159463D01*
X100888815Y-118238815D01*
X100809463Y-118335506D01*
X100750498Y-118445820D01*
X100714188Y-118565518D01*
X100701928Y-118690000D01*
X95178072Y-118690000D01*
X95165812Y-118565518D01*
X95129502Y-118445820D01*
X95070537Y-118335506D01*
X94991185Y-118238815D01*
X94894494Y-118159463D01*
X94784180Y-118100498D01*
X94664482Y-118064188D01*
X94540000Y-118051928D01*
X94025750Y-118055000D01*
X93867000Y-118213750D01*
X93613000Y-118213750D01*
X93454250Y-118055000D01*
X92940000Y-118051928D01*
X92815518Y-118064188D01*
X92695820Y-118100498D01*
X92585506Y-118159463D01*
X92488815Y-118238815D01*
X92409463Y-118335506D01*
X92350498Y-118445820D01*
X92314188Y-118565518D01*
X92301928Y-118690000D01*
X85268040Y-118690000D01*
X85268072Y-118680000D01*
X85255812Y-118555518D01*
X85219502Y-118435820D01*
X85160537Y-118325506D01*
X85081185Y-118228815D01*
X84984494Y-118149463D01*
X84874180Y-118090498D01*
X84754482Y-118054188D01*
X84630000Y-118041928D01*
X84115750Y-118045000D01*
X83957000Y-118203750D01*
X83703000Y-118203750D01*
X83544250Y-118045000D01*
X83030000Y-118041928D01*
X82905518Y-118054188D01*
X82785820Y-118090498D01*
X82675506Y-118149463D01*
X82578815Y-118228815D01*
X82499463Y-118325506D01*
X82440498Y-118435820D01*
X82404188Y-118555518D01*
X82391928Y-118680000D01*
X76868072Y-118680000D01*
X76855812Y-118555518D01*
X76819502Y-118435820D01*
X76760537Y-118325506D01*
X76681185Y-118228815D01*
X76584494Y-118149463D01*
X76474180Y-118090498D01*
X76354482Y-118054188D01*
X76230000Y-118041928D01*
X75715750Y-118045000D01*
X75557000Y-118203750D01*
X75303000Y-118203750D01*
X75144250Y-118045000D01*
X74630000Y-118041928D01*
X74505518Y-118054188D01*
X74385820Y-118090498D01*
X74275506Y-118149463D01*
X74178815Y-118228815D01*
X74099463Y-118325506D01*
X74040498Y-118435820D01*
X74004188Y-118555518D01*
X73991928Y-118680000D01*
X66006606Y-118680000D01*
X66011539Y-108522252D01*
X66039463Y-108574494D01*
X66118815Y-108671185D01*
X66215506Y-108750537D01*
X66325820Y-108809502D01*
X66445518Y-108845812D01*
X66570000Y-108858072D01*
X67534250Y-108855000D01*
X67693000Y-108696250D01*
X67693000Y-107547000D01*
X67947000Y-107547000D01*
X67947000Y-108696250D01*
X68105750Y-108855000D01*
X69070000Y-108858072D01*
X70034250Y-108855000D01*
X70193000Y-108696250D01*
X70193000Y-107547000D01*
X70447000Y-107547000D01*
X70447000Y-108696250D01*
X70605750Y-108855000D01*
X71570000Y-108858072D01*
X71694482Y-108845812D01*
X71814180Y-108809502D01*
X71924494Y-108750537D01*
X72021185Y-108671185D01*
X72100537Y-108574494D01*
X72159502Y-108464180D01*
X72195812Y-108344482D01*
X72202162Y-108280000D01*
X103751928Y-108280000D01*
X103764188Y-108404482D01*
X103800498Y-108524180D01*
X103859463Y-108634494D01*
X103938815Y-108731185D01*
X104035506Y-108810537D01*
X104145820Y-108869502D01*
X104265518Y-108905812D01*
X104390000Y-108918072D01*
X105354250Y-108915000D01*
X105513000Y-108756250D01*
X105513000Y-107607000D01*
X105767000Y-107607000D01*
X105767000Y-108756250D01*
X105925750Y-108915000D01*
X106890000Y-108918072D01*
X107854250Y-108915000D01*
X108013000Y-108756250D01*
X108013000Y-107607000D01*
X108267000Y-107607000D01*
X108267000Y-108756250D01*
X108425750Y-108915000D01*
X109390000Y-108918072D01*
X109514482Y-108905812D01*
X109634180Y-108869502D01*
X109744494Y-108810537D01*
X109841185Y-108731185D01*
X109920537Y-108634494D01*
X109979502Y-108524180D01*
X110015812Y-108404482D01*
X110028072Y-108280000D01*
X110028013Y-108270000D01*
X116821928Y-108270000D01*
X116834188Y-108394482D01*
X116870498Y-108514180D01*
X116929463Y-108624494D01*
X117008815Y-108721185D01*
X117105506Y-108800537D01*
X117215820Y-108859502D01*
X117335518Y-108895812D01*
X117460000Y-108908072D01*
X118424250Y-108905000D01*
X118583000Y-108746250D01*
X118583000Y-107597000D01*
X118837000Y-107597000D01*
X118837000Y-108746250D01*
X118995750Y-108905000D01*
X119960000Y-108908072D01*
X120924250Y-108905000D01*
X121083000Y-108746250D01*
X121083000Y-107597000D01*
X121337000Y-107597000D01*
X121337000Y-108746250D01*
X121495750Y-108905000D01*
X122460000Y-108908072D01*
X122584482Y-108895812D01*
X122704180Y-108859502D01*
X122814494Y-108800537D01*
X122911185Y-108721185D01*
X122990537Y-108624494D01*
X123049502Y-108514180D01*
X123085812Y-108394482D01*
X123098072Y-108270000D01*
X123097296Y-108140000D01*
X155011928Y-108140000D01*
X155024188Y-108264482D01*
X155060498Y-108384180D01*
X155119463Y-108494494D01*
X155198815Y-108591185D01*
X155295506Y-108670537D01*
X155405820Y-108729502D01*
X155525518Y-108765812D01*
X155650000Y-108778072D01*
X156614250Y-108775000D01*
X156773000Y-108616250D01*
X156773000Y-107467000D01*
X157027000Y-107467000D01*
X157027000Y-108616250D01*
X157185750Y-108775000D01*
X158150000Y-108778072D01*
X159114250Y-108775000D01*
X159273000Y-108616250D01*
X159273000Y-107467000D01*
X157027000Y-107467000D01*
X156773000Y-107467000D01*
X155173750Y-107467000D01*
X155015000Y-107625750D01*
X155011928Y-108140000D01*
X123097296Y-108140000D01*
X123095000Y-107755750D01*
X122936250Y-107597000D01*
X121337000Y-107597000D01*
X121083000Y-107597000D01*
X118837000Y-107597000D01*
X118583000Y-107597000D01*
X116983750Y-107597000D01*
X116825000Y-107755750D01*
X116821928Y-108270000D01*
X110028013Y-108270000D01*
X110025000Y-107765750D01*
X109866250Y-107607000D01*
X108267000Y-107607000D01*
X108013000Y-107607000D01*
X105767000Y-107607000D01*
X105513000Y-107607000D01*
X103913750Y-107607000D01*
X103755000Y-107765750D01*
X103751928Y-108280000D01*
X72202162Y-108280000D01*
X72208072Y-108220000D01*
X72205000Y-107705750D01*
X72046250Y-107547000D01*
X70447000Y-107547000D01*
X70193000Y-107547000D01*
X67947000Y-107547000D01*
X67693000Y-107547000D01*
X67673000Y-107547000D01*
X67673000Y-107293000D01*
X67693000Y-107293000D01*
X67693000Y-106143750D01*
X67947000Y-106143750D01*
X67947000Y-107293000D01*
X70193000Y-107293000D01*
X70193000Y-106143750D01*
X70447000Y-106143750D01*
X70447000Y-107293000D01*
X72046250Y-107293000D01*
X72205000Y-107134250D01*
X72207713Y-106680000D01*
X103751928Y-106680000D01*
X103755000Y-107194250D01*
X103913750Y-107353000D01*
X105513000Y-107353000D01*
X105513000Y-106203750D01*
X105767000Y-106203750D01*
X105767000Y-107353000D01*
X108013000Y-107353000D01*
X108013000Y-106203750D01*
X108267000Y-106203750D01*
X108267000Y-107353000D01*
X109866250Y-107353000D01*
X110025000Y-107194250D01*
X110028072Y-106680000D01*
X110027088Y-106670000D01*
X116821928Y-106670000D01*
X116825000Y-107184250D01*
X116983750Y-107343000D01*
X118583000Y-107343000D01*
X118583000Y-106193750D01*
X118837000Y-106193750D01*
X118837000Y-107343000D01*
X121083000Y-107343000D01*
X121083000Y-106193750D01*
X121337000Y-106193750D01*
X121337000Y-107343000D01*
X122936250Y-107343000D01*
X123095000Y-107184250D01*
X123098072Y-106670000D01*
X123085812Y-106545518D01*
X123084139Y-106540000D01*
X155011928Y-106540000D01*
X155015000Y-107054250D01*
X155173750Y-107213000D01*
X156773000Y-107213000D01*
X156773000Y-106063750D01*
X157027000Y-106063750D01*
X157027000Y-107213000D01*
X159273000Y-107213000D01*
X159273000Y-106063750D01*
X159114250Y-105905000D01*
X158150000Y-105901928D01*
X157185750Y-105905000D01*
X157027000Y-106063750D01*
X156773000Y-106063750D01*
X156614250Y-105905000D01*
X155650000Y-105901928D01*
X155525518Y-105914188D01*
X155405820Y-105950498D01*
X155295506Y-106009463D01*
X155198815Y-106088815D01*
X155119463Y-106185506D01*
X155060498Y-106295820D01*
X155024188Y-106415518D01*
X155011928Y-106540000D01*
X123084139Y-106540000D01*
X123049502Y-106425820D01*
X122990537Y-106315506D01*
X122911185Y-106218815D01*
X122814494Y-106139463D01*
X122704180Y-106080498D01*
X122584482Y-106044188D01*
X122460000Y-106031928D01*
X121495750Y-106035000D01*
X121337000Y-106193750D01*
X121083000Y-106193750D01*
X120924250Y-106035000D01*
X119960000Y-106031928D01*
X118995750Y-106035000D01*
X118837000Y-106193750D01*
X118583000Y-106193750D01*
X118424250Y-106035000D01*
X117460000Y-106031928D01*
X117335518Y-106044188D01*
X117215820Y-106080498D01*
X117105506Y-106139463D01*
X117008815Y-106218815D01*
X116929463Y-106315506D01*
X116870498Y-106425820D01*
X116834188Y-106545518D01*
X116821928Y-106670000D01*
X110027088Y-106670000D01*
X110015812Y-106555518D01*
X109979502Y-106435820D01*
X109920537Y-106325506D01*
X109841185Y-106228815D01*
X109744494Y-106149463D01*
X109634180Y-106090498D01*
X109514482Y-106054188D01*
X109390000Y-106041928D01*
X108425750Y-106045000D01*
X108267000Y-106203750D01*
X108013000Y-106203750D01*
X107854250Y-106045000D01*
X106890000Y-106041928D01*
X105925750Y-106045000D01*
X105767000Y-106203750D01*
X105513000Y-106203750D01*
X105354250Y-106045000D01*
X104390000Y-106041928D01*
X104265518Y-106054188D01*
X104145820Y-106090498D01*
X104035506Y-106149463D01*
X103938815Y-106228815D01*
X103859463Y-106325506D01*
X103800498Y-106435820D01*
X103764188Y-106555518D01*
X103751928Y-106680000D01*
X72207713Y-106680000D01*
X72208072Y-106620000D01*
X72195812Y-106495518D01*
X72159502Y-106375820D01*
X72100537Y-106265506D01*
X72021185Y-106168815D01*
X71924494Y-106089463D01*
X71814180Y-106030498D01*
X71694482Y-105994188D01*
X71570000Y-105981928D01*
X70605750Y-105985000D01*
X70447000Y-106143750D01*
X70193000Y-106143750D01*
X70034250Y-105985000D01*
X69070000Y-105981928D01*
X68105750Y-105985000D01*
X67947000Y-106143750D01*
X67693000Y-106143750D01*
X67534250Y-105985000D01*
X66570000Y-105981928D01*
X66445518Y-105994188D01*
X66325820Y-106030498D01*
X66215506Y-106089463D01*
X66118815Y-106168815D01*
X66039463Y-106265506D01*
X66012610Y-106315744D01*
X66015612Y-100129873D01*
X66039463Y-100174494D01*
X66118815Y-100271185D01*
X66215506Y-100350537D01*
X66325820Y-100409502D01*
X66445518Y-100445812D01*
X66570000Y-100458072D01*
X67534250Y-100455000D01*
X67693000Y-100296250D01*
X67693000Y-99147000D01*
X67947000Y-99147000D01*
X67947000Y-100296250D01*
X68105750Y-100455000D01*
X69070000Y-100458072D01*
X70034250Y-100455000D01*
X70193000Y-100296250D01*
X70193000Y-99147000D01*
X70447000Y-99147000D01*
X70447000Y-100296250D01*
X70605750Y-100455000D01*
X71570000Y-100458072D01*
X71694482Y-100445812D01*
X71814180Y-100409502D01*
X71924494Y-100350537D01*
X72021185Y-100271185D01*
X72100537Y-100174494D01*
X72159502Y-100064180D01*
X72195812Y-99944482D01*
X72202162Y-99880000D01*
X103751928Y-99880000D01*
X103764188Y-100004482D01*
X103800498Y-100124180D01*
X103859463Y-100234494D01*
X103938815Y-100331185D01*
X104035506Y-100410537D01*
X104145820Y-100469502D01*
X104265518Y-100505812D01*
X104390000Y-100518072D01*
X105354250Y-100515000D01*
X105513000Y-100356250D01*
X105513000Y-99207000D01*
X105767000Y-99207000D01*
X105767000Y-100356250D01*
X105925750Y-100515000D01*
X106890000Y-100518072D01*
X107854250Y-100515000D01*
X108013000Y-100356250D01*
X108013000Y-99207000D01*
X108267000Y-99207000D01*
X108267000Y-100356250D01*
X108425750Y-100515000D01*
X109390000Y-100518072D01*
X109514482Y-100505812D01*
X109634180Y-100469502D01*
X109744494Y-100410537D01*
X109841185Y-100331185D01*
X109920537Y-100234494D01*
X109979502Y-100124180D01*
X110015812Y-100004482D01*
X110028072Y-99880000D01*
X110028013Y-99870000D01*
X116821928Y-99870000D01*
X116834188Y-99994482D01*
X116870498Y-100114180D01*
X116929463Y-100224494D01*
X117008815Y-100321185D01*
X117105506Y-100400537D01*
X117215820Y-100459502D01*
X117335518Y-100495812D01*
X117460000Y-100508072D01*
X118424250Y-100505000D01*
X118583000Y-100346250D01*
X118583000Y-99197000D01*
X118837000Y-99197000D01*
X118837000Y-100346250D01*
X118995750Y-100505000D01*
X119960000Y-100508072D01*
X120924250Y-100505000D01*
X121083000Y-100346250D01*
X121083000Y-99197000D01*
X121337000Y-99197000D01*
X121337000Y-100346250D01*
X121495750Y-100505000D01*
X122460000Y-100508072D01*
X122584482Y-100495812D01*
X122704180Y-100459502D01*
X122814494Y-100400537D01*
X122911185Y-100321185D01*
X122990537Y-100224494D01*
X123049502Y-100114180D01*
X123085812Y-99994482D01*
X123098072Y-99870000D01*
X123097296Y-99740000D01*
X155011928Y-99740000D01*
X155024188Y-99864482D01*
X155060498Y-99984180D01*
X155119463Y-100094494D01*
X155198815Y-100191185D01*
X155295506Y-100270537D01*
X155405820Y-100329502D01*
X155525518Y-100365812D01*
X155650000Y-100378072D01*
X156614250Y-100375000D01*
X156773000Y-100216250D01*
X156773000Y-99067000D01*
X157027000Y-99067000D01*
X157027000Y-100216250D01*
X157185750Y-100375000D01*
X158150000Y-100378072D01*
X159114250Y-100375000D01*
X159273000Y-100216250D01*
X159273000Y-99067000D01*
X157027000Y-99067000D01*
X156773000Y-99067000D01*
X155173750Y-99067000D01*
X155015000Y-99225750D01*
X155011928Y-99740000D01*
X123097296Y-99740000D01*
X123095000Y-99355750D01*
X122936250Y-99197000D01*
X121337000Y-99197000D01*
X121083000Y-99197000D01*
X118837000Y-99197000D01*
X118583000Y-99197000D01*
X116983750Y-99197000D01*
X116825000Y-99355750D01*
X116821928Y-99870000D01*
X110028013Y-99870000D01*
X110025000Y-99365750D01*
X109866250Y-99207000D01*
X108267000Y-99207000D01*
X108013000Y-99207000D01*
X105767000Y-99207000D01*
X105513000Y-99207000D01*
X103913750Y-99207000D01*
X103755000Y-99365750D01*
X103751928Y-99880000D01*
X72202162Y-99880000D01*
X72208072Y-99820000D01*
X72205000Y-99305750D01*
X72046250Y-99147000D01*
X70447000Y-99147000D01*
X70193000Y-99147000D01*
X67947000Y-99147000D01*
X67693000Y-99147000D01*
X67673000Y-99147000D01*
X67673000Y-98893000D01*
X67693000Y-98893000D01*
X67693000Y-97743750D01*
X67947000Y-97743750D01*
X67947000Y-98893000D01*
X70193000Y-98893000D01*
X70193000Y-97743750D01*
X70447000Y-97743750D01*
X70447000Y-98893000D01*
X72046250Y-98893000D01*
X72205000Y-98734250D01*
X72207713Y-98280000D01*
X103751928Y-98280000D01*
X103755000Y-98794250D01*
X103913750Y-98953000D01*
X105513000Y-98953000D01*
X105513000Y-97803750D01*
X105767000Y-97803750D01*
X105767000Y-98953000D01*
X108013000Y-98953000D01*
X108013000Y-97803750D01*
X108267000Y-97803750D01*
X108267000Y-98953000D01*
X109866250Y-98953000D01*
X110025000Y-98794250D01*
X110028072Y-98280000D01*
X110027088Y-98270000D01*
X116821928Y-98270000D01*
X116825000Y-98784250D01*
X116983750Y-98943000D01*
X118583000Y-98943000D01*
X118583000Y-97793750D01*
X118837000Y-97793750D01*
X118837000Y-98943000D01*
X121083000Y-98943000D01*
X121083000Y-97793750D01*
X121337000Y-97793750D01*
X121337000Y-98943000D01*
X122936250Y-98943000D01*
X123095000Y-98784250D01*
X123098072Y-98270000D01*
X123085812Y-98145518D01*
X123084139Y-98140000D01*
X155011928Y-98140000D01*
X155015000Y-98654250D01*
X155173750Y-98813000D01*
X156773000Y-98813000D01*
X156773000Y-97663750D01*
X157027000Y-97663750D01*
X157027000Y-98813000D01*
X159273000Y-98813000D01*
X159273000Y-97663750D01*
X159114250Y-97505000D01*
X158150000Y-97501928D01*
X157185750Y-97505000D01*
X157027000Y-97663750D01*
X156773000Y-97663750D01*
X156614250Y-97505000D01*
X155650000Y-97501928D01*
X155525518Y-97514188D01*
X155405820Y-97550498D01*
X155295506Y-97609463D01*
X155198815Y-97688815D01*
X155119463Y-97785506D01*
X155060498Y-97895820D01*
X155024188Y-98015518D01*
X155011928Y-98140000D01*
X123084139Y-98140000D01*
X123049502Y-98025820D01*
X122990537Y-97915506D01*
X122911185Y-97818815D01*
X122814494Y-97739463D01*
X122704180Y-97680498D01*
X122584482Y-97644188D01*
X122460000Y-97631928D01*
X121495750Y-97635000D01*
X121337000Y-97793750D01*
X121083000Y-97793750D01*
X120924250Y-97635000D01*
X119960000Y-97631928D01*
X118995750Y-97635000D01*
X118837000Y-97793750D01*
X118583000Y-97793750D01*
X118424250Y-97635000D01*
X117460000Y-97631928D01*
X117335518Y-97644188D01*
X117215820Y-97680498D01*
X117105506Y-97739463D01*
X117008815Y-97818815D01*
X116929463Y-97915506D01*
X116870498Y-98025820D01*
X116834188Y-98145518D01*
X116821928Y-98270000D01*
X110027088Y-98270000D01*
X110015812Y-98155518D01*
X109979502Y-98035820D01*
X109920537Y-97925506D01*
X109841185Y-97828815D01*
X109744494Y-97749463D01*
X109634180Y-97690498D01*
X109514482Y-97654188D01*
X109390000Y-97641928D01*
X108425750Y-97645000D01*
X108267000Y-97803750D01*
X108013000Y-97803750D01*
X107854250Y-97645000D01*
X106890000Y-97641928D01*
X105925750Y-97645000D01*
X105767000Y-97803750D01*
X105513000Y-97803750D01*
X105354250Y-97645000D01*
X104390000Y-97641928D01*
X104265518Y-97654188D01*
X104145820Y-97690498D01*
X104035506Y-97749463D01*
X103938815Y-97828815D01*
X103859463Y-97925506D01*
X103800498Y-98035820D01*
X103764188Y-98155518D01*
X103751928Y-98280000D01*
X72207713Y-98280000D01*
X72208072Y-98220000D01*
X72195812Y-98095518D01*
X72159502Y-97975820D01*
X72100537Y-97865506D01*
X72021185Y-97768815D01*
X71924494Y-97689463D01*
X71814180Y-97630498D01*
X71694482Y-97594188D01*
X71570000Y-97581928D01*
X70605750Y-97585000D01*
X70447000Y-97743750D01*
X70193000Y-97743750D01*
X70034250Y-97585000D01*
X69070000Y-97581928D01*
X68105750Y-97585000D01*
X67947000Y-97743750D01*
X67693000Y-97743750D01*
X67534250Y-97585000D01*
X66570000Y-97581928D01*
X66445518Y-97594188D01*
X66325820Y-97630498D01*
X66215506Y-97689463D01*
X66118815Y-97768815D01*
X66039463Y-97865506D01*
X66016691Y-97908110D01*
X66016958Y-97357031D01*
X160943144Y-97386960D01*
G37*
G04 #@! TD.AperFunction*
G04 #@! TD*
M02*
