G04 #@! TF.GenerationSoftware,KiCad,Pcbnew,5.1.8-db9833491~88~ubuntu20.04.1*
G04 #@! TF.CreationDate,2021-03-01T03:43:11-08:00*
G04 #@! TF.ProjectId,directional_coupler20dB,64697265-6374-4696-9f6e-616c5f636f75,rev?*
G04 #@! TF.SameCoordinates,Original*
G04 #@! TF.FileFunction,Soldermask,Bot*
G04 #@! TF.FilePolarity,Negative*
%FSLAX46Y46*%
G04 Gerber Fmt 4.6, Leading zero omitted, Abs format (unit mm)*
G04 Created by KiCad (PCBNEW 5.1.8-db9833491~88~ubuntu20.04.1) date 2021-03-01 03:43:11*
%MOMM*%
%LPD*%
G01*
G04 APERTURE LIST*
%ADD10R,2.500000X1.600000*%
%ADD11R,1.600000X2.500000*%
G04 APERTURE END LIST*
D10*
G04 #@! TO.C,U3*
X108950000Y-140430000D03*
X106450000Y-140430000D03*
X108950000Y-132030000D03*
X106450000Y-132030000D03*
G04 #@! TD*
G04 #@! TO.C,U1*
X69810000Y-140460000D03*
X67310000Y-140460000D03*
X69810000Y-132060000D03*
X67310000Y-132060000D03*
G04 #@! TD*
D11*
G04 #@! TO.C,U4*
X97110000Y-157330000D03*
X97110000Y-154830000D03*
X105510000Y-157330000D03*
X105510000Y-154830000D03*
G04 #@! TD*
G04 #@! TO.C,U2*
X83010000Y-154930000D03*
X83010000Y-157430000D03*
X74610000Y-154930000D03*
X74610000Y-157430000D03*
G04 #@! TD*
D10*
G04 #@! TO.C,U1*
X119060000Y-131870000D03*
X121560000Y-131870000D03*
X119060000Y-140270000D03*
X121560000Y-140270000D03*
G04 #@! TD*
D11*
G04 #@! TO.C,U4*
X154070000Y-154930000D03*
X154070000Y-157430000D03*
X145670000Y-154930000D03*
X145670000Y-157430000D03*
G04 #@! TD*
G04 #@! TO.C,U2*
X122380000Y-157380000D03*
X122380000Y-154880000D03*
X130780000Y-157380000D03*
X130780000Y-154880000D03*
G04 #@! TD*
D10*
G04 #@! TO.C,U3*
X157430000Y-131900000D03*
X159930000Y-131900000D03*
X157430000Y-140300000D03*
X159930000Y-140300000D03*
G04 #@! TD*
G04 #@! TO.C,U1*
X121210000Y-107470000D03*
X118710000Y-107470000D03*
X121210000Y-99070000D03*
X118710000Y-99070000D03*
G04 #@! TD*
D11*
G04 #@! TO.C,U2*
X130720000Y-119870000D03*
X130720000Y-122370000D03*
X122320000Y-119870000D03*
X122320000Y-122370000D03*
G04 #@! TD*
G04 #@! TO.C,U4*
X145210000Y-122320000D03*
X145210000Y-119820000D03*
X153610000Y-122320000D03*
X153610000Y-119820000D03*
G04 #@! TD*
D10*
G04 #@! TO.C,U3*
X159770000Y-107530000D03*
X157270000Y-107530000D03*
X159770000Y-99130000D03*
X157270000Y-99130000D03*
G04 #@! TD*
G04 #@! TO.C,U1*
X67250000Y-99020000D03*
X69750000Y-99020000D03*
X67250000Y-107420000D03*
X69750000Y-107420000D03*
G04 #@! TD*
D11*
G04 #@! TO.C,U2*
X75430000Y-122430000D03*
X75430000Y-119930000D03*
X83830000Y-122430000D03*
X83830000Y-119930000D03*
G04 #@! TD*
D10*
G04 #@! TO.C,U3*
X105640000Y-99080000D03*
X108140000Y-99080000D03*
X105640000Y-107480000D03*
X108140000Y-107480000D03*
G04 #@! TD*
D11*
G04 #@! TO.C,U4*
X102140000Y-119940000D03*
X102140000Y-122440000D03*
X93740000Y-119940000D03*
X93740000Y-122440000D03*
G04 #@! TD*
M02*
