G04 #@! TF.GenerationSoftware,KiCad,Pcbnew,5.1.8-db9833491~88~ubuntu20.04.1*
G04 #@! TF.CreationDate,2021-03-01T03:43:11-08:00*
G04 #@! TF.ProjectId,directional_coupler20dB,64697265-6374-4696-9f6e-616c5f636f75,rev?*
G04 #@! TF.SameCoordinates,Original*
G04 #@! TF.FileFunction,Legend,Bot*
G04 #@! TF.FilePolarity,Positive*
%FSLAX46Y46*%
G04 Gerber Fmt 4.6, Leading zero omitted, Abs format (unit mm)*
G04 Created by KiCad (PCBNEW 5.1.8-db9833491~88~ubuntu20.04.1) date 2021-03-01 03:43:11*
%MOMM*%
%LPD*%
G01*
G04 APERTURE LIST*
%ADD10C,0.150000*%
G04 APERTURE END LIST*
D10*
X99013333Y-143441428D02*
X98251428Y-143441428D01*
X97251428Y-143822380D02*
X97822857Y-143822380D01*
X97537142Y-143822380D02*
X97537142Y-142822380D01*
X97632380Y-142965238D01*
X97727619Y-143060476D01*
X97822857Y-143108095D01*
X96394285Y-142822380D02*
X96584761Y-142822380D01*
X96680000Y-142870000D01*
X96727619Y-142917619D01*
X96822857Y-143060476D01*
X96870476Y-143250952D01*
X96870476Y-143631904D01*
X96822857Y-143727142D01*
X96775238Y-143774761D01*
X96680000Y-143822380D01*
X96489523Y-143822380D01*
X96394285Y-143774761D01*
X96346666Y-143727142D01*
X96299047Y-143631904D01*
X96299047Y-143393809D01*
X96346666Y-143298571D01*
X96394285Y-143250952D01*
X96489523Y-143203333D01*
X96680000Y-143203333D01*
X96775238Y-143250952D01*
X96822857Y-143298571D01*
X96870476Y-143393809D01*
X94680000Y-143822380D02*
X94680000Y-142822380D01*
X94680000Y-143774761D02*
X94775238Y-143822380D01*
X94965714Y-143822380D01*
X95060952Y-143774761D01*
X95108571Y-143727142D01*
X95156190Y-143631904D01*
X95156190Y-143346190D01*
X95108571Y-143250952D01*
X95060952Y-143203333D01*
X94965714Y-143155714D01*
X94775238Y-143155714D01*
X94680000Y-143203333D01*
X93870476Y-143298571D02*
X93727619Y-143346190D01*
X93680000Y-143393809D01*
X93632380Y-143489047D01*
X93632380Y-143631904D01*
X93680000Y-143727142D01*
X93727619Y-143774761D01*
X93822857Y-143822380D01*
X94203809Y-143822380D01*
X94203809Y-142822380D01*
X93870476Y-142822380D01*
X93775238Y-142870000D01*
X93727619Y-142917619D01*
X93680000Y-143012857D01*
X93680000Y-143108095D01*
X93727619Y-143203333D01*
X93775238Y-143250952D01*
X93870476Y-143298571D01*
X94203809Y-143298571D01*
X92441904Y-143822380D02*
X92441904Y-142822380D01*
X92203809Y-142822380D01*
X92060952Y-142870000D01*
X91965714Y-142965238D01*
X91918095Y-143060476D01*
X91870476Y-143250952D01*
X91870476Y-143393809D01*
X91918095Y-143584285D01*
X91965714Y-143679523D01*
X92060952Y-143774761D01*
X92203809Y-143822380D01*
X92441904Y-143822380D01*
X91441904Y-143822380D02*
X91441904Y-143155714D01*
X91441904Y-142822380D02*
X91489523Y-142870000D01*
X91441904Y-142917619D01*
X91394285Y-142870000D01*
X91441904Y-142822380D01*
X91441904Y-142917619D01*
X90965714Y-143822380D02*
X90965714Y-143155714D01*
X90965714Y-143346190D02*
X90918095Y-143250952D01*
X90870476Y-143203333D01*
X90775238Y-143155714D01*
X90680000Y-143155714D01*
X89965714Y-143774761D02*
X90060952Y-143822380D01*
X90251428Y-143822380D01*
X90346666Y-143774761D01*
X90394285Y-143679523D01*
X90394285Y-143298571D01*
X90346666Y-143203333D01*
X90251428Y-143155714D01*
X90060952Y-143155714D01*
X89965714Y-143203333D01*
X89918095Y-143298571D01*
X89918095Y-143393809D01*
X90394285Y-143489047D01*
X89060952Y-143774761D02*
X89156190Y-143822380D01*
X89346666Y-143822380D01*
X89441904Y-143774761D01*
X89489523Y-143727142D01*
X89537142Y-143631904D01*
X89537142Y-143346190D01*
X89489523Y-143250952D01*
X89441904Y-143203333D01*
X89346666Y-143155714D01*
X89156190Y-143155714D01*
X89060952Y-143203333D01*
X88775238Y-143155714D02*
X88394285Y-143155714D01*
X88632380Y-142822380D02*
X88632380Y-143679523D01*
X88584761Y-143774761D01*
X88489523Y-143822380D01*
X88394285Y-143822380D01*
X88060952Y-143822380D02*
X88060952Y-143155714D01*
X88060952Y-142822380D02*
X88108571Y-142870000D01*
X88060952Y-142917619D01*
X88013333Y-142870000D01*
X88060952Y-142822380D01*
X88060952Y-142917619D01*
X87441904Y-143822380D02*
X87537142Y-143774761D01*
X87584761Y-143727142D01*
X87632380Y-143631904D01*
X87632380Y-143346190D01*
X87584761Y-143250952D01*
X87537142Y-143203333D01*
X87441904Y-143155714D01*
X87299047Y-143155714D01*
X87203809Y-143203333D01*
X87156190Y-143250952D01*
X87108571Y-143346190D01*
X87108571Y-143631904D01*
X87156190Y-143727142D01*
X87203809Y-143774761D01*
X87299047Y-143822380D01*
X87441904Y-143822380D01*
X86680000Y-143155714D02*
X86680000Y-143822380D01*
X86680000Y-143250952D02*
X86632380Y-143203333D01*
X86537142Y-143155714D01*
X86394285Y-143155714D01*
X86299047Y-143203333D01*
X86251428Y-143298571D01*
X86251428Y-143822380D01*
X85346666Y-143822380D02*
X85346666Y-143298571D01*
X85394285Y-143203333D01*
X85489523Y-143155714D01*
X85680000Y-143155714D01*
X85775238Y-143203333D01*
X85346666Y-143774761D02*
X85441904Y-143822380D01*
X85680000Y-143822380D01*
X85775238Y-143774761D01*
X85822857Y-143679523D01*
X85822857Y-143584285D01*
X85775238Y-143489047D01*
X85680000Y-143441428D01*
X85441904Y-143441428D01*
X85346666Y-143393809D01*
X84727619Y-143822380D02*
X84822857Y-143774761D01*
X84870476Y-143679523D01*
X84870476Y-142822380D01*
X83013333Y-143727142D02*
X83060952Y-143774761D01*
X83203809Y-143822380D01*
X83299047Y-143822380D01*
X83441904Y-143774761D01*
X83537142Y-143679523D01*
X83584761Y-143584285D01*
X83632380Y-143393809D01*
X83632380Y-143250952D01*
X83584761Y-143060476D01*
X83537142Y-142965238D01*
X83441904Y-142870000D01*
X83299047Y-142822380D01*
X83203809Y-142822380D01*
X83060952Y-142870000D01*
X83013333Y-142917619D01*
X82441904Y-143822380D02*
X82537142Y-143774761D01*
X82584761Y-143727142D01*
X82632380Y-143631904D01*
X82632380Y-143346190D01*
X82584761Y-143250952D01*
X82537142Y-143203333D01*
X82441904Y-143155714D01*
X82299047Y-143155714D01*
X82203809Y-143203333D01*
X82156190Y-143250952D01*
X82108571Y-143346190D01*
X82108571Y-143631904D01*
X82156190Y-143727142D01*
X82203809Y-143774761D01*
X82299047Y-143822380D01*
X82441904Y-143822380D01*
X81251428Y-143155714D02*
X81251428Y-143822380D01*
X81680000Y-143155714D02*
X81680000Y-143679523D01*
X81632380Y-143774761D01*
X81537142Y-143822380D01*
X81394285Y-143822380D01*
X81299047Y-143774761D01*
X81251428Y-143727142D01*
X80775238Y-143155714D02*
X80775238Y-144155714D01*
X80775238Y-143203333D02*
X80680000Y-143155714D01*
X80489523Y-143155714D01*
X80394285Y-143203333D01*
X80346666Y-143250952D01*
X80299047Y-143346190D01*
X80299047Y-143631904D01*
X80346666Y-143727142D01*
X80394285Y-143774761D01*
X80489523Y-143822380D01*
X80680000Y-143822380D01*
X80775238Y-143774761D01*
X79727619Y-143822380D02*
X79822857Y-143774761D01*
X79870476Y-143679523D01*
X79870476Y-142822380D01*
X78965714Y-143774761D02*
X79060952Y-143822380D01*
X79251428Y-143822380D01*
X79346666Y-143774761D01*
X79394285Y-143679523D01*
X79394285Y-143298571D01*
X79346666Y-143203333D01*
X79251428Y-143155714D01*
X79060952Y-143155714D01*
X78965714Y-143203333D01*
X78918095Y-143298571D01*
X78918095Y-143393809D01*
X79394285Y-143489047D01*
X78489523Y-143822380D02*
X78489523Y-143155714D01*
X78489523Y-143346190D02*
X78441904Y-143250952D01*
X78394285Y-143203333D01*
X78299047Y-143155714D01*
X78203809Y-143155714D01*
X96180000Y-145472380D02*
X96180000Y-144472380D01*
X96180000Y-144948571D02*
X95608571Y-144948571D01*
X95608571Y-145472380D02*
X95608571Y-144472380D01*
X94703809Y-144805714D02*
X94703809Y-145472380D01*
X95132380Y-144805714D02*
X95132380Y-145329523D01*
X95084761Y-145424761D01*
X94989523Y-145472380D01*
X94846666Y-145472380D01*
X94751428Y-145424761D01*
X94703809Y-145377142D01*
X94275238Y-145424761D02*
X94180000Y-145472380D01*
X93989523Y-145472380D01*
X93894285Y-145424761D01*
X93846666Y-145329523D01*
X93846666Y-145281904D01*
X93894285Y-145186666D01*
X93989523Y-145139047D01*
X94132380Y-145139047D01*
X94227619Y-145091428D01*
X94275238Y-144996190D01*
X94275238Y-144948571D01*
X94227619Y-144853333D01*
X94132380Y-144805714D01*
X93989523Y-144805714D01*
X93894285Y-144853333D01*
X93418095Y-145472380D02*
X93418095Y-144472380D01*
X93322857Y-145091428D02*
X93037142Y-145472380D01*
X93037142Y-144805714D02*
X93418095Y-145186666D01*
X92703809Y-144805714D02*
X92465714Y-145472380D01*
X92227619Y-144805714D02*
X92465714Y-145472380D01*
X92560952Y-145710476D01*
X92608571Y-145758095D01*
X92703809Y-145805714D01*
X91132380Y-145424761D02*
X90989523Y-145472380D01*
X90751428Y-145472380D01*
X90656190Y-145424761D01*
X90608571Y-145377142D01*
X90560952Y-145281904D01*
X90560952Y-145186666D01*
X90608571Y-145091428D01*
X90656190Y-145043809D01*
X90751428Y-144996190D01*
X90941904Y-144948571D01*
X91037142Y-144900952D01*
X91084761Y-144853333D01*
X91132380Y-144758095D01*
X91132380Y-144662857D01*
X91084761Y-144567619D01*
X91037142Y-144520000D01*
X90941904Y-144472380D01*
X90703809Y-144472380D01*
X90560952Y-144520000D01*
X89703809Y-145472380D02*
X89703809Y-144948571D01*
X89751428Y-144853333D01*
X89846666Y-144805714D01*
X90037142Y-144805714D01*
X90132380Y-144853333D01*
X89703809Y-145424761D02*
X89799047Y-145472380D01*
X90037142Y-145472380D01*
X90132380Y-145424761D01*
X90180000Y-145329523D01*
X90180000Y-145234285D01*
X90132380Y-145139047D01*
X90037142Y-145091428D01*
X89799047Y-145091428D01*
X89703809Y-145043809D01*
X89370476Y-144805714D02*
X88989523Y-144805714D01*
X89227619Y-144472380D02*
X89227619Y-145329523D01*
X89180000Y-145424761D01*
X89084761Y-145472380D01*
X88989523Y-145472380D01*
X88275238Y-145424761D02*
X88370476Y-145472380D01*
X88560952Y-145472380D01*
X88656190Y-145424761D01*
X88703809Y-145329523D01*
X88703809Y-144948571D01*
X88656190Y-144853333D01*
X88560952Y-144805714D01*
X88370476Y-144805714D01*
X88275238Y-144853333D01*
X88227619Y-144948571D01*
X88227619Y-145043809D01*
X88703809Y-145139047D01*
X87656190Y-145472380D02*
X87751428Y-145424761D01*
X87799047Y-145329523D01*
X87799047Y-144472380D01*
X87132380Y-145472380D02*
X87227619Y-145424761D01*
X87275238Y-145329523D01*
X87275238Y-144472380D01*
X86751428Y-145472380D02*
X86751428Y-144805714D01*
X86751428Y-144472380D02*
X86799047Y-144520000D01*
X86751428Y-144567619D01*
X86703809Y-144520000D01*
X86751428Y-144472380D01*
X86751428Y-144567619D01*
X86418095Y-144805714D02*
X86037142Y-144805714D01*
X86275238Y-144472380D02*
X86275238Y-145329523D01*
X86227619Y-145424761D01*
X86132380Y-145472380D01*
X86037142Y-145472380D01*
X85322857Y-145424761D02*
X85418095Y-145472380D01*
X85608571Y-145472380D01*
X85703809Y-145424761D01*
X85751428Y-145329523D01*
X85751428Y-144948571D01*
X85703809Y-144853333D01*
X85608571Y-144805714D01*
X85418095Y-144805714D01*
X85322857Y-144853333D01*
X85275238Y-144948571D01*
X85275238Y-145043809D01*
X85751428Y-145139047D01*
X83608571Y-145472380D02*
X84084761Y-145472380D01*
X84084761Y-144472380D01*
X82846666Y-145472380D02*
X82846666Y-144948571D01*
X82894285Y-144853333D01*
X82989523Y-144805714D01*
X83180000Y-144805714D01*
X83275238Y-144853333D01*
X82846666Y-145424761D02*
X82941904Y-145472380D01*
X83180000Y-145472380D01*
X83275238Y-145424761D01*
X83322857Y-145329523D01*
X83322857Y-145234285D01*
X83275238Y-145139047D01*
X83180000Y-145091428D01*
X82941904Y-145091428D01*
X82846666Y-145043809D01*
X82370476Y-145472380D02*
X82370476Y-144472380D01*
X82370476Y-144853333D02*
X82275238Y-144805714D01*
X82084761Y-144805714D01*
X81989523Y-144853333D01*
X81941904Y-144900952D01*
X81894285Y-144996190D01*
X81894285Y-145281904D01*
X81941904Y-145377142D01*
X81989523Y-145424761D01*
X82084761Y-145472380D01*
X82275238Y-145472380D01*
X82370476Y-145424761D01*
X100727619Y-147122380D02*
X100727619Y-146122380D01*
X100489523Y-146122380D01*
X100346666Y-146170000D01*
X100251428Y-146265238D01*
X100203809Y-146360476D01*
X100156190Y-146550952D01*
X100156190Y-146693809D01*
X100203809Y-146884285D01*
X100251428Y-146979523D01*
X100346666Y-147074761D01*
X100489523Y-147122380D01*
X100727619Y-147122380D01*
X99346666Y-147074761D02*
X99441904Y-147122380D01*
X99632380Y-147122380D01*
X99727619Y-147074761D01*
X99775238Y-146979523D01*
X99775238Y-146598571D01*
X99727619Y-146503333D01*
X99632380Y-146455714D01*
X99441904Y-146455714D01*
X99346666Y-146503333D01*
X99299047Y-146598571D01*
X99299047Y-146693809D01*
X99775238Y-146789047D01*
X98918095Y-147074761D02*
X98822857Y-147122380D01*
X98632380Y-147122380D01*
X98537142Y-147074761D01*
X98489523Y-146979523D01*
X98489523Y-146931904D01*
X98537142Y-146836666D01*
X98632380Y-146789047D01*
X98775238Y-146789047D01*
X98870476Y-146741428D01*
X98918095Y-146646190D01*
X98918095Y-146598571D01*
X98870476Y-146503333D01*
X98775238Y-146455714D01*
X98632380Y-146455714D01*
X98537142Y-146503333D01*
X98060952Y-147122380D02*
X98060952Y-146455714D01*
X98060952Y-146122380D02*
X98108571Y-146170000D01*
X98060952Y-146217619D01*
X98013333Y-146170000D01*
X98060952Y-146122380D01*
X98060952Y-146217619D01*
X97156190Y-146455714D02*
X97156190Y-147265238D01*
X97203809Y-147360476D01*
X97251428Y-147408095D01*
X97346666Y-147455714D01*
X97489523Y-147455714D01*
X97584761Y-147408095D01*
X97156190Y-147074761D02*
X97251428Y-147122380D01*
X97441904Y-147122380D01*
X97537142Y-147074761D01*
X97584761Y-147027142D01*
X97632380Y-146931904D01*
X97632380Y-146646190D01*
X97584761Y-146550952D01*
X97537142Y-146503333D01*
X97441904Y-146455714D01*
X97251428Y-146455714D01*
X97156190Y-146503333D01*
X96680000Y-146455714D02*
X96680000Y-147122380D01*
X96680000Y-146550952D02*
X96632380Y-146503333D01*
X96537142Y-146455714D01*
X96394285Y-146455714D01*
X96299047Y-146503333D01*
X96251428Y-146598571D01*
X96251428Y-147122380D01*
X95394285Y-147074761D02*
X95489523Y-147122380D01*
X95680000Y-147122380D01*
X95775238Y-147074761D01*
X95822857Y-146979523D01*
X95822857Y-146598571D01*
X95775238Y-146503333D01*
X95680000Y-146455714D01*
X95489523Y-146455714D01*
X95394285Y-146503333D01*
X95346666Y-146598571D01*
X95346666Y-146693809D01*
X95822857Y-146789047D01*
X94489523Y-147122380D02*
X94489523Y-146122380D01*
X94489523Y-147074761D02*
X94584761Y-147122380D01*
X94775238Y-147122380D01*
X94870476Y-147074761D01*
X94918095Y-147027142D01*
X94965714Y-146931904D01*
X94965714Y-146646190D01*
X94918095Y-146550952D01*
X94870476Y-146503333D01*
X94775238Y-146455714D01*
X94584761Y-146455714D01*
X94489523Y-146503333D01*
X93251428Y-147122380D02*
X93251428Y-146122380D01*
X93251428Y-146503333D02*
X93156190Y-146455714D01*
X92965714Y-146455714D01*
X92870476Y-146503333D01*
X92822857Y-146550952D01*
X92775238Y-146646190D01*
X92775238Y-146931904D01*
X92822857Y-147027142D01*
X92870476Y-147074761D01*
X92965714Y-147122380D01*
X93156190Y-147122380D01*
X93251428Y-147074761D01*
X92441904Y-146455714D02*
X92203809Y-147122380D01*
X91965714Y-146455714D02*
X92203809Y-147122380D01*
X92299047Y-147360476D01*
X92346666Y-147408095D01*
X92441904Y-147455714D01*
X90822857Y-147122380D02*
X90822857Y-146122380D01*
X90251428Y-147122380D02*
X90680000Y-146550952D01*
X90251428Y-146122380D02*
X90822857Y-146693809D01*
X89394285Y-147122380D02*
X89394285Y-146598571D01*
X89441904Y-146503333D01*
X89537142Y-146455714D01*
X89727619Y-146455714D01*
X89822857Y-146503333D01*
X89394285Y-147074761D02*
X89489523Y-147122380D01*
X89727619Y-147122380D01*
X89822857Y-147074761D01*
X89870476Y-146979523D01*
X89870476Y-146884285D01*
X89822857Y-146789047D01*
X89727619Y-146741428D01*
X89489523Y-146741428D01*
X89394285Y-146693809D01*
X89060952Y-146455714D02*
X88680000Y-146455714D01*
X88918095Y-146122380D02*
X88918095Y-146979523D01*
X88870476Y-147074761D01*
X88775238Y-147122380D01*
X88680000Y-147122380D01*
X88346666Y-147122380D02*
X88346666Y-146122380D01*
X87918095Y-147122380D02*
X87918095Y-146598571D01*
X87965714Y-146503333D01*
X88060952Y-146455714D01*
X88203809Y-146455714D01*
X88299047Y-146503333D01*
X88346666Y-146550952D01*
X87013333Y-147122380D02*
X87013333Y-146598571D01*
X87060952Y-146503333D01*
X87156190Y-146455714D01*
X87346666Y-146455714D01*
X87441904Y-146503333D01*
X87013333Y-147074761D02*
X87108571Y-147122380D01*
X87346666Y-147122380D01*
X87441904Y-147074761D01*
X87489523Y-146979523D01*
X87489523Y-146884285D01*
X87441904Y-146789047D01*
X87346666Y-146741428D01*
X87108571Y-146741428D01*
X87013333Y-146693809D01*
X86537142Y-147122380D02*
X86537142Y-146455714D01*
X86537142Y-146646190D02*
X86489523Y-146550952D01*
X86441904Y-146503333D01*
X86346666Y-146455714D01*
X86251428Y-146455714D01*
X85918095Y-147122380D02*
X85918095Y-146455714D01*
X85918095Y-146122380D02*
X85965714Y-146170000D01*
X85918095Y-146217619D01*
X85870476Y-146170000D01*
X85918095Y-146122380D01*
X85918095Y-146217619D01*
X85441904Y-146455714D02*
X85441904Y-147122380D01*
X85441904Y-146550952D02*
X85394285Y-146503333D01*
X85299047Y-146455714D01*
X85156190Y-146455714D01*
X85060952Y-146503333D01*
X85013333Y-146598571D01*
X85013333Y-147122380D01*
X84156190Y-147074761D02*
X84251428Y-147122380D01*
X84441904Y-147122380D01*
X84537142Y-147074761D01*
X84584761Y-146979523D01*
X84584761Y-146598571D01*
X84537142Y-146503333D01*
X84441904Y-146455714D01*
X84251428Y-146455714D01*
X84156190Y-146503333D01*
X84108571Y-146598571D01*
X84108571Y-146693809D01*
X84584761Y-146789047D01*
X82441904Y-147122380D02*
X82918095Y-147122380D01*
X82918095Y-146122380D01*
X81680000Y-146455714D02*
X81680000Y-147122380D01*
X82108571Y-146455714D02*
X82108571Y-146979523D01*
X82060952Y-147074761D01*
X81965714Y-147122380D01*
X81822857Y-147122380D01*
X81727619Y-147074761D01*
X81680000Y-147027142D01*
X81203809Y-146455714D02*
X81203809Y-147122380D01*
X81203809Y-146550952D02*
X81156190Y-146503333D01*
X81060952Y-146455714D01*
X80918095Y-146455714D01*
X80822857Y-146503333D01*
X80775238Y-146598571D01*
X80775238Y-147122380D01*
X79870476Y-147122380D02*
X79870476Y-146122380D01*
X79870476Y-147074761D02*
X79965714Y-147122380D01*
X80156190Y-147122380D01*
X80251428Y-147074761D01*
X80299047Y-147027142D01*
X80346666Y-146931904D01*
X80346666Y-146646190D01*
X80299047Y-146550952D01*
X80251428Y-146503333D01*
X80156190Y-146455714D01*
X79965714Y-146455714D01*
X79870476Y-146503333D01*
X79394285Y-147122380D02*
X79394285Y-146122380D01*
X79394285Y-146503333D02*
X79299047Y-146455714D01*
X79108571Y-146455714D01*
X79013333Y-146503333D01*
X78965714Y-146550952D01*
X78918095Y-146646190D01*
X78918095Y-146931904D01*
X78965714Y-147027142D01*
X79013333Y-147074761D01*
X79108571Y-147122380D01*
X79299047Y-147122380D01*
X79394285Y-147074761D01*
X78346666Y-147122380D02*
X78441904Y-147074761D01*
X78489523Y-146979523D01*
X78489523Y-146122380D01*
X77537142Y-147122380D02*
X77537142Y-146598571D01*
X77584761Y-146503333D01*
X77680000Y-146455714D01*
X77870476Y-146455714D01*
X77965714Y-146503333D01*
X77537142Y-147074761D02*
X77632380Y-147122380D01*
X77870476Y-147122380D01*
X77965714Y-147074761D01*
X78013333Y-146979523D01*
X78013333Y-146884285D01*
X77965714Y-146789047D01*
X77870476Y-146741428D01*
X77632380Y-146741428D01*
X77537142Y-146693809D01*
X76632380Y-147122380D02*
X76632380Y-146122380D01*
X76632380Y-147074761D02*
X76727619Y-147122380D01*
X76918095Y-147122380D01*
X77013333Y-147074761D01*
X77060952Y-147027142D01*
X77108571Y-146931904D01*
X77108571Y-146646190D01*
X77060952Y-146550952D01*
X77013333Y-146503333D01*
X76918095Y-146455714D01*
X76727619Y-146455714D01*
X76632380Y-146503333D01*
X147603333Y-143091428D02*
X146841428Y-143091428D01*
X145841428Y-143472380D02*
X146412857Y-143472380D01*
X146127142Y-143472380D02*
X146127142Y-142472380D01*
X146222380Y-142615238D01*
X146317619Y-142710476D01*
X146412857Y-142758095D01*
X145270000Y-142900952D02*
X145365238Y-142853333D01*
X145412857Y-142805714D01*
X145460476Y-142710476D01*
X145460476Y-142662857D01*
X145412857Y-142567619D01*
X145365238Y-142520000D01*
X145270000Y-142472380D01*
X145079523Y-142472380D01*
X144984285Y-142520000D01*
X144936666Y-142567619D01*
X144889047Y-142662857D01*
X144889047Y-142710476D01*
X144936666Y-142805714D01*
X144984285Y-142853333D01*
X145079523Y-142900952D01*
X145270000Y-142900952D01*
X145365238Y-142948571D01*
X145412857Y-142996190D01*
X145460476Y-143091428D01*
X145460476Y-143281904D01*
X145412857Y-143377142D01*
X145365238Y-143424761D01*
X145270000Y-143472380D01*
X145079523Y-143472380D01*
X144984285Y-143424761D01*
X144936666Y-143377142D01*
X144889047Y-143281904D01*
X144889047Y-143091428D01*
X144936666Y-142996190D01*
X144984285Y-142948571D01*
X145079523Y-142900952D01*
X143270000Y-143472380D02*
X143270000Y-142472380D01*
X143270000Y-143424761D02*
X143365238Y-143472380D01*
X143555714Y-143472380D01*
X143650952Y-143424761D01*
X143698571Y-143377142D01*
X143746190Y-143281904D01*
X143746190Y-142996190D01*
X143698571Y-142900952D01*
X143650952Y-142853333D01*
X143555714Y-142805714D01*
X143365238Y-142805714D01*
X143270000Y-142853333D01*
X142460476Y-142948571D02*
X142317619Y-142996190D01*
X142270000Y-143043809D01*
X142222380Y-143139047D01*
X142222380Y-143281904D01*
X142270000Y-143377142D01*
X142317619Y-143424761D01*
X142412857Y-143472380D01*
X142793809Y-143472380D01*
X142793809Y-142472380D01*
X142460476Y-142472380D01*
X142365238Y-142520000D01*
X142317619Y-142567619D01*
X142270000Y-142662857D01*
X142270000Y-142758095D01*
X142317619Y-142853333D01*
X142365238Y-142900952D01*
X142460476Y-142948571D01*
X142793809Y-142948571D01*
X141031904Y-143472380D02*
X141031904Y-142472380D01*
X140793809Y-142472380D01*
X140650952Y-142520000D01*
X140555714Y-142615238D01*
X140508095Y-142710476D01*
X140460476Y-142900952D01*
X140460476Y-143043809D01*
X140508095Y-143234285D01*
X140555714Y-143329523D01*
X140650952Y-143424761D01*
X140793809Y-143472380D01*
X141031904Y-143472380D01*
X140031904Y-143472380D02*
X140031904Y-142805714D01*
X140031904Y-142472380D02*
X140079523Y-142520000D01*
X140031904Y-142567619D01*
X139984285Y-142520000D01*
X140031904Y-142472380D01*
X140031904Y-142567619D01*
X139555714Y-143472380D02*
X139555714Y-142805714D01*
X139555714Y-142996190D02*
X139508095Y-142900952D01*
X139460476Y-142853333D01*
X139365238Y-142805714D01*
X139270000Y-142805714D01*
X138555714Y-143424761D02*
X138650952Y-143472380D01*
X138841428Y-143472380D01*
X138936666Y-143424761D01*
X138984285Y-143329523D01*
X138984285Y-142948571D01*
X138936666Y-142853333D01*
X138841428Y-142805714D01*
X138650952Y-142805714D01*
X138555714Y-142853333D01*
X138508095Y-142948571D01*
X138508095Y-143043809D01*
X138984285Y-143139047D01*
X137650952Y-143424761D02*
X137746190Y-143472380D01*
X137936666Y-143472380D01*
X138031904Y-143424761D01*
X138079523Y-143377142D01*
X138127142Y-143281904D01*
X138127142Y-142996190D01*
X138079523Y-142900952D01*
X138031904Y-142853333D01*
X137936666Y-142805714D01*
X137746190Y-142805714D01*
X137650952Y-142853333D01*
X137365238Y-142805714D02*
X136984285Y-142805714D01*
X137222380Y-142472380D02*
X137222380Y-143329523D01*
X137174761Y-143424761D01*
X137079523Y-143472380D01*
X136984285Y-143472380D01*
X136650952Y-143472380D02*
X136650952Y-142805714D01*
X136650952Y-142472380D02*
X136698571Y-142520000D01*
X136650952Y-142567619D01*
X136603333Y-142520000D01*
X136650952Y-142472380D01*
X136650952Y-142567619D01*
X136031904Y-143472380D02*
X136127142Y-143424761D01*
X136174761Y-143377142D01*
X136222380Y-143281904D01*
X136222380Y-142996190D01*
X136174761Y-142900952D01*
X136127142Y-142853333D01*
X136031904Y-142805714D01*
X135889047Y-142805714D01*
X135793809Y-142853333D01*
X135746190Y-142900952D01*
X135698571Y-142996190D01*
X135698571Y-143281904D01*
X135746190Y-143377142D01*
X135793809Y-143424761D01*
X135889047Y-143472380D01*
X136031904Y-143472380D01*
X135270000Y-142805714D02*
X135270000Y-143472380D01*
X135270000Y-142900952D02*
X135222380Y-142853333D01*
X135127142Y-142805714D01*
X134984285Y-142805714D01*
X134889047Y-142853333D01*
X134841428Y-142948571D01*
X134841428Y-143472380D01*
X133936666Y-143472380D02*
X133936666Y-142948571D01*
X133984285Y-142853333D01*
X134079523Y-142805714D01*
X134270000Y-142805714D01*
X134365238Y-142853333D01*
X133936666Y-143424761D02*
X134031904Y-143472380D01*
X134270000Y-143472380D01*
X134365238Y-143424761D01*
X134412857Y-143329523D01*
X134412857Y-143234285D01*
X134365238Y-143139047D01*
X134270000Y-143091428D01*
X134031904Y-143091428D01*
X133936666Y-143043809D01*
X133317619Y-143472380D02*
X133412857Y-143424761D01*
X133460476Y-143329523D01*
X133460476Y-142472380D01*
X131603333Y-143377142D02*
X131650952Y-143424761D01*
X131793809Y-143472380D01*
X131889047Y-143472380D01*
X132031904Y-143424761D01*
X132127142Y-143329523D01*
X132174761Y-143234285D01*
X132222380Y-143043809D01*
X132222380Y-142900952D01*
X132174761Y-142710476D01*
X132127142Y-142615238D01*
X132031904Y-142520000D01*
X131889047Y-142472380D01*
X131793809Y-142472380D01*
X131650952Y-142520000D01*
X131603333Y-142567619D01*
X131031904Y-143472380D02*
X131127142Y-143424761D01*
X131174761Y-143377142D01*
X131222380Y-143281904D01*
X131222380Y-142996190D01*
X131174761Y-142900952D01*
X131127142Y-142853333D01*
X131031904Y-142805714D01*
X130889047Y-142805714D01*
X130793809Y-142853333D01*
X130746190Y-142900952D01*
X130698571Y-142996190D01*
X130698571Y-143281904D01*
X130746190Y-143377142D01*
X130793809Y-143424761D01*
X130889047Y-143472380D01*
X131031904Y-143472380D01*
X129841428Y-142805714D02*
X129841428Y-143472380D01*
X130270000Y-142805714D02*
X130270000Y-143329523D01*
X130222380Y-143424761D01*
X130127142Y-143472380D01*
X129984285Y-143472380D01*
X129889047Y-143424761D01*
X129841428Y-143377142D01*
X129365238Y-142805714D02*
X129365238Y-143805714D01*
X129365238Y-142853333D02*
X129270000Y-142805714D01*
X129079523Y-142805714D01*
X128984285Y-142853333D01*
X128936666Y-142900952D01*
X128889047Y-142996190D01*
X128889047Y-143281904D01*
X128936666Y-143377142D01*
X128984285Y-143424761D01*
X129079523Y-143472380D01*
X129270000Y-143472380D01*
X129365238Y-143424761D01*
X128317619Y-143472380D02*
X128412857Y-143424761D01*
X128460476Y-143329523D01*
X128460476Y-142472380D01*
X127555714Y-143424761D02*
X127650952Y-143472380D01*
X127841428Y-143472380D01*
X127936666Y-143424761D01*
X127984285Y-143329523D01*
X127984285Y-142948571D01*
X127936666Y-142853333D01*
X127841428Y-142805714D01*
X127650952Y-142805714D01*
X127555714Y-142853333D01*
X127508095Y-142948571D01*
X127508095Y-143043809D01*
X127984285Y-143139047D01*
X127079523Y-143472380D02*
X127079523Y-142805714D01*
X127079523Y-142996190D02*
X127031904Y-142900952D01*
X126984285Y-142853333D01*
X126889047Y-142805714D01*
X126793809Y-142805714D01*
X144770000Y-145122380D02*
X144770000Y-144122380D01*
X144770000Y-144598571D02*
X144198571Y-144598571D01*
X144198571Y-145122380D02*
X144198571Y-144122380D01*
X143293809Y-144455714D02*
X143293809Y-145122380D01*
X143722380Y-144455714D02*
X143722380Y-144979523D01*
X143674761Y-145074761D01*
X143579523Y-145122380D01*
X143436666Y-145122380D01*
X143341428Y-145074761D01*
X143293809Y-145027142D01*
X142865238Y-145074761D02*
X142770000Y-145122380D01*
X142579523Y-145122380D01*
X142484285Y-145074761D01*
X142436666Y-144979523D01*
X142436666Y-144931904D01*
X142484285Y-144836666D01*
X142579523Y-144789047D01*
X142722380Y-144789047D01*
X142817619Y-144741428D01*
X142865238Y-144646190D01*
X142865238Y-144598571D01*
X142817619Y-144503333D01*
X142722380Y-144455714D01*
X142579523Y-144455714D01*
X142484285Y-144503333D01*
X142008095Y-145122380D02*
X142008095Y-144122380D01*
X141912857Y-144741428D02*
X141627142Y-145122380D01*
X141627142Y-144455714D02*
X142008095Y-144836666D01*
X141293809Y-144455714D02*
X141055714Y-145122380D01*
X140817619Y-144455714D02*
X141055714Y-145122380D01*
X141150952Y-145360476D01*
X141198571Y-145408095D01*
X141293809Y-145455714D01*
X139722380Y-145074761D02*
X139579523Y-145122380D01*
X139341428Y-145122380D01*
X139246190Y-145074761D01*
X139198571Y-145027142D01*
X139150952Y-144931904D01*
X139150952Y-144836666D01*
X139198571Y-144741428D01*
X139246190Y-144693809D01*
X139341428Y-144646190D01*
X139531904Y-144598571D01*
X139627142Y-144550952D01*
X139674761Y-144503333D01*
X139722380Y-144408095D01*
X139722380Y-144312857D01*
X139674761Y-144217619D01*
X139627142Y-144170000D01*
X139531904Y-144122380D01*
X139293809Y-144122380D01*
X139150952Y-144170000D01*
X138293809Y-145122380D02*
X138293809Y-144598571D01*
X138341428Y-144503333D01*
X138436666Y-144455714D01*
X138627142Y-144455714D01*
X138722380Y-144503333D01*
X138293809Y-145074761D02*
X138389047Y-145122380D01*
X138627142Y-145122380D01*
X138722380Y-145074761D01*
X138770000Y-144979523D01*
X138770000Y-144884285D01*
X138722380Y-144789047D01*
X138627142Y-144741428D01*
X138389047Y-144741428D01*
X138293809Y-144693809D01*
X137960476Y-144455714D02*
X137579523Y-144455714D01*
X137817619Y-144122380D02*
X137817619Y-144979523D01*
X137770000Y-145074761D01*
X137674761Y-145122380D01*
X137579523Y-145122380D01*
X136865238Y-145074761D02*
X136960476Y-145122380D01*
X137150952Y-145122380D01*
X137246190Y-145074761D01*
X137293809Y-144979523D01*
X137293809Y-144598571D01*
X137246190Y-144503333D01*
X137150952Y-144455714D01*
X136960476Y-144455714D01*
X136865238Y-144503333D01*
X136817619Y-144598571D01*
X136817619Y-144693809D01*
X137293809Y-144789047D01*
X136246190Y-145122380D02*
X136341428Y-145074761D01*
X136389047Y-144979523D01*
X136389047Y-144122380D01*
X135722380Y-145122380D02*
X135817619Y-145074761D01*
X135865238Y-144979523D01*
X135865238Y-144122380D01*
X135341428Y-145122380D02*
X135341428Y-144455714D01*
X135341428Y-144122380D02*
X135389047Y-144170000D01*
X135341428Y-144217619D01*
X135293809Y-144170000D01*
X135341428Y-144122380D01*
X135341428Y-144217619D01*
X135008095Y-144455714D02*
X134627142Y-144455714D01*
X134865238Y-144122380D02*
X134865238Y-144979523D01*
X134817619Y-145074761D01*
X134722380Y-145122380D01*
X134627142Y-145122380D01*
X133912857Y-145074761D02*
X134008095Y-145122380D01*
X134198571Y-145122380D01*
X134293809Y-145074761D01*
X134341428Y-144979523D01*
X134341428Y-144598571D01*
X134293809Y-144503333D01*
X134198571Y-144455714D01*
X134008095Y-144455714D01*
X133912857Y-144503333D01*
X133865238Y-144598571D01*
X133865238Y-144693809D01*
X134341428Y-144789047D01*
X132198571Y-145122380D02*
X132674761Y-145122380D01*
X132674761Y-144122380D01*
X131436666Y-145122380D02*
X131436666Y-144598571D01*
X131484285Y-144503333D01*
X131579523Y-144455714D01*
X131770000Y-144455714D01*
X131865238Y-144503333D01*
X131436666Y-145074761D02*
X131531904Y-145122380D01*
X131770000Y-145122380D01*
X131865238Y-145074761D01*
X131912857Y-144979523D01*
X131912857Y-144884285D01*
X131865238Y-144789047D01*
X131770000Y-144741428D01*
X131531904Y-144741428D01*
X131436666Y-144693809D01*
X130960476Y-145122380D02*
X130960476Y-144122380D01*
X130960476Y-144503333D02*
X130865238Y-144455714D01*
X130674761Y-144455714D01*
X130579523Y-144503333D01*
X130531904Y-144550952D01*
X130484285Y-144646190D01*
X130484285Y-144931904D01*
X130531904Y-145027142D01*
X130579523Y-145074761D01*
X130674761Y-145122380D01*
X130865238Y-145122380D01*
X130960476Y-145074761D01*
X149317619Y-146772380D02*
X149317619Y-145772380D01*
X149079523Y-145772380D01*
X148936666Y-145820000D01*
X148841428Y-145915238D01*
X148793809Y-146010476D01*
X148746190Y-146200952D01*
X148746190Y-146343809D01*
X148793809Y-146534285D01*
X148841428Y-146629523D01*
X148936666Y-146724761D01*
X149079523Y-146772380D01*
X149317619Y-146772380D01*
X147936666Y-146724761D02*
X148031904Y-146772380D01*
X148222380Y-146772380D01*
X148317619Y-146724761D01*
X148365238Y-146629523D01*
X148365238Y-146248571D01*
X148317619Y-146153333D01*
X148222380Y-146105714D01*
X148031904Y-146105714D01*
X147936666Y-146153333D01*
X147889047Y-146248571D01*
X147889047Y-146343809D01*
X148365238Y-146439047D01*
X147508095Y-146724761D02*
X147412857Y-146772380D01*
X147222380Y-146772380D01*
X147127142Y-146724761D01*
X147079523Y-146629523D01*
X147079523Y-146581904D01*
X147127142Y-146486666D01*
X147222380Y-146439047D01*
X147365238Y-146439047D01*
X147460476Y-146391428D01*
X147508095Y-146296190D01*
X147508095Y-146248571D01*
X147460476Y-146153333D01*
X147365238Y-146105714D01*
X147222380Y-146105714D01*
X147127142Y-146153333D01*
X146650952Y-146772380D02*
X146650952Y-146105714D01*
X146650952Y-145772380D02*
X146698571Y-145820000D01*
X146650952Y-145867619D01*
X146603333Y-145820000D01*
X146650952Y-145772380D01*
X146650952Y-145867619D01*
X145746190Y-146105714D02*
X145746190Y-146915238D01*
X145793809Y-147010476D01*
X145841428Y-147058095D01*
X145936666Y-147105714D01*
X146079523Y-147105714D01*
X146174761Y-147058095D01*
X145746190Y-146724761D02*
X145841428Y-146772380D01*
X146031904Y-146772380D01*
X146127142Y-146724761D01*
X146174761Y-146677142D01*
X146222380Y-146581904D01*
X146222380Y-146296190D01*
X146174761Y-146200952D01*
X146127142Y-146153333D01*
X146031904Y-146105714D01*
X145841428Y-146105714D01*
X145746190Y-146153333D01*
X145270000Y-146105714D02*
X145270000Y-146772380D01*
X145270000Y-146200952D02*
X145222380Y-146153333D01*
X145127142Y-146105714D01*
X144984285Y-146105714D01*
X144889047Y-146153333D01*
X144841428Y-146248571D01*
X144841428Y-146772380D01*
X143984285Y-146724761D02*
X144079523Y-146772380D01*
X144270000Y-146772380D01*
X144365238Y-146724761D01*
X144412857Y-146629523D01*
X144412857Y-146248571D01*
X144365238Y-146153333D01*
X144270000Y-146105714D01*
X144079523Y-146105714D01*
X143984285Y-146153333D01*
X143936666Y-146248571D01*
X143936666Y-146343809D01*
X144412857Y-146439047D01*
X143079523Y-146772380D02*
X143079523Y-145772380D01*
X143079523Y-146724761D02*
X143174761Y-146772380D01*
X143365238Y-146772380D01*
X143460476Y-146724761D01*
X143508095Y-146677142D01*
X143555714Y-146581904D01*
X143555714Y-146296190D01*
X143508095Y-146200952D01*
X143460476Y-146153333D01*
X143365238Y-146105714D01*
X143174761Y-146105714D01*
X143079523Y-146153333D01*
X141841428Y-146772380D02*
X141841428Y-145772380D01*
X141841428Y-146153333D02*
X141746190Y-146105714D01*
X141555714Y-146105714D01*
X141460476Y-146153333D01*
X141412857Y-146200952D01*
X141365238Y-146296190D01*
X141365238Y-146581904D01*
X141412857Y-146677142D01*
X141460476Y-146724761D01*
X141555714Y-146772380D01*
X141746190Y-146772380D01*
X141841428Y-146724761D01*
X141031904Y-146105714D02*
X140793809Y-146772380D01*
X140555714Y-146105714D02*
X140793809Y-146772380D01*
X140889047Y-147010476D01*
X140936666Y-147058095D01*
X141031904Y-147105714D01*
X139412857Y-146772380D02*
X139412857Y-145772380D01*
X138841428Y-146772380D02*
X139270000Y-146200952D01*
X138841428Y-145772380D02*
X139412857Y-146343809D01*
X137984285Y-146772380D02*
X137984285Y-146248571D01*
X138031904Y-146153333D01*
X138127142Y-146105714D01*
X138317619Y-146105714D01*
X138412857Y-146153333D01*
X137984285Y-146724761D02*
X138079523Y-146772380D01*
X138317619Y-146772380D01*
X138412857Y-146724761D01*
X138460476Y-146629523D01*
X138460476Y-146534285D01*
X138412857Y-146439047D01*
X138317619Y-146391428D01*
X138079523Y-146391428D01*
X137984285Y-146343809D01*
X137650952Y-146105714D02*
X137270000Y-146105714D01*
X137508095Y-145772380D02*
X137508095Y-146629523D01*
X137460476Y-146724761D01*
X137365238Y-146772380D01*
X137270000Y-146772380D01*
X136936666Y-146772380D02*
X136936666Y-145772380D01*
X136508095Y-146772380D02*
X136508095Y-146248571D01*
X136555714Y-146153333D01*
X136650952Y-146105714D01*
X136793809Y-146105714D01*
X136889047Y-146153333D01*
X136936666Y-146200952D01*
X135603333Y-146772380D02*
X135603333Y-146248571D01*
X135650952Y-146153333D01*
X135746190Y-146105714D01*
X135936666Y-146105714D01*
X136031904Y-146153333D01*
X135603333Y-146724761D02*
X135698571Y-146772380D01*
X135936666Y-146772380D01*
X136031904Y-146724761D01*
X136079523Y-146629523D01*
X136079523Y-146534285D01*
X136031904Y-146439047D01*
X135936666Y-146391428D01*
X135698571Y-146391428D01*
X135603333Y-146343809D01*
X135127142Y-146772380D02*
X135127142Y-146105714D01*
X135127142Y-146296190D02*
X135079523Y-146200952D01*
X135031904Y-146153333D01*
X134936666Y-146105714D01*
X134841428Y-146105714D01*
X134508095Y-146772380D02*
X134508095Y-146105714D01*
X134508095Y-145772380D02*
X134555714Y-145820000D01*
X134508095Y-145867619D01*
X134460476Y-145820000D01*
X134508095Y-145772380D01*
X134508095Y-145867619D01*
X134031904Y-146105714D02*
X134031904Y-146772380D01*
X134031904Y-146200952D02*
X133984285Y-146153333D01*
X133889047Y-146105714D01*
X133746190Y-146105714D01*
X133650952Y-146153333D01*
X133603333Y-146248571D01*
X133603333Y-146772380D01*
X132746190Y-146724761D02*
X132841428Y-146772380D01*
X133031904Y-146772380D01*
X133127142Y-146724761D01*
X133174761Y-146629523D01*
X133174761Y-146248571D01*
X133127142Y-146153333D01*
X133031904Y-146105714D01*
X132841428Y-146105714D01*
X132746190Y-146153333D01*
X132698571Y-146248571D01*
X132698571Y-146343809D01*
X133174761Y-146439047D01*
X131031904Y-146772380D02*
X131508095Y-146772380D01*
X131508095Y-145772380D01*
X130270000Y-146105714D02*
X130270000Y-146772380D01*
X130698571Y-146105714D02*
X130698571Y-146629523D01*
X130650952Y-146724761D01*
X130555714Y-146772380D01*
X130412857Y-146772380D01*
X130317619Y-146724761D01*
X130270000Y-146677142D01*
X129793809Y-146105714D02*
X129793809Y-146772380D01*
X129793809Y-146200952D02*
X129746190Y-146153333D01*
X129650952Y-146105714D01*
X129508095Y-146105714D01*
X129412857Y-146153333D01*
X129365238Y-146248571D01*
X129365238Y-146772380D01*
X128460476Y-146772380D02*
X128460476Y-145772380D01*
X128460476Y-146724761D02*
X128555714Y-146772380D01*
X128746190Y-146772380D01*
X128841428Y-146724761D01*
X128889047Y-146677142D01*
X128936666Y-146581904D01*
X128936666Y-146296190D01*
X128889047Y-146200952D01*
X128841428Y-146153333D01*
X128746190Y-146105714D01*
X128555714Y-146105714D01*
X128460476Y-146153333D01*
X127984285Y-146772380D02*
X127984285Y-145772380D01*
X127984285Y-146153333D02*
X127889047Y-146105714D01*
X127698571Y-146105714D01*
X127603333Y-146153333D01*
X127555714Y-146200952D01*
X127508095Y-146296190D01*
X127508095Y-146581904D01*
X127555714Y-146677142D01*
X127603333Y-146724761D01*
X127698571Y-146772380D01*
X127889047Y-146772380D01*
X127984285Y-146724761D01*
X126936666Y-146772380D02*
X127031904Y-146724761D01*
X127079523Y-146629523D01*
X127079523Y-145772380D01*
X126127142Y-146772380D02*
X126127142Y-146248571D01*
X126174761Y-146153333D01*
X126270000Y-146105714D01*
X126460476Y-146105714D01*
X126555714Y-146153333D01*
X126127142Y-146724761D02*
X126222380Y-146772380D01*
X126460476Y-146772380D01*
X126555714Y-146724761D01*
X126603333Y-146629523D01*
X126603333Y-146534285D01*
X126555714Y-146439047D01*
X126460476Y-146391428D01*
X126222380Y-146391428D01*
X126127142Y-146343809D01*
X125222380Y-146772380D02*
X125222380Y-145772380D01*
X125222380Y-146724761D02*
X125317619Y-146772380D01*
X125508095Y-146772380D01*
X125603333Y-146724761D01*
X125650952Y-146677142D01*
X125698571Y-146581904D01*
X125698571Y-146296190D01*
X125650952Y-146200952D01*
X125603333Y-146153333D01*
X125508095Y-146105714D01*
X125317619Y-146105714D01*
X125222380Y-146153333D01*
X147483333Y-109301428D02*
X146721428Y-109301428D01*
X145721428Y-109682380D02*
X146292857Y-109682380D01*
X146007142Y-109682380D02*
X146007142Y-108682380D01*
X146102380Y-108825238D01*
X146197619Y-108920476D01*
X146292857Y-108968095D01*
X144864285Y-109015714D02*
X144864285Y-109682380D01*
X145102380Y-108634761D02*
X145340476Y-109349047D01*
X144721428Y-109349047D01*
X143150000Y-109682380D02*
X143150000Y-108682380D01*
X143150000Y-109634761D02*
X143245238Y-109682380D01*
X143435714Y-109682380D01*
X143530952Y-109634761D01*
X143578571Y-109587142D01*
X143626190Y-109491904D01*
X143626190Y-109206190D01*
X143578571Y-109110952D01*
X143530952Y-109063333D01*
X143435714Y-109015714D01*
X143245238Y-109015714D01*
X143150000Y-109063333D01*
X142340476Y-109158571D02*
X142197619Y-109206190D01*
X142150000Y-109253809D01*
X142102380Y-109349047D01*
X142102380Y-109491904D01*
X142150000Y-109587142D01*
X142197619Y-109634761D01*
X142292857Y-109682380D01*
X142673809Y-109682380D01*
X142673809Y-108682380D01*
X142340476Y-108682380D01*
X142245238Y-108730000D01*
X142197619Y-108777619D01*
X142150000Y-108872857D01*
X142150000Y-108968095D01*
X142197619Y-109063333D01*
X142245238Y-109110952D01*
X142340476Y-109158571D01*
X142673809Y-109158571D01*
X140911904Y-109682380D02*
X140911904Y-108682380D01*
X140673809Y-108682380D01*
X140530952Y-108730000D01*
X140435714Y-108825238D01*
X140388095Y-108920476D01*
X140340476Y-109110952D01*
X140340476Y-109253809D01*
X140388095Y-109444285D01*
X140435714Y-109539523D01*
X140530952Y-109634761D01*
X140673809Y-109682380D01*
X140911904Y-109682380D01*
X139911904Y-109682380D02*
X139911904Y-109015714D01*
X139911904Y-108682380D02*
X139959523Y-108730000D01*
X139911904Y-108777619D01*
X139864285Y-108730000D01*
X139911904Y-108682380D01*
X139911904Y-108777619D01*
X139435714Y-109682380D02*
X139435714Y-109015714D01*
X139435714Y-109206190D02*
X139388095Y-109110952D01*
X139340476Y-109063333D01*
X139245238Y-109015714D01*
X139150000Y-109015714D01*
X138435714Y-109634761D02*
X138530952Y-109682380D01*
X138721428Y-109682380D01*
X138816666Y-109634761D01*
X138864285Y-109539523D01*
X138864285Y-109158571D01*
X138816666Y-109063333D01*
X138721428Y-109015714D01*
X138530952Y-109015714D01*
X138435714Y-109063333D01*
X138388095Y-109158571D01*
X138388095Y-109253809D01*
X138864285Y-109349047D01*
X137530952Y-109634761D02*
X137626190Y-109682380D01*
X137816666Y-109682380D01*
X137911904Y-109634761D01*
X137959523Y-109587142D01*
X138007142Y-109491904D01*
X138007142Y-109206190D01*
X137959523Y-109110952D01*
X137911904Y-109063333D01*
X137816666Y-109015714D01*
X137626190Y-109015714D01*
X137530952Y-109063333D01*
X137245238Y-109015714D02*
X136864285Y-109015714D01*
X137102380Y-108682380D02*
X137102380Y-109539523D01*
X137054761Y-109634761D01*
X136959523Y-109682380D01*
X136864285Y-109682380D01*
X136530952Y-109682380D02*
X136530952Y-109015714D01*
X136530952Y-108682380D02*
X136578571Y-108730000D01*
X136530952Y-108777619D01*
X136483333Y-108730000D01*
X136530952Y-108682380D01*
X136530952Y-108777619D01*
X135911904Y-109682380D02*
X136007142Y-109634761D01*
X136054761Y-109587142D01*
X136102380Y-109491904D01*
X136102380Y-109206190D01*
X136054761Y-109110952D01*
X136007142Y-109063333D01*
X135911904Y-109015714D01*
X135769047Y-109015714D01*
X135673809Y-109063333D01*
X135626190Y-109110952D01*
X135578571Y-109206190D01*
X135578571Y-109491904D01*
X135626190Y-109587142D01*
X135673809Y-109634761D01*
X135769047Y-109682380D01*
X135911904Y-109682380D01*
X135150000Y-109015714D02*
X135150000Y-109682380D01*
X135150000Y-109110952D02*
X135102380Y-109063333D01*
X135007142Y-109015714D01*
X134864285Y-109015714D01*
X134769047Y-109063333D01*
X134721428Y-109158571D01*
X134721428Y-109682380D01*
X133816666Y-109682380D02*
X133816666Y-109158571D01*
X133864285Y-109063333D01*
X133959523Y-109015714D01*
X134150000Y-109015714D01*
X134245238Y-109063333D01*
X133816666Y-109634761D02*
X133911904Y-109682380D01*
X134150000Y-109682380D01*
X134245238Y-109634761D01*
X134292857Y-109539523D01*
X134292857Y-109444285D01*
X134245238Y-109349047D01*
X134150000Y-109301428D01*
X133911904Y-109301428D01*
X133816666Y-109253809D01*
X133197619Y-109682380D02*
X133292857Y-109634761D01*
X133340476Y-109539523D01*
X133340476Y-108682380D01*
X131483333Y-109587142D02*
X131530952Y-109634761D01*
X131673809Y-109682380D01*
X131769047Y-109682380D01*
X131911904Y-109634761D01*
X132007142Y-109539523D01*
X132054761Y-109444285D01*
X132102380Y-109253809D01*
X132102380Y-109110952D01*
X132054761Y-108920476D01*
X132007142Y-108825238D01*
X131911904Y-108730000D01*
X131769047Y-108682380D01*
X131673809Y-108682380D01*
X131530952Y-108730000D01*
X131483333Y-108777619D01*
X130911904Y-109682380D02*
X131007142Y-109634761D01*
X131054761Y-109587142D01*
X131102380Y-109491904D01*
X131102380Y-109206190D01*
X131054761Y-109110952D01*
X131007142Y-109063333D01*
X130911904Y-109015714D01*
X130769047Y-109015714D01*
X130673809Y-109063333D01*
X130626190Y-109110952D01*
X130578571Y-109206190D01*
X130578571Y-109491904D01*
X130626190Y-109587142D01*
X130673809Y-109634761D01*
X130769047Y-109682380D01*
X130911904Y-109682380D01*
X129721428Y-109015714D02*
X129721428Y-109682380D01*
X130150000Y-109015714D02*
X130150000Y-109539523D01*
X130102380Y-109634761D01*
X130007142Y-109682380D01*
X129864285Y-109682380D01*
X129769047Y-109634761D01*
X129721428Y-109587142D01*
X129245238Y-109015714D02*
X129245238Y-110015714D01*
X129245238Y-109063333D02*
X129150000Y-109015714D01*
X128959523Y-109015714D01*
X128864285Y-109063333D01*
X128816666Y-109110952D01*
X128769047Y-109206190D01*
X128769047Y-109491904D01*
X128816666Y-109587142D01*
X128864285Y-109634761D01*
X128959523Y-109682380D01*
X129150000Y-109682380D01*
X129245238Y-109634761D01*
X128197619Y-109682380D02*
X128292857Y-109634761D01*
X128340476Y-109539523D01*
X128340476Y-108682380D01*
X127435714Y-109634761D02*
X127530952Y-109682380D01*
X127721428Y-109682380D01*
X127816666Y-109634761D01*
X127864285Y-109539523D01*
X127864285Y-109158571D01*
X127816666Y-109063333D01*
X127721428Y-109015714D01*
X127530952Y-109015714D01*
X127435714Y-109063333D01*
X127388095Y-109158571D01*
X127388095Y-109253809D01*
X127864285Y-109349047D01*
X126959523Y-109682380D02*
X126959523Y-109015714D01*
X126959523Y-109206190D02*
X126911904Y-109110952D01*
X126864285Y-109063333D01*
X126769047Y-109015714D01*
X126673809Y-109015714D01*
X144650000Y-111332380D02*
X144650000Y-110332380D01*
X144650000Y-110808571D02*
X144078571Y-110808571D01*
X144078571Y-111332380D02*
X144078571Y-110332380D01*
X143173809Y-110665714D02*
X143173809Y-111332380D01*
X143602380Y-110665714D02*
X143602380Y-111189523D01*
X143554761Y-111284761D01*
X143459523Y-111332380D01*
X143316666Y-111332380D01*
X143221428Y-111284761D01*
X143173809Y-111237142D01*
X142745238Y-111284761D02*
X142650000Y-111332380D01*
X142459523Y-111332380D01*
X142364285Y-111284761D01*
X142316666Y-111189523D01*
X142316666Y-111141904D01*
X142364285Y-111046666D01*
X142459523Y-110999047D01*
X142602380Y-110999047D01*
X142697619Y-110951428D01*
X142745238Y-110856190D01*
X142745238Y-110808571D01*
X142697619Y-110713333D01*
X142602380Y-110665714D01*
X142459523Y-110665714D01*
X142364285Y-110713333D01*
X141888095Y-111332380D02*
X141888095Y-110332380D01*
X141792857Y-110951428D02*
X141507142Y-111332380D01*
X141507142Y-110665714D02*
X141888095Y-111046666D01*
X141173809Y-110665714D02*
X140935714Y-111332380D01*
X140697619Y-110665714D02*
X140935714Y-111332380D01*
X141030952Y-111570476D01*
X141078571Y-111618095D01*
X141173809Y-111665714D01*
X139602380Y-111284761D02*
X139459523Y-111332380D01*
X139221428Y-111332380D01*
X139126190Y-111284761D01*
X139078571Y-111237142D01*
X139030952Y-111141904D01*
X139030952Y-111046666D01*
X139078571Y-110951428D01*
X139126190Y-110903809D01*
X139221428Y-110856190D01*
X139411904Y-110808571D01*
X139507142Y-110760952D01*
X139554761Y-110713333D01*
X139602380Y-110618095D01*
X139602380Y-110522857D01*
X139554761Y-110427619D01*
X139507142Y-110380000D01*
X139411904Y-110332380D01*
X139173809Y-110332380D01*
X139030952Y-110380000D01*
X138173809Y-111332380D02*
X138173809Y-110808571D01*
X138221428Y-110713333D01*
X138316666Y-110665714D01*
X138507142Y-110665714D01*
X138602380Y-110713333D01*
X138173809Y-111284761D02*
X138269047Y-111332380D01*
X138507142Y-111332380D01*
X138602380Y-111284761D01*
X138650000Y-111189523D01*
X138650000Y-111094285D01*
X138602380Y-110999047D01*
X138507142Y-110951428D01*
X138269047Y-110951428D01*
X138173809Y-110903809D01*
X137840476Y-110665714D02*
X137459523Y-110665714D01*
X137697619Y-110332380D02*
X137697619Y-111189523D01*
X137650000Y-111284761D01*
X137554761Y-111332380D01*
X137459523Y-111332380D01*
X136745238Y-111284761D02*
X136840476Y-111332380D01*
X137030952Y-111332380D01*
X137126190Y-111284761D01*
X137173809Y-111189523D01*
X137173809Y-110808571D01*
X137126190Y-110713333D01*
X137030952Y-110665714D01*
X136840476Y-110665714D01*
X136745238Y-110713333D01*
X136697619Y-110808571D01*
X136697619Y-110903809D01*
X137173809Y-110999047D01*
X136126190Y-111332380D02*
X136221428Y-111284761D01*
X136269047Y-111189523D01*
X136269047Y-110332380D01*
X135602380Y-111332380D02*
X135697619Y-111284761D01*
X135745238Y-111189523D01*
X135745238Y-110332380D01*
X135221428Y-111332380D02*
X135221428Y-110665714D01*
X135221428Y-110332380D02*
X135269047Y-110380000D01*
X135221428Y-110427619D01*
X135173809Y-110380000D01*
X135221428Y-110332380D01*
X135221428Y-110427619D01*
X134888095Y-110665714D02*
X134507142Y-110665714D01*
X134745238Y-110332380D02*
X134745238Y-111189523D01*
X134697619Y-111284761D01*
X134602380Y-111332380D01*
X134507142Y-111332380D01*
X133792857Y-111284761D02*
X133888095Y-111332380D01*
X134078571Y-111332380D01*
X134173809Y-111284761D01*
X134221428Y-111189523D01*
X134221428Y-110808571D01*
X134173809Y-110713333D01*
X134078571Y-110665714D01*
X133888095Y-110665714D01*
X133792857Y-110713333D01*
X133745238Y-110808571D01*
X133745238Y-110903809D01*
X134221428Y-110999047D01*
X132078571Y-111332380D02*
X132554761Y-111332380D01*
X132554761Y-110332380D01*
X131316666Y-111332380D02*
X131316666Y-110808571D01*
X131364285Y-110713333D01*
X131459523Y-110665714D01*
X131650000Y-110665714D01*
X131745238Y-110713333D01*
X131316666Y-111284761D02*
X131411904Y-111332380D01*
X131650000Y-111332380D01*
X131745238Y-111284761D01*
X131792857Y-111189523D01*
X131792857Y-111094285D01*
X131745238Y-110999047D01*
X131650000Y-110951428D01*
X131411904Y-110951428D01*
X131316666Y-110903809D01*
X130840476Y-111332380D02*
X130840476Y-110332380D01*
X130840476Y-110713333D02*
X130745238Y-110665714D01*
X130554761Y-110665714D01*
X130459523Y-110713333D01*
X130411904Y-110760952D01*
X130364285Y-110856190D01*
X130364285Y-111141904D01*
X130411904Y-111237142D01*
X130459523Y-111284761D01*
X130554761Y-111332380D01*
X130745238Y-111332380D01*
X130840476Y-111284761D01*
X149197619Y-112982380D02*
X149197619Y-111982380D01*
X148959523Y-111982380D01*
X148816666Y-112030000D01*
X148721428Y-112125238D01*
X148673809Y-112220476D01*
X148626190Y-112410952D01*
X148626190Y-112553809D01*
X148673809Y-112744285D01*
X148721428Y-112839523D01*
X148816666Y-112934761D01*
X148959523Y-112982380D01*
X149197619Y-112982380D01*
X147816666Y-112934761D02*
X147911904Y-112982380D01*
X148102380Y-112982380D01*
X148197619Y-112934761D01*
X148245238Y-112839523D01*
X148245238Y-112458571D01*
X148197619Y-112363333D01*
X148102380Y-112315714D01*
X147911904Y-112315714D01*
X147816666Y-112363333D01*
X147769047Y-112458571D01*
X147769047Y-112553809D01*
X148245238Y-112649047D01*
X147388095Y-112934761D02*
X147292857Y-112982380D01*
X147102380Y-112982380D01*
X147007142Y-112934761D01*
X146959523Y-112839523D01*
X146959523Y-112791904D01*
X147007142Y-112696666D01*
X147102380Y-112649047D01*
X147245238Y-112649047D01*
X147340476Y-112601428D01*
X147388095Y-112506190D01*
X147388095Y-112458571D01*
X147340476Y-112363333D01*
X147245238Y-112315714D01*
X147102380Y-112315714D01*
X147007142Y-112363333D01*
X146530952Y-112982380D02*
X146530952Y-112315714D01*
X146530952Y-111982380D02*
X146578571Y-112030000D01*
X146530952Y-112077619D01*
X146483333Y-112030000D01*
X146530952Y-111982380D01*
X146530952Y-112077619D01*
X145626190Y-112315714D02*
X145626190Y-113125238D01*
X145673809Y-113220476D01*
X145721428Y-113268095D01*
X145816666Y-113315714D01*
X145959523Y-113315714D01*
X146054761Y-113268095D01*
X145626190Y-112934761D02*
X145721428Y-112982380D01*
X145911904Y-112982380D01*
X146007142Y-112934761D01*
X146054761Y-112887142D01*
X146102380Y-112791904D01*
X146102380Y-112506190D01*
X146054761Y-112410952D01*
X146007142Y-112363333D01*
X145911904Y-112315714D01*
X145721428Y-112315714D01*
X145626190Y-112363333D01*
X145150000Y-112315714D02*
X145150000Y-112982380D01*
X145150000Y-112410952D02*
X145102380Y-112363333D01*
X145007142Y-112315714D01*
X144864285Y-112315714D01*
X144769047Y-112363333D01*
X144721428Y-112458571D01*
X144721428Y-112982380D01*
X143864285Y-112934761D02*
X143959523Y-112982380D01*
X144150000Y-112982380D01*
X144245238Y-112934761D01*
X144292857Y-112839523D01*
X144292857Y-112458571D01*
X144245238Y-112363333D01*
X144150000Y-112315714D01*
X143959523Y-112315714D01*
X143864285Y-112363333D01*
X143816666Y-112458571D01*
X143816666Y-112553809D01*
X144292857Y-112649047D01*
X142959523Y-112982380D02*
X142959523Y-111982380D01*
X142959523Y-112934761D02*
X143054761Y-112982380D01*
X143245238Y-112982380D01*
X143340476Y-112934761D01*
X143388095Y-112887142D01*
X143435714Y-112791904D01*
X143435714Y-112506190D01*
X143388095Y-112410952D01*
X143340476Y-112363333D01*
X143245238Y-112315714D01*
X143054761Y-112315714D01*
X142959523Y-112363333D01*
X141721428Y-112982380D02*
X141721428Y-111982380D01*
X141721428Y-112363333D02*
X141626190Y-112315714D01*
X141435714Y-112315714D01*
X141340476Y-112363333D01*
X141292857Y-112410952D01*
X141245238Y-112506190D01*
X141245238Y-112791904D01*
X141292857Y-112887142D01*
X141340476Y-112934761D01*
X141435714Y-112982380D01*
X141626190Y-112982380D01*
X141721428Y-112934761D01*
X140911904Y-112315714D02*
X140673809Y-112982380D01*
X140435714Y-112315714D02*
X140673809Y-112982380D01*
X140769047Y-113220476D01*
X140816666Y-113268095D01*
X140911904Y-113315714D01*
X139292857Y-112982380D02*
X139292857Y-111982380D01*
X138721428Y-112982380D02*
X139150000Y-112410952D01*
X138721428Y-111982380D02*
X139292857Y-112553809D01*
X137864285Y-112982380D02*
X137864285Y-112458571D01*
X137911904Y-112363333D01*
X138007142Y-112315714D01*
X138197619Y-112315714D01*
X138292857Y-112363333D01*
X137864285Y-112934761D02*
X137959523Y-112982380D01*
X138197619Y-112982380D01*
X138292857Y-112934761D01*
X138340476Y-112839523D01*
X138340476Y-112744285D01*
X138292857Y-112649047D01*
X138197619Y-112601428D01*
X137959523Y-112601428D01*
X137864285Y-112553809D01*
X137530952Y-112315714D02*
X137150000Y-112315714D01*
X137388095Y-111982380D02*
X137388095Y-112839523D01*
X137340476Y-112934761D01*
X137245238Y-112982380D01*
X137150000Y-112982380D01*
X136816666Y-112982380D02*
X136816666Y-111982380D01*
X136388095Y-112982380D02*
X136388095Y-112458571D01*
X136435714Y-112363333D01*
X136530952Y-112315714D01*
X136673809Y-112315714D01*
X136769047Y-112363333D01*
X136816666Y-112410952D01*
X135483333Y-112982380D02*
X135483333Y-112458571D01*
X135530952Y-112363333D01*
X135626190Y-112315714D01*
X135816666Y-112315714D01*
X135911904Y-112363333D01*
X135483333Y-112934761D02*
X135578571Y-112982380D01*
X135816666Y-112982380D01*
X135911904Y-112934761D01*
X135959523Y-112839523D01*
X135959523Y-112744285D01*
X135911904Y-112649047D01*
X135816666Y-112601428D01*
X135578571Y-112601428D01*
X135483333Y-112553809D01*
X135007142Y-112982380D02*
X135007142Y-112315714D01*
X135007142Y-112506190D02*
X134959523Y-112410952D01*
X134911904Y-112363333D01*
X134816666Y-112315714D01*
X134721428Y-112315714D01*
X134388095Y-112982380D02*
X134388095Y-112315714D01*
X134388095Y-111982380D02*
X134435714Y-112030000D01*
X134388095Y-112077619D01*
X134340476Y-112030000D01*
X134388095Y-111982380D01*
X134388095Y-112077619D01*
X133911904Y-112315714D02*
X133911904Y-112982380D01*
X133911904Y-112410952D02*
X133864285Y-112363333D01*
X133769047Y-112315714D01*
X133626190Y-112315714D01*
X133530952Y-112363333D01*
X133483333Y-112458571D01*
X133483333Y-112982380D01*
X132626190Y-112934761D02*
X132721428Y-112982380D01*
X132911904Y-112982380D01*
X133007142Y-112934761D01*
X133054761Y-112839523D01*
X133054761Y-112458571D01*
X133007142Y-112363333D01*
X132911904Y-112315714D01*
X132721428Y-112315714D01*
X132626190Y-112363333D01*
X132578571Y-112458571D01*
X132578571Y-112553809D01*
X133054761Y-112649047D01*
X130911904Y-112982380D02*
X131388095Y-112982380D01*
X131388095Y-111982380D01*
X130150000Y-112315714D02*
X130150000Y-112982380D01*
X130578571Y-112315714D02*
X130578571Y-112839523D01*
X130530952Y-112934761D01*
X130435714Y-112982380D01*
X130292857Y-112982380D01*
X130197619Y-112934761D01*
X130150000Y-112887142D01*
X129673809Y-112315714D02*
X129673809Y-112982380D01*
X129673809Y-112410952D02*
X129626190Y-112363333D01*
X129530952Y-112315714D01*
X129388095Y-112315714D01*
X129292857Y-112363333D01*
X129245238Y-112458571D01*
X129245238Y-112982380D01*
X128340476Y-112982380D02*
X128340476Y-111982380D01*
X128340476Y-112934761D02*
X128435714Y-112982380D01*
X128626190Y-112982380D01*
X128721428Y-112934761D01*
X128769047Y-112887142D01*
X128816666Y-112791904D01*
X128816666Y-112506190D01*
X128769047Y-112410952D01*
X128721428Y-112363333D01*
X128626190Y-112315714D01*
X128435714Y-112315714D01*
X128340476Y-112363333D01*
X127864285Y-112982380D02*
X127864285Y-111982380D01*
X127864285Y-112363333D02*
X127769047Y-112315714D01*
X127578571Y-112315714D01*
X127483333Y-112363333D01*
X127435714Y-112410952D01*
X127388095Y-112506190D01*
X127388095Y-112791904D01*
X127435714Y-112887142D01*
X127483333Y-112934761D01*
X127578571Y-112982380D01*
X127769047Y-112982380D01*
X127864285Y-112934761D01*
X126816666Y-112982380D02*
X126911904Y-112934761D01*
X126959523Y-112839523D01*
X126959523Y-111982380D01*
X126007142Y-112982380D02*
X126007142Y-112458571D01*
X126054761Y-112363333D01*
X126150000Y-112315714D01*
X126340476Y-112315714D01*
X126435714Y-112363333D01*
X126007142Y-112934761D02*
X126102380Y-112982380D01*
X126340476Y-112982380D01*
X126435714Y-112934761D01*
X126483333Y-112839523D01*
X126483333Y-112744285D01*
X126435714Y-112649047D01*
X126340476Y-112601428D01*
X126102380Y-112601428D01*
X126007142Y-112553809D01*
X125102380Y-112982380D02*
X125102380Y-111982380D01*
X125102380Y-112934761D02*
X125197619Y-112982380D01*
X125388095Y-112982380D01*
X125483333Y-112934761D01*
X125530952Y-112887142D01*
X125578571Y-112791904D01*
X125578571Y-112506190D01*
X125530952Y-112410952D01*
X125483333Y-112363333D01*
X125388095Y-112315714D01*
X125197619Y-112315714D01*
X125102380Y-112363333D01*
X98663333Y-109541428D02*
X97901428Y-109541428D01*
X97472857Y-109017619D02*
X97425238Y-108970000D01*
X97330000Y-108922380D01*
X97091904Y-108922380D01*
X96996666Y-108970000D01*
X96949047Y-109017619D01*
X96901428Y-109112857D01*
X96901428Y-109208095D01*
X96949047Y-109350952D01*
X97520476Y-109922380D01*
X96901428Y-109922380D01*
X96282380Y-108922380D02*
X96187142Y-108922380D01*
X96091904Y-108970000D01*
X96044285Y-109017619D01*
X95996666Y-109112857D01*
X95949047Y-109303333D01*
X95949047Y-109541428D01*
X95996666Y-109731904D01*
X96044285Y-109827142D01*
X96091904Y-109874761D01*
X96187142Y-109922380D01*
X96282380Y-109922380D01*
X96377619Y-109874761D01*
X96425238Y-109827142D01*
X96472857Y-109731904D01*
X96520476Y-109541428D01*
X96520476Y-109303333D01*
X96472857Y-109112857D01*
X96425238Y-109017619D01*
X96377619Y-108970000D01*
X96282380Y-108922380D01*
X94330000Y-109922380D02*
X94330000Y-108922380D01*
X94330000Y-109874761D02*
X94425238Y-109922380D01*
X94615714Y-109922380D01*
X94710952Y-109874761D01*
X94758571Y-109827142D01*
X94806190Y-109731904D01*
X94806190Y-109446190D01*
X94758571Y-109350952D01*
X94710952Y-109303333D01*
X94615714Y-109255714D01*
X94425238Y-109255714D01*
X94330000Y-109303333D01*
X93520476Y-109398571D02*
X93377619Y-109446190D01*
X93330000Y-109493809D01*
X93282380Y-109589047D01*
X93282380Y-109731904D01*
X93330000Y-109827142D01*
X93377619Y-109874761D01*
X93472857Y-109922380D01*
X93853809Y-109922380D01*
X93853809Y-108922380D01*
X93520476Y-108922380D01*
X93425238Y-108970000D01*
X93377619Y-109017619D01*
X93330000Y-109112857D01*
X93330000Y-109208095D01*
X93377619Y-109303333D01*
X93425238Y-109350952D01*
X93520476Y-109398571D01*
X93853809Y-109398571D01*
X92091904Y-109922380D02*
X92091904Y-108922380D01*
X91853809Y-108922380D01*
X91710952Y-108970000D01*
X91615714Y-109065238D01*
X91568095Y-109160476D01*
X91520476Y-109350952D01*
X91520476Y-109493809D01*
X91568095Y-109684285D01*
X91615714Y-109779523D01*
X91710952Y-109874761D01*
X91853809Y-109922380D01*
X92091904Y-109922380D01*
X91091904Y-109922380D02*
X91091904Y-109255714D01*
X91091904Y-108922380D02*
X91139523Y-108970000D01*
X91091904Y-109017619D01*
X91044285Y-108970000D01*
X91091904Y-108922380D01*
X91091904Y-109017619D01*
X90615714Y-109922380D02*
X90615714Y-109255714D01*
X90615714Y-109446190D02*
X90568095Y-109350952D01*
X90520476Y-109303333D01*
X90425238Y-109255714D01*
X90330000Y-109255714D01*
X89615714Y-109874761D02*
X89710952Y-109922380D01*
X89901428Y-109922380D01*
X89996666Y-109874761D01*
X90044285Y-109779523D01*
X90044285Y-109398571D01*
X89996666Y-109303333D01*
X89901428Y-109255714D01*
X89710952Y-109255714D01*
X89615714Y-109303333D01*
X89568095Y-109398571D01*
X89568095Y-109493809D01*
X90044285Y-109589047D01*
X88710952Y-109874761D02*
X88806190Y-109922380D01*
X88996666Y-109922380D01*
X89091904Y-109874761D01*
X89139523Y-109827142D01*
X89187142Y-109731904D01*
X89187142Y-109446190D01*
X89139523Y-109350952D01*
X89091904Y-109303333D01*
X88996666Y-109255714D01*
X88806190Y-109255714D01*
X88710952Y-109303333D01*
X88425238Y-109255714D02*
X88044285Y-109255714D01*
X88282380Y-108922380D02*
X88282380Y-109779523D01*
X88234761Y-109874761D01*
X88139523Y-109922380D01*
X88044285Y-109922380D01*
X87710952Y-109922380D02*
X87710952Y-109255714D01*
X87710952Y-108922380D02*
X87758571Y-108970000D01*
X87710952Y-109017619D01*
X87663333Y-108970000D01*
X87710952Y-108922380D01*
X87710952Y-109017619D01*
X87091904Y-109922380D02*
X87187142Y-109874761D01*
X87234761Y-109827142D01*
X87282380Y-109731904D01*
X87282380Y-109446190D01*
X87234761Y-109350952D01*
X87187142Y-109303333D01*
X87091904Y-109255714D01*
X86949047Y-109255714D01*
X86853809Y-109303333D01*
X86806190Y-109350952D01*
X86758571Y-109446190D01*
X86758571Y-109731904D01*
X86806190Y-109827142D01*
X86853809Y-109874761D01*
X86949047Y-109922380D01*
X87091904Y-109922380D01*
X86330000Y-109255714D02*
X86330000Y-109922380D01*
X86330000Y-109350952D02*
X86282380Y-109303333D01*
X86187142Y-109255714D01*
X86044285Y-109255714D01*
X85949047Y-109303333D01*
X85901428Y-109398571D01*
X85901428Y-109922380D01*
X84996666Y-109922380D02*
X84996666Y-109398571D01*
X85044285Y-109303333D01*
X85139523Y-109255714D01*
X85330000Y-109255714D01*
X85425238Y-109303333D01*
X84996666Y-109874761D02*
X85091904Y-109922380D01*
X85330000Y-109922380D01*
X85425238Y-109874761D01*
X85472857Y-109779523D01*
X85472857Y-109684285D01*
X85425238Y-109589047D01*
X85330000Y-109541428D01*
X85091904Y-109541428D01*
X84996666Y-109493809D01*
X84377619Y-109922380D02*
X84472857Y-109874761D01*
X84520476Y-109779523D01*
X84520476Y-108922380D01*
X82663333Y-109827142D02*
X82710952Y-109874761D01*
X82853809Y-109922380D01*
X82949047Y-109922380D01*
X83091904Y-109874761D01*
X83187142Y-109779523D01*
X83234761Y-109684285D01*
X83282380Y-109493809D01*
X83282380Y-109350952D01*
X83234761Y-109160476D01*
X83187142Y-109065238D01*
X83091904Y-108970000D01*
X82949047Y-108922380D01*
X82853809Y-108922380D01*
X82710952Y-108970000D01*
X82663333Y-109017619D01*
X82091904Y-109922380D02*
X82187142Y-109874761D01*
X82234761Y-109827142D01*
X82282380Y-109731904D01*
X82282380Y-109446190D01*
X82234761Y-109350952D01*
X82187142Y-109303333D01*
X82091904Y-109255714D01*
X81949047Y-109255714D01*
X81853809Y-109303333D01*
X81806190Y-109350952D01*
X81758571Y-109446190D01*
X81758571Y-109731904D01*
X81806190Y-109827142D01*
X81853809Y-109874761D01*
X81949047Y-109922380D01*
X82091904Y-109922380D01*
X80901428Y-109255714D02*
X80901428Y-109922380D01*
X81330000Y-109255714D02*
X81330000Y-109779523D01*
X81282380Y-109874761D01*
X81187142Y-109922380D01*
X81044285Y-109922380D01*
X80949047Y-109874761D01*
X80901428Y-109827142D01*
X80425238Y-109255714D02*
X80425238Y-110255714D01*
X80425238Y-109303333D02*
X80330000Y-109255714D01*
X80139523Y-109255714D01*
X80044285Y-109303333D01*
X79996666Y-109350952D01*
X79949047Y-109446190D01*
X79949047Y-109731904D01*
X79996666Y-109827142D01*
X80044285Y-109874761D01*
X80139523Y-109922380D01*
X80330000Y-109922380D01*
X80425238Y-109874761D01*
X79377619Y-109922380D02*
X79472857Y-109874761D01*
X79520476Y-109779523D01*
X79520476Y-108922380D01*
X78615714Y-109874761D02*
X78710952Y-109922380D01*
X78901428Y-109922380D01*
X78996666Y-109874761D01*
X79044285Y-109779523D01*
X79044285Y-109398571D01*
X78996666Y-109303333D01*
X78901428Y-109255714D01*
X78710952Y-109255714D01*
X78615714Y-109303333D01*
X78568095Y-109398571D01*
X78568095Y-109493809D01*
X79044285Y-109589047D01*
X78139523Y-109922380D02*
X78139523Y-109255714D01*
X78139523Y-109446190D02*
X78091904Y-109350952D01*
X78044285Y-109303333D01*
X77949047Y-109255714D01*
X77853809Y-109255714D01*
X95449047Y-111572380D02*
X95449047Y-110572380D01*
X95449047Y-111048571D02*
X94877619Y-111048571D01*
X94877619Y-111572380D02*
X94877619Y-110572380D01*
X93972857Y-110905714D02*
X93972857Y-111572380D01*
X94401428Y-110905714D02*
X94401428Y-111429523D01*
X94353809Y-111524761D01*
X94258571Y-111572380D01*
X94115714Y-111572380D01*
X94020476Y-111524761D01*
X93972857Y-111477142D01*
X93544285Y-111524761D02*
X93449047Y-111572380D01*
X93258571Y-111572380D01*
X93163333Y-111524761D01*
X93115714Y-111429523D01*
X93115714Y-111381904D01*
X93163333Y-111286666D01*
X93258571Y-111239047D01*
X93401428Y-111239047D01*
X93496666Y-111191428D01*
X93544285Y-111096190D01*
X93544285Y-111048571D01*
X93496666Y-110953333D01*
X93401428Y-110905714D01*
X93258571Y-110905714D01*
X93163333Y-110953333D01*
X92687142Y-111572380D02*
X92687142Y-110572380D01*
X92591904Y-111191428D02*
X92306190Y-111572380D01*
X92306190Y-110905714D02*
X92687142Y-111286666D01*
X91972857Y-110905714D02*
X91734761Y-111572380D01*
X91496666Y-110905714D02*
X91734761Y-111572380D01*
X91830000Y-111810476D01*
X91877619Y-111858095D01*
X91972857Y-111905714D01*
X90401428Y-111524761D02*
X90258571Y-111572380D01*
X90020476Y-111572380D01*
X89925238Y-111524761D01*
X89877619Y-111477142D01*
X89830000Y-111381904D01*
X89830000Y-111286666D01*
X89877619Y-111191428D01*
X89925238Y-111143809D01*
X90020476Y-111096190D01*
X90210952Y-111048571D01*
X90306190Y-111000952D01*
X90353809Y-110953333D01*
X90401428Y-110858095D01*
X90401428Y-110762857D01*
X90353809Y-110667619D01*
X90306190Y-110620000D01*
X90210952Y-110572380D01*
X89972857Y-110572380D01*
X89830000Y-110620000D01*
X88972857Y-111572380D02*
X88972857Y-111048571D01*
X89020476Y-110953333D01*
X89115714Y-110905714D01*
X89306190Y-110905714D01*
X89401428Y-110953333D01*
X88972857Y-111524761D02*
X89068095Y-111572380D01*
X89306190Y-111572380D01*
X89401428Y-111524761D01*
X89449047Y-111429523D01*
X89449047Y-111334285D01*
X89401428Y-111239047D01*
X89306190Y-111191428D01*
X89068095Y-111191428D01*
X88972857Y-111143809D01*
X88639523Y-110905714D02*
X88258571Y-110905714D01*
X88496666Y-110572380D02*
X88496666Y-111429523D01*
X88449047Y-111524761D01*
X88353809Y-111572380D01*
X88258571Y-111572380D01*
X87544285Y-111524761D02*
X87639523Y-111572380D01*
X87830000Y-111572380D01*
X87925238Y-111524761D01*
X87972857Y-111429523D01*
X87972857Y-111048571D01*
X87925238Y-110953333D01*
X87830000Y-110905714D01*
X87639523Y-110905714D01*
X87544285Y-110953333D01*
X87496666Y-111048571D01*
X87496666Y-111143809D01*
X87972857Y-111239047D01*
X86925238Y-111572380D02*
X87020476Y-111524761D01*
X87068095Y-111429523D01*
X87068095Y-110572380D01*
X86401428Y-111572380D02*
X86496666Y-111524761D01*
X86544285Y-111429523D01*
X86544285Y-110572380D01*
X86020476Y-111572380D02*
X86020476Y-110905714D01*
X86020476Y-110572380D02*
X86068095Y-110620000D01*
X86020476Y-110667619D01*
X85972857Y-110620000D01*
X86020476Y-110572380D01*
X86020476Y-110667619D01*
X85687142Y-110905714D02*
X85306190Y-110905714D01*
X85544285Y-110572380D02*
X85544285Y-111429523D01*
X85496666Y-111524761D01*
X85401428Y-111572380D01*
X85306190Y-111572380D01*
X84591904Y-111524761D02*
X84687142Y-111572380D01*
X84877619Y-111572380D01*
X84972857Y-111524761D01*
X85020476Y-111429523D01*
X85020476Y-111048571D01*
X84972857Y-110953333D01*
X84877619Y-110905714D01*
X84687142Y-110905714D01*
X84591904Y-110953333D01*
X84544285Y-111048571D01*
X84544285Y-111143809D01*
X85020476Y-111239047D01*
X82877619Y-111572380D02*
X83353809Y-111572380D01*
X83353809Y-110572380D01*
X82115714Y-111572380D02*
X82115714Y-111048571D01*
X82163333Y-110953333D01*
X82258571Y-110905714D01*
X82449047Y-110905714D01*
X82544285Y-110953333D01*
X82115714Y-111524761D02*
X82210952Y-111572380D01*
X82449047Y-111572380D01*
X82544285Y-111524761D01*
X82591904Y-111429523D01*
X82591904Y-111334285D01*
X82544285Y-111239047D01*
X82449047Y-111191428D01*
X82210952Y-111191428D01*
X82115714Y-111143809D01*
X81639523Y-111572380D02*
X81639523Y-110572380D01*
X81639523Y-110953333D02*
X81544285Y-110905714D01*
X81353809Y-110905714D01*
X81258571Y-110953333D01*
X81210952Y-111000952D01*
X81163333Y-111096190D01*
X81163333Y-111381904D01*
X81210952Y-111477142D01*
X81258571Y-111524761D01*
X81353809Y-111572380D01*
X81544285Y-111572380D01*
X81639523Y-111524761D01*
X100377619Y-113222380D02*
X100377619Y-112222380D01*
X100139523Y-112222380D01*
X99996666Y-112270000D01*
X99901428Y-112365238D01*
X99853809Y-112460476D01*
X99806190Y-112650952D01*
X99806190Y-112793809D01*
X99853809Y-112984285D01*
X99901428Y-113079523D01*
X99996666Y-113174761D01*
X100139523Y-113222380D01*
X100377619Y-113222380D01*
X98996666Y-113174761D02*
X99091904Y-113222380D01*
X99282380Y-113222380D01*
X99377619Y-113174761D01*
X99425238Y-113079523D01*
X99425238Y-112698571D01*
X99377619Y-112603333D01*
X99282380Y-112555714D01*
X99091904Y-112555714D01*
X98996666Y-112603333D01*
X98949047Y-112698571D01*
X98949047Y-112793809D01*
X99425238Y-112889047D01*
X98568095Y-113174761D02*
X98472857Y-113222380D01*
X98282380Y-113222380D01*
X98187142Y-113174761D01*
X98139523Y-113079523D01*
X98139523Y-113031904D01*
X98187142Y-112936666D01*
X98282380Y-112889047D01*
X98425238Y-112889047D01*
X98520476Y-112841428D01*
X98568095Y-112746190D01*
X98568095Y-112698571D01*
X98520476Y-112603333D01*
X98425238Y-112555714D01*
X98282380Y-112555714D01*
X98187142Y-112603333D01*
X97710952Y-113222380D02*
X97710952Y-112555714D01*
X97710952Y-112222380D02*
X97758571Y-112270000D01*
X97710952Y-112317619D01*
X97663333Y-112270000D01*
X97710952Y-112222380D01*
X97710952Y-112317619D01*
X96806190Y-112555714D02*
X96806190Y-113365238D01*
X96853809Y-113460476D01*
X96901428Y-113508095D01*
X96996666Y-113555714D01*
X97139523Y-113555714D01*
X97234761Y-113508095D01*
X96806190Y-113174761D02*
X96901428Y-113222380D01*
X97091904Y-113222380D01*
X97187142Y-113174761D01*
X97234761Y-113127142D01*
X97282380Y-113031904D01*
X97282380Y-112746190D01*
X97234761Y-112650952D01*
X97187142Y-112603333D01*
X97091904Y-112555714D01*
X96901428Y-112555714D01*
X96806190Y-112603333D01*
X96330000Y-112555714D02*
X96330000Y-113222380D01*
X96330000Y-112650952D02*
X96282380Y-112603333D01*
X96187142Y-112555714D01*
X96044285Y-112555714D01*
X95949047Y-112603333D01*
X95901428Y-112698571D01*
X95901428Y-113222380D01*
X95044285Y-113174761D02*
X95139523Y-113222380D01*
X95330000Y-113222380D01*
X95425238Y-113174761D01*
X95472857Y-113079523D01*
X95472857Y-112698571D01*
X95425238Y-112603333D01*
X95330000Y-112555714D01*
X95139523Y-112555714D01*
X95044285Y-112603333D01*
X94996666Y-112698571D01*
X94996666Y-112793809D01*
X95472857Y-112889047D01*
X94139523Y-113222380D02*
X94139523Y-112222380D01*
X94139523Y-113174761D02*
X94234761Y-113222380D01*
X94425238Y-113222380D01*
X94520476Y-113174761D01*
X94568095Y-113127142D01*
X94615714Y-113031904D01*
X94615714Y-112746190D01*
X94568095Y-112650952D01*
X94520476Y-112603333D01*
X94425238Y-112555714D01*
X94234761Y-112555714D01*
X94139523Y-112603333D01*
X92901428Y-113222380D02*
X92901428Y-112222380D01*
X92901428Y-112603333D02*
X92806190Y-112555714D01*
X92615714Y-112555714D01*
X92520476Y-112603333D01*
X92472857Y-112650952D01*
X92425238Y-112746190D01*
X92425238Y-113031904D01*
X92472857Y-113127142D01*
X92520476Y-113174761D01*
X92615714Y-113222380D01*
X92806190Y-113222380D01*
X92901428Y-113174761D01*
X92091904Y-112555714D02*
X91853809Y-113222380D01*
X91615714Y-112555714D02*
X91853809Y-113222380D01*
X91949047Y-113460476D01*
X91996666Y-113508095D01*
X92091904Y-113555714D01*
X90472857Y-113222380D02*
X90472857Y-112222380D01*
X89901428Y-113222380D02*
X90330000Y-112650952D01*
X89901428Y-112222380D02*
X90472857Y-112793809D01*
X89044285Y-113222380D02*
X89044285Y-112698571D01*
X89091904Y-112603333D01*
X89187142Y-112555714D01*
X89377619Y-112555714D01*
X89472857Y-112603333D01*
X89044285Y-113174761D02*
X89139523Y-113222380D01*
X89377619Y-113222380D01*
X89472857Y-113174761D01*
X89520476Y-113079523D01*
X89520476Y-112984285D01*
X89472857Y-112889047D01*
X89377619Y-112841428D01*
X89139523Y-112841428D01*
X89044285Y-112793809D01*
X88710952Y-112555714D02*
X88330000Y-112555714D01*
X88568095Y-112222380D02*
X88568095Y-113079523D01*
X88520476Y-113174761D01*
X88425238Y-113222380D01*
X88330000Y-113222380D01*
X87996666Y-113222380D02*
X87996666Y-112222380D01*
X87568095Y-113222380D02*
X87568095Y-112698571D01*
X87615714Y-112603333D01*
X87710952Y-112555714D01*
X87853809Y-112555714D01*
X87949047Y-112603333D01*
X87996666Y-112650952D01*
X86663333Y-113222380D02*
X86663333Y-112698571D01*
X86710952Y-112603333D01*
X86806190Y-112555714D01*
X86996666Y-112555714D01*
X87091904Y-112603333D01*
X86663333Y-113174761D02*
X86758571Y-113222380D01*
X86996666Y-113222380D01*
X87091904Y-113174761D01*
X87139523Y-113079523D01*
X87139523Y-112984285D01*
X87091904Y-112889047D01*
X86996666Y-112841428D01*
X86758571Y-112841428D01*
X86663333Y-112793809D01*
X86187142Y-113222380D02*
X86187142Y-112555714D01*
X86187142Y-112746190D02*
X86139523Y-112650952D01*
X86091904Y-112603333D01*
X85996666Y-112555714D01*
X85901428Y-112555714D01*
X85568095Y-113222380D02*
X85568095Y-112555714D01*
X85568095Y-112222380D02*
X85615714Y-112270000D01*
X85568095Y-112317619D01*
X85520476Y-112270000D01*
X85568095Y-112222380D01*
X85568095Y-112317619D01*
X85091904Y-112555714D02*
X85091904Y-113222380D01*
X85091904Y-112650952D02*
X85044285Y-112603333D01*
X84949047Y-112555714D01*
X84806190Y-112555714D01*
X84710952Y-112603333D01*
X84663333Y-112698571D01*
X84663333Y-113222380D01*
X83806190Y-113174761D02*
X83901428Y-113222380D01*
X84091904Y-113222380D01*
X84187142Y-113174761D01*
X84234761Y-113079523D01*
X84234761Y-112698571D01*
X84187142Y-112603333D01*
X84091904Y-112555714D01*
X83901428Y-112555714D01*
X83806190Y-112603333D01*
X83758571Y-112698571D01*
X83758571Y-112793809D01*
X84234761Y-112889047D01*
X82091904Y-113222380D02*
X82568095Y-113222380D01*
X82568095Y-112222380D01*
X81330000Y-112555714D02*
X81330000Y-113222380D01*
X81758571Y-112555714D02*
X81758571Y-113079523D01*
X81710952Y-113174761D01*
X81615714Y-113222380D01*
X81472857Y-113222380D01*
X81377619Y-113174761D01*
X81330000Y-113127142D01*
X80853809Y-112555714D02*
X80853809Y-113222380D01*
X80853809Y-112650952D02*
X80806190Y-112603333D01*
X80710952Y-112555714D01*
X80568095Y-112555714D01*
X80472857Y-112603333D01*
X80425238Y-112698571D01*
X80425238Y-113222380D01*
X79520476Y-113222380D02*
X79520476Y-112222380D01*
X79520476Y-113174761D02*
X79615714Y-113222380D01*
X79806190Y-113222380D01*
X79901428Y-113174761D01*
X79949047Y-113127142D01*
X79996666Y-113031904D01*
X79996666Y-112746190D01*
X79949047Y-112650952D01*
X79901428Y-112603333D01*
X79806190Y-112555714D01*
X79615714Y-112555714D01*
X79520476Y-112603333D01*
X79044285Y-113222380D02*
X79044285Y-112222380D01*
X79044285Y-112603333D02*
X78949047Y-112555714D01*
X78758571Y-112555714D01*
X78663333Y-112603333D01*
X78615714Y-112650952D01*
X78568095Y-112746190D01*
X78568095Y-113031904D01*
X78615714Y-113127142D01*
X78663333Y-113174761D01*
X78758571Y-113222380D01*
X78949047Y-113222380D01*
X79044285Y-113174761D01*
X77996666Y-113222380D02*
X78091904Y-113174761D01*
X78139523Y-113079523D01*
X78139523Y-112222380D01*
X77187142Y-113222380D02*
X77187142Y-112698571D01*
X77234761Y-112603333D01*
X77330000Y-112555714D01*
X77520476Y-112555714D01*
X77615714Y-112603333D01*
X77187142Y-113174761D02*
X77282380Y-113222380D01*
X77520476Y-113222380D01*
X77615714Y-113174761D01*
X77663333Y-113079523D01*
X77663333Y-112984285D01*
X77615714Y-112889047D01*
X77520476Y-112841428D01*
X77282380Y-112841428D01*
X77187142Y-112793809D01*
X76282380Y-113222380D02*
X76282380Y-112222380D01*
X76282380Y-113174761D02*
X76377619Y-113222380D01*
X76568095Y-113222380D01*
X76663333Y-113174761D01*
X76710952Y-113127142D01*
X76758571Y-113031904D01*
X76758571Y-112746190D01*
X76710952Y-112650952D01*
X76663333Y-112603333D01*
X76568095Y-112555714D01*
X76377619Y-112555714D01*
X76282380Y-112603333D01*
M02*
