G04 #@! TF.GenerationSoftware,KiCad,Pcbnew,5.1.8-db9833491~88~ubuntu20.04.1*
G04 #@! TF.CreationDate,2021-03-01T03:43:11-08:00*
G04 #@! TF.ProjectId,directional_coupler20dB,64697265-6374-4696-9f6e-616c5f636f75,rev?*
G04 #@! TF.SameCoordinates,Original*
G04 #@! TF.FileFunction,Legend,Top*
G04 #@! TF.FilePolarity,Positive*
%FSLAX46Y46*%
G04 Gerber Fmt 4.6, Leading zero omitted, Abs format (unit mm)*
G04 Created by KiCad (PCBNEW 5.1.8-db9833491~88~ubuntu20.04.1) date 2021-03-01 03:43:11*
%MOMM*%
%LPD*%
G01*
G04 APERTURE LIST*
%ADD10C,0.150000*%
G04 APERTURE END LIST*
G04 #@! TO.C,U1*
D10*
X63182380Y-137021904D02*
X63991904Y-137021904D01*
X64087142Y-136974285D01*
X64134761Y-136926666D01*
X64182380Y-136831428D01*
X64182380Y-136640952D01*
X64134761Y-136545714D01*
X64087142Y-136498095D01*
X63991904Y-136450476D01*
X63182380Y-136450476D01*
X64182380Y-135450476D02*
X64182380Y-136021904D01*
X64182380Y-135736190D02*
X63182380Y-135736190D01*
X63325238Y-135831428D01*
X63420476Y-135926666D01*
X63468095Y-136021904D01*
G04 #@! TO.C,U4*
X100548095Y-160362380D02*
X100548095Y-161171904D01*
X100595714Y-161267142D01*
X100643333Y-161314761D01*
X100738571Y-161362380D01*
X100929047Y-161362380D01*
X101024285Y-161314761D01*
X101071904Y-161267142D01*
X101119523Y-161171904D01*
X101119523Y-160362380D01*
X102024285Y-160695714D02*
X102024285Y-161362380D01*
X101786190Y-160314761D02*
X101548095Y-161029047D01*
X102167142Y-161029047D01*
G04 #@! TO.C,U2*
X78048095Y-160462380D02*
X78048095Y-161271904D01*
X78095714Y-161367142D01*
X78143333Y-161414761D01*
X78238571Y-161462380D01*
X78429047Y-161462380D01*
X78524285Y-161414761D01*
X78571904Y-161367142D01*
X78619523Y-161271904D01*
X78619523Y-160462380D01*
X79048095Y-160557619D02*
X79095714Y-160510000D01*
X79190952Y-160462380D01*
X79429047Y-160462380D01*
X79524285Y-160510000D01*
X79571904Y-160557619D01*
X79619523Y-160652857D01*
X79619523Y-160748095D01*
X79571904Y-160890952D01*
X79000476Y-161462380D01*
X79619523Y-161462380D01*
G04 #@! TO.C,U1*
X114932380Y-136831904D02*
X115741904Y-136831904D01*
X115837142Y-136784285D01*
X115884761Y-136736666D01*
X115932380Y-136641428D01*
X115932380Y-136450952D01*
X115884761Y-136355714D01*
X115837142Y-136308095D01*
X115741904Y-136260476D01*
X114932380Y-136260476D01*
X115932380Y-135260476D02*
X115932380Y-135831904D01*
X115932380Y-135546190D02*
X114932380Y-135546190D01*
X115075238Y-135641428D01*
X115170476Y-135736666D01*
X115218095Y-135831904D01*
G04 #@! TO.C,U4*
X149108095Y-160462380D02*
X149108095Y-161271904D01*
X149155714Y-161367142D01*
X149203333Y-161414761D01*
X149298571Y-161462380D01*
X149489047Y-161462380D01*
X149584285Y-161414761D01*
X149631904Y-161367142D01*
X149679523Y-161271904D01*
X149679523Y-160462380D01*
X150584285Y-160795714D02*
X150584285Y-161462380D01*
X150346190Y-160414761D02*
X150108095Y-161129047D01*
X150727142Y-161129047D01*
G04 #@! TO.C,U2*
X125818095Y-160412380D02*
X125818095Y-161221904D01*
X125865714Y-161317142D01*
X125913333Y-161364761D01*
X126008571Y-161412380D01*
X126199047Y-161412380D01*
X126294285Y-161364761D01*
X126341904Y-161317142D01*
X126389523Y-161221904D01*
X126389523Y-160412380D01*
X126818095Y-160507619D02*
X126865714Y-160460000D01*
X126960952Y-160412380D01*
X127199047Y-160412380D01*
X127294285Y-160460000D01*
X127341904Y-160507619D01*
X127389523Y-160602857D01*
X127389523Y-160698095D01*
X127341904Y-160840952D01*
X126770476Y-161412380D01*
X127389523Y-161412380D01*
G04 #@! TO.C,U1*
X114582380Y-104031904D02*
X115391904Y-104031904D01*
X115487142Y-103984285D01*
X115534761Y-103936666D01*
X115582380Y-103841428D01*
X115582380Y-103650952D01*
X115534761Y-103555714D01*
X115487142Y-103508095D01*
X115391904Y-103460476D01*
X114582380Y-103460476D01*
X115582380Y-102460476D02*
X115582380Y-103031904D01*
X115582380Y-102746190D02*
X114582380Y-102746190D01*
X114725238Y-102841428D01*
X114820476Y-102936666D01*
X114868095Y-103031904D01*
G04 #@! TO.C,U2*
X125758095Y-125402380D02*
X125758095Y-126211904D01*
X125805714Y-126307142D01*
X125853333Y-126354761D01*
X125948571Y-126402380D01*
X126139047Y-126402380D01*
X126234285Y-126354761D01*
X126281904Y-126307142D01*
X126329523Y-126211904D01*
X126329523Y-125402380D01*
X126758095Y-125497619D02*
X126805714Y-125450000D01*
X126900952Y-125402380D01*
X127139047Y-125402380D01*
X127234285Y-125450000D01*
X127281904Y-125497619D01*
X127329523Y-125592857D01*
X127329523Y-125688095D01*
X127281904Y-125830952D01*
X126710476Y-126402380D01*
X127329523Y-126402380D01*
G04 #@! TO.C,U4*
X148648095Y-125352380D02*
X148648095Y-126161904D01*
X148695714Y-126257142D01*
X148743333Y-126304761D01*
X148838571Y-126352380D01*
X149029047Y-126352380D01*
X149124285Y-126304761D01*
X149171904Y-126257142D01*
X149219523Y-126161904D01*
X149219523Y-125352380D01*
X150124285Y-125685714D02*
X150124285Y-126352380D01*
X149886190Y-125304761D02*
X149648095Y-126019047D01*
X150267142Y-126019047D01*
G04 #@! TO.C,U1*
X63122380Y-103981904D02*
X63931904Y-103981904D01*
X64027142Y-103934285D01*
X64074761Y-103886666D01*
X64122380Y-103791428D01*
X64122380Y-103600952D01*
X64074761Y-103505714D01*
X64027142Y-103458095D01*
X63931904Y-103410476D01*
X63122380Y-103410476D01*
X64122380Y-102410476D02*
X64122380Y-102981904D01*
X64122380Y-102696190D02*
X63122380Y-102696190D01*
X63265238Y-102791428D01*
X63360476Y-102886666D01*
X63408095Y-102981904D01*
G04 #@! TO.C,U2*
X78868095Y-125462380D02*
X78868095Y-126271904D01*
X78915714Y-126367142D01*
X78963333Y-126414761D01*
X79058571Y-126462380D01*
X79249047Y-126462380D01*
X79344285Y-126414761D01*
X79391904Y-126367142D01*
X79439523Y-126271904D01*
X79439523Y-125462380D01*
X79868095Y-125557619D02*
X79915714Y-125510000D01*
X80010952Y-125462380D01*
X80249047Y-125462380D01*
X80344285Y-125510000D01*
X80391904Y-125557619D01*
X80439523Y-125652857D01*
X80439523Y-125748095D01*
X80391904Y-125890952D01*
X79820476Y-126462380D01*
X80439523Y-126462380D01*
G04 #@! TO.C,U4*
X97178095Y-125472380D02*
X97178095Y-126281904D01*
X97225714Y-126377142D01*
X97273333Y-126424761D01*
X97368571Y-126472380D01*
X97559047Y-126472380D01*
X97654285Y-126424761D01*
X97701904Y-126377142D01*
X97749523Y-126281904D01*
X97749523Y-125472380D01*
X98654285Y-125805714D02*
X98654285Y-126472380D01*
X98416190Y-125424761D02*
X98178095Y-126139047D01*
X98797142Y-126139047D01*
G04 #@! TD*
M02*
