M48
; DRILL file {KiCad 5.1.8-db9833491~88~ubuntu20.04.1} date Mon Mar  1 02:50:12 2021
; FORMAT={-:-/ absolute / metric / decimal}
; #@! TF.CreationDate,2021-03-01T02:50:12-08:00
; #@! TF.GenerationSoftware,Kicad,Pcbnew,5.1.8-db9833491~88~ubuntu20.04.1
FMAT,2
METRIC
T1C0.700
%
G90
G05
T1
X74.61Y-154.93
X74.61Y-157.43
X83.01Y-154.93
X83.01Y-157.43
X122.38Y-154.88
X122.38Y-157.38
X130.78Y-154.88
X130.78Y-157.38
X106.45Y-132.03
X106.45Y-140.43
X108.95Y-132.03
X108.95Y-140.43
X145.21Y-119.82
X145.21Y-122.32
X153.61Y-119.82
X153.61Y-122.32
X118.71Y-99.07
X118.71Y-107.47
X121.21Y-99.07
X121.21Y-107.47
X67.82Y-99.02
X67.82Y-107.42
X70.32Y-99.02
X70.32Y-107.42
X122.32Y-119.87
X122.32Y-122.37
X130.72Y-119.87
X130.72Y-122.37
X97.11Y-154.83
X97.11Y-157.33
X105.51Y-154.83
X105.51Y-157.33
X93.74Y-119.94
X93.74Y-122.44
X102.14Y-119.94
X102.14Y-122.44
X155.16Y-131.87
X155.16Y-140.27
X157.66Y-131.87
X157.66Y-140.27
X75.43Y-119.93
X75.43Y-122.43
X83.83Y-119.93
X83.83Y-122.43
X105.64Y-99.08
X105.64Y-107.48
X108.14Y-99.08
X108.14Y-107.48
X67.96Y-132.17
X67.96Y-140.57
X70.46Y-132.17
X70.46Y-140.57
X156.9Y-98.94
X156.9Y-107.34
X159.4Y-98.94
X159.4Y-107.34
X145.67Y-154.93
X145.67Y-157.43
X154.07Y-154.93
X154.07Y-157.43
X119.06Y-131.87
X119.06Y-140.27
X121.56Y-131.87
X121.56Y-140.27
T0
M30
